<?xml version="1.0" encoding="utf-8"?>
<!-- Generator: Adobe Illustrator 25.2.0, SVG Export Plug-In . SVG Version: 6.00 Build 0)  -->
<svg version="1.1"
	 id="svg2" xmlns:cc="http://creativecommons.org/ns#" xmlns:dc="http://purl.org/dc/elements/1.1/" xmlns:rdf="http://www.w3.org/1999/02/22-rdf-syntax-ns#" xmlns:svg="http://www.w3.org/2000/svg"
	 xmlns="http://www.w3.org/2000/svg" xmlns:xlink="http://www.w3.org/1999/xlink" x="0px" y="0px" viewBox="0 0 1003.8 410"
	 style="enable-background:new 0 0 1003.8 410;" xml:space="preserve">
<style type="text/css">
	.st0{fill:#F6C60C;}
</style>
<path id="path2987" class="st0" d="M201.1,409.2c-1.3-0.7-2.2-2.7-1.6-3.9c0.1-0.3,0.4-1.2,0.6-2.1c0.2-0.9,1.4-3,2.6-4.7
	c1.2-1.7,2.5-4,2.8-5s1-2.5,1.5-3.3c1.1-1.7,3.9-8.2,5.8-13.4c0.7-2,1.6-4.5,2-5.4s0.8-2,0.9-2.5c0.1-0.5,1-2,1.9-3.5
	c1.6-2.5,2.1-4.1,2.9-8.2c0.2-1,0.9-2.7,1.6-3.7c1.2-1.8,1.3-2.5,1.8-9.9c0.4-6.7,0.7-8.2,1.5-9.6c0.6-1,1.2-3,1.4-5.2
	c0.2-2,0.7-4.5,1.1-5.6c0.4-1.1,0.8-2.7,0.9-3.5c0.1-0.8,0.4-2.6,0.7-4s0.7-4.1,0.9-6.1c0.3-2.6,0.8-4.3,1.9-6.2
	c0.8-1.5,2.1-4.3,2.8-6.4c0.8-2,1.6-4,1.8-4.3s0.7-1.6,0.9-2.9c0.3-1.3,0.7-2.6,0.9-2.9s0.5-0.8,0.5-1c0.2-1,0.9-2.2,2.1-3.3
	c0.8-0.8,1.5-2.1,1.7-3.4c0.4-1.8,0.3-2.1-0.5-2.1c-0.6,0-0.9-0.3-1-1c-0.1-0.6-0.2-1.8-0.3-2.7c-0.2-1.6-0.1-1.6,1.1-1.4
	c0.7,0.1,1.6,0.1,2.1-0.2c1.1-0.6,1.8-4.4,0.9-5.4c-0.8-0.9-2.4-0.6-2.4,0.4c0,0.5-0.7,0.9-1.9,1.2c-1.4,0.3-1.8,0.6-1.9,1.4
	c0,0.5-0.2,1.1-0.5,1.2c-0.2,0.1-0.3-0.8-0.2-2c0.1-1.5,0.5-2.6,1.4-3.6c0.7-0.8,1.1-1.7,0.9-2.1c-0.6-1.5-0.7-2.1-0.1-2.1
	c0.3,0,0.6-0.3,0.6-0.8c0-0.4,0.3-0.9,0.6-1.1c0.3-0.1,0.6-0.8,0.6-1.5c0.1-1-0.1-1.2-0.8-1.2c-0.6,0.1-1.1,0.8-1.6,2.2
	c-0.8,2.5-3.5,5.2-4.6,4.8c-0.4-0.2-1-0.3-1.4-0.4s-0.9-0.3-1.2-0.6c-1.1-1-2.4-0.6-4,1.1c-0.8,0.9-2.5,2.4-3.8,3.2
	c-1.2,0.9-2.4,2-2.6,2.6c-0.2,0.5-1.2,2.2-2.2,3.8c-1.1,1.7-2,3.8-2.3,5.5c-0.3,1.5-1.1,3.8-1.8,5.2c-0.7,1.4-1.4,2.9-1.6,3.5
	c-0.2,0.6-1.3,2.2-2.5,3.7s-3.1,4-4.2,5.7c-2.4,3.7-3.6,5.4-5.3,7.6c-0.7,0.9-1.8,2.6-2.3,3.7c-3.8,7.4-4.6,9.1-4.7,9.7
	c0,0.4-0.7,1.8-1.5,3.1c-0.8,1.3-2,3.2-2.6,4.3c-1.4,2.3-2,3.1-4.3,5.5c-1,1-2.7,3.7-3.8,6c-1.1,2.2-2.3,4.5-2.8,5
	c-0.4,0.5-1,1.9-1.3,3c-1.5,6.7-6.9,11.1-9.9,8.1c-1.1-1.2-2.6-3.9-2.5-4.9c0.1-1.2,2.2-4,4.5-5.8c1.2-1,2.7-2.6,3.3-3.5
	s1.5-1.9,1.9-2.2c0.4-0.3,0.8-0.7,0.8-0.9c0.1-0.8,3.5-5.7,5.1-7.2s3.5-5.4,5-10.1c0.5-1.4,1.8-4,2.9-5.8c1.1-1.8,2.1-3.5,2.1-3.8
	c0-0.5,4.4-7.5,6.6-10.5c0.5-0.6,0.8-1.4,0.9-1.7c0-0.3,0.6-1,1.3-1.5c1.1-0.9,1.4-1.6,1.9-5.3c1-6.7,1.1-6.9,1.8-7.9
	c0.4-0.5,1.9-2.1,3.4-3.5c1.6-1.5,2.7-2.9,2.6-3.5c0-0.5,0.9-2.4,2.1-4.2c2.1-3.2,2.1-3.3,2-7.1c0-2.1,0.2-4.4,0.5-5.2
	c0.7-1.6,4.1-4.8,5.8-5.4c1.7-0.5,2.4-1.7,2.9-4.3c0.5-3.4,0.1-3.9-3.2-3.6c-5.2,0.4-9.9,2.6-10,4.8c0,0.4-0.3,0.7-0.5,0.9
	c-0.3,0.1-0.7,0.8-0.9,1.5c-0.4,1.2-0.8,1.4-2.5,1.2c-1.1-0.1-4.1,1.4-4.1,2.1c-0.1,0.8-4.8,8.1-6.4,9.8c-1.9,2-2.5,4.3-1.5,5.3
	c1.2,1.2,0.8,2.9-1.3,5c-1,1.1-2.6,2.9-3.4,4.1c-0.8,1.2-2.7,3.2-4.1,4.5c-1.4,1.2-3.2,3.1-3.9,4.1s-1.6,2-2,2.3
	c-0.6,0.4-0.8,0.3-0.7-0.6c0.1-1.5-4.1-3.1-8.3-3.3c-2.6-0.1-3.6,0.1-6.5,1.3c-4,1.6-5.7,3.3-7.7,8c-1.2,2.7-2,4-3.4,6
	c-0.2,0.3-2.8,2.6-5.8,5.2s-6.1,5.4-7,6.2c-2.4,2.3-4.8,5-4.8,5.2c0,0.1-0.9,1.1-1.9,2.3c-1,1.1-2.5,3.2-3.2,4.7
	c-0.8,1.6-1.7,2.7-2.3,2.8c-0.5,0.1-1.4,0.7-1.9,1.4c-0.5,0.7-1.8,1.4-2.9,1.7c-1.7,0.5-2.3,0.5-4.6-0.2c-2.9-0.8-3.5-1.7-3.4-4.8
	c0.1-1.7,0.4-2.1,3.2-4.3c1.7-1.3,3.4-2.4,3.8-2.3c0.4,0,0.7-0.1,0.7-0.3c0-0.2,0.8-0.7,1.7-1.1c2.3-1,4.5-2.8,5.9-4.7
	c0.6-0.8,1.4-1.7,1.9-1.8c0.4-0.2,1.4-1.3,2.2-2.6c0.8-1.3,2-2.6,2.7-3s1.5-1.4,1.7-2.3c0.2-0.8,0.9-1.9,1.4-2.5
	c2-1.9,4.6-6.3,5-8.6c0.7-3.3,4.3-9,7.1-11.3c1.8-1.4,3.2-2.8,7.1-7.1c1.5-1.7,3.4-3.5,4.1-4c0.7-0.5,1.7-1.7,2.2-2.6
	s2.2-2.6,3.8-3.9c1.6-1.2,3.2-2.7,3.5-3.3c0.3-0.6,1-1.5,1.4-2c1.2-1.5,1.1-2.4-0.4-5.1c-1.1-2-1.7-2.5-4-3.6
	c-1.5-0.7-2.9-1.6-3.1-2.1c-0.4-1.1,1.2-3.5,3.9-5.6c1.5-1.2,2.3-2.2,2.4-2.9c0.1-1.3,1-2.7,1.9-2.7c0.3,0,1.7-0.6,3-1.3
	s3.1-1.6,4.1-1.8c2-0.5,2.4-1.8,0.4-1.7c-0.6,0-1.1-0.1-1.1-0.4c0.1-0.8-1.8-0.6-3.7,0.4c-1,0.5-2.7,1.3-3.7,1.7
	c-2.4,0.9-6.8,4.7-9,7.6c-1.8,2.4-3.2,3.6-8.1,6.6c-1.7,1.1-3.4,2.5-3.9,3.2c-0.4,0.7-1.6,1.8-2.5,2.5c-4.2,2.9-8.4,6-9.2,7
	c-0.5,0.6-1.7,1.3-2.7,1.6c-1,0.3-2.5,1.3-3.4,2.2c-0.9,0.9-4.1,3.5-7.1,5.8c-5.2,4-5.6,4.2-9.3,5c-2.5,0.5-4.5,1.3-5.8,2.1
	c-1.1,0.7-2.6,1.6-3.3,1.8c-0.7,0.3-3.5,2.1-6.1,4c-6.2,4.5-9,6.2-9.6,5.9c-0.3-0.2-0.7-0.1-0.9,0.2c-0.6,0.8-3.8-2-4.1-3.5
	c-0.1-0.7,0-1.6,0.3-2.1c0.6-0.8,7.6-4.5,10.4-5.5c0.8-0.3,5.6-3.5,10.6-7.1c8.6-6.3,10.1-7.1,17.9-10.3c2.1-0.8,2.9-1.5,3.7-2.8
	c2-3.5,2.9-4.6,4.7-5.5c1-0.5,2.4-0.9,3-0.8c0.9,0,1.5-0.3,2.2-1.5c0.8-1.3,2.3-2.8,6.8-7c1.8-1.6,4.3-4.5,4.4-4.9
	c0-0.2,1.5-1.1,3.4-2.1c1.8-1,4.3-2.7,5.5-3.8c2.1-1.9,3.1-2.8,8-6.7c1.1-0.9,2.4-2.3,2.8-3.2l0.8-1.6l-2.4-2.2
	c-2.1-1.9-2.5-2.1-3.4-1.7c-1.6,0.7-2.6,0.5-3-0.7c-0.3-0.7-0.8-1.1-1.7-1.1c-0.7,0-2.7-0.5-4.5-1c-2.9-0.9-3.7-0.9-7.1-0.7
	c-2.1,0.2-5.2,0.5-6.8,0.7c-1.8,0.3-5.8,0.3-10.6,0.1c-8.9-0.4-11.4-0.1-14.5,2c-1.1,0.7-2.9,1.6-3.9,1.9c-1.1,0.3-2.7,1.1-3.7,1.7
	c-1.3,0.8-2.1,1.1-3.1,0.9c-0.8-0.1-3.2,0.1-5.4,0.6c-3,0.6-4.5,1.2-5.9,2.3c-2.8,2.1-5.5,2.7-13.1,2.6c-7.5-0.1-13,0.6-17.6,2
	c-1.8,0.6-3.5,1.1-3.7,1c-0.2,0-1.4,0.5-2.5,1c-3.7,1.8-9.1,0.9-9-1.6c0.1-1.1,1.5-2.8,3.2-3.7c1.1-0.6,2.5-0.7,6.3-0.7
	c5.4,0,6.2-0.2,9-2.2c2.4-1.7,5.7-2.8,9.1-3c1.5-0.1,3.4-0.3,4.3-0.6s2.7-0.6,4-0.7c1.8-0.1,3.3-0.7,5.5-2c1.7-1,3.2-1.9,3.3-2.1
	c0.1-0.2,0.5-0.4,0.9-0.3c0.4,0,1.7-0.6,3-1.5c1.3-0.8,3.3-1.9,4.5-2.3c6.5-2.5,6.7-2.5,13.4-2.6c7.3,0,9.5-0.6,14.7-3.7
	c1.6-1,3.3-1.8,3.9-2c0.5-0.1,0.9-0.6,1-1.1c0.1-0.9-2.5-3.3-4-3.7c-0.5-0.1-1-0.6-1.1-1.1s-0.5-0.9-0.9-0.9
	c-1.5-0.1-2.5-0.5-3.8-1.2c-1.2-0.7-9.9-3.3-13.4-3.9c-0.9-0.2-2.2,0.1-3.7,0.7c-1.2,0.5-3.7,1.2-5.4,1.5c-1.7,0.3-3.9,0.9-4.9,1.3
	c-1,0.4-2.3,0.7-2.9,0.7s-1.8,0.2-2.5,0.5c-0.8,0.3-2.3,0.7-3.4,1c-1.1,0.2-3,1-4.2,1.8c-1.2,0.7-4.8,2.3-8,3.4
	c-3.2,1.1-7,2.7-8.7,3.5c-2.8,1.4-3,1.4-6.3,1c-1.8-0.2-6.1-0.6-9.5-0.8c-5.1-0.3-6.7-0.3-9.3,0.3c-1.7,0.4-3.8,0.6-4.7,0.5
	c-0.8-0.1-3.8-0.5-6.7-0.9c-2.8-0.4-6.9-0.9-9-1.2s-4.7-0.8-5.8-1.1c-2.4-0.7-6.1-0.6-10.4,0.2c-3.9,0.8-5.7,0.4-6.9-1.5
	c-1.8-2.7-0.9-4.5,3.3-6.3c2.2-0.9,2.9-1,7.3-0.8c2.7,0.1,5.4,0.4,6.1,0.7c1.6,0.6,11.5,0.3,13.1-0.3c0.6-0.2,2.2-0.4,3.6-0.3
	c1.3,0,3.6-0.2,5.1-0.6c1.4-0.4,5.5-0.8,9.1-0.9c3.6-0.1,6.7-0.4,7-0.6c0.3-0.2,2-0.7,3.7-1.1c1.7-0.4,4.2-1.3,5.5-1.9
	c4.9-2.4,6.1-2.7,13.9-3.2c2.2-0.1,5.2-0.6,6.5-1c1.4-0.4,4.2-1,6.3-1.2c2.1-0.2,4.1-0.6,4.4-0.8c2.4-1.3,14.3-1.1,21.1,0.4
	c2.4,0.5,3.5,0.6,6.2,0.2c1.8-0.2,3.4-0.5,3.7-0.7c0.2-0.2,0.7-1.4,1-2.8c0.3-1.4,0.7-2.8,0.8-3.1c0.2-0.5-0.4-0.6-3.8-0.6
	c-2.5,0-4-0.2-4-0.4s0.6-1.5,1.3-2.8c1.1-2,1.2-2.4,0.6-2.8c-0.8-0.5-5.3-0.3-6.8,0.2c-0.5,0.2-3.3,0.4-6.1,0.5
	c-2.8,0.1-5.6,0.3-6.2,0.6c-0.6,0.2-2.2,0.4-3.7,0.3c-1.8-0.1-3.7,0.3-6.2,1l-3.6,1.1l-4.5-0.7c-4.2-0.7-4.7-0.6-7.3,0.1
	c-1.5,0.4-4.1,1.1-5.8,1.5c-1.7,0.4-4.3,1.1-5.8,1.5s-5,1.1-7.7,1.6c-5.8,1.1-10.4,2.3-15,3.8c-1.8,0.6-3.7,1.1-4.2,1.1
	c-0.4,0-2.3,0.4-4.1,1c-2.3,0.7-4.2,1-6.4,0.9c-5.2-0.2-6.7-1.6-4.8-4.4c1.5-2.2,3.7-2.8,9.2-2.7c3.3,0.1,4.7,0,5.3-0.4
	c0.4-0.3,1.1-0.6,1.5-0.6c2.5,0,4.2-3.2,2.7-5.3c-1.2-1.8-1.1-2.7,0.6-3.9c1.6-1.2,1.4-1.1,5.5-0.9c4.1,0.2,12-1,15.9-2.6
	c1.9-0.7,5.2-1.2,14.2-1.9c2.3-0.2,6,0.8,8.9,2.3c1.3,0.7,1.7,0.7,6,0.2c2.5-0.3,5.5-1,6.7-1.5c2-0.8,2.5-0.9,10.1-0.5
	c4.4,0.2,9.6,0.6,11.6,0.7c3.6,0.3,6,0,6-0.7c0-0.2-0.7-0.8-1.6-1.3c-1.1-0.6-1.3-0.9-0.7-0.9c0.5,0,0.9-0.2,0.9-0.4
	s-0.5-0.4-1.1-0.5c-1.3-0.1-1.8-0.3-2.8-1.5c-0.8-1,0-1.8,2.5-2.5c1.6-0.5,1.8-0.7,1.7-2.1c-0.1-2.1-1.3-2.7-3.4-1.8l-1.6,0.7
	l-0.7-1.3c-1.8-3.2,2.4-5.7,9.5-5.7c3,0,3.8-0.5,3.1-1.8c-0.6-1.1,0.3-2.2,1.6-2c0.5,0.1,1.7-0.4,2.7-1c1.5-0.9,2.1-1.1,3.6-0.8
	c1,0.2,2,0.5,2.1,0.6c0.5,0.5-0.7,3-1.5,3c-0.4,0-1,0.4-1.3,1c-0.5,0.8-0.5,1.1,0.1,1.3c0.4,0.1,1.1,0,1.6-0.3
	c1.2-0.9,3.7-1.1,4.9-0.5c1.4,0.7,2.9,0.1,2.9-1.2c0-0.6,0.6-1.2,1.8-1.7s1.7-1.1,1.8-1.8c0.1-0.9,0.5-1.1,2.6-1.6
	c1.8-0.4,2.5-0.8,2.7-1.4c0.2-0.7-0.1-0.9-2.2-1.3c-1.5-0.2-2.6-0.2-3,0c-0.8,0.6-2.4,0.5-3.9-0.3c-1.1-0.5-1.1-0.6-0.3-1.1
	c1.3-0.8,2-2.3,2.6-5.6c0.5-2.6,0.6-2.9,1.7-3c0.7,0,1.6,0.2,2,0.5c1.3,1,2.6,1.3,3,0.6c0.2-0.3,1-0.8,1.8-1.1
	c1.5-0.5,1.5-0.5,1.6,0.8c0.1,0.7,0.3,1.7,0.5,2.1c0.3,0.6-0.1,0.9-1.6,1.3c-1.1,0.3-2.4,0.5-2.9,0.4s-1.2-0.1-1.6,0.1
	c-0.6,0.3-0.6,0.4,0,0.9c1,0.8,7.2,0.7,7.3-0.1c0-0.3,0.3-0.6,0.7-0.6s1.3-0.5,2.1-1.2s1.7-1.1,2-0.9c0.9,0.5,0.5,2.3-0.8,3.6
	c-0.7,0.7-1,1.5-0.9,2c0.3,0.9,2.2,1.5,3.7,1.2c1.6-0.4,4.4-2.1,4.5-2.7c0-0.3,0.7-1.1,1.4-1.7c1.3-1,1.4-1.3,1.3-3.6
	c-0.1-1.4-0.3-2.7-0.4-2.9c-0.2-0.2-1.2-0.4-2.3-0.5c-1.6-0.1-2.2,0.2-3.3,1.2c-1.3,1.2-1.4,1.2-2.5,0.6c-1.8-1-6.7-2.1-7-1.5
	c-0.1,0.3-0.9,0-2-0.6c-2-1.2-3.9-1.5-4.4-0.6c-0.2,0.3-1.1,0.9-2.2,1.4c-1.6,0.7-1.9,0.7-2.1,0.2c-0.4-1.1-0.2-2.1,0.6-2.6
	c1.3-0.8,1-1.3-0.7-1.1c-0.9,0.1-1.6,0-1.5-0.2c0-0.2-0.7-0.7-1.6-1c-0.9-0.3-2.6-1.2-3.9-2c-3.6-2.2-8.6-4.3-10.3-4.4
	c-0.9,0-2.5-0.6-3.6-1.2c-1.5-0.8-2.8-1.1-4.8-1.2c-4-0.2-9.3-1.2-11-2.1c-2.4-1.2-6.3-2.3-9.9-2.7c-3.9-0.4-6.6-0.9-7.7-1.4
	s-14.1-3.4-17-3.8c-1.4-0.2-2.8-0.5-3.1-0.7c-0.7-0.5-7.1-2-9-2.1c-1.7-0.1-4.9-2.5-4.9-3.6c0-0.3,1.4-0.9,3.1-1.2l3.1-0.7l6,1.8
	c3.3,1,7.1,2.2,8.5,2.7c3.2,1.1,7.4,1.9,9.9,2c1.1,0,2.1,0.3,2.4,0.5c0.6,0.5,8.2,2.1,12,2.5c3.9,0.4,4.9,0.6,6.1,1.2
	c1.8,0.9,6.8,2.3,8.1,2.4c0.7,0,3.1,0.5,5.4,1.1c2.2,0.6,4.9,1.1,5.9,1.3c1,0.2,2.2,0.4,2.7,0.6c0.8,0.2,0.9,0.1,0.8-1.2
	c-0.1-1.2,0-1.4,0.6-1c0.4,0.3,0.9,1,1.1,1.5c0.2,0.5,0.8,1.1,1.3,1.3c0.5,0.1,1.6,0.6,2.4,1c0.8,0.4,2.6,1,4.1,1.4
	c1.4,0.3,3.8,1,5.4,1.4c3.5,1,5.6,1.1,7.1,0.3c0.6-0.3,1.4-0.5,1.8-0.5c0.4,0.1,0.7-0.1,0.7-0.5c0.1-0.8,2.3-1,3.1-0.3
	s1.4,0.6,1.4-0.2c0.1-0.9-3.5-4.1-4.6-4.1c-0.4,0-1.5,0.4-2.4,1c-0.9,0.5-1.7,1-1.8,1s-0.8-1-1.4-2.3c-1.2-2.2-3.6-4.7-6.3-6.2
	c-3.1-1.8-0.2-2,4.6-0.4c1.6,0.6,3.9,1,4.9,1c1.6,0,2,0.2,2.4,1.1c0.5,1.2,3.7,3.3,5.1,3.4c0.5,0,2,0.7,3.4,1.6s2.9,1.6,3.4,1.6
	c0.8,0,2.5,1.1,4.9,2.9c1.1,0.8,3.8,0.7,6.2-0.3c1.6-0.7,2.7-0.3,3.6,1.1c1.1,1.8,2.3,3.2,2.7,3.2c0.2,0,0.6-0.5,0.8-1.1
	s1.4-2,2.6-2.9c1.2-1,2.5-2.1,2.8-2.5s1-0.7,1.5-0.7c1.3,0,3.7-0.7,3.7-1.2c0-0.2,0.4-0.3,0.8-0.3c1.8,0.1-0.1-3.7-3.3-6.7
	c-2.8-2.5-5.1-5.2-5-5.9c0-0.3-2.6-2.8-5.8-5.5s-6.1-5.2-6.4-5.5C181.2,78.7,170,68.3,170,68c0-0.2-1.1-1-2.5-1.9
	c-1.4-0.8-2.6-1.8-2.7-2.2c-0.2-0.7-4.2-3.9-5.4-4.3c-0.3-0.1-1.6-0.9-2.7-1.8c-1.2-0.9-3.3-2.1-4.7-2.7c-2.2-1-2.6-1.4-3-2.7
	c-0.5-2,0.4-2.8,2.9-2.7c2.4,0.1,3.3,0.6,7.7,4.1c4.6,3.7,6.4,5.4,13.2,12.2c3,3,6.8,6.7,8.5,8.1c1.7,1.5,5,4.5,7.4,6.8
	s4.9,4.5,5.7,4.9c1.4,0.8,7.2,5.8,10,8.6c1.2,1.2,2.3,1.9,3.1,1.9c1.4,0.1,1.5,0,0.8-1.2c-0.3-0.5-0.7-1.2-0.9-1.7
	c-0.3-0.5-0.4-1.2-0.4-1.6s-0.5-1.4-1.2-2.2c-0.7-0.8-1.2-1.6-1.2-1.8c0-0.2-0.6-1.1-1.4-2c-0.8-0.9-1.7-2.5-2.2-3.6
	c-0.4-1.1-1.2-2.3-1.7-2.8c-0.5-0.4-0.9-1.3-0.9-2c0.1-1.5-0.7-2.9-4.1-7.6c-3-4.1-3.7-4.9-5.3-5.6c-0.6-0.3-1.9-1.6-2.9-2.9
	c-1-1.3-2.3-2.6-2.9-2.8c-0.6-0.2-2.8-1.3-5-2.5c-2.1-1.1-4.2-2.1-4.5-2.1c-0.9,0-3.4-1.5-4.9-2.8c-1.6-1.4-6.9-4.3-8.7-4.7
	c-0.8-0.2-1.5-0.5-1.7-0.7c-0.1-0.2-1-0.4-1.9-0.4c-1.4-0.1-2.2-0.6-4.8-3.1c-4.1-3.9-5.8-5.8-5.8-6.4c0.1-1,2.3-2.6,3.7-2.6
	c1.8,0.1,6.7,1.8,7.9,2.8c0.5,0.4,2.1,1.3,3.5,1.8s2.7,1.2,3,1.5s1.6,1.4,3.1,2.4c1.4,1,2.7,2.2,2.8,2.7c0.3,0.9,3.5,2.5,6.7,3.2
	c1.5,0.4,2.8,1.2,4.5,2.7c1.3,1.2,3.3,2.7,4.5,3.3s2.1,1.3,2.1,1.5s1.5,1.8,3.4,3.6s4.9,5,6.8,7.2c1.8,2.1,4.5,5,5.9,6.3
	s3.3,3.2,4.3,4.2s2.1,2.3,2.5,3s1.5,2.1,2.5,3.1s1.8,2.2,1.8,2.6c0,1.2,4.5,6,6.9,7.4c1.2,0.7,2.4,1.5,2.8,1.8c1,0.9,3.4,2,3.8,1.7
	c0.7-0.5,0.3-1.3-1.6-3.3c-1.1-1.1-2.2-2.7-2.4-3.6s-0.6-2.2-0.7-2.9c-0.2-0.7-1.1-2.2-2.1-3.3c-1-1.1-1.7-2.1-1.7-2.3
	c0-0.2-0.7-1-1.5-1.7c-2.1-1.7-6.1-7.3-6.4-8.8c-0.2-0.9-1.2-1.9-3.3-3.3c-1.6-1.1-3.3-2.7-3.6-3.4c-0.7-1.5-2.8-3.7-3.6-3.7
	c-0.3,0-1.1-0.9-1.8-2s-1.5-1.9-1.7-2c-0.7,0-6.3-6.2-6.2-6.9c0.1-0.8,2.1-1.6,3.7-1.6c0.7,0,1.8,1.2,3.6,3.7
	c1.8,2.4,3.1,3.8,4.2,4.2c1.9,0.7,2.6,1.4,2.7,3c0.2,1.7,1.2,3.1,3.9,5.1c1.3,1,3.1,3,4.4,5.1c1.2,1.9,2.5,3.6,2.9,3.7
	s0.6,0.4,0.6,0.6s0.9,1.6,2,3.1c2.4,3.3,6.6,6.9,9.4,8.3c1.3,0.6,2.4,1.6,2.9,2.6c0.6,1.1,1.4,1.8,2.9,2.3c2.2,0.8,3.3,0.7,4.7-0.6
	c0.4-0.3,1.1-0.6,1.6-0.6s1.3-0.6,1.9-1.4c1-1.4,1-1.5,0.3-3.9c-0.4-1.3-0.9-3.4-1.1-4.6c-0.2-1.4-1-3.1-2.1-4.6
	c-1-1.4-2.4-3.3-3-4.3c-2.4-3.6-4.5-5.9-6.1-6.6c-0.9-0.4-2.5-1.4-3.7-2.2c-4.3-3.1-5-3.4-7.7-4.4c-4-1.4-16.4-9.7-16.3-10.9
	c0.1-0.8,1.1-1.4,2.2-1.1c0.6,0.1,1.7,1.3,2.6,2.6c1.7,2.4,4.1,4.1,6.1,4.2c1,0,1.2-0.2,1.3-2c0.1-1.5-0.1-2.2-0.8-2.8
	c-0.5-0.4-1.2-1.3-1.5-2s-0.7-1.3-0.9-1.3s-0.7-0.6-1-1.4c-0.3-0.7-1.8-2.5-3.2-3.9s-3-3.5-3.6-4.6c-2.7-5.4-7.2-11.3-9.6-12.6
	c-0.7-0.4-2-1.7-2.7-2.9c-1.8-2.9-4.5-6.1-7-8.2c-2.9-2.5-2.5-5.2,0.9-6c2.3-0.6,4,0.3,4.8,2.3c0.3,0.9,1.1,2.2,1.8,3
	s1.2,1.7,1.2,1.9s0.1,0.5,0.4,0.6c0.2,0.1,1.4,1.4,2.7,3c3.5,4.4,4.6,5.7,6.7,8.1c1.1,1.2,1.9,2.4,1.9,2.7c0,0.4,3.2,3.4,5.8,5.5
	c0.6,0.4,1.2,1.8,1.5,3c0.8,3.4,1.8,4.9,5.9,9.3c2.9,3,4.4,4.3,6.3,5c2.4,1,5.3,3.4,9,7.8c1.8,2.2,4.2,4.4,9.1,8.6
	c2.2,1.9,7.5,4.1,8.4,3.5c0.8-0.6,2.6,0.4,4,2.2c0.8,1,2.3,2.2,3.6,2.8c1.2,0.6,3.2,1.6,4.4,2.3c2.6,1.6,3.9,1.4,3.5-0.3
	c-0.2-0.6-0.4-2.4-0.6-3.9c-0.5-5.3-2-10.2-4.2-13.5c-1-1.5-1.2-2.5-1.1-4.3c0.3-4.3-1.4-9.1-6.3-17.4c-1.4-2.3-2.8-5.4-3.3-6.8
	c-0.9-3-2.2-6.5-3.4-9c-0.9-1.9-1.7-4.6-2.2-7.2c-0.2-0.9-1-3.3-1.9-5.3c-1.8-3.9-2-5.6-0.7-6.3c0.9-0.6,3-0.2,4,0.7
	c0.4,0.3,0.9,2,1.2,3.7c0.6,3.7,1.8,7.3,3.2,8.8c0.6,0.7,0.9,1.7,0.9,2.8c-0.1,2.1,1.6,7.3,4,12.1c1,1.9,1.8,3.8,1.8,4.2
	c0,0.6,0.8,2.3,3.9,8.5c1.3,2.5,2.3,6.7,2.5,10c0.1,2.2,1.4,5.7,3.4,9.3c0.5,0.8,1,2.2,1.1,3c0.2,1.2,4.4,9.8,5.7,11.8
	c0.4,0.6,3.2,4,4.2,5.1c3.1,3.4,10.4-3.7,7.7-7.5c-0.7-0.9-0.7-1.9-0.4-7.9c0.1-1.5-0.1-3.8-0.4-5.1s-0.8-3.5-1-5s-1-4.1-1.7-5.7
	c-0.7-1.7-1.4-4.1-1.5-5.3c-0.1-1.3-0.5-2.8-0.9-3.5c-0.4-0.6-0.6-1.6-0.6-2.2c0-0.6-0.4-1.9-0.9-3c-1.9-4.1-0.6-5.7,3.3-3.9l2.1,1
	l-0.3,2.8c-0.4,4.5,0.4,10.5,1.7,12.6c0.8,1.2,1.1,2.3,0.9,3.4c-0.1,0.9,0,2,0.3,2.5s0.7,1.9,0.8,3c0.1,1.1,0.7,3.1,1.3,4.4
	c1,2.2,1.1,2.7,0.5,6.5c-0.5,3.8-0.5,4.4,0.5,7c2.2,5.4,4.1,8.2,5.3,7.3c0.9-0.6,2.2-12.4,1.7-15c-0.2-1.3-0.5-4.1-0.7-6.2
	c-0.3-6.1-0.8-8.6-2.2-12.7c-1.1-3.3-1.3-4.7-1.3-9.9c0-3.6-0.3-6.8-0.6-7.8c-0.4-0.9-0.7-4.3-0.8-7.4c-0.1-3.1-0.3-7.6-0.4-9.9
	c-0.2-3.7-0.1-4.4,0.8-5.6c1.2-1.7,2.7-1.9,4.4-0.6l1.3,1l-0.5,11.1c-0.3,6.9-0.3,11.6,0,12.3c0.3,0.7,0.4,2.7,0.3,4.6
	c-0.1,1.9,0,4.2,0.3,5.1c0.3,0.9,0.5,3,0.5,4.6s0.2,3.5,0.4,4.2c0.2,0.7,0.6,2.4,0.9,3.8c0.3,1.4,0.8,3.4,1.1,4.4
	c0.3,1,0.5,3,0.5,4.3c-0.1,1.6,0.2,3,0.8,4.1c0.5,0.9,1.1,2.7,1.3,3.9c0.2,1.6,0.7,2.5,1.6,3.3c0.7,0.6,1.5,1.7,1.7,2.5
	s0.7,1.8,1.1,2.1c0.5,0.5,0.6,0.9,0.2,1.4c-0.7,0.9-0.4,1.3,0.9,1.1c0.6-0.1,1.1-0.7,1.3-1.5c0.2-0.7,0.8-2.7,1.4-4.4
	c0.9-2.6,1-3.4,0.5-4.7c-0.5-1.3-0.4-1.8,0.2-2.7c0.9-1.3,2-1.6,2.7-1c0.3,0.3,0.5,2,0.4,3.7c-0.1,1.8,0.1,4.3,0.4,5.6
	c0.3,1.3,0.3,2.9,0.1,3.6c-0.5,1.7,0.1,2.3,2.1,2.1l1.7-0.1l-0.2-2c-0.1-1.1-0.4-2.3-0.6-2.8s0-1.6,0.3-2.5c0.4-1.1,0.5-3.4,0.3-6.7
	c-0.2-2.8-0.1-10.1,0.2-16.3c0.5-10.4,0.6-11.3,1.5-12c1.3-0.9,2.3-0.9,3.5,0.2c0.9,0.8,0.9,1.2,0.5,3.7c-0.3,1.5-0.9,3.4-1.3,4
	c-1.3,1.9-1.9,7.3-1.1,9.3c0.5,1.2,0.6,2.4,0.3,3.9c-0.3,1.8-0.3,2.4,0.4,2.9c0.7,0.5,1.1,0.5,2.5,0.1c0.9-0.3,2.3-0.6,3.1-0.6
	c0.8-0.1,1.7-0.4,2-0.7c1-0.9,2.4-5.9,2.2-7.8c-0.1-1,0.2-2.8,0.7-4c0.5-1.3,1-3.5,1.1-5s0.7-6,1.3-10c0.5-4,1-7.6,1.1-7.9
	c0-0.3,0-2.7,0-5.3c-0.1-4.3,0-4.7,1.1-5.7c1.6-1.5,4.3-1.4,5,0.1c0.7,1.4,0,5.6-1.2,7.6c-0.9,1.5-1.1,3-1.7,13.8
	c-0.9,14.9-1.1,20-1.3,24.2c-0.1,1.8-0.4,3.6-0.8,4.1c-0.5,0.7-0.6,1.8-0.2,4.7c0.2,2.1,0.6,4.1,0.9,4.4c0.6,0.7,3.5,0.8,4.7,0.1
	c0.9-0.5,0.9-0.7,0.5-1.9c-1.1-2.9,0.1-5.8,2.1-5.1c0.6,0.2,0.7,0.7,0.4,1.8c-1.2,5-1.3,5.9-0.7,6.5c0.3,0.4,1.1,0.7,1.6,0.7
	c1.5,0.1,6.2-2.3,6.3-3.1c0.1-1.2-0.7-1.9-1.8-1.6c-1.9,0.6-3.3,0.5-3.3-0.1c0-0.3,0.8-0.7,1.8-0.8c1.8-0.2,2.4-0.8,2.5-2.3
	c0-0.5,0.7-1.4,1.4-2.2c0.9-0.8,1.4-1.9,1.5-2.8c0.1-1.9,2.9-8,4.3-9.5c0.9-0.9,1.4-1.1,2.7-0.9c2,0.2,2.4,1.7,0.7,3.3
	c-0.6,0.6-1.2,1.7-1.2,2.3s-0.7,1.8-1.5,2.6c-0.8,0.9-1.7,2.5-2.1,4.1c-0.4,1.5-1,3.1-1.3,3.5c-1.3,1.9,0.4,3.5,3.9,3.7
	c0.9,0,1.7,0.2,1.7,0.4c0.3,1.6-0.1,5-0.6,5.2c-0.4,0.2-0.3,0.5,0.2,1c0.7,0.6,1,0.7,1.7,0.2c0.5-0.3,0.8-0.9,0.8-1.4
	c-0.1-0.6,0.4-1,1.5-1.4c1.4-0.5,1.6-0.8,1.6-2.2c0-0.9-0.1-2.4-0.3-3.2c-0.2-1.2,0-1.9,0.9-3l1.2-1.4l3.4,1.6
	c1.8,0.9,3.5,1.8,3.6,2s2,0.5,4.1,0.6c3.3,0.2,4.1,0.1,5.5-0.6c0.9-0.5,2.9-1,4.3-1.2c4-0.5,7.8-2,10.9-4.5c1.5-1.2,4.4-3.5,6.5-5.1
	l3.7-2.8l-1.3-0.6c-2.8-1.3-1-3.6,3.6-4.4c4.5-0.9,7.5-2.6,10.6-6c1.5-1.7,3.2-3.9,3.8-5c1.3-2.4,2.6-3.4,4.2-3
	c0.7,0.2,1.3,0.5,1.5,0.8c0.1,0.3-0.8,2-2,3.8s-2.2,3.6-2.2,4s-0.6,1.6-1.3,2.6c-1,1.5-1.6,1.9-3.3,2.2c-1.5,0.3-2.2,0.7-2.9,1.8
	c-0.5,0.8-1.1,1.4-1.4,1.4c-0.2,0-0.8,0.6-1.3,1.3c-1.5,2.3-3.9,5.5-4.7,6.2c-0.5,0.5-0.7,1.4-0.6,3.1l0.2,2.4l-1-1.2
	c-1-1.2-1-1.2-2.7-0.6c-0.9,0.3-3.6,1.1-5.9,1.6c-3.7,0.9-4.6,1.3-7.2,3.4l-3,2.4l0.8,2.2c0.7,2.2,0.8,2.2,3,2.5
	c2,0.2,2.2,0.1,1.9-0.6c-1.1-2.6-0.3-3.2,1.1-0.7c0.5,0.8,1.1,1.5,1.4,1.6c2.2,0.2,7.1,0.2,9.7-0.1c1.8-0.2,3.6-0.4,4-0.4
	s1.1-0.2,1.6-0.3c1.5-0.4,6.9-0.9,9.6-0.8c1.5,0.1,3.9,0,5.5-0.2s4-0.4,5.4-0.4c1.4-0.1,2.9-0.3,3.4-0.5s1.8-0.4,2.9-0.5
	c22.2-1.7,21.8-1.6,22.7-0.8c0.4,0.4,1.2,0.6,1.7,0.5s2.6-0.3,4.6-0.5c6.6-0.5,7.8-0.6,8.4-1c0.4-0.2,0.8-0.3,1-0.2
	c0.2,0.1,2.3,0.1,4.6,0c2.3-0.1,5.4-0.3,7-0.3s3.6-0.3,4.5-0.5s3.2-0.3,5-0.1c2,0.2,3.6,0.1,4.1-0.2c0.4-0.3,0.9-0.4,1-0.3
	s0.9,0,1.8-0.2c0.8-0.2,5-0.4,9.3-0.3c6.3,0.1,7.9,0,8.7-0.6c1.1-0.8,7.5-0.8,9.5-0.1c0.7,0.2,1.3,0.3,1.5,0.1
	c0.2-0.2,2.2-0.4,4.6-0.4c2.4,0,5.6-0.1,7.1-0.2c1.6,0,6.2-0.1,10.3,0s9.1,0,11.1,0s7,0,11.1,0s8.4,0,9.6,0c1.1-0.1,7.1,0,13.3,0.1
	s13.7,0.1,16.7,0s5.7-0.1,5.9,0c1,0.6,40.7,1.6,51.4,1.3c4.3-0.1,8.8-0.1,10.1,0c5.6,0.4,8,0.4,17.3-0.1c5.4-0.3,13.3-0.5,17.6-0.5
	c7.6,0,7.7,0,7.4,0.9c-0.2,0.6-0.1,0.8,0.4,0.7c0.4-0.1,0.7,0,0.7,0.3s0.5,0.4,1.2,0.3c1.8-0.3,4,0.6,3.9,1.6c0,0.8,0.3,0.9,4.5,1
	c5.9,0.3,8.9,0.6,9.7,1.3c1.2,0.9,16.6,2.1,27.5,2.2c0.7,0,2.1,0.2,3.1,0.4c1,0.2,3.7,0.5,6,0.5c2.3,0.1,4.3,0.3,4.5,0.4
	c0.3,0.4,7.7,0.5,10.9,0.1c1.6-0.2,3.3-0.1,4.4,0.1c1,0.2,2.8,0.6,4,0.8c1.2,0.2,2.4,0.4,2.7,0.6c0.3,0.1,4,0.5,8.3,0.7
	c8.1,0.5,11.7,0.9,11.7,1.4c0,0.2-0.8,0.6-1.6,1c-2.1,0.9-1.7,1.2,1.4,1.2c1.9,0,2.8,0.3,3.7,0.9c1,0.8,1.8,0.9,8.9,1.2
	c4.3,0.1,8.4,0.2,9.1,0c3.1-0.6,6.7,0.9,6.9,2.8c0.1,0.9-0.1,1-2.1,0.8c-2.1-0.2-4,0.3-3.3,0.9c0.2,0.2,2.1,0.4,4.3,0.6
	c6.3,0.4,11.4,1,15.6,1.6c2.1,0.3,5.7,0.6,7.9,0.7c3.7,0.2,4.1,0.1,5.1-0.8c1.2-1.2,3.8-1.3,4.5-0.2c0.5,0.7,2,0.9,6.4,0.7
	c1.7-0.1,3,0,3,0.3c0,0.2,0.6,0.7,1.4,1c0.8,0.3,1.6,0.8,1.9,1.1c0.6,0.7,18.8,3.4,23.1,3.5c1.3,0,2.4,0.3,2.7,0.7
	c0.5,0.6,0.4,0.8-1,1.3c-0.9,0.4-1.7,0.8-1.7,1s-0.7,0.3-1.4,0.3c-1.4,0-4,0.6-3,0.7c0.3,0,0.2,0.2-0.3,0.4
	c-1.3,0.6,1.8,1.5,6.4,1.8c5.1,0.3,6.6,0.9,5.6,2.1s-0.2,1.6,3.9,2.3c3.6,0.6,5.8,1.6,4.2,2c-0.4,0.1-3.7,0.1-7.2,0.1
	c-6.2-0.1-9.1,0.4-10.1,1.5c-0.6,0.7,0.6,1.4,2.6,1.7c2.6,0.4,2.8,0.6,1.7,2.1c-0.5,0.6-0.8,1.4-0.7,1.7c0.1,0.3-0.4,0.8-1,1.1
	c-0.7,0.4-0.9,0.7-0.6,1c0.7,0.6,6.2,1.6,7.1,1.4c0.7-0.2,2.3,1,3.6,2.8c0.4,0.5,1,1,1.3,1s0.3-0.2-0.2-0.4
	c-0.5-0.3,0.4-0.3,2.6-0.1c1.8,0.2,4.2,0.3,5.3,0.4c1.1,0.1,1.9,0.3,1.9,0.5c0,0.3-2.5,0.3-6.3,0.2l-6.3-0.2l-2.1,1.6
	c-1.1,0.9-2.5,1.6-3,1.6s-1.2,0.4-1.6,1c-0.6,0.9-0.5,1,0.5,1.1c0.6,0,1.3,0.2,1.5,0.4s1.3,0.3,2.5,0.3c1.6,0,2,0.1,1.6,0.4
	c-0.3,0.2-3.3,0.5-6.7,0.5c-11,0.1-6.9,1.5,7,2.4c1.7,0.1,2.9,0.4,2.7,0.6c-0.2,0.2-0.1,0.5,0.3,0.7c0.4,0.2,0.5,0.1,0.2-0.2
	c-0.5-0.7,1.1-0.6,1.9,0.2c0.9,0.8,1.5,0.9,1,0.2c-0.2-0.3-0.1-0.4,0.3-0.2c0.3,0.2,1.1,0,1.7-0.4c1-0.7,1.1-0.7,2,0.3
	c0.5,0.6,1,0.9,1,0.7s0.5-0.1,1,0.2s4.1,0.7,7.8,0.9c13.1,0.9,31.2,2.7,33.3,3.3c0.4,0.1,1.5,0.4,2.3,0.6c1.6,0.4,2.8,1.1,2.8,1.5
	c0,0.3-2.7,1-5.7,1.5c-2.1,0.4-10.9,0.2-32-0.7c-8.9-0.3-16.1-0.6-16-0.5c0.5,0.4,9,1.9,12.3,2.1c4.6,0.3,5.5,0.7,2.6,1
	c-1.4,0.2-25.6-1.1-28.5-1.4c-0.2,0-2-0.1-4.1-0.1c-3.4-0.1-3.7,0-3,0.6c0.9,0.8,5.8,1.3,19.1,2c11.5,0.5,10.9,0.5,11.2,1.3
	c0.4,1.1-1.5,1.3-11.6,1.2c-15.1-0.2-16.4,0-14,1.8c0.9,0.6,1,0.9,0.4,1.6c-0.6,0.8-0.5,0.9,1.3,1.4c5.8,1.5,10.8,2,25.2,2.7
	l4.2,0.2l3,2.6c1.7,1.5,3,3,2.9,3.4c-0.1,1.1,0.2,1.2,6.6,1.6c3,0.2,6.8,0.7,8.6,1.1c5.5,1.1,3.9,1.7-5.1,1.7c-3.3,0-6.4,0.2-7,0.3
	c-0.6,0.2-2.5,0.6-4.2,1c-3.6,0.8-9.2,0.6-29.6-1.1c-14.3-1.2-24.6-1.6-25.4-1c-1.1,0.8,0.4,1.5,4.3,1.8c4.5,0.4,5.1,0.5,4.6,1.3
	c-0.2,0.3-0.5,0.5-0.8,0.4c-0.2-0.1-0.5,0-0.5,0.4s-0.3,0.5-0.8,0.4c-0.4-0.1-0.8-0.1-0.8,0.2s-0.5,0.4-1.1,0.4s-1,0.2-1.1,0.4
	c0,0.3,0.1,0.4,0.3,0.2c0.2-0.1,0.6-0.1,0.9,0.1c0.3,0.2,1,0.3,1.6,0.1c0.7-0.2,0.8-0.3,0.3-0.4c-0.4,0-0.1-0.2,0.8-0.4
	c2.2-0.4,2.7,0.1,1,1.1l-1.5,0.9l1.2,0.6c0.7,0.3,1.6,1,2,1.5c0.6,0.6,1.6,1,3.6,1.2c1.5,0.2,2.7,0.5,2.7,0.7
	c0,0.5-7.9,1.2-12.2,0.9c-4.9-0.2-5.3-0.2-4.9,0.3c0.4,0.6-0.8,1.2-2.2,1.1c-0.6,0-2,0.3-3.1,0.7s-2.8,0.7-3.7,0.7
	c-4.1-0.2-4.3,0.8-0.6,1.8c1.5,0.4,2.8,1,2.8,1.2s0.2,0.3,0.5,0.2s0.5,0,0.5,0.3c0,0.4,0.2,0.4,0.7,0.1c0.5-0.3,0.9-0.2,1.4,0.4
	c0.4,0.5,2.1,1.3,3.8,1.8c2.3,0.7,3.3,1.3,3.6,2.1c0.6,1.2,0.5,1.3-3.4,1.5c-11.6,0.7-12.2,0.9-7.8,2.4c2.2,0.7,4.7,1.1,9.6,1.5
	c10.2,0.8,14.2,1.2,14.7,1.4c0.2,0.1,0.4,0.6,0.4,1.1s0.4,1,1,1.1c1.4,0.4,1.2,1.2-0.3,1.7c-1.3,0.4-22.5-0.5-26.6-1.1
	c-1-0.2-2.6-0.2-3.6,0l-1.8,0.3l2.4,0.4c1.3,0.2,4.1,0.5,6.1,0.7c5.8,0.5,9.4,1.1,10.1,1.7c0.9,0.8,0.8,0.9-1.4,1.4
	c-1.2,0.3-2,0.7-1.9,1s-0.5,0.5-1.8,0.5c-1.1,0-2.4,0.1-3,0.3c-1.1,0.2-1.5,0.3-2.8,0.4c-0.4,0-0.6,0.2-0.4,0.4
	c0.2,0.2,2.7,0.4,5.5,0.6c5.1,0.2,6.7,0.7,6.6,1.9c-0.1,1.1-2.9,1.5-11.1,1.4c-1.4,0-1.1,0.6,0.8,1.5c1.5,0.7,1.6,1,1.2,1.6
	c-0.8,1.1,0.9,1.6,7.9,2.1c3.3,0.2,6.1,0.5,6.3,0.7s-0.1,0.6-0.7,0.9c-0.8,0.4-2.4,0.4-8.1,0c-3.9-0.3-7.1-0.4-7.1-0.3
	c0,0.1,0.3,0.9,0.7,1.7c0.9,1.7,1.4,1.8,8.3,2.5c6.9,0.6,8.2,0.9,8.2,1.8c0,0.5,0.5,0.9,1.8,1.2c2,0.5,2.9,1.5,1.2,1.4
	c-0.6,0-1.3,0.2-1.7,0.5c-0.6,0.5-2.1,0.8-6,1.1c-0.6,0-3.9,0-7.3-0.2c-5.9-0.2-6.3-0.2-6.6,0.6c-0.3,0.7-0.7,0.8-3,0.7
	c-2.8-0.1-6.8,0.4-8.7,1c-0.7,0.2-2.1,0.2-3.6,0c-3.6-0.6-13.5-1-15.6-0.6c-2,0.4-2.5,0.6-4.7,2.1c-0.8,0.5-1.7,0.9-2.1,0.8
	c-0.5-0.1-0.5,0.1-0.2,1s0.3,1.2-0.2,1.5c-0.4,0.2-0.8,0.2-1,0.1c-0.2-0.1-0.6,0.2-1,0.8c-1,1.4-0.1,2.7,2.1,3.1
	c1.4,0.3,1.7,0.5,1.4,1.1c-0.2,0.4,0,0.8,0.3,0.8s0.6-0.1,0.5-0.3c-0.2-1.5,0.2-1.6,4.3-1.3c2.3,0.1,4.4,0.4,4.7,0.7
	c0.8,0.5,3.4,1,3.4,0.6s6.2,0.1,6.6,0.5c0.5,0.5-0.3,0.6-4.1,0.5c-2.1,0-5.2,0.2-6.9,0.4c-1.9,0.3-3.7,0.4-4.9,0.2
	c-1.1-0.2-3.1-0.4-4.5-0.5c-1.4,0-4.8-0.5-7.4-0.9c-4.2-0.7-6-0.9-9.1-0.8c-0.4,0-0.7,0.3-0.7,0.6c0,0.4-1.1,0.5-4.8,0.3
	c-3.3-0.2-5.5-0.1-7.3,0.3c-1.6,0.4-4.3,0.5-7.3,0.4l-4.8-0.2l2.6,0.9c1.4,0.5,3.6,1,4.9,1.2c2.4,0.3,5.9,1.7,4.4,1.7
	c-0.4,0-3,0-5.7-0.1c-3.1,0-5.6,0.2-6.6,0.5c-1.2,0.4-2.2,0.5-4.3,0.1c-1.5-0.3-7.2-0.7-12.5-1.1c-5.4-0.3-12-0.8-14.8-1
	c-5.6-0.5-7.4-0.3-6.9,0.7c0.2,0.6-0.6,0.6-7.6,0.1c-4.3-0.3-8.1-0.7-8.3-0.9c-0.3-0.2-5.9-0.5-12.4-0.7s-14.8-0.7-18.3-1.1
	s-8.5-0.9-11.1-1c-2.6-0.2-7.1-0.5-10-0.8c-17.3-1.5-79.1-4.2-98.3-4.3c-7.8-0.1-27.6-0.1-50.4-0.2c-4.1,0-7.7,0.1-8,0.2
	c-0.3,0.1-2.7,0.2-5.4,0.1c-2.7-0.1-6.1-0.1-7.5,0s-6.4,0.3-11.1,0.4c-6.6,0.2-8.7,0.4-9.5,0.9c-1,0.7-1.1,0.7-2-0.1
	c-0.9-0.7-1.5-0.8-13.8-0.4c-17.3,0.5-22.5,0.7-27.4,1c-2.3,0.1-8.8,0.5-14.5,0.7c-25.2,1.1-37.9,2-46.6,3.3
	c-2.5,0.4-3.9,1.6-2.6,2.4c0.7,0.4,0.9,0.4,7.5-0.4c3.4-0.4,8-0.4,16.8-0.1c10.1,0.3,12.4,0.3,13.7-0.2c1.8-0.7,3.8-0.7,4.9-0.1
	c0.9,0.5,0.5,0.6-2.6,1c-3.4,0.4-3.9,0.4-8.6,0.7s-6.2,0.9-5.7,2.1c0.2,0.4-1,0.6-4.3,0.7c-6.5,0.2-14.1,0.8-16.5,1.5
	c-1.2,0.3-2.6,0.5-3.2,0.5c-1.2,0-17.3,2.4-21,3.2c-1.3,0.3-3.6,0.7-5,1c-7.2,1.4-8.2,1.7-8,2.3c0.3,0.8-0.5,1.1-3.1,1.2
	c-1.2,0.1-2.5,0.3-3,0.5s-1.7,0.3-2.8,0.3c-5.1-0.2-8.6,1.4-8.8,4c0,0.6-0.6,1.7-1.3,2.3c-1.1,1.1-1.4,1.2-3.4,0.9
	c-2.2-0.4-3.6,0.2-1.8,0.7c1.4,0.3,1.2,1-0.2,1.3c-1.8,0.3-4.2,2.1-3.9,3c0.7,2.2-0.2,5.1-1.6,5c-0.5,0-1.7-2.3-1.8-3.4
	c0-0.2-0.5-0.4-1.1-0.5c-1,0-1,0.1,0.3,2.1c0.9,1.5,1.6,2.2,2.4,2.2c1.4,0.1,2.4,1,1.6,1.6c-1,0.7-0.1,2.7,1.6,3.3l1.6,0.6l-2.8,1
	c-1.5,0.6-3.1,1-3.5,1s-1.4,0.4-2.3,1c-1.3,0.8-2,0.9-3.6,0.7c-1.3-0.2-2.3-0.1-3,0.3c-1,0.5-1,0.6-0.3,1.4c0.4,0.4,0.9,1.2,1.1,1.7
	c0.2,0.7,0,1-1.1,1.1c-0.7,0.1-1.6,0.1-1.8,0c-0.3-0.1-0.9,0.3-1.4,1.1c-0.9,1.2-1,1.3-1.6,0.5c-0.4-0.4-0.7-1.1-0.7-1.5
	c-0.1-2.2-0.2-2.7-0.7-2.9c-0.3-0.1-0.5-0.7-0.5-1.4c0-0.7-0.2-1.5-0.6-1.8s-0.7-1.8-0.8-3.3c-0.2-2.7-1.8-6.3-2.9-6.7
	c-1.1-0.3-0.8,1.4,0.4,1.9c1.1,0.4,1,0.5-1.1,0.9c-1.2,0.2-2.2,0.6-2.2,0.8c0,0.2-0.6,0.9-1.4,1.5c-1,0.8-1.4,1.5-1.4,2.6
	c0,0.8-0.2,2.1-0.4,2.7c-0.5,1.4,0,2.3,1.4,2.5c0.6,0.1,1,0.5,1,1.2c0,0.6,0.2,1.8,0.5,2.7c0.2,0.9,0.3,2,0.1,2.4s-0.1,0.8,0.2,1
	c1.5,0.8-3.1,4.3-5.5,4.2c-1.6-0.1-2.7-1.1-2-1.9c0.3-0.3,0.5-0.8,0.5-1.1c0-0.9-1.7-4.3-2.2-4.3c-0.2,0-0.8,0.4-1.3,1s-1.4,1-2.1,1
	s-1.2,0.2-1.3,0.6c0,0.3-0.6,0.9-1.4,1.3s-1.4,1-1.4,1.6c-0.1,1.6-1.5,1.6-3.1,0.1c-1.6-1.6-1.7-2.3-0.5-3c0.7-0.4,1.2-0.4,2.6,0.1
	s1.9,0.5,2.5,0.1c0.7-0.4,0.6-0.6-0.2-1.7c-0.9-1.2-1.1-1.2-3.4-0.9c-1.4,0.2-2.8,0.6-3.3,0.8c-0.4,0.3-1.3,0.6-1.9,0.6
	c-1.1,0.1-3.8-1.5-3.7-2.3c0-0.8-1.1-0.6-2.5,0.4c-1.3,0.9-1.3,0.9-2,0c-1.2-1.5-0.3-5.4,1.7-6.8c1.3-0.9,1.4-1.6,0.8-2.5
	c-0.7-1-3.1,0.9-3.6,2.7c-0.2,0.8-0.7,1.8-1.1,2.1c-1.1,1-2.7,3.8-2.6,4.7c0,0.4-0.4,1.2-1,1.6c-1.3,1-2.5,3.8-2.8,6.7
	c-0.5,3.8-1.3,6.7-2.4,7.7c-1,1-1.1,1.4-0.8,7.1c0.3,5.7,0.2,6.2-1,9.1c-1.9,4.7-2.6,8.5-3.4,16.9c-0.2,2.5-0.7,5.8-0.9,7.2
	c-0.3,1.4-0.6,4.4-0.7,6.7c-0.1,2.3-0.7,5.5-1.2,7.2c-0.8,2.3-1,4.1-0.9,7.5c0.1,2.4,0.1,6.3,0,8.6c-0.1,2.7,0.2,4.9,0.7,6.1
	c0.4,1.1,0.9,3.3,1.1,5c0.3,2.9,0.3,3.1-1.2,4.8c-1.8,2.1-3.8,2.8-6.6,2.4c-2.5-0.4-3.3-1.2-4.1-4c-0.7-2.4-0.3-4.6,1.2-6.7
	c1.2-1.7,2.2-6.6,3.1-15.6c0.4-4,1.3-10.7,2-14.8c1.5-8.6,1.7-10.9,1.5-16.9c-0.1-2.9,0.1-5.2,0.6-6.9c0.4-1.4,0.9-4.7,1.2-7.3
	c0.2-2.6,0.7-5.7,0.9-6.7c0.4-1.6,0.3-2-0.6-2.9c-1.6-1.5-2.9-1.3-5.5,0.7c-2.5,2-2.7,2-4.1,1.1c-1.3-0.9-0.7-2.7,2.1-6.8
	c1.3-1.8,2.3-3.7,2.4-4.2c0-0.5,0.6-1.6,1.2-2.4c2.4-3.2,2.8-4.2,3-6.6c0.1-2,0-2.5-0.7-2.6c-0.6,0-0.7-0.3-0.4-1.1
	c0.3-0.7,0.2-1.1-0.3-1.1c-0.4,0-1-0.1-1.4-0.2s-1.3-0.2-1.9-0.2c-0.9-0.1-1.1-0.4-1.1-1.2c0-0.8-0.2-1.1-0.9-1.1
	c-0.6,0-1.1-0.2-1.3-0.5c-0.2-0.3-0.5-0.3-0.9,0c-1.2,0.9-2,0.4-1.8-1c0.2-1.1,0.5-1.3,1.4-1.3c0.9,0.1,1.2-0.2,1.2-0.9
	c0.1-1.6-0.8-5.1-1.4-5.9s-0.7-0.8-2.3,0.1c-0.9,0.5-1.7,0.9-1.8,0.9c-0.3,0,0.6-2.9,1.2-3.8c0.2-0.4,0.9-0.8,1.4-0.9
	c0.6-0.1,1-0.6,1.1-1.2c0-0.5,0.2-1.6,0.5-2.3c0.3-1.1,0.3-1.3-0.7-1.3c-0.6,0-1.3,0.2-1.4,0.6c-0.2,0.3-0.9,0.6-1.6,0.6
	c-1.5-0.1-1.7,0.4-2.3,6.4c-0.3,2.8-0.7,4.6-1.1,4.7c-0.3,0.1-0.5-0.5-0.5-1.3l0.1-1.4l-2.8-0.2c-3.1-0.2-3.3-0.1-4.9,2.9
	c-0.8,1.5-1.3,3.8-1.8,8.3c-0.6,5.3-0.9,6.6-2,8.3c-1,1.6-1.3,2.7-1.4,5.2c-0.1,3.6-0.9,5.4-3.1,6.9c-1.4,1-3.7,4.7-3.8,6.1
	c0,0.4-0.6,1.7-1.3,2.8c-0.7,1.1-2.3,4.8-3.5,8.3c-1.3,3.4-2.7,6.7-3.2,7.2s-0.9,1.2-0.9,1.6s-0.8,1.7-1.7,3
	c-2.1,3-5.8,10.6-5.9,12.4c0,0.7-0.8,2.8-1.6,4.6c-0.8,1.8-1.5,3.8-1.6,4.5c0,0.7-0.4,1.9-0.9,2.7c-0.5,0.8-1.3,3.3-2,5.7
	c-0.7,2.7-1.7,5.1-2.7,6.5c-0.9,1.3-1.8,3.3-2,4.7c-0.3,1.7-1.2,3.6-2.8,5.9c-1.9,2.8-2.5,4.2-3.3,7.6c-0.5,2.3-1,4.8-1,5.6
	c-0.1,1.4-2.2,4.6-3.9,6C206.2,410.2,203.5,410.5,201.1,409.2L201.1,409.2z M93.4,287.9c-0.6-0.5-1.3-0.8-1.4-0.7
	c-0.5,0.4,0.8,1.6,1.7,1.6C94.3,288.8,94.3,288.6,93.4,287.9L93.4,287.9z M327.6,289.3c0-0.6-0.6-1.5-1.4-2.1s-1.5-1.4-1.6-1.7
	c-0.2-0.4-0.5-0.5-1.2-0.1c-1.7,0.7-1.6,2,0.2,3.5C325.6,290.5,327.6,290.7,327.6,289.3L327.6,289.3z M330.1,281.1
	c-0.1-0.3-0.7-0.6-1.3-0.7c-0.8-0.1-1,0-0.8,0.5C328.3,281.6,330.3,281.8,330.1,281.1L330.1,281.1z M356.5,273.4
	c0-0.2-0.4-0.4-0.9-0.4c-0.8,0-0.8,0-0.2,0.4C356.4,273.9,356.5,273.9,356.5,273.4L356.5,273.4z M201.9,250.1c0.2-0.2,0-0.4-0.5-0.4
	c-0.4,0-0.8,0.2-0.8,0.4s0.2,0.4,0.5,0.4C201.3,250.5,201.7,250.4,201.9,250.1z M380.9,254.6c2.4-0.4,4.7-1,5.1-1.3
	c0.3-0.3,1-0.5,1.4-0.3s2.9-0.1,5.5-0.6s5.1-0.9,5.5-0.9s2.5-0.3,4.6-0.8s5.1-1,6.7-1.3c4.4-0.7,5.2-1,4.9-1.7
	c-0.5-1.2-5-0.8-14,1.3c-1.7,0.4-6.4,1.4-10.5,2.2c-4,0.8-8,1.7-8.9,2s-2.6,0.7-3.9,1c-1.3,0.2-2.4,0.7-2.6,1
	c-0.2,0.4,0,0.5,0.7,0.4C376,255.4,378.5,255,380.9,254.6L380.9,254.6z M810.8,243.7c-0.1-0.2-1.9-0.4-4-0.5c-2.9-0.1-3.4-0.1-2,0.2
	C807.3,243.9,811.1,244.1,810.8,243.7z M860.7,239.1c0.5-0.5,0.8-1,0.8-1.2c0-0.6-3.7-1.4-6-1.2c-3.8,0.3-7.9,0.9-7.9,1.1
	c0,0.9,1.2,1.4,4.3,1.8C857.1,240.3,859.7,240.1,860.7,239.1L860.7,239.1z M152.6,206.8c1.2-0.6,2.3-1.2,2.4-1.4
	c0.4-0.6,1.2-0.2,2.4,1c1,1.1,1.6,1.3,3.5,1.4c2.1,0.1,2.9-0.3,2.9-1.5c0-0.5-3.9-1.2-8.4-1.4c-3.5-0.2-4.2-0.1-5,0.6
	c-0.5,0.5-1.3,0.9-1.9,1.1c-0.5,0.1-0.8,0.4-0.7,0.7C148.6,208.1,150.3,207.9,152.6,206.8L152.6,206.8z M172.9,206.4
	c1.7-1.1,2-1.5,1.5-2c-1.2-1.3-6.6,1.5-5.6,2.9C169.3,208.1,170.8,207.7,172.9,206.4z M165.4,203c1-0.3,1-0.3-0.3-0.9
	c-1.1-0.5-1.5-0.5-2.1-0.1c-0.5,0.4-0.5,0.6,0.1,0.9C163.9,203.4,164,203.4,165.4,203L165.4,203z M168.8,202.1c0.1-1-0.5-1.9-1.2-2
	c-0.4,0-0.6,0.3-0.5,0.7s0.1,1,0.1,1.3C167.2,202.8,168.8,202.8,168.8,202.1L168.8,202.1z M895.4,222.7c-0.5-0.1-1.3-0.2-1.8-0.1
	c-0.5,0.1-0.1,0.2,0.9,0.2C895.5,222.9,895.9,222.8,895.4,222.7L895.4,222.7z M143.1,184.6c0.5-0.1,0.8-0.5,0.9-0.8
	c0-0.4-0.4-0.6-1.6-0.6c-2.9,0.1-4.3,1.5-1.6,1.6C141.6,184.8,142.7,184.7,143.1,184.6L143.1,184.6z M174.8,181.2
	c-0.1-0.9,0.2-1.4,0.9-1.7c1.3-0.5,0.4-1.4-1.2-1.1c-1.1,0.2-2.8,1.9-2.9,2.9c0,0.5,2,1.4,2.8,1.3
	C174.6,182.5,174.8,181.9,174.8,181.2L174.8,181.2z M137.7,179.7c0.2-0.2,0-0.6-0.4-0.9c-1.3-1-0.7-2,2.6-4.5l3.3-2.4l-0.8-1.5
	c-0.4-0.8-1-1.5-1.3-1.5c-1.3,0-3.6,1.7-4.3,3.3c-0.5,1-1.2,1.8-1.9,2.1c-1.8,0.6-3.1,4.1-1.9,5.2
	C133.7,180,137.3,180.2,137.7,179.7L137.7,179.7z M912,208.4c0.2-0.4,0-0.5-0.7-0.4c-0.8,0.1-0.9,0.3-0.4,0.6
	C911.8,209,911.7,209,912,208.4L912,208.4z M129.3,170.1c0-0.5-1.4-1-1.7-0.6c-0.2,0.2-0.1,0.5,0,0.6
	C128,170.6,129.3,170.5,129.3,170.1L129.3,170.1z M146.3,168c-0.2-1.3-0.4-1.5-1.4-1.4c-0.6,0.1-1.4,0.2-1.8,0.2
	c-1.1,0-0.8,1.4,0.6,2.7c1.1,1.1,1.4,1.2,2.1,0.6C146.3,169.7,146.5,169.1,146.3,168L146.3,168z M134.1,159.3c0-0.2-0.3-0.4-0.7-0.4
	s-0.8,0.2-0.8,0.4s0.3,0.4,0.7,0.4S134.1,159.5,134.1,159.3z M139.1,159.4c-0.2-0.6-1-0.6-1.3,0c-0.1,0.2,0.2,0.4,0.7,0.4
	C138.9,159.9,139.2,159.7,139.1,159.4L139.1,159.4z M150.3,155.6c0.2-0.8-0.6-1.5-2-1.6c-1,0-1.3,1.2-0.5,1.9
	C148.6,156.6,150,156.4,150.3,155.6L150.3,155.6z M155.6,150.7c0.2-0.3,0.7-0.6,1.3-0.6c0.9,0,1.8-0.9,1.3-1.4
	c-0.2-0.1-1.2-0.3-2.2-0.3c-1.5-0.1-2-0.3-2.2-0.9c-0.2-0.5-0.2-1,0-1.2s0.1-0.6-0.1-0.9c-0.3-0.5-0.6-0.5-1.3,0.1
	c-0.5,0.4-1.2,0.7-1.6,0.6c-0.4,0-0.7,0.2-0.8,0.4c0,0.2,0.2,0.4,0.5,0.4c0.7,0,0.5,1.8-0.2,2.4c-0.5,0.4-0.5,0.6-0.1,1
	c0.5,0.4,0.7,0.4,1.2,0c0.9-0.7,2.5-0.5,2.8,0.2c0.1,0.4,0.5,0.6,0.7,0.7C155.1,151.3,155.4,151,155.6,150.7L155.6,150.7z
	 M163.9,143.7c0.7-0.3,0.6-0.5-0.1-1.3c-1.6-1.6-3.5-1-2.3,0.7C162.2,144.1,162.8,144.3,163.9,143.7L163.9,143.7z M190.2,140.4
	c0.5-0.4,1.6-0.7,2.3-0.6c2.6,0.1,3.8-0.4,4.8-1.9c0.8-1.2,1-1.9,0.7-3.1c-0.4-1.9-0.3-1.8-2.2-2.1c-1.2-0.2-1.7-0.1-2.6,0.7
	c-0.7,0.6-0.8,0.9-0.3,0.7s0.5-0.1-0.1,0.4c-1,0.8-2.6,0.4-2.5-0.7c0-0.4-0.2-0.8-0.5-0.8c-0.9,0-4.2,2-3.9,2.4
	c0.2,0.2-0.1,1-0.5,1.7c-0.7,1.2-0.6,1.3,0.6,2.3c0.7,0.6,1.1,1.1,0.8,1.2c-0.3,0.1-0.4,0.5-0.3,0.8
	C186.9,142.1,188.6,141.6,190.2,140.4L190.2,140.4z M194.8,128.7c0.9,0.2,1.9,0.1,2.5-0.3c1.6-0.9,4.4-0.6,5.7,0.5
	c1.1,0.9,1.2,0.9,1.7,0.3c0.3-0.4,0.9-0.7,1.3-0.7c0.8,0,1.9-1.2,1.9-2.1c0.1-0.9-7.2-3.9-9.6-4c-1.6-0.1-2.1,0.1-2.4,0.8
	c-0.2,0.5-1.6,1.7-3,2.8c-2,1.4-2.5,2.1-2.4,2.7c0.2,0.8,0.3,0.9,1.5,0.3C192.9,128.6,193.9,128.5,194.8,128.7L194.8,128.7z
	 M173.3,115.8c0.9-0.7,0.9-2.8,0.1-3.5c-1.2-1-3.5-0.7-4.1,0.6C168.2,114.9,171.5,117.2,173.3,115.8L173.3,115.8z M210.6,114.9
	c0.4,0,0.6-0.4,0.6-1.1c-0.1-0.9-0.5-1.3-1.9-1.7c-1-0.3-2.3-0.6-2.9-0.6c-0.6,0-1.8-0.4-2.6-0.7c-2.1-0.9-3.2-0.6-3.3,1.1
	c-0.1,1.5,1.6,2.7,3.5,2.4c0.6-0.1,1.7,0.1,2.5,0.5c0.7,0.4,1.8,0.6,2.4,0.5C209.4,114.9,210.2,114.8,210.6,114.9L210.6,114.9z
	 M953.2,139.6c0-0.2-0.2-0.3-0.5-0.2s-0.5,0.3-0.5,0.4c0,0.1,0.2,0.2,0.5,0.2C952.9,140,953.2,139.8,953.2,139.6L953.2,139.6z
	 M214.3,102.5c-0.4-0.4-0.8-1.1-0.8-1.4c0-1.2-3.9-4.4-4.8-3.8c-0.7,0.5,0.3,2.6,2.1,4C213.4,103.4,216.3,104.4,214.3,102.5z
	 M272.1,87.3c-0.3-1.7-0.8-2.2-5.4-6.8c-2.2-2.2-3.4-2.2-2.6,0c0.3,0.8,0.9,1.8,1.4,2.3s0.9,1.1,0.9,1.3c0,0.7,4.3,4.5,5.1,4.6
	C272.2,88.7,272.3,88.5,272.1,87.3L272.1,87.3z M261.5,87.1c0-0.4-0.6-1.9-1.3-3.3c-0.8-1.4-1.4-3-1.3-3.5c0-0.5-0.5-1.6-1.2-2.5
	s-1.5-2.2-1.9-2.9c-1-1.8-3-2.9-4.3-2.3c-0.6,0.3-1.4,0.4-1.8,0.4c-0.4,0-0.8,0.1-0.8,0.2c0,0.7,1.3,2.8,2.7,4.2
	c0.9,0.9,1.7,2.3,1.8,3.1c0.2,1.1,1.1,2.2,3.7,4.4C260.6,87.9,261.4,88.4,261.5,87.1L261.5,87.1z M283.1,88.3c0-0.2-0.2-0.4-0.5-0.4
	s-0.5,0.2-0.5,0.4c0,0.2,0.2,0.4,0.5,0.4C282.9,88.7,283.1,88.5,283.1,88.3L283.1,88.3z M393.5,77.3c0.1-2-0.6-2.9-1.9-2.5
	c-0.5,0.2-2.1,0.5-3.6,0.7c-2.4,0.4-2.8,0.5-2.7,1.3c0.1,0.7,0.7,1,2.7,1.5c1.4,0.3,3.2,0.6,4,0.7C393.3,79.1,393.4,79,393.5,77.3
	L393.5,77.3z M596.6,74.1c1.1,0,0.2-0.7-1-0.8c-0.8,0-3.5-0.3-6-0.6c-4.8-0.5-7.5-0.2-7.9,0.7c-0.2,0.4,1.4,0.5,7.2,0.6
	C592.9,74,596.4,74.1,596.6,74.1L596.6,74.1z M732.1,73c0-0.2-0.7-0.2-1.5-0.2c-1.5,0.1-1.9,0.4-1.3,1
	C729.6,74.2,732.1,73.4,732.1,73L732.1,73z M143.1,340.7c0.4-0.6,1.3-1.8,2.2-2.7c0.8-0.9,2.1-2.8,2.8-4.2c1.3-2.7,3.3-5.3,5.4-7
	c0.7-0.6,1.3-1.4,1.5-1.8c0.1-0.4,0.5-0.9,0.9-0.9c0.7-0.2,0.6,0.2-1.7,4.9c-0.7,1.5-2,3.3-2.9,4.1c-0.8,0.8-1.6,1.6-1.6,1.7
	s-0.5,0.6-1,1s-1.3,1.6-1.7,2.5c-0.9,2.2-1.9,3.2-3.3,3.3C142.6,341.8,142.5,341.7,143.1,340.7L143.1,340.7z M157,322.1
	c0-0.3,0.3-0.6,0.6-0.6s0.4-0.2,0.2-0.5s-0.1-0.4,0.2-0.2c0.4,0.2,0.4,0.5,0,1.1C157.4,322.9,157,322.9,157,322.1L157,322.1z
	 M173,297.5c0-0.7,1.3-1.8,1.9-1.8c0.8,0,0.9,0.4,0.4,1.4C175,297.7,172.9,298,173,297.5L173,297.5z M386.5,275.1
	c-1.6-1-1.3-1.5,1-1.4c2.2,0.1,3.3,1.1,1.9,1.8C388.4,276,387.8,275.9,386.5,275.1L386.5,275.1z M548,246.2
	c-0.5-0.5-0.3-0.8,0.8-1.7c1.2-0.9,1.8-1,5.5-0.9c3.8,0.1,4.1,0.2,4.1,1c-0.1,1.2-1.5,2.1-3.4,2c-0.9,0-2.7,0-4,0.1
	C549.3,246.8,548.5,246.7,548,246.2L548,246.2z M118.1,158.8c-0.7-0.2-1.3-0.6-1.4-0.9c-0.2-0.5,0.4-0.5,2.8-0.2
	c2.9,0.4,5.2,1.3,3,1.3c-0.6,0-1.5,0-2,0.1C119.8,159,118.8,158.9,118.1,158.8L118.1,158.8z M114.4,157.4c0.4-0.1,0.9-0.1,1.3,0
	c0.3,0.1,0.1,0.2-0.7,0.2C114.3,157.6,114,157.5,114.4,157.4L114.4,157.4z M192.8,109.9c-0.3-0.8,0.5-1.9,1-1.5
	c0.2,0.2,0.1,0.7-0.2,1.2C193.1,110.4,193,110.4,192.8,109.9L192.8,109.9z M945.8,135.7c0.2-0.1,0.6-0.1,1,0
	c0.4,0.2,0.3,0.2-0.3,0.2S945.6,135.8,945.8,135.7L945.8,135.7z M156.1,70c-0.3-0.7,0.8-1.8,1.7-1.8c0.8,0,2.5,1.7,2.1,2
	C159.2,70.8,156.3,70.6,156.1,70L156.1,70z M907.5,94.1c-1.1-0.2-3.8-0.5-5.9-0.6c-4.3-0.3-4.7-0.4-4.3-1.1c0.2-0.4,1.4-0.5,5-0.2
	c2.6,0.2,4.9,0.5,5.2,0.7s1.4,0.4,2.4,0.4c1.2,0,1.8,0.2,1.6,0.5C911.2,94.4,909.9,94.5,907.5,94.1L907.5,94.1z M913.5,94.4
	c-1.4-0.4-1.4-0.5,0.7-0.7c1-0.1,1.4,0,1.4,0.5C915.5,94.9,915.3,94.9,913.5,94.4L913.5,94.4z M893.2,92c-0.6-0.5-0.3-0.9,0.7-1.2
	c1.1-0.2,3.1,0.5,3.1,1.2C897,92.5,893.8,92.5,893.2,92L893.2,92z M311,28.3c-0.3-0.4-0.7-1.7-0.8-3.1c-0.1-1.3-0.4-2.7-0.6-3
	s-0.4-2.6-0.3-5.1c0-2.5-0.2-5.5-0.5-6.7c-0.5-1.8-0.4-2.4,0.1-2.9s0.8-0.6,1.3-0.2c0.6,0.5,1.9,6.2,2.4,10.5
	c0.2,1.4,0.7,3.4,1.1,4.5c1.1,2.6,0.9,5.4-0.4,6.1C312,29.1,311.7,29.1,311,28.3L311,28.3z"/>
</svg>
