<?xml version="1.0" encoding="utf-8"?>
<!-- Generator: Adobe Illustrator 25.2.0, SVG Export Plug-In . SVG Version: 6.00 Build 0)  -->
<svg version="1.1"
	 id="svg2" xmlns:cc="http://creativecommons.org/ns#" xmlns:dc="http://purl.org/dc/elements/1.1/" xmlns:rdf="http://www.w3.org/1999/02/22-rdf-syntax-ns#" xmlns:svg="http://www.w3.org/2000/svg"
	 xmlns="http://www.w3.org/2000/svg" xmlns:xlink="http://www.w3.org/1999/xlink" x="0px" y="0px" viewBox="0 0 1003.8 348.9"
	 style="enable-background:new 0 0 1003.8 348.9;" xml:space="preserve">
<style type="text/css">
	.st0{fill:#F6C60C;}
</style>
<path id="path2987" class="st0" d="M849.7,362.9c-1.7-0.5-2-3.3-0.3-3.3c1.1,0,3,2.1,3,3.3C852.4,363.6,852.2,363.6,849.7,362.9
	L849.7,362.9z M874.5,360.3c-0.4-1.3,1.5-3.3,2.5-2.5c0.5,0.3,0.8,1.2,0.8,2C877.8,361.4,875,361.9,874.5,360.3L874.5,360.3z
	 M853.8,357.8c0.4-0.3,1.1-0.3,1.6-0.1c0.5,0.3,0.2,0.5-0.6,0.5C853.9,358.3,853.5,358.1,853.8,357.8L853.8,357.8z M289.6,363.9
	c-0.2-0.6-0.1-1,0.2-1c0.3,0,0.7,0.4,0.8,1c0.2,0.6,0.1,1-0.2,1C290.1,364.9,289.8,364.4,289.6,363.9L289.6,363.9z M853.9,351.6
	c0-0.8,0.3-1.3,0.6-1c0.9,0.6,1.1,2.5,0.2,2.5C854.3,353.1,853.9,352.4,853.9,351.6z M900.6,348.7c-0.6-0.8-0.5-1,0.5-0.9
	c0.7,0,2,0.4,2.9,0.8c1.5,0.7,1.5,0.8-0.5,0.9C902.3,349.6,901.1,349.3,900.6,348.7L900.6,348.7z M895.8,347.1
	c0.4-0.3,0.9-0.3,1.3,0c0.4,0.3,0.1,0.5-0.6,0.5C895.8,347.6,895.5,347.4,895.8,347.1L895.8,347.1z M902.7,346.8
	c0-0.5,0.9-1.2,2-1.6c3.4-1.1,3.2-3-0.3-2.5c-1.7,0.2-3.7-0.1-4.6-0.8c-0.9-0.6-3.4-1.9-5.5-2.8c-2.2-0.9-4.6-2.3-5.4-3.1
	c-0.8-0.8-2.4-1.7-3.7-2c-3.2-0.8-3.5-3.3-0.4-3.4c1.4,0,2.2,0.4,2,1s0.2,1.1,0.9,1.2c2.2,0.3,2.7,0.4,4.6,1.3
	c2.1,1,2.5,1.2,3.8,1.3c0.5,0.1,0.9,0.7,0.8,1.4c-0.1,1.4,5,3.5,9.1,3.6c3,0.1,4.8,2.5,3.9,5.3c-0.5,1.5-1.2,1.9-3.8,1.9
	C904.2,347.7,902.7,347.3,902.7,346.8L902.7,346.8z M892.2,346.2c-0.1-0.1-1.5-0.5-3.1-0.7c-1.6-0.3-3.4-1-3.9-1.6
	c-0.8-0.9-0.5-1,1.4-0.7c4.5,0.9,6.8,1.7,7,2.5C893.8,346.4,892.5,346.8,892.2,346.2L892.2,346.2z M269.3,349.9
	c-0.2-0.6-0.8-0.8-1.3-0.5c-0.7,0.4-0.9,0.2-0.7-0.7c0.4-2-2.4-4.8-3.7-3.8c-1.6,1.3-2.3,1.1-2.3-0.5c0-0.8,0.3-1.5,0.8-1.5
	c0.4,0,0.8-0.5,0.8-1c0-0.6-0.4-1-0.8-1s-0.8-0.4-0.8-1c0-0.5-0.9-0.8-2.1-0.6c-1.1,0.2-2.1,0-2.1-0.5s0.2-1,0.5-1s0.5-1.2,0.5-2.6
	s0.2-2.5,0.5-2.6c0.7,0,0.7-3.8,0-4.6c-0.8-1-2,1.5-2,4.3s-0.8,3.2-1.5,0.7c-0.5-1.6-0.6-1.6-1.3-0.1c-0.7,1.4-0.7,1.7,0,2.2
	c0.4,0.3,1,1.7,1.3,3.1s0.8,2.6,1.2,2.6c1.3,0,1.4,2.9,0.2,3.3c-1.1,0.4-1.1,0.4,0.2,1.4c1.3,1,1.3,1,0.2,1.7
	c-0.6,0.4-1.3,0.6-1.5,0.5s-1,0.1-1.6,0.5c-0.8,0.6-1.4,0.2-2.2-1.3l-1.1-2.1h2.1c2.2,0,2.7-2,0.7-3c-1-0.5-1.3-2.4-1.3-6.6
	c0-1.1-0.2-2.6-0.5-3.3s-0.4-1.6-0.3-2.1c0.1-0.5-0.1-2-0.5-3.3c-0.5-1.9-0.7-2.1-0.7-0.7c0,2.3-2.1,2.5-2.1,0.2
	c0-0.9-0.2-1.3-0.5-1s-0.5,0.1-0.5-0.6s0.4-1,1-0.7s1,0.2,1-0.3c0-1.4-2.9-1.9-6-1s-3.8,0.4-3.9-2.6c0-2.1,1-2.5,2.5-1.1
	c2.2,2.1,2.9,0.8,2.2-3.6c-0.3-1.9-0.5-4.3-0.3-5.2c0.2-1,0.1-1.7-0.3-1.7c-0.8,0-3.4,4.1-3.2,5c0.1,0.4-0.1,0.8-0.4,1
	c-0.3,0.2-0.5-0.2-0.5-0.8c0-0.6-0.6-1.1-1.3-1.1c-1.3,0-1.8,1.6-0.7,2.3c0.4,0.2,0.5,1.4,0.2,3.3l-0.4,2.9l-2.4-5.2
	c-2.3-5-3.3-5.9-5.1-4.5c-1.2,0.9-1,1.8,0.8,5.5c1.6,3.3,1.8,5.9,0.5,5.2c-0.4-0.2-1.4-0.5-2.3-0.6c-1.3-0.2-1.5-0.6-1.4-2.9
	c0.2-3.8-1.2-2.4-1.6,1.5c-0.2,1.7-0.7,3.3-1.2,3.7c-0.5,0.4-1.2,1.5-1.6,2.5c-1,2.7-4,2.6-4.4-0.1c-0.2-1.5,0-2,0.7-2
	c0.5,0,1,0.4,1,1s0.4,0.3,0.9-0.5s1.3-2.1,1.9-2.9c1.3-1.9,0.7-4.6-1.3-6.1c-1.6-1.2-2.2-3.7-0.8-3.7c1.3,0,0.7-3.2-0.9-4.3
	c-0.7-0.5-0.8,0.1-0.8,2.6c0,2.6-0.2,3.3-1.1,3.6c-0.9,0.3-1.1,0.8-0.9,2.1c0.2,1.2-0.1,2.2-1,3.2c-1.1,1.2-1.6,1.2-3.3-0.4
	c-1.1-1-1.7-2-1.3-2.3s0.6-1.3,0.6-2.4c0-1.3,0.4-2,1.1-2c1.4,0,1-2.5-0.5-2.9c-1.2-0.3-1.5-2.7-0.5-3.6c0.5-0.4,0.5-0.8-0.1-1.6
	c-0.6-0.9-0.5-1.2,0.9-1.8c1.2-0.5,1.5-1,1.2-1.7c-0.4-0.7-0.8-0.6-1.3,0.2c-0.4,0.7-1.1,0.9-1.6,0.6s-2.2,0.2-3.8,1.2
	c-3,1.8-4.6,3.6-3.3,3.5c0.4,0,0.5,0.5,0.3,1.1c-0.2,0.8-0.5,0.8-0.9,0c-0.3-0.6-1-1.1-1.5-1.1c-1.1,0-1.9,2.3-1,2.9
	c0.4,0.3,0.5,0.8,0.1,1.6c-0.5,1.3-0.2,6.8,0.5,6.8c0.2,0,0.3,0.9,0.1,2c-0.3,2-1.5,2.7-2.5,1.3c-0.3-0.4-0.9-2.7-1.3-5.1
	c-0.4-2.4-0.9-4.3-1.2-4.3s-0.4-0.6-0.4-1.3c0.1-0.7-0.1-2.1-0.3-3.1c-0.5-2.4,1-5.8,2.3-5.1c1.2,0.6,1.3-1.1,0.4-5.5
	c-0.4-2.2-0.7-2.5-1-1.4c-0.3,0.9-0.2,2,0.1,2.8c0.4,0.9,0.4,1.4-0.2,1.7c-6,3.8-10.8,5.9-12.5,5.3c-0.5-0.2-0.9,0.1-0.9,0.7
	s0.4,0.8,0.8,0.5c0.9-0.7,1,0.5,0.1,2.3c-0.5,1.1-0.5,1.2,0,0.7c0.7-0.8,0.9,1,0.2,1.9c-0.3,0.3-1.7,0.1-3.2-0.5
	c-5.1-2-7-2.1-8.5-0.5c-1.3,1.4-1.3,1.6-0.4,2.1c3,1.7,7.2,2.5,8,1.6c1.2-1.2,3.1-1.4,3.1-0.2c0,0.5,1.2,0.4,2.6-0.2
	c1.8-0.7,2.9-0.7,3.8,0.1c1,1,1.1,1.1,0.1,0.9c-0.8-0.2-1,0.3-0.9,1.9c0.1,1.7-0.4,2.5-2.4,4c-3.4,2.5-7.7,2.8-8.5,0.7
	c-0.9-2.3-2.3-3.1-2.8-1.5c-0.5,1.8-3.3,2.7-4.4,1.5c-1.3-1.4-2.5,0.8-2.1,3.9c0.4,2.9-0.4,3.1-2.6,0.9c-2-2-2.9-1.9-2.9,0.6
	c0,1.1-0.2,2-0.5,2s-0.5-1.1-0.5-2.4c0-2.1-0.2-2.3-2.2-2.1c-1.2,0.2-2.5,0.3-2.8,0.4s-0.5,0.7-0.3,1.6c0.2,0.8,0.1,1.6-0.1,1.6
	c-4.4,0.9-6,0.9-5.8-0.3c0.1-0.7,0.8-1.3,1.5-1.3c1.3,0,3.6-2.5,3.6-3.8c0-0.4-0.7-0.8-1.5-0.8s-1.7-0.5-2-1.1s-1.4-1.1-2.4-1.2
	c-1.1-0.1-1.9-0.7-1.9-1.4c0-0.8-0.5-0.7-1.6,0.5c-2,2.3-2,3.3,0.1,3.3h1.7l-1.3,2l-1.3,2l1.9-0.6c2.4-0.8,2.6,0.9,0.4,2.7
	c-1.4,1.2-2.1,3.1-1.1,3.1c0.2,0,0.4,0.9,0.5,2c0,1.1-0.2,2-0.6,2c-0.4,0-1.1,0.9-1.6,2c-0.9,1.9-0.9,2.1,0,2.7
	c0.6,0.4,1,0.2,1.2-0.5c0.3-2,1.1-1.4,1,0.9c-0.1,1.9-0.3,2-2.4,1.4c-1.3-0.3-2.6-1-2.9-1.5c-0.3-0.5-1.1-0.9-1.9-0.9
	c-2,0-1.8-1.6,0.4-3.1c1-0.7,1.8-1.6,1.8-2.1s0.5-0.9,1.2-1c1.1,0,1-0.1-0.3-1.5c-0.8-0.8-1.8-1.5-2.2-1.5s-0.7-0.4-0.7-1s0.5-1,1-1
	c0.7,0,1-0.7,1-2c0-2.5-2.7-4.3-5.3-3.6c-1.1,0.3-2.5,0.1-3.2-0.4c-1.2-0.9-1.3-0.7-1.6,3.3c-0.3,3.8-0.2,4.4,1.3,6.8
	c1.7,2.7,1.6,4.1-0.1,4.1c-0.7,0-0.9-0.5-0.7-1.5s-0.1-1.7-1-2.1c-0.7-0.4-1.1-1.1-1-1.9c0.1-0.7,0-1.6-0.3-2
	c-0.4-0.5-0.4-1.1,0-2.2c0.9-2.3-0.9-4.4-2.8-3.3c-1.8,1-1.9-0.3-0.1-2.6c0.8-1.1,2.1-1.6,3.3-1.5s2.4-0.4,2.9-1.2
	c0.5-0.8,1.7-1.3,2.6-1.2c2.3,0.4,3.8-0.7,3.8-2.5c0-1.6-1.3-2-1.8-0.5c-0.2,0.6-0.8,0.6-1.4,0.2c-0.6-0.4-1.8-0.3-2.6,0.3
	c-1.7,1.3-2.4,0.4-1.5-1.9c0.7-1.7,0.7-1.8-0.8-3.4c-1-1-0.9-1.2,0.6-2.3c1.2-0.9,1.7-1.8,1.7-3.5c0-2-0.3-2.3-1.7-2.3
	c-1,0-2.4-0.7-3.3-1.5c-0.9-0.9-1.7-1.3-1.9-0.9s-0.3,0.1-0.3-0.5c0-1.6-5.6-2.7-6.4-1.3c-0.5,0.8-0.8,0.8-1.2,0.1
	c-0.4-0.7-0.5-0.3-0.3,1.6c0.3,3.1-0.6,3.5-2.4,1c-1-1.4-1.5-1.4-3.4-0.4c-1.2,0.7-2.3,1.2-2.4,1.1s-0.9,0.3-1.6,0.9
	c-1.4,1-4.4-0.6-8.3-4.5c-0.8-0.8-2.2-1.4-3.2-1.4s-2.3-0.8-3-2c-1.3-2.3-2.4-2.5-4.4-0.9c-0.9,0.7-1.6,0.7-2,0
	c-0.4-0.6-1.3-1.1-2-1.2c-1.4-0.2-1.8-1.3-0.7-2.1c0.4-0.3-0.1-1.3-1-2.4c-0.9-1-1.7-2.2-1.7-2.7c0-0.4-0.5-0.8-1.1-0.7
	c-1.4,0-1.2-4.1,0.4-5.6c0.6-0.6,1.5-1.7,2-2.5c1.2-1.9,2.3,0.1,1.4,2.4c-1.4,3.4,0.7,4.7,3.6,2.2c1.3-1.1,1.7-2.1,1.8-4.2
	c0-2.5-0.1-2.7-1.6-2.1c-1,0.4-1.8,0.2-2-0.6c-0.3-0.8,0-1,0.7-0.6c0.8,0.4,1.1,0.1,1.1-1c0-1.2-0.5-1.4-2.5-0.8
	c-1.4,0.4-2.7,1.1-2.9,1.6c-0.6,1.1-2,0.1-1.6-1.1c0.2-0.6-0.3-0.7-1-0.3c-0.7,0.4-1.3,0.2-1.3-0.3c0-1.2-2.3-3.3-3.5-3.3
	c-1.1,0-0.2,1.7,1.2,2.3c1,0.4,1,0.5,0.1,1.2c-1.4,1.3-4-1.2-3.6-3.5c0.2-1.6,0-2-1.1-1.9c-0.8,0-1.5-0.7-1.7-1.6
	c-0.2-1.2-0.8-1.4-2.5-0.9c-1.6,0.5-1.9,0.4-1.4-0.4c0.4-0.6,1.6-1.1,2.5-1.1c1.4,0,1.7-0.4,1.4-1.6c-0.2-0.9-0.3-1.8-0.3-2
	s-1.1-0.7-2.3-1c-1.7-0.5-2.7-0.2-3.6,1c-1.7,2.2-1.6,3.3,0.1,4.1c0.9,0.4,1.2,0.9,0.8,1.5c-0.4,0.4-0.5,1.5-0.3,2.5
	s0.1,1.7-0.2,1.7c-0.3,0-0.6,0.5-0.6,1c0,0.6,0.4,1,0.8,1c0.7,0,0.7,0.3,0.2,1.5c-1,2.4-1.7,1.8-1.5-1.3c0.3-3.6-0.9-5.9-3.4-6.8
	c-1.6-0.6-1.9-0.4-1.9,1c0,0.9-0.3,1.6-0.8,1.7c-0.4,0-0.8-0.4-0.8-0.9s-1.1-1.1-2.3-1.2l-2.3-0.3v3.9c0,3.1-0.1,3.7-0.7,2.9
	c-0.4-0.6-1.2-0.8-1.8-0.5c-0.7,0.4-1.1,0.1-1.1-0.5s-0.5-1.1-1-1.1c-0.8,0-1-0.7-1-3c0-1.7-0.3-3.1-0.7-3.1c-0.4-0.1-0.1-0.5,0.6-1
	c1.1-0.7,0.9-0.8-0.9-0.7c-2.8,0.2-3.8-2-1.8-4c1.4-1.5,2.9-1.8,3.5-0.7c0.6,1.1,4.1,3.3,5.4,3.3c0.6,0,1.2-0.5,1.2-1
	c0-0.6,0.4-1,0.8-1c0.6,0,0.7-0.4,0.2-2c-0.3-1.1-0.9-2-1.3-2c-1.3,0-1.4-1.9-0.2-5c0.9-2.3,1.7-3.2,3.5-3.8c2-0.6,2.2-0.9,1.3-1.6
	s-1-1.7-0.9-4.9c0.2-4.4-0.1-4.9-1.6-2.3c-0.9,1.6-1,1.5-1.3-1.6c-0.4-3.7-1.4-5-2.5-3.1c-0.5,0.9-1,0.9-1.8,0.1
	c-1.4-1.4-1.4-2.6,0-4.4c0.8-1.1,1-2.1,0.7-4.6c-0.2-1.8-0.6-3.2-0.9-3.2c-0.3,0,0-0.7,0.6-1.6c0.9-1.3,1-1.9,0.6-3.1
	c-0.5-1.2-0.3-1.6,1-2.6c0.9-0.6,1.5-1.6,1.3-2.1s0.1-1.6,0.6-2.4c0.5-0.8,0.8-1.5,0.7-1.7s-1-1.4-1.9-2.6c-1.9-2.6-5-3-6.1-0.8
	c-0.6,1.2-0.5,1.6,0.5,2.5c1.6,1.4,2.6,4.8,1.7,5.9c-0.9,1.1-4.6,0.6-5.5-0.7c-0.4-0.6-1.3-0.8-2.1-0.5c-1.1,0.4-1.6,0.1-2.1-1.3
	c-0.5-1.6-4.3-3.8-5.5-3.2c-0.2,0.1-0.4-0.4-0.4-1.1c0-1.8,5-7.2,6-6.5c0.4,0.3,1.3-0.1,1.8-0.9c0.6-0.8,1.4-1.2,1.9-0.9
	c0.5,0.4,0.7,0.2,0.4-0.5c-0.5-1.6,0.7-2.8,1.4-1.4c0.9,1.6,4.3,1.3,5-0.5c0.4-0.8,1-1.5,1.4-1.5s0.9-0.7,1-1.5
	c0.3-1.7,3.3-2.2,3.3-0.6c0,0.6-0.4,1-1,1c-0.5,0-1.5,0.9-2.2,2l-1.2,2l2.4-0.6c2.8-0.6,3.1,0,3.3,5.9c0.1,2.6-0.1,4.3-0.7,4.9
	c-0.6,0.7-0.6,1,0.3,2c0.8,0.8,1.4,0.8,2.5-0.1c0.9-0.8,1.5-0.9,1.7-0.2c0.2,0.6,0.8,1.3,1.3,1.7c1,0.7,1.3,2.7,0.4,2.8
	c-1,0,1.4,3.8,2.9,4.5c1.6,0.8,4.9-2.1,4.9-4.2c0-1.7-1.7-3.3-3.4-3.3c-0.7,0-1.3-0.4-1.3-0.9s-0.5-1.1-1-1.4c-0.6-0.3-1-1-1-1.6
	s0.5-1.1,1-1.1c0.6,0,1-0.7,1-1.4c0-0.8,0.3-1.7,0.8-2c0.4-0.3,0.8-1.3,0.8-2.2c0-2-3.3-2.1-4.1-0.1c-1,2.3-2.6,2.8-2.6,0.7
	s1.6-5.2,2.7-5.2c0.8,0,2.4-3,1.6-3.2c-0.8-0.1-2.1-0.7-3.3-1.4c-1.4-0.9-1-2.6,0.5-1.8c0.9,0.5,1,0.2,0.7-2.1
	c-0.3-2.1-0.2-2.7,0.5-2.7c1.6,0,0.8-1.6-1.4-2.7c-1.9-0.9-3.7-1-6-0.4c-0.3,0.1-0.7,1.4-1,3c-0.4,2.5-0.7,2.8-2,2.5
	c-1.2-0.3-1.6,0.1-2.1,2.2c-0.5,2.3-0.8,2.5-2.4,2c-1.3-0.4-2.1-0.1-2.7,1c-1.3,2.3-4,3-5.1,1.3c-1.4-2-1.7-1.8-1.4,0.7
	c0.3,1.9,0.1,2.1-1.3,1.5c-1-0.4-2.3-0.1-3.5,1c-2.6,2.1-2.6,2.1-1.1-1.8c0.7-1.9,1.3-4.2,1.3-5.1c0-2.1,1.2-2.2,2.1-0.2
	c0.7,1.6,2.1,2,2.1,0.6c0-0.5-0.4-1.5-0.8-2.2c-0.9-1.5-1-4.2-0.2-5.9c0.7-1.5,2.6-1.6,3.3-0.3c0.7,1.4,3.1,1.7,3.3,0.5
	c0.1-0.6,0.4-1.8,0.6-2.7c0.3-1.2,0.1-2.5-0.8-4.7c-0.7-1.7-1.3-3.6-1.3-4.2c0-0.8-0.5-1-1.4-0.6c-1.3,0.6-1.4,0.6-0.4-0.9
	c1.1-1.8,0.9-2.7-2.5-8.8c-2.4-4.4-1.7-5.4,1.6-2.2c2.9,2.8,3.7,2.9,3.7,0.3c0-2.7,2.3-6.2,3.7-5.5c0.8,0.4,0.9,0.8,0.4,1.5
	c-0.6,0.8-0.6,1.1,0,1.5c0.6,0.5,0.6,0.7,0,1.4c-1,1.3,0.6,4.2,2.4,4.2c1.4,0,3.9-3.8,3.9-5.9c0-1.7,2.7-3.4,4.2-2.6
	c1.4,0.7,2.3-0.7,3.1-5.5c0.4-2.2,1.3-2.3,1.7-0.3c0.2,1.1,0.8,1.3,2.5,0.9c1.7-0.5,2.3-0.3,2.5,0.9c0.2,0.8,1.3,1.8,2.4,2.2
	c1.2,0.4,2.1,1,2.1,1.4s0.5,0.8,1.2,0.9c1.1,0.1,1.1,0.1,0.2-1.3c-0.9-1.3-0.8-1.5,1.6-1.6c2.6-0.1,11.1-2.8,9.5-3
	c-0.9-0.1-1.6-3-1.7-6.7c0-1.1-0.6-3.1-1.3-4.3c-1.5-2.7-1.3-3.3,1.4-4c1.4-0.4,2.6,0,3.8,1.1c1.9,1.9,3.1,2.1,3.1,0.6
	c0-0.6,0.3-1,0.8-1c0.4,0,0.8-0.5,0.8-1c0-0.6,0.2-1,0.5-1s0.1,1.2-0.3,2.6c-1,3.1-5.9,7.9-6.6,6.6c-0.7-1.2-1.3-1.1-1.3,0.2
	c0,0.6,0.2,0.8,0.5,0.5s0.6,0.2,0.8,1.1c0.3,1.4,0.8,1.5,3.3,0.9c2.8-0.7,6.8-3.5,6.8-4.9c0-0.4-0.5-0.9-1.1-1.2
	c-0.9-0.5-1-0.8-0.5-1.8s0.9-1,1.9,0.1c0.7,0.7,1.6,1.1,2,0.8c1.1-0.8,1.7-0.7,1.6,0.3c-0.2,1.2,0.8,1.1,2-0.2c1-1.1,1-1.2-0.3-3.1
	c-1.6-2.5-1.9-6.6-0.3-5c1.3,1.3,2.5,0.4,2.8-2.1c0.3-2.1,2.9-3,3-1c0,1.6,1,1.2,1.4-0.6c0.2-0.9-0.1-2.4-0.5-3.4
	c-1.3-2.8-1.1-3.2,2.1-2.6l3,0.5l-1.1-2.1c-0.6-1.1-1.5-2.1-1.8-2.1c-0.4,0-1.2-0.7-1.7-1.5c-1-1.4-0.9-1.5,0.5-1
	c2.2,0.7,4.1-1.5,4.2-4.9c0.1-3.5,1-6.9,1.9-6.9c0.3,0,1.9,1,3.5,2.2c3.6,2.8,9.3,2.6,9.3-0.2c0-2.1,1.9-4,4.1-3.9
	c1.2,0.1,1.6-0.3,1.4-1.5c-0.3-2,0.7-3.8,1.7-3.3c0.7,0.3,0.7,0.3,0-0.7c-0.6-0.8-0.7-1.4-0.2-3c0.4-1.4,0.5-2.2,0-3.1
	c-0.4-0.8-0.4-1.1,0.3-1.2c0.6,0,0.9-0.8,0.9-2.6c0-2.4,1.5-3.8,1.6-1.5c0,0.6,0.1,1.4,0.1,1.8s0.6,2.1,1.2,3.7
	c1,2.8,1.2,2.9,3.2,1.8c2.2-1.1,5-0.7,4.5,0.7c-0.5,1.6,2.9,1.9,6.4,0.5c2.5-1,4.5-1.1,6.5-0.5c1.6,0.5,3.2,0.6,3.4,0.3
	c0.3-0.3,0.9-0.1,1.5,0.5c0.7,0.7,1.4,0.7,2.5-0.1c0.8-0.7,1.7-1.1,2-1s0.4-0.1,0.2-0.5s0-1.3,0.3-2.1c0.9-1.8,1.5-1.8,1.1,0
	c-0.3,1.8,0.6,2.5,2.2,1.6c1-0.5,1.1-0.8,0.5-1.6c-1.7-2.1-3.3-3.5-4-3.5c-0.4,0-0.6-0.5-0.4-1.1c0.2-0.6,0.8-0.8,1.5-0.4
	c1.1,0.6,1.1,0.6,0.1-0.9c-0.6-0.9-0.9-1.6-0.8-1.7c0.1,0,1.8-0.2,3.7-0.4c2.4-0.2,3.7-0.8,4.3-2.1c0.5-1,1.2-1.7,1.6-1.8
	c0.4,0,0.7-0.5,0.7-1c0-0.6-0.3-1-0.7-1s-1.2-1.6-1.8-3.5l-1.1-3.5l1.4-0.1c0.8-0.1,1.6,0,1.9,0.1c2.1,0.9,7.1-0.1,8.5-1.7
	c1.3-1.5,1.7-1.6,2.2-0.7c0.5,1,0.4,1.2-0.2,1.2c-1.2,0-1.6,1.9-0.9,3.6c0.4,0.9,0.9,1.1,1.5,0.6c2-2,4.2-3,4.2-2s2.5,0.7,5-0.6
	c0.6-0.3,2.2-0.9,3.6-1.3c3.7-1,4.4-1.6,4.1-3.1c-0.2-1,0.4-1.2,2.7-0.9c2.3,0.4,3.5,0,5.5-1.8c1.8-1.6,3.9-2.4,6.8-2.6
	c4.8-0.4,5.7-1.1,4.8-3.2c-0.5-1.2-0.4-1.4,0.5-1.4c1.4,0,1.4-1.6,0.1-3.1c-0.6-0.6-1-1.8-1-2.7c0-1.3,0.4-1.5,1.8-1
	c1,0.4,1.9,0.2,2.1-0.4c0.2-0.6,0-1.1-0.4-1.2s0.4-0.5,1.7-0.9l2.3-0.7l-2.4-0.1c-1.3-0.1-2.6,0.3-2.8,0.9s-0.6,1-0.9,1
	c-0.3,0,1-3,2.9-6.6c2.3-4.5,3.3-7.1,3.1-8.2c-0.3-1.7-0.2-1.8,5.2-2c1.7-0.1,3.2,0.4,3.4,1s1.1,1.6,1.9,2.2
	c1.2,0.9,1.4,1.3,0.8,2.1c-0.7,0.8-0.6,1,0,1c0.4,0,1.1-0.5,1.4-1.1c0.4-0.8,1-0.8,2.3,0c1.9,1.2,2.9,1.1,2.6-0.3
	c-0.1-0.5,0.4-0.7,1.2-0.4c0.9,0.3,1.4,0,1.6-1.4c0.3-1.6,0.5-1.7,1.7-0.7c0.8,0.7,1.6,1.6,1.7,2.1s0.7,0.6,1.2,0.3
	c0.7-0.6,1.1-4.1,0.9-10.5c0-0.7,0.3-1,0.7-0.7c0.4,0.3,2-0.1,3.6-0.7c2.1-0.9,3-1.8,3.2-3.2c0.2-1.5,0.8-2,2.7-2.1
	c3.2-0.2,4.6-0.5,6.8-1.5c1.3-0.6,1.7-0.5,1.4,0.4c-0.2,0.6-0.1,1.2,0.2,1.2c0.3,0,0.7-0.5,0.8-1c0.2-0.6,0.8-1,1.4-1
	c0.7,0,0.9,0.4,0.7,1.2c-0.3,0.8,0,1,0.9,0.5c3.4-1.9,8.2-3,9-2.1c0.7,0.8,0.3,1.5-2.3,3.7c-1.7,1.5-3,3.2-2.8,3.8
	c0.5,1.4,3.4,1.2,6.8-0.6c1.6-0.9,3.6-1.6,4.3-1.6c1.3,0,1.3,0.1,0.3,1.5c-0.5,0.8-2.2,2.2-3.6,3.2c-4,2.6-4.2,3.9-0.6,2.9
	c1.7-0.5,4.3-0.8,5.7-0.8c1.4,0.1,3.9-0.5,5.4-1.3c2.6-1.4,2.9-1.3,4,0.4c1.2,1.8,1.2,2,0.3,3.1c-0.8,1-0.7,1.1,0.5,0.6
	c0.8-0.3,2.5-0.9,3.8-1.3c2-0.6,2.3-1,2.3-3.1c0-2.2,0.2-2.4,1.7-2.2c1.2,0.2,1.7,0.9,1.9,2.3c0.2,1.6,0,1.8-0.5,0.9
	c-0.4-0.6-1.1-1.3-1.6-1.7c-0.8-0.5-0.8-0.2-0.4,2c0.3,1.7,0.3,3,0,3.8c-0.3,0.7-0.3,1.8-0.1,2.6c0.4,1.1,0.9,1.2,3.2,0.1
	c1.5-0.7,3.5-1.5,4.3-1.8c0.9-0.3,2-1,2.6-1.5s1.7-1.4,2.5-2c1.2-0.9,1.4-1.6,1.4-4.7c0-2.8-0.3-3.8-1.1-4.2
	c-1.5-0.8-1.3-1.8,0.9-3.7c2.7-2.4,6.6-3.7,7.6-2.5c0.8,0.9,0.7,1.2-0.5,2.8c-1.1,1.4-1.2,1.9-0.6,2.4c0.4,0.3,1.3,0.3,1.9,0
	c0.8-0.4,1.1-0.2,0.8,0.6c-0.5,1.7,1.3,1.5,3.5-0.4c1-0.9,2.1-2.5,2.4-3.6c0.7-2.7,1.6-2.6,3,0.4c0.9,2,1.8,2.6,4.6,3.1
	c2,0.4,4.5,1.1,5.6,1.7c1.1,0.6,3.7,1,5.6,0.9s3.5,0.3,3.5,0.7c0,1-1.5,1.7-5.4,2.7c-2.9,0.7-6,2.6-6,3.7c0,0.4-0.5,1-1.1,1.3
	s-1,1.2-0.9,1.9c0.3,1.9,5,2,6.8,0.2c0.8-0.8,1.7-1.2,2-0.8s0.4,0.2,0.2-0.5c-0.2-0.7,0.2-1.4,1.1-1.8c0.8-0.3,2.4-1.3,3.5-2.1
	c2.5-1.7,3.4-1.9,2.3-0.4c-0.6,0.8-0.2,0.9,1.3,0.4c1.2-0.4,2.4-1.6,2.8-2.7c0.4-1.2,1-1.8,1.5-1.4c0.4,0.3,1.1,0.1,1.5-0.6
	c0.4-0.6,1.2-0.9,1.7-0.6c0.6,0.3,1,0.2,1-0.2c0-1.9,15.6-4.2,19.5-2.9c0.9,0.3,3.4,0.1,5.7-0.4s4.6-0.6,5.2-0.2c1,0.8,1,0.8,0,1
	c-0.6,0.1-1.2,0.1-1.4,0.1c-0.5-0.1-0.5,1.1,0,2.7c0.5,1.6,5.2,4.3,5.6,3.2c0.3-1.1,6-1.2,6-0.1c0,0.4,0.5,1.3,1.2,1.9l1.2,1.1
	l-1.3,0.2c-2.1,0.4-2.3,0.5-3.9,1.7c-0.9,0.7-3.1,1.5-4.9,1.8c-3.5,0.7-5,2.1-3.4,3.3c0.5,0.4,2.2-0.1,3.8-1c1.8-1,3.1-1.3,3.4-0.7
	s0.3,1-0.2,1c-0.4,0-0.5,0.4-0.4,0.9c0.6,1.9,31.9-0.5,35.8-2.7c1.1-0.6,2.9-1,3.8-0.9c1.2,0.2,1.9-0.3,2.4-1.7
	c0.6-1.8,1.4-2,7.3-2.3c3.6-0.2,6.8-0.5,7-0.8s2.9-0.6,6-0.7c3.1-0.1,6.1-0.6,6.7-1c0.6-0.5,1.3-0.4,1.4,0.1c0.3,1.1,3.1,0.5,5.1-1
	c0.7-0.6,1.4-0.7,1.4-0.3c0,0.8,5.8,0.5,10.2-0.5c1.9-0.4,2.7-0.3,2.7,0.6c0,0.7,0.4,1,1,0.7c0.7-0.4,1,0,1,1c0,1.1,0.3,1.4,1.3,0.9
	c0.9-0.4,1.2-0.3,1,0.4c-0.2,0.6-0.9,1.1-1.5,1.1c-0.7,0-1.5,0.7-1.8,1.6c-0.4,0.9-1.5,1.5-2.7,1.6c-1.2,0-1.9,0.4-1.7,1
	c0.2,0.6,0,1-0.5,1c-0.4,0-0.8,0.5-0.8,1c0,1,1.1,0.7,3.8-0.8c0.5-0.3,1.2,0.1,1.4,0.8c0.4,1.1,0.8,1.1,2.8-0.3
	c1.9-1.4,2.4-1.4,2.9-0.4c0.7,1.5,7.8,1.9,7.8,0.3c0-0.5-0.5-1-1.2-1.1c-1.1-0.1-1.1-0.1,0.1-0.9c1.1-0.6,18.7-0.9,45.4-0.6
	c2.6,0,5.3-0.4,6.1-1s1.5-0.7,1.6-0.1c0.1,0.5,2,1,4.2,1.1s4,0.4,4,0.7s1.9,0.5,4.3,0.3c2.4-0.1,5.8,0.4,7.6,1.2s5.1,1.4,7.3,1.4
	s6.1,0.6,8.7,1.4s6.4,1.6,8.6,1.9c2.1,0.3,5.4,1,7.3,1.5c8.3,2.4,21.8,4.6,21.3,3.5s-9.2-4.6-14-5.6c-4.2-0.9-30.9-5.4-33.2-5.6
	c-2-0.2-6.3-1.8-6.6-2.5c-0.2-0.4,1.1-0.5,2.9-0.1c4.7,0.9,28.1,0.6,29.5-0.3c0.9-0.6,1.1-0.4,0.9,0.8c-0.3,1.4,0.5,1.5,5.7,1.2
	c3.3-0.2,6,0,6,0.5s0.4,0.9,0.8,0.9c0.4,0,0.7,0.4,0.5,0.9c-0.4,1.3,2.5,2.4,5.5,2.2c1.5-0.1,2.6,0.3,3,1.3c0.5,1.2,2.1,1.4,7.9,1.3
	c4-0.1,7.4,0.1,7.6,0.5c0.2,0.3-1.5,0.7-3.7,0.8c-4.6,0.2-4.8,0.3-5.2,1c-0.2,0.3,1,0.7,2.6,0.8s3.7,0.8,4.7,1.6
	c2.3,1.9,9.7,3.7,15.2,3.8c2.4,0,4.9,0.6,5.5,1.2s3.8,1.4,7,1.7c9.6,0.9,15.8,2.2,18.2,3.8c2.5,1.7,7.7,2,7.7,0.5
	c0-0.5-0.4-1.1-0.9-1.4c-0.9-0.4-0.9-0.5,0-0.6c0.5-0.1,1.1,0.6,1.2,1.5c0.2,1.1,0.4,1.3,0.7,0.4s1.1-0.9,3.4,0
	c1.7,0.7,3.8,0.9,4.7,0.6s1.8-0.2,2,0.2c0.4,1.2,5.4,1.3,5.7,0.1c0.2-0.6,0.1-1.1-0.2-1.1s-0.6-0.7-0.6-1.5c0-2,1.8-2,2.6,0
	c0.6,1.3,0.6,1.7,0,2.4c-0.4,0.5,0.2,0.9,1.6,0.9c1.2,0,2.8,0.3,3.6,0.6c0.7,0.3,3.7,0.5,6.6,0.5c2.9,0,5.4,0.4,5.6,0.8
	c0.1,0.5,0.7,0.6,1.3,0.3c0.6-0.3,1.4,0,1.8,0.7c0.5,0.7,1.7,1,3.1,0.7c1.3-0.3,2.3-0.1,2.3,0.4s0.4,0.9,0.8,0.9
	c0.5,0,0.7-0.5,0.4-1.2c-0.5-1.7,2.3-0.5,6,2.5c1.6,1.3,3.9,2.9,5,3.5c2.7,1.4,9.5,2.1,8.4,0.9c-1.2-1.3-1-3,0.3-2.7
	c0.7,0.2,1.1,1,1.1,2.1c-0.1,2,2.2,3.2,4.9,2.6c2.1-0.5,1.5-2.7-0.8-3.1c-1.5-0.2-2.5-1.8-1.2-1.8c0.3,0,0.5-0.6,0.5-1.4
	s0.3-1.7,0.8-2c0.5-0.4,0.8,0,0.8,1c0,1.4,0.4,1.5,2.4,1c2.6-0.7,5,0,4.6,1.4c-0.2,0.5,0.1,2.3,0.6,3.9c0.9,2.9,1,3,4.6,2.8
	c2.2-0.1,4.2,0.3,4.9,1.1c0.8,0.8,3.8,1.4,7.7,1.6c3.5,0.2,6.9,0.8,7.5,1.4c0.8,0.8,1.2,0.7,1.8-0.5c0.7-1.3,0.7-1.6,0-1.6
	c-0.4,0-1-0.6-1.4-1.4c-0.5-1.2-0.3-1.4,1.6-1.1c1.2,0.2,2.6,0.4,3.1,0.4s1.3,1.7,1.8,3.7c1.4,5.5,4.3,6.8,4.4,1.9
	c0-0.6,0.2-0.4,0.5,0.4c0.4,1.1,0.7,1,1.5-0.8c1.3-2.6,1.4-3.8,0.3-4.6c-0.5-0.3-0.8,0-0.8,0.8c0,1.7-0.9,2.4-2.4,1.8
	c-1.4-0.5-1.6-2.1-0.3-1.9c0.5,0.1,0.8-0.5,0.8-1.2c-0.1-0.8,0.1-2,0.4-2.8c0.3-0.8,0.4-1.4,0.2-1.4s0-0.7,0.4-1.6
	c0.9-1.8,1-5.3,0.3-7.5c-0.8-2.3-0.1-3.3,1-1.3c1.2,2.2,2.1,7,1.1,5.8c-0.4-0.5-0.5-0.4-0.3,0.4c0.5,1.5,1.3,0.3,2.5-3.9l0.9-3.1
	l-1.5-0.1c-0.9-0.1-1.1-0.3-0.5-0.6c0.8-0.4,0.8-0.7-0.4-2.6c-0.9-1.4-1.2-2.4-0.8-3.1c0.3-0.6,0.4-1.6,0.3-2.2
	c-0.2-1.1,1-2.8,2.9-4c0.4-0.3,1.1-2.4,1.4-4.8c0.6-3.8,0.8-4.2,2-4c1,0.2,1.4,1,1.6,2.6c0.1,1.9,0.4,2.2,1.4,1.7
	c0.9-0.5,1.3-0.2,1.3,1c0,2.6,1,1.9,1.6-1.2c1-5.4,2.8-5.8,5.1-1.1c1.1,2.3,1.6,4.3,1.6,6.8c0,1.9,0.4,4.3,0.9,5.4
	c0.6,1.3,0.7,2.1,0.3,2.6c-0.3,0.4-0.7,2.5-0.9,4.8c-0.2,2.2-0.7,5.7-1.2,7.6s-0.9,3.7-0.9,3.8c0,0.1-1,0.5-2.2,0.9l-2.2,0.7
	l0.1-7.5c0.1-11.8-0.9-20.5-1.9-17.2c-0.2,0.6-0.5,0.8-0.8,0.5s-1.1,0.8-1.9,2.4c-1.1,2.3-1.4,3.8-1.4,6.9c0.1,5.4,0.7,8.6,1.6,8.5
	c0.4,0,0.7,0.7,0.7,1.5s-0.2,1.5-0.5,1.5s-0.7,0.9-1.1,2.1c-0.4,1.6-0.4,2.1,0.1,2.4c3.5,1.9,5.1,3,5.1,3.5c0,0.3,1.9,1.5,4.2,2.5
	c3.6,1.6,4.1,2.1,3.4,3.3c-0.4,0.9-1.9,1.5-3.8,1.6c-3,0.2-3.1,0.2-2.6,2.5c0.3,1.4,1,2.3,1.8,2.3s1.2,0.6,1.2,1.9
	c0,2.2,1.9,3.2,3.6,1.9c0.8-0.6,1.8-0.3,3.1,1.1c1.3,1.3,3.7,2.2,6.7,2.6c3.6,0.5,4.9,1.1,5.6,2.5c1.3,2.7,0.7,3.2-2.7,2
	c-3.8-1.3-5.9-1.3-5.9,0c0,0.6,0.6,1.5,1.4,2c2.1,1.5,1,2.5-2.7,2.6c-1.9,0-3.5,0.6-3.7,1.2c-0.2,0.7-1,0.9-1.8,0.6
	c-1-0.3-1.3-0.8-0.8-1.3c0.4-0.5,0.2-0.8-0.6-0.8c-0.7,0-2.8-0.7-4.6-1.6c-4.4-2.2-7.1-2.8-7.5-1.7c-0.4,1.2,1.7,2.9,3.3,2.6
	c1.2-0.2,6.4,2.1,7.5,3.4c0.3,0.3,0.9,0.7,1.3,0.8c1.2,0.4,4.8,1.2,7,1.7c2.5,0.6,7,2.2,9.8,3.6c1.1,0.6,3.2,1.2,4.7,1.4
	s3.9,0.6,5.4,0.9l2.8,0.6l-0.9-2.6c-0.5-1.4-1.1-2.6-1.4-2.6c-0.3,0-0.2-0.9,0.2-2c0.9-2.7,1.9-2.6,3.7,0.5c0.8,1.4,1.3,2.5,1.1,2.5
	s-0.1,0.7,0.2,1.5c0.3,0.8,0.5,2,0.3,2.5c-0.2,0.6,0.1,1.1,0.6,1.1s1.2,0.4,1.5,0.9s1.7,1.2,3.1,1.5c1.4,0.3,3.2,0.8,3.9,1
	c1.4,0.5,2.9,1,8.1,2.5c1.7,0.5,4.2,1,5.6,1.1c2.6,0.2,4.3,1.6,3.1,2.5c-1.1,0.9,1.5,4,3.8,4.7c2.7,0.8,4.4-1,1.9-2
	c-0.9-0.4-1.8-1-2-1.5s-0.9-0.6-1.5-0.2c-0.8,0.4-1.3,0.2-1.3-0.5c0-0.6,0.2-1.1,0.5-1.1s0.4-0.5,0.2-1c-0.2-0.6,0.3-1,1-1
	s1.3,0.4,1.3,0.9c0,1,1.6,2.4,1.9,1.7c0.1-0.2-0.2-1.6-0.6-2.9c-1.1-3.4-0.3-4.7,3.6-5.4c1.7-0.3,3.1-0.8,3.2-1
	c0.4-0.8-5.5-9-8-11.2c-1.9-1.6-2.8-3-3-4.8c-0.3-2-0.9-2.9-3.3-4.3l-3-1.8l2.9-0.3l2.9-0.3l-0.3-3.5c-0.2-2.6-0.1-3.6,0.5-4.1
	c1.1-0.8,1.1-5.3,0-7.6c-0.4-0.9-0.9-3.5-1.1-5.7l-0.3-3.9l1.3,3c0.7,1.7,1.4,3.5,1.4,4.1s0.6,2,1.2,3.1c0.6,1.1,1.9,3.7,2.9,5.7
	c0.9,2,2,3.7,2.3,3.7s0.5,0.9,0.3,2c-0.3,2.1,1.3,6.2,2.4,6.1c0.4,0,0.7,1.2,0.6,3.1c0,2.8-0.2,3.1-1.5,2.7c-1.1-0.3-1.4,0-1.4,1.4
	c0,2.4,0.9,3.4,1.8,1.9c0.4-0.7,1-0.9,1.3-0.5c0.4,0.5,0.4,0.9,0,1.5c-0.4,0.5,0.1,1.5,1.3,2.9c1,1.2,2.1,2.2,2.3,2.2
	s0.8,1.1,1.3,2.5s1.4,2.6,1.8,2.6c0.5,0,0.3,0.5-0.5,1.1c-0.7,0.6-2,0.8-2.9,0.6c-2.2-0.6-3.9,0.9-3.9,3.4c0,2.3-0.1,2.3,7.1,2.5
	c5.1,0.1,6.6-0.6,5.5-2.7c-0.5-0.9-0.8-0.9-1.3,0s-0.9,0.8-1.7-0.2c-2.1-2.9,0.3-4.4,5.1-3.1c1.8,0.5,1.9,0.7,1.2,2.3
	c-1,2.1-1,4.2-0.2,7.7c0.6,2.4,0.8,2.6,4.6,2.5c3.5,0,4.1,0.2,4.4,1.9c0.2,1.1,0.9,2.2,1.6,2.5c0.9,0.4,1.2,1.1,1,2.5
	c-0.3,2.2,2.5,6.7,3.6,5.8c0.5-0.4,0.5-0.5,0-0.6c-0.4,0-0.7-0.6-0.7-1.2c0-0.7,0.5-0.9,1.3-0.5c0.7,0.4,1.3,0.2,1.3-0.4
	c0-0.6-0.2-1-0.5-1s-0.5-0.3-0.4-0.8c0.1-0.4-0.2-1.8-0.6-3.1c-0.6-2-0.5-2.4,0.6-3.2c0.7-0.5,2.3-0.7,3.7-0.4
	c1.8,0.4,2.4,0.2,2.1-0.6c-0.2-0.6-0.9-1.2-1.6-1.1c-1.6,0-2.9-0.9-2.9-2.1c0-1.2,4.5-1.2,5.7,0.1c0.5,0.6,1.6,2.2,2.4,3.6
	c1.1,2,1.3,2.8,0.7,3.4c-0.5,0.7-0.4,1,0.4,1.5c1.2,0.7,1.5,3.5,0.5,3.8c-0.4,0.1-2.7,0.2-5.2,0.3c-2.8,0.1-4.8,0.6-5.2,1.4
	c-0.5,1-0.1,1.3,2,1.2c3.4,0,7.4,3.3,7.4,6.3c0,0.4-1.3,0.8-2.8,0.8c-1.6,0-3,0.5-3.1,1c-0.7,2.4,0.5,3.9,4,5.1c6,1.9,6.1,2,6.1,3.6
	c0,2.4-1.3,2.8-2.9,0.9c-0.9-1.2-2.5-1.8-4.3-1.8c-1.9,0-3.4-0.7-4.2-1.8c-1.6-2.1-5.5-2.3-5.9-0.2c-0.2,1.3,1.5,5.5,2.1,4.9
	c0.1-0.1,0.5-0.3,0.9-0.3c0.6,0,0.6,0.5,0.1,2.6c-0.5,2.4-0.8,2.6-2.8,2.2c-2.4-0.5-3,1-0.8,1.9c0.8,0.3,2.1,1,3,1.4
	c1.5,0.8,1.5,0.8,0.4,1.5c-1.7,1.1-1.4,2.5,0.5,2.5c0.9,0,2.2,0.6,2.7,1.3c0.6,0.8,2.1,1.6,3.5,1.9l2.4,0.5l-3-4.2
	c-1.6-2.3-3.4-4.7-4-5.4c-0.9-1.1-0.9-1.2,0.6-1.2c0.9,0,1.8-0.5,2-1.1s1.1-1,2-1c1.5,0,9.9,2.8,13.3,4.5l1.3,0.6l-1.5,0.9
	c-0.9,0.5-2.3,0.5-3.5-0.1c-3.2-1.6-10.3-2.6-10.3-1.4c0,1.9,4.8,5.4,8.2,6.1c2.3,0.5,3.2,1.1,3.3,2.1c0,1,0.6,1.4,2.1,1.4
	c1.4,0,2.2,0.5,2.4,1.5c0.2,0.8,0.8,1.5,1.3,1.5c0.6,0,1.6,0.9,2.4,2l1.3,2h-2.4c-1.3,0-2.7,0.6-3,1.3c-0.8,1.6-2.4,1-5.6-2
	c-3.3-3-6.4-3.8-8.8-2.2c-1.7,1.2-2.3,1.1-4.4-0.6c-1.3-1-2.4-2.4-2.4-3.1c0-0.6-0.7-1.6-1.6-2.2c-1.2-0.8-1.6-0.8-1.6,0.3
	c0,0.7,0.4,1.9,0.8,2.7c0.8,1.2,0.8,1.4,0,2.5c-1.4,2,0,3.2,5.4,4.4c2.7,0.6,5.4,1.4,6,1.6c1.2,0.5,2.7,0.8,7.8,2
	c3.3,0.7,2.7,0.9-5.7,1.5c-5.1,0.4-9.7,0.3-10.2-0.1c-0.5-0.5-1.6-0.5-2.6,0.1c-1.5,0.9-1.6,1-0.4,1.1c0.7,0,1.8,0.7,2.3,1.6
	c0.6,0.8,1.9,1.5,2.9,1.5c1.7,0,1.9,0.2,1.6,2.6c-0.2,2.2-0.1,2.5,1.1,2.5c0.8,0,1.8-0.6,2.4-1.3c1.7-2.1,9.8,0.5,11.5,3.7
	c0.7,1.4,1.6,2.5,1.9,2.5c0.3,0,0.9,0.9,1.2,2s0.7,2,0.9,1.9s0.7,0,1.2,0c1,0.2-3,3.1-4.3,3.2c-0.5,0-0.8,0.5-0.8,1.2
	c0.1,0.6-1.3,2-3,3s-2.6,1.9-1.9,1.9c0.8,0,1.1,0.5,0.8,1.3c-0.2,0.8-0.1,1,0.4,0.6c1-0.8,4.5,1.2,4.6,2.5c0,0.5-0.2,0.6-0.5,0.3
	c-0.3-0.4-0.4,0.1-0.2,1s0.6,1.6,1,1.6s0.7,0.5,0.7,1.1s-0.2,0.9-0.4,0.6c-0.2-0.3-0.8-0.1-1.2,0.4c-0.6,0.8-0.6,0.9,0.2,0.9
	c0.5,0,0.8,0.3,0.7,0.8c-0.3,0.9,0.5,1,5.5,1.3c4.1,0.3,3.6,1.8-0.6,1.9c-2.6,0.1-2.8,0.2-1.8,1.5c1.4,2,2.9,4.8,2.7,5.3
	c-0.1,0.2-1.1-0.4-2.1-1.2c-2.4-1.9-11.5-5.7-13.2-5.5c-2.2,0.3-1.8,1,0.8,1.6c1.4,0.3,2.8,0.8,3.2,1.1c1.3,0.8,0.1,1.8-2.1,1.7
	c-2.2-0.1-2.2-0.1-0.9,1.3c1.2,1.3,1.2,1.5,0.3,1.6c-1.5,0.3-2,0.5-3,1.4c-1.4,1.2-10.3-0.1-12.4-1.8c-1.7-1.4-1.7-1.5,2.3-1.5
	c2.3-0.1,4-0.5,4-1.1s-0.3-1-0.7-1.1c-0.4,0-2.5-0.2-4.8-0.3c-5.8-0.4-9.3-2-9.9-4.8c-0.3-1.2-0.9-2.1-1.3-1.9
	c-1.3,0.6-3.2-0.8-2.8-2c0.2-0.7,0.1-0.9-0.2-0.4c-0.3,0.4-0.6,0.2-0.6-0.3c0-0.6-0.4-1.1-0.9-1c-0.7,0-0.6,0.6,0.6,2.5
	c0.8,1.4,1.8,2.5,2.2,2.5s0.8,0.4,0.8,1c0,1.3-1.4,1.4-1.6,0.1c-0.2-1.2-3,0.1-4.4,2.1c-0.6,0.9-1.2,2.8-1.4,4.3
	c-0.2,2.3,0,2.8,1.9,4.1c4.6,3.2,6.3,4.6,5.6,4.7c-1.7,0.1,0.8,3,2.8,3.2c1.1,0.1,2.1,0.8,2.3,1.4c0.2,0.7,2.1,1.5,4.3,1.8
	c5.8,0.9,7.7,1.5,10.1,3.5c1.2,1,3.9,2.1,6,2.4c3.4,0.5,8.3,2.9,8.3,4c0,0.2-0.2,1.4-0.5,2.7c-0.3,1.3-0.7,4.2-1,6.5l0.2,3.2
	l-2.5-2.3c-3.1-2.9-4.7-3.1-2.3-0.3c1.4,1.6,1.6,2.3,1,3c-0.5,0.7-0.3,0.9,0.9,0.9c0.9,0,1.8,0.5,2,1.2c0.3,0.8,0,1-0.9,0.6
	c-0.7-0.3-4.1-0.8-7.5-1.1l-6.2-0.5l2.7,1.7c1.6,1,2.8,2.4,2.9,3.4c0.1,1.1,1,2,2.3,2.4c1.2,0.4,2.5,1.3,3.1,2.1
	c0.9,1.2,0.7,1.3-1.1,0.9c-1.1-0.3-3-1.1-4.2-1.9c-2.8-1.8-6.1-2.2-6.3-0.8c-0.1,0.6,0.3,1.4,0.8,1.7c0.6,0.3,1.1,1.6,1.2,2.9
	c0.1,1.8,0.7,2.6,2.1,3.4c2.2,1.2,2.3,1.3,1.9,4.5c-0.2,1.8-0.5,2.2-1,1.4c-0.4-0.6-1.3-0.7-2-0.2c-1.3,0.8-1.3,0.8,0.3,1
	c1.3,0.2,1.4,0.3,0.4,0.7c-0.7,0.3-1.5-0.1-1.9-0.7c-0.7-1-3.3-0.7-5.5,0.7c-1.4,0.9,1.1,2.8,3.4,2.6c1.6-0.2,1.8,0,1,0.7
	c-0.7,0.6,0.6,0.9,3.9,0.8c2.7-0.1,5.3,0,5.7,0.1s1.5-0.1,2.5-0.5c1.2-0.5,1.7-0.4,1.7,0.5c0,0.7-0.3,1-0.8,0.7
	c-0.4-0.3-0.7-0.2-0.5,0.2c0.1,0.4-0.8,1.4-2.2,2.1c-1.8,1-2.2,1.5-1.7,2.2c1,1.2,0.6,1.7-1.8,2.5c-1.6,0.5-1.8,0.4-0.8-0.3
	c1.2-0.9,1.2-0.9-0.4-1c-1.3-0.1-1.6,0.3-1.4,1.4c0.2,1.2,0,1.4-1.4,0.9c-2-0.7-1.8-0.7-3.6-0.3c-0.8,0.2-0.2,0.6,1.3,1l2.6,0.7
	l-2.7,0.2c-1.5,0.1-2.9-0.3-3-0.9c-0.2-0.7-1.7-0.8-4.3-0.3c-4.4,0.8-7.3,3.1-6.4,4.9c0.4,0.8,1.2,0.7,2.8-0.3
	c2.9-1.9,3.8-1.6,9.2,2.6c4.8,3.8,6.8,6.4,5,6.4c-0.6,0-1.9-0.9-3-2c-2.4-2.5-2.4-2.5-3,0.7c-0.5,2.5-0.7,2.6-2.9,2.1
	c-1.3-0.3-3.1-0.6-3.9-0.6c-0.9,0-1.5-0.5-1.5-1.4c0-1.9-1.7-2.9-3.7-2c-1.3,0.6-1.5,1.1-1.3,2.7c0.2,1.4,0.1,1.9-0.5,1.5
	c-0.4-0.3-0.7-0.1-0.7,0.5c0,1.2-2.6,0.8-5.7-0.9c-1.8-1-1.7-1.1,1.7-1.6c0.8-0.1,1.7-0.7,2-1.4c0.4-0.8,0-1.3-1.7-1.8
	c-1.2-0.4-3-1.8-3.9-3.1c-1.4-2.1-2.3-2.4-5.7-2.4c-4.9,0-6.4-0.6-6.4-2.8c0-1.1-0.1-1.2-0.3-0.4c-0.1,0.7-0.8,1.3-1.4,1.4
	c-0.6,0.1,0.2,0.9,1.7,1.9c3.3,2,3.9,4.5,1.1,4.7c-3.8,0.3-4.2,0.5-4.1,2c0,0.9-0.6,2-1.2,2.5c-0.7,0.5-1.4,1.4-1.6,2
	c-0.5,1.7-2.4,1.4-2-0.4c0.2-0.8,0-1.5-0.3-1.5s-0.5-0.5-0.3-1c0.2-0.6,0.1-1-0.1-0.9c-0.2,0.1-0.8,0.1-1.2,0
	c-0.7-0.1-0.7-0.2,0-1.1c0.6-0.8,0.6-1-0.3-0.8c-0.6,0.1-2,0.1-3.1,0c-1.5-0.1-1.9-0.4-1.3-1.1c0.5-0.7,0.3-0.9-0.9-0.8
	c-0.9,0.1-1.9-0.3-2.2-0.9s-1.1-0.8-1.8-0.5c-1,0.4-1.2,1-1,2.4c0.3,1.7,0.1,1.8-1.4,1.3c-0.9-0.3-2-0.7-2.4-0.9
	c-0.4-0.2-0.6,0.3-0.6,1.1c0,0.8-0.2,1.5-0.5,1.5s-0.4-0.4-0.2-1s-0.6-0.8-2-0.5c-2.1,0.4-2.4,0.3-2.4-1.5s-0.3-1.9-2.6-1.4
	c-1.4,0.3-2.6,0.2-2.6-0.3c0-1.3-7.9-0.2-8.8,1.3c-0.6,0.9-0.8,0.9-1-0.1c-0.2-1.1-0.4-1.1-1.1,0c-0.7,1.1-0.8,1.1-0.4,0
	c0.3-0.9,0.2-1.3-0.3-1.1c-1.6,0.4-2.6-0.1-2.2-1.1c0.2-0.7,0-1-0.6-0.9c-0.5,0.1-1.8,0.1-2.8,0c-1.8-0.2-1.8-0.3,0.5-1
	c2.2-0.7,2.2-0.8,0.5-0.9c-1-0.1-2.4-0.4-3.1-0.7c-1-0.4-1.1-0.3-0.5,0.5c0.7,1,0.7,1.1,0,1.1c-0.4,0-1.3-0.6-1.8-1.4
	c-0.7-1-1.7-1.2-3.4-0.7c-1.3,0.4-3.2,0.3-4.2-0.1c-1-0.5-3.2-1.3-4.9-1.9c-2.8-1-3.1-0.9-3.8,0.8c-0.5,1.3-0.5,2.2-0.2,2.9
	c0.9,1.8,0.6,3.7-0.6,3.6c-0.9-0.1-0.9-0.2-0.3-0.6c0.5-0.3,0.8-0.8,0.7-1.3c-0.1-0.4-1.5-0.2-2.9,0.6c-3.6,1.9-7,2.1-9.4,0.6
	c-1.1-0.7-2.5-1-3.1-0.8c-1,0.4-0.7,0.9,1.6,2.8c1.5,1.3,2.7,2.7,2.7,3.2c0,0.9-1.9,1.3-4.3,1.1c-1.1-0.1-1.4,0.3-1.4,1.9
	c0,2.3-0.6,2.6-2.1,1.1c-0.5-0.5-3-1-5.5-1.1s-5.2-0.4-6.1-0.7l-1.6-0.6l1.7-1.4c1.3-1.1,1.6-1.7,1.1-2.8c-0.8-1.9,0.5-2.9,2.9-2.2
	c2.4,0.7,3.3-1.3,1.7-4.1c-2-3.5-5.9-7.4-7.4-7.3c-0.8,0-1.9-0.5-2.5-1.1s-2.6-1.2-4.5-1.3c-2-0.1-4.5-1-6.3-2.3
	c-1.6-1.2-3.7-2.2-4.8-2.1c-1.1,0-3.1-0.4-4.4-0.9c-2.5-1-11.2-2.5-19.1-3.4l-4.2-0.5l2.5,1.5c1.4,0.8,2.5,1.8,2.5,2.1
	c0,0.6-5.7,0.4-6.6-0.3c-1-0.7-0.8-2.3,0.3-2.4c0.8-0.1,0.8-0.2-0.1-0.9c-1-0.9-1-0.9,0-1c1.7-0.2-1.1-2.1-3.3-2.2
	c-1-0.1-2.7-0.6-3.7-1.3c-1-0.7-3.8-1.1-6.3-1s-4.2-0.2-3.9-0.6c0.4-0.5,0.3-0.9-0.2-1.2c-1.5-0.9-9.7-3.6-13.8-4.5
	c-2.3-0.5-5.7-1.4-7.5-2c-1.9-0.6-4.6-1.4-6-1.8s-2.8-1-3.1-1.3s-2.5-0.9-4.9-1.2c-2.4-0.3-4.8-0.8-5.2-1c-1.1-0.5-8.3-1.5-14-1.8
	c-4.7-0.3-10-1.1-13.2-2c-0.9-0.2-2.7-0.7-4.2-1c-1.4-0.3-5.1-1.3-8.1-2.4c-3-1-7-2.1-8.9-2.4s-6-1.2-9.1-2c-7.4-2-8.9-2.2-14.4-2.8
	c-2.6-0.3-6.8-0.9-9.3-1.4c-5.3-1-10.9-1.8-15.8-2.2c-1.9-0.2-4.3-0.8-5.5-1.4c-1.2-0.7-7.2-1.3-13.8-1.5c-16.9-0.5-23.3-1-23.9-1.7
	c-0.3-0.3-0.9-0.2-1.4,0.3s-3.2,1.3-6.1,1.7c-14.1,2.1-16.1,2.4-16.9,1.8c-0.4-0.4-3.3-0.3-6.5,0.2s-9.8,1.2-14.8,1.6
	s-9.2,0.7-9.3,0.8c-0.1,0-2.1,0.2-4.4,0.5c-2.3,0.2-6.3,0.7-8.8,1.1c-2.6,0.4-7.9,1-11.9,1.4c-11,1-14.6,2.2-16.1,5
	c-0.5,0.9-1.1,1.5-1.3,1.2c-0.2-0.3-0.6-0.1-0.7,0.4c-0.2,0.5,1,0.9,2.6,1c1.7,0.1,2.7-0.3,2.6-0.9c-0.3-0.9,8.9-0.6,13.2,0.5
	c1.7,0.4,3.9,0.6,22.7,1.5c4.7,0.2,8.7,0.8,9.1,1.2c0.3,0.4,3,0.7,5.8,0.5c3.2-0.1,4.7,0.1,3.9,0.6c-0.7,0.5-5,1-9.6,1.2
	c-11.6,0.4-14.2,0.8-16.9,2.3c-2.9,1.6-32.1,1.3-32.6-0.4c-0.9-2.8-15.5-4-17.7-1.5c-1,1.1-1.1,1.5-0.4,1.5c0.9,0,1.3,2.1,0.4,2.1
	c-0.3,0-1.9-0.9-3.7-2c-3.3-2.1-5-1.7-3.3,0.7c0.9,1.3,0.9,1.4-0.2,1.4c-0.6,0-1.3-0.7-1.6-1.5c-0.6-1.9-6.6-3.3-7.1-1.6
	c-0.2,0.8-1.3,0.9-3.2,0.5c-2.1-0.5-3-0.2-3.7,0.9c-0.5,0.9-1.2,1.8-1.7,2.1c-1.7,1.2,10.1,1.2,14-0.1c1.5-0.5,1.7-0.3,1.2,0.7
	c-0.6,1.3-3.8,2.2-8.6,2.4c-1.4,0.1-2.5,0.4-2.5,0.7c0,0.8-0.5,0.9-6.2,1.5c-3,0.3-5,0.9-5.3,1.7c-0.3,0.9-0.4,0.9-0.6,0
	c-0.2-1.3-10-1.7-10.7-0.5c-0.2,0.3,1.3,0.6,3.3,0.6c3.8,0,11.5,2.1,12.1,3.4c0.2,0.4-4.3,0.5-9.9,0.2c-10.8-0.6-12.3,0-8.2,3.2
	c3.3,2.5,2.6,3.7-1.7,2.8c-5.1-1.1-9.1-0.8-9.8,0.6c-0.8,1.7-1.4,1.5-1.4-0.4c0-1.2-0.3-1.4-1.2-0.7c-0.6,0.5-3.6,0.9-6.6,1
	c-6.2,0.2-7,0.4-5.2,1.5c0.8,0.5-0.5,0.8-3.5,0.8c-5.1,0-6.2,0.7-4.7,2.8c1.3,1.9,0.6,2.6-2.8,2.7c-1.6,0-3.6,0.5-4.5,1.2
	c-0.8,0.6-2.5,1.3-3.7,1.5s-2.5,1-2.7,1.7c-0.8,2.5-0.5,5.8,0.6,6.4c2.1,1.3,1,2.3-3.2,3c-5.5,0.9-7.2,0-7.9-4.1
	c-0.5-3.3-2-4.6-3.8-3.2c-1.9,1.5-4.9,1.1-4.9-0.5c0-1.7-0.8-2-1.3-0.5c-0.2,0.6-1.2-0.1-2.4-1.6c-1.8-2.2-2.3-2.4-3.4-1.5
	c-0.9,0.8-1.9,0.8-3.6,0s-2.9-0.8-4.3,0c-5.9,3.3-6.3,3.4-7.8,0.4c-0.9-1.8-1.9-2.8-3.1-2.8c-0.9,0-1.7,0.3-1.7,0.6
	c0,0.4-0.7,1.3-1.5,2.1c-1.8,1.6-2,3.2-0.5,3.2c0.6,0,1,0.5,1,1.1s0.5-0.1,1.1-1.6c1.3-3.2,2.2-2.6,1.7,1.1c-0.3,2.6-0.3,2.6,1.6,2
	c1.5-0.5,1.9-0.3,1.7,0.8c-0.2,0.9,0.3,2,1.5,3.1c1.6,1.4,4,5.5,3.3,5.5c-1.4,0-5.9-2.2-6.2-3.1c-0.3-0.8-0.6-0.8-1.3,0
	c-0.9,1-0.9,1.1,0,1.8c0.7,0.5,0.8,1.3,0.6,2.9c-0.2,1.2-0.3,3.4-0.3,5c0,2.6-0.1,2.8-1.9,2.8c-2.1,0-2.7-0.5-3.5-3.5
	c-0.3-1.1-0.8-2-1-1.9s-0.8-0.5-1.2-1.3c-0.4-0.7-0.9-1.1-1.1-0.8s-0.8-1-1.3-2.8c-0.5-2-0.8-2.4-0.6-1.1c0.2,1.7,0,2.1-0.7,1.7
	s-0.9-1.1-0.7-3.4c0.2-2.3,0.1-2.9-0.6-2.9c-0.5,0-1.2,0.7-1.6,1.5c-0.6,1.1-1.1,1.3-2.1,0.5c-0.7-0.5-1.6-0.7-1.9-0.3
	c-0.4,0.4-0.4,0.1-0.2-1c0.2-1.2-0.2-2.1-1.3-3.2c-2-1.9-2-1.9-2,0.3c0,1,0.7,2.5,1.4,3.3c1.7,1.6,4.1,5,3.6,5
	c-0.2,0,0.1,1.2,0.6,2.7c0.9,2.7,0.9,2.7-0.2,2.1c-0.8-0.4-1.2-0.1-1.2,0.9c0,0.8-0.4,1.4-1,1.4c-1.1,0-2.3-2.3-1.8-3.4
	c0.2-0.4,0.6-0.2,1,0.5c1.2,1.9,0.7-0.5-0.6-3.5c-1.2-2.7-1.4-2.8-2.8-1.4s-1.5,1.3-2.4-0.9c-1.2-3.2-1.8-3-1.8,0.7
	c0,2,0.3,3.1,0.8,3c0.4,0,0.7,0.5,0.7,1.1s1.2,2.1,2.7,3.3c2.1,1.6,2.9,2.8,3,4.5c0.1,1.2,0.4,2.2,0.7,2.2c0.3,0,0.4,0.3,0.3,0.6
	c-0.2,0.3-1.2-0.1-2.2-1c-1.1-0.9-2-1.4-2.1-1.2c-0.3,0.6,0.4,3.7,0.9,3.7c0.8,0,4.9,7.9,4.5,8.7c-0.2,0.4-0.8-0.1-1.3-1.2
	c-2.3-4.6-4.3-7.5-5.3-7.5c-0.7,0-0.9,0.5-0.7,1.5c0.3,1.6-0.5,2-3.8,1.7c-2-0.2-2.1,1.2-0.4,4.4c0.7,1.3,1.3,2.7,1.3,3.2
	s-0.3,0.3-0.6-0.4c-0.3-0.7-1.4-1.2-2.3-1.2s-1.8-0.4-2-0.9s-1-0.9-1.8-0.8c-1.9,0.1-2.7-0.8-2.7-3.1c0-1.2-0.7-2.2-2-3
	c-2.6-1.5-2.7-1.5-2.7,0.5c0,2.6,3.2,7.6,4.5,7.1c0.8-0.3,1.2,0.1,1.4,1.9c0.3,2.7-0.4,4.5-1.7,4.5c-2.3,0-7.7-6.3-11.5-13.4
	c-0.5-1-1.1-1.6-1.3-1.2c-0.2,0.4-0.1,1,0.2,1.4c0.6,0.8,2,5.3,2,6.6c0,0.5,0.4,1.4,0.9,2.1s0.9,1.7,0.9,2.3c0,0.5,0.6,1.5,1.3,2.2
	c1.6,1.4,1.2,3.2-0.7,3.2c-0.7,0-1.8,0.7-2.2,1.6C269.9,350.6,269.5,350.7,269.3,349.9L269.3,349.9z M266.6,325.4
	c-0.3-1.9-2.7-4-3.7-3.2c-0.4,0.3-0.4,1.3,0,3.9c0.7,4.4,3,6.4,3.6,3.2C266.7,328.2,266.8,326.4,266.6,325.4L266.6,325.4z
	 M263.2,325.7c0-0.6,0.2-1.3,0.5-1.7c0.3-0.3,0.5-0.2,0.5,0.4s-0.2,1.3-0.5,1.7S263.2,326.2,263.2,325.7L263.2,325.7z M287.4,330.5
	c-0.2-0.5,0-2.1,0.3-3.6c0.5-2.3,0.9-2.6,2.1-2.1c0.8,0.3,1.4,0.1,1.4-0.4c0-1.2-1.6-2.4-2.7-1.9c-0.4,0.2-0.6-0.2-0.6-0.9
	c0.1-0.7-0.3-1.5-0.9-1.8s-1-1-1-1.5s-0.8-1.2-1.8-1.5s-2.3-1.5-2.8-2.6c-1.3-2.3-1.6-2.4-1.6-0.4c0,1-0.3,1.3-0.8,0.9
	c-0.6-0.5-0.8-0.1-0.6,1.3c0.1,1.1,0.5,1.9,1,2c0.4,0,0.7,0.6,0.7,1.2c-0.1,0.7,0.8,1.7,2,2.4c1.1,0.7,2.1,1.6,2.1,2
	c0,0.5,0.5,1.9,1.2,3.1c0.6,1.3,1.2,2.6,1.2,3c0.1,1.6,0.2,1.8,0.8,1.8C287.5,331.3,287.6,330.9,287.4,330.5L287.4,330.5z
	 M292.3,327.2c0-0.6-0.3-1-0.6-1c-0.3,0-0.4,0.5-0.2,1s0.4,1,0.6,1C292.2,328.2,292.3,327.8,292.3,327.2z M944.3,312.4
	c-0.3-1.1-2.1-1.1-2.5-0.1c-0.1,0.4,0.4,0.8,1.3,0.9C943.9,313.2,944.5,312.8,944.3,312.4L944.3,312.4z M168.6,320.4
	c0.6,0.4,0.7,0.2,0.5-0.6c-0.6-1.8-1.9-1.4-1.8,0.6c0,1,0.2,1.2,0.3,0.6C167.7,320.3,168.2,320.1,168.6,320.4L168.6,320.4z
	 M249.4,320c0.5-1.1-0.7-4.4-1.5-4.4c-0.7,0-0.7,0.3-0.2,1.5c0.5,1.1,0.5,1.5,0,1.5c-0.3,0-0.5,0.5-0.3,1
	C247.8,320.8,248.9,321,249.4,320L249.4,320z M184.8,317.9c-0.2-0.3-0.4,0.3-0.6,1.3c-0.3,1.5-0.2,1.6,0.3,0.6
	C184.8,319,184.9,318.2,184.8,317.9L184.8,317.9z M156.6,318.9c-0.2-0.5-0.7-0.7-1.1-0.4c-1.1,0.8-0.9,1.4,0.3,1.4
	C156.4,319.8,156.8,319.4,156.6,318.9L156.6,318.9z M881.4,308.6c-0.4-0.3-0.8-0.2-1,0.1c-0.2,0.3,0.1,0.6,0.7,0.5
	C881.7,309.1,881.8,308.9,881.4,308.6L881.4,308.6z M163.4,314.9c-0.2-0.3-0.3,0.3-0.3,1.3c0,1.2,0.2,1.4,0.3,0.6
	C163.6,316.1,163.5,315.3,163.4,314.9L163.4,314.9z M840.3,307c-1.3-0.9-2.5-1.9-2.6-2.2c-0.1-0.3-0.6-0.6-0.9-0.7
	c-1.5-0.2-1.7-0.4-1.4-1.4c0.2-0.6,0-0.8-0.4-0.4c-0.4,0.3-1.5-0.2-2.4-1.1c-2.2-2.2-2.5-1.3-1,2.4c1.3,3.1,3.7,4.4,8.8,4.8l2.3,0.2
	L840.3,307z M147.9,314.9c0.5-1.7,0.5-2.2-0.4-3.1c-0.9-1-3.1,0.1-3.1,1.5C144.4,317.1,146.8,318.2,147.9,314.9L147.9,314.9z
	 M928.8,306.1c-1.2-0.8-6-1.1-5.4-0.3c0.4,0.5,1.9,0.8,3.3,0.8C928.1,306.5,929.1,306.3,928.8,306.1z M945.4,304.6
	c-0.2-0.3-0.6,0-0.9,0.7c-0.5,1-0.4,1.1,0.3,0.6C945.3,305.4,945.5,304.9,945.4,304.6z M313.9,310.6c-0.1-1.1-0.4-2.6-0.8-3.2
	c-0.3-0.7-0.6-1.8-0.6-2.5c0-1.8-0.4-1.7-1.5,0.7c-1,2-1,2,0.3,4.6C312.7,313.2,314.1,313.5,313.9,310.6L313.9,310.6z M157.7,312.5
	c0.6,0.1,1.3-0.3,1.5-0.9s-0.4-1-1.2-1c-1.9,0-3.2,0.9-3.2,2.3c0,0.6,0.4,0.7,0.9,0.3C156.1,312.8,157.1,312.5,157.7,312.5z
	 M287.4,309.5c-0.2-0.9-0.6-1.6-0.9-1.6c-0.4,0-0.4,0.7,0,2.1C287.2,312.4,287.9,312,287.4,309.5L287.4,309.5z M858,303.8
	c-0.4-0.3-0.8-0.2-1,0.1c-0.2,0.3,0.1,0.6,0.7,0.5C858.3,304.4,858.4,304.1,858,303.8L858,303.8z M950.9,302.5
	c-0.6-0.2-1.7-0.2-2.3,0c-0.6,0.3-0.1,0.4,1.2,0.4C951.1,303,951.6,302.8,950.9,302.5L950.9,302.5z M148.1,306.6l1.7-0.1l-1.7-1
	c-0.9-0.6-1.7-1.3-1.7-1.7c0-0.3-0.3-1.5-0.8-2.5c-0.7-1.7-0.9-1.7-1.8-0.4c-0.6,0.8-0.9,1.8-0.7,2.2c0.2,0.4-0.1,1.4-0.6,2.2
	c-0.9,1.4-0.9,1.5,0.3,2.3c0.7,0.5,1.8,0.5,2.5,0C145.9,307.1,147.2,306.7,148.1,306.6L148.1,306.6z M167.9,307
	c0.8-1.2,0.9-1.7,0.3-3c-0.9-2-3.1-1.9-4.3,0.2c-1.3,2.4-1.2,3.2,0.8,3.7c0.9,0.2,1.8,0.4,1.9,0.5
	C166.8,308.4,167.4,307.8,167.9,307L167.9,307z M968,296.1c-0.4-0.2-0.9,0.1-1.2,0.6c-0.4,0.8-0.2,0.9,0.7,0.4
	C968.1,296.8,968.4,296.4,968,296.1L968,296.1z M360.7,303.5c0-1.8-1.6-2.9-2.8-2c-1.7,1.3-0.8,3.5,1.3,3.5
	C360.2,304.9,360.7,304.4,360.7,303.5z M160.5,305.3c-0.5-0.9-0.8-0.9-1.2,0c-0.5,1-0.3,1.2,0.6,1.2
	C160.9,306.5,161,306.3,160.5,305.3L160.5,305.3z M900.6,295.8c2,0,1.7-0.6-0.8-1.3c-1.2-0.4-1.8-0.2-1.6,0.4
	c0.4,1.2-2.4,0.1-3.1-1.2c-0.3-0.5-1.3-0.9-2.3-1l-1.8-0.1l1.8-0.8l1.8-0.8l-1.7-0.1c-1.1-0.1-1.8,0.4-2,1.5c-0.2,0.9-0.6,1.3-1,1
	s-0.6-0.1-0.4,0.5c0.2,0.6,1.2,1,2.2,1c1.1,0,2.9,0.4,4,0.8s2.4,0.6,2.8,0.4C898.7,296,899.7,295.8,900.6,295.8L900.6,295.8z
	 M310.9,302.5c0-0.6-0.4-1-0.9-1c-0.8,0-0.8,0.2-0.1,1C310.9,303.8,310.9,303.8,310.9,302.5L310.9,302.5z M348,301
	c0.2-0.6,0.1-1.1-0.1-1.1c-3.6-0.9-4.5-0.5-3.4,1.5C345,302.5,347.7,302.2,348,301L348,301z M324.1,298.8c0.2-0.8,0.1-1.5-0.2-1.5
	c-0.3,0-0.5,0.7-0.5,1.5s0.1,1.5,0.2,1.5S323.9,299.6,324.1,298.8z M185.2,300.2c1.1-1.4,0-2-2.8-1.6c-3.4,0.5-3.8,2.6-0.4,2.5
	C183.4,301.1,184.8,300.7,185.2,300.2L185.2,300.2z M179.6,298.1c0-1-0.5-1.2-3.4-1.4c-1.1-0.1-1.5,0.3-1.4,1.2
	C175.1,299.5,179.6,299.7,179.6,298.1L179.6,298.1z M358.6,295.8c0-0.6-0.4-1-0.8-1s-0.8,0.5-0.8,1c0,0.6,0.4,1,0.8,1
	C358.3,296.8,358.6,296.4,358.6,295.8z M956.1,288.3c-0.4-0.3-0.9-0.3-1.3,0c-0.4,0.3-0.1,0.5,0.7,0.5
	C956.1,288.8,956.4,288.5,956.1,288.3L956.1,288.3z M206.5,296.1c0.2-0.4,0-0.8-0.4-1.1c-0.4-0.2-0.7-1.1-0.7-1.9c0-3-1.8-1-2.3,2.6
	c-0.4,2.3-0.3,2.4,1.3,1.8C205.5,297.1,206.4,296.5,206.5,296.1L206.5,296.1z M964.2,285.4c-0.1-0.2-0.9-0.7-1.8-1
	c-1.1-0.5-1.3-0.4-0.8,0.4C962.4,285.7,964.7,286.3,964.2,285.4z M162.9,292.5l1.2-1.5l-1.1-2c-0.9-1.7-1.3-1.8-2.8-0.8
	c-1.8,1.2-3.5,4.1-2.4,4.1c0.3,0,0.6,0.7,0.6,1.5C158.3,295.6,161,294.8,162.9,292.5L162.9,292.5z M141.4,293.6
	c-0.2-0.6-0.5-1-0.8-1s-0.5,0.5-0.5,1c0,0.6,0.4,1,0.8,1C141.4,294.6,141.6,294.1,141.4,293.6L141.4,293.6z M156.3,287.6
	c0.8-0.8,1.7-1.4,2.2-1.4c1.6,0,1.3-2.1-0.5-3.5c-2.4-1.9-2.3-1.9-2.3,0.5c0,2.3-2,4.4-2.8,3c-0.7-1.4-1.3-1.1-1.3,0.6
	c0,0.8-0.3,1.5-0.7,1.5s-0.9,0.5-1.1,1.1C149.3,290.9,154.5,289.5,156.3,287.6z M171.5,285.1c1.3-1.1,2.4-2.3,2.4-2.6
	c0-0.3-0.2-0.3-0.5,0.1s-0.9,0.1-1.3-0.5c-0.6-0.9-1.1-0.8-2.3,0.4c-0.9,0.9-1.7,2.1-1.9,2.8c-0.2,0.7-0.1,0.9,0.2,0.5
	s0.6-0.2,0.6,0.3C168.7,287.4,168.7,287.4,171.5,285.1L171.5,285.1z M949.3,276.1c-0.4-0.3-0.9-0.3-1.3,0c-0.4,0.3-0.1,0.5,0.7,0.5
	C949.4,276.7,949.7,276.4,949.3,276.1L949.3,276.1z M950.9,274.5c-0.1-0.4,0.8-0.8,2-0.9c1.9-0.1,2-0.3,0.9-0.9l-1.3-0.8l1.3-0.2
	c0.7-0.1,1-0.4,0.6-0.7c-0.4-0.3-1.7,0.2-2.9,1.1s-3,1.8-4.1,1.9c-2.8,0.4-2,1.4,1,1.4C950,275.3,951,274.9,950.9,274.5L950.9,274.5
	z M161.6,283.7c0.2-1,0-1.3-0.5-0.9c-0.8,0.6-1,2.4-0.3,2.4C161.1,285.2,161.4,284.5,161.6,283.7z M936.3,272.5
	c1.4-2.1,1.1-2.7-1.1-2.6c-1.3,0-2.1,0.6-2.3,1.5C932.4,273.9,934.8,274.8,936.3,272.5z M945.1,272.1c-0.4-0.3-0.8-0.2-1,0.1
	c-0.2,0.3,0.1,0.6,0.7,0.5C945.4,272.7,945.5,272.4,945.1,272.1L945.1,272.1z M949.4,270.7c-0.2-0.6-1.5-0.9-3-0.8l-2.7,0.2l2.3,0.7
	C949.6,271.8,949.8,271.8,949.4,270.7L949.4,270.7z M97.5,280.5c0-2.4-1-2.8-1.6-0.6c-0.5,1.8-0.4,2.1,0.5,2.1
	C97.1,281.9,97.5,281.3,97.5,280.5z M959.4,269.9c-0.5-0.3-1.2-0.2-1.6,0.1c-0.4,0.3,0.1,0.5,0.9,0.5
	C959.6,270.4,959.9,270.1,959.4,269.9L959.4,269.9z M430.8,268.7c-0.4-0.3-0.9-0.3-1.3,0s-0.1,0.5,0.7,0.5
	C430.9,269.2,431.2,269,430.8,268.7L430.8,268.7z M494.9,266.9c0.1-0.6-0.3-1.4-1-1.8c-1.7-0.9-9.8-1.3-10-0.5
	c-0.3,0.8-2.2,0.6-2.6-0.2c-0.4-0.8-1.8,0.2-1.8,1.4c0,0.5,2.2,0.9,4.8,0.8c6.6-0.1,6.6-0.1,6.9,1
	C491.6,269,494.6,268.4,494.9,266.9L494.9,266.9z M102.9,267.3c0.4-1,1.1-1.7,1.7-1.8c1.6,0,2.7-1.1,2.7-2.7c0-0.8,0.4-1.4,0.9-1.5
	c0.8,0,0.8-0.2-0.1-1.5s-0.9-1.5-0.1-2.1c0.5-0.4,0.9-1,0.9-1.5c0-1.6-2.1-2.1-3-0.8c-0.7,1-0.6,0.8,0.1-0.9l1-2.3l-1.6,0.4
	c-0.9,0.2-2.2,1.2-3,2.2s-1.8,1.6-2.3,1.3c-0.5-0.3-1-0.1-1,0.4s-0.4,1.1-0.9,1.4s0,0.4,1,0.3c1.1-0.2,1.9,0.1,1.8,0.5
	s0.4,1.5,1,2.4c0.9,1.4,0.9,1.6,0.1,1.1c-1.3-0.8-3.1,0.8-4.7,4c-0.7,1.5-1.3,2.8-1.3,3s1.4,0.2,3.2,0.1
	C101.4,269.1,102.5,268.6,102.9,267.3L102.9,267.3z M101.8,263.9c0.2-0.3,0.6-0.4,1-0.1s0.3,0.6-0.3,0.6
	C101.9,264.5,101.6,264.3,101.8,263.9L101.8,263.9z M106.3,257.4c0-0.5,0.2-1.2,0.5-1.6s0.4,0,0.2,1
	C106.7,258.6,106.3,258.9,106.3,257.4z M101.6,257c0-0.2,0.2-0.7,0.5-1.1c0.3-0.3,0.5-0.2,0.5,0.4s-0.2,1.1-0.5,1.1
	C101.8,257.4,101.6,257.2,101.6,257z M471.1,262.5c0-0.4-0.1-0.8-0.3-0.8c-2.1,0-2.1,0-1.3,1C470.4,263.8,471.1,263.7,471.1,262.5
	L471.1,262.5z M929.1,256.7c0.9-0.7,0.7-0.9-0.7-0.9c-1,0-1.6,0.4-1.4,1C927.4,257.9,927.7,257.9,929.1,256.7L929.1,256.7z
	 M963.4,251.1c-2.2-2-6.2-2.5-7.5-0.9c-0.8,1-0.8,1,2.8,2.4c0.6,0.2,2.3,0.4,3.9,0.4h2.9L963.4,251.1L963.4,251.1z M85,262.7
	c0-0.6-0.4-1-0.8-1s-0.7,0.5-0.5,1c0.2,0.6,0.5,1,0.8,1C84.8,263.8,85,263.3,85,262.7z M924.7,252.3c0-0.2-0.6-0.6-1.3-0.9
	s-1.2-0.1-1,0.4C922.7,252.7,924.7,253.1,924.7,252.3z M52.8,260.1c-0.4-0.5-1.1-1-1.6-1c-0.7,0-0.7,0.1,0,1c0.4,0.5,1.1,1,1.6,1
	C53.5,261.1,53.5,261,52.8,260.1L52.8,260.1z M60.1,254.5c0-1-1.6-1.4-1.8-0.5c-0.2,0.5,0.2,1,0.8,1
	C59.6,254.9,60.1,254.7,60.1,254.5z M87.9,253.9c1.7-0.9,0.9-3.5-1.2-3.4c-1.9,0-2.9,1.8-1.7,3.2C85.9,254.7,86.4,254.8,87.9,253.9
	L87.9,253.9z M928.4,241.8c-0.4-0.3-0.8-0.2-1,0.1c-0.2,0.3,0.1,0.6,0.7,0.5C928.7,242.3,928.8,242.1,928.4,241.8L928.4,241.8z
	 M931.4,240.7c0-0.7-3.3-3.4-3.5-2.9c-0.4,0.9,1.4,3.2,2.5,3.2C930.9,241,931.4,240.9,931.4,240.7L931.4,240.7z M71.2,244.3
	c-0.4-0.5-0.6-1.3-0.5-1.8c0.6-2-2.8-1.3-3.9,0.7c-0.6,1.2-0.5,1.5,0.9,2.1c0.9,0.3,1.8,1,1.9,1.5c0.2,0.5,0.7,0.3,1.3-0.4
	C71.8,245.3,71.8,245,71.2,244.3L71.2,244.3z M75.9,246.2c0-2.1-2.1-2.4-3.4-0.4l-1.2,2l2.3-0.4C74.8,247.2,75.9,246.7,75.9,246.2z
	 M934.1,232.6c-2.1-2-2.7-3-2.5-4.4c0.4-2.6-0.7-3.9-4.4-5c-2.6-0.8-3.6-0.7-4.7,0.5l-1.4,1.5h1.4c0.8,0,1.4,0.5,1.4,1
	s0.3,0.7,0.7,0.4c0.5-0.4,0.8,0.5,1.1,2.6c0.2,1.8,0.6,3.4,1,3.6c0.5,0.3,5.9,1.6,9.4,2.2C936.6,235.1,935.6,234,934.1,232.6
	L934.1,232.6z M81.3,242.9l-1.3-1.4l1.4-0.1c0.8,0,1.5,0.3,1.7,0.8s0.9,1.1,1.6,1.4s1.2,0.1,1.1-0.3c-0.4-1.1,2.3-2.9,5.3-3.6
	c1.6-0.4,2.8-0.2,3,0.4s0.6,1,1,1s0.3-0.4-0.2-1c-0.6-0.8-0.5-1,0.4-1c0.8,0,1.1,0.4,0.8,1.1c-0.2,0.7-0.1,0.9,0.2,0.5
	c0.4-0.5,0.5-2.3,0.3-5.1c-0.3-3.5-0.1-4.5,0.5-5c0.8-0.6,2,2.1,1.8,4.1c-0.2,3.1,1.7,5.4,2.5,3c0.2-0.7,1.3-2.8,2.4-4.7
	c1.1-1.9,2.1-4,2.1-4.6s0.6-1,1.4-0.8c1.5,0.3,3.2-2.5,1.9-3.2c-4.6-2.7-9.4-3.1-10.3-0.8c-0.2,0.5-1.7,0.9-3.3,1
	c-2.7,0.2-3.2,0.6-4.8,3.8c-1.1,2.3-1.7,4.4-1.6,5.9s-0.2,2.4-0.8,2.7c-0.6,0.3-0.8-0.1-0.6-1.2c0.2-1.2,0-1.6-1-1.6
	c-1.4,0-1.9,2.5-0.7,3.4c0.4,0.3,0.3,0.5-0.3,0.6c-0.5,0.1-0.9,0.5-0.9,1s-1.4,1.1-3.2,1.5c-1.7,0.3-3.4,1.2-3.8,1.8
	c-0.5,1-0.3,1.1,0.8,0.6c0.8-0.4,1.5-0.2,1.7,0.4s0.7,1,1.2,1C82.4,244.4,82.3,244,81.3,242.9L81.3,242.9z M82.9,236.3
	c0.6-0.8,0.6-1-0.4-1c-0.6,0-1.3,0.5-1.5,1C80.6,237.6,81.8,237.6,82.9,236.3z M902.7,225.8c-0.5-0.3-1.2-0.2-1.6,0.1
	c-0.4,0.3,0.1,0.5,0.9,0.5C902.9,226.3,903.2,226.1,902.7,225.8L902.7,225.8z M907,223.9c-2.2-2.9-8.4-4.7-8.4-2.5
	c0,2.5,2.4,3.7,7.4,3.6C907.5,225,907.7,224.8,907,223.9L907,223.9z M960.3,223.1l1.6-0.6l-1.3-2.3c-1.1-2.1-1.5-2.2-4.4-1.4
	c-1.7,0.5-3.4,0.7-3.6,0.4c-0.3-0.4-1,1.7-1,3.1c0,0.4,2.7,1,5.5,1.3C958,223.7,959.4,223.5,960.3,223.1L960.3,223.1z M84.9,230.2
	c0-0.6-0.2-1-0.5-1s-0.5,0.5-0.5,1c0,0.6,0.2,1,0.5,1C84.7,231.2,84.9,230.7,84.9,230.2z M77.6,227.7c0-1-0.5-1.5-1.6-1.5
	c-0.9,0-1.6,0.6-1.6,1.3c0,0.8-0.2,0.8-0.5-0.2c-0.3-0.8-0.5-1-0.5-0.4c0,1.8,0.6,2.5,2.4,2.4C77.1,229.3,77.6,228.8,77.6,227.7z
	 M82.3,226.2c0-0.5-0.4-0.7-0.8-0.4s-0.8,0.8-0.8,1s0.4,0.4,0.8,0.4C82,227.2,82.3,226.7,82.3,226.2z M72.5,225.2
	c1.5-1.6,1.3-4.7-0.4-5.5c-0.8-0.4-1.5-0.3-1.7,0.2c-0.7,2-3.1,4.3-3.4,3.4c-0.5-1.6-3.9-1.2-3.9,0.5c0,0.9,0.4,1.2,1,0.9
	c0.5-0.3,1.4,0,1.9,0.5C67.3,226.6,71.2,226.6,72.5,225.2L72.5,225.2z M87.5,224.3c0.1-0.2,0.3-1.2,0.3-2.1c0-1,0.7-2.1,1.8-2.7
	c1-0.6,1.9-1.3,2.1-1.7c0.1-0.4,0.7-0.9,1.3-1.2c0.8-0.4,0.7-0.5-0.4-0.6c-2.1-0.1-9.4,7.5-8.9,9.2C83.9,226,86.9,225.3,87.5,224.3z
	 M922.4,213.3c-0.1-1.2-0.7-1.8-1.7-1.8c-1.8,0-2.4,2.2-0.7,2.8C922.3,215.2,922.6,215.1,922.4,213.3L922.4,213.3z M939.3,212.7
	c-0.3-1.1-2.4-1.2-3.7-0.1c-0.8,0.6-0.8,0.8,0.4,1.3C937.6,214.6,939.7,213.9,939.3,212.7L939.3,212.7z M98.2,221.3
	c1.7-1.1,1.4-2.2-0.8-2.9c-3-0.9-3.5-0.8-4.2,1.5c-0.6,1.9-0.6,2.1,0.4,1.5c0.6-0.4,1.1-0.3,1.1,0.2
	C94.7,222.6,96.5,222.5,98.2,221.3z M928.7,209.9c-0.4-0.5-1.1-1-1.6-1c-0.7,0-0.7,0.1,0,1c0.4,0.5,1.1,1,1.6,1
	C929.4,210.9,929.4,210.8,928.7,209.9z M84.2,219.4c0.6-0.3,1.2-1,1.2-1.5c0-1.5-2.5-1-2.8,0.7C82.3,220.2,82.5,220.3,84.2,219.4
	L84.2,219.4z M99.3,213.8c-0.2-2.4-1.6-2.5-2.9-0.3c-1.4,2.4-1.1,3,1.2,2.4C99,215.6,99.4,215.1,99.3,213.8z M961.7,203.6
	c-0.7-1.4-8.9-4.1-9.4-3.1c-0.3,0.6,0.2,1,1.3,1c1,0,3.2,0.6,4.9,1.4c1.7,0.7,3.2,1.4,3.3,1.4C962,204.3,961.9,204,961.7,203.6z
	 M972.9,202.6c1.1-0.4,1.9-0.8,1.8-1c-0.1-0.2-1.7-0.6-3.6-0.9c-3.3-0.6-3.4-0.5-3.2,1.5c0.2,1.7,0.6,2,1.7,1.6
	C970.4,203.5,971.9,202.9,972.9,202.6z M75.7,211.4c-0.4-2.1-1.2-1.7-1.2,0.6c0,1.3,0.3,1.8,0.8,1.4
	C75.6,213.1,75.8,212.2,75.7,211.4z M978,199.6c0-0.8-0.3-1.5-0.8-1.5c-0.4,0-1.8-0.7-3-1.5s-3.2-1.7-4.3-2l-2-0.5l2.2,2
	c1.2,1.1,3.1,2.3,4.2,2.7c1.1,0.4,2.3,1,2.7,1.5C978,201.3,978,201.3,978,199.6L978,199.6z M103,207.6c0-0.5-0.4-0.7-0.8-0.4
	s-0.8,0.8-0.8,1s0.4,0.4,0.8,0.4S103,208.1,103,207.6z M934.4,195.6c0.8-1,0.6-1-2.5-1c-0.2,0-0.5,0.5-0.6,1
	C931.1,196.9,933.3,196.9,934.4,195.6z M73.4,202.3c-0.4-0.8-0.8-1.3-0.9-1.1c-0.4,0.7,0.4,2.6,1,2.6
	C73.8,203.8,73.8,203.3,73.4,202.3z M928.9,191.6c-0.6-0.5-1.5-0.8-2.1-0.8c-0.8,0-0.8,0.2,0.3,0.8
	C928.9,192.7,930.2,192.7,928.9,191.6z M93.1,197.5c0-0.6,0.6-1,1.3-1c0.7,0,1.4-0.5,1.6-1c0.4-1.1-0.5-1.3-2.2-0.4
	c-1.1,0.6-2.1,3.5-1.2,3.5C92.9,198.5,93.1,198,93.1,197.5L93.1,197.5z M923.7,181.9c-2.3-1.7-2.6-1.8-4.2-1.5c-1.8,0.4,1.8,3,4.2,3
	h2.1L923.7,181.9L923.7,181.9z M106.8,192.2c0.2-0.6-0.2-1-0.8-1c-0.6,0-1.1,0.5-1.1,1c0,0.6,0.3,1,0.8,1
	C106.2,193.2,106.7,192.8,106.8,192.2z M898.4,173.9c0.1-0.2-0.6-0.2-1.6-0.1c-1,0.1-1.4,0.3-0.9,0.6s0.8,1,0.6,1.7s0.1,0.5,0.6-0.3
	S898.3,174.1,898.4,173.9z M903,176c-0.6-1.2-4.1-1.5-3.7-0.3c0.2,0.6,1.2,1,2.2,1S903.2,176.3,903,176z M891.5,171.9
	c-0.6-0.2-1.3-0.8-1.6-1.2c-0.5-0.8-4-1.4-6.4-1.1c-1.9,0.2-1.3,2.2,0.7,2.2c1,0,1.8,0.3,1.8,0.7s1.5,0.6,3.2,0.3
	C891,172.6,892,172.2,891.5,171.9z M970.5,170c-0.5-0.9-1.2-1.4-1.5-1.1c-0.5,0.3-0.3,0.9,0.6,1.6C971.4,172,971.5,171.9,970.5,170z
	 M900,168.5c0-0.6-0.5-0.9-1-0.7c-1.5,0.5-1.7,1.3-0.2,1.5C899.4,169.4,900,169.1,900,168.5z M915.1,167.4c-1-1-2.5-2.1-3.4-2.4
	c-1.3-0.5-1.6-0.2-1.7,1.5c-0.1,1.6,0.2,1.9,0.9,1.6c0.5-0.3,1.7-0.2,2.7,0.3C916.5,169.7,917,169.3,915.1,167.4L915.1,167.4z
	 M943.3,166.5c-0.9-1.4-1.8-2.5-2.1-2.5s-1-0.9-1.6-1.9c-1.3-2.3-4.1-4.2-6.2-4.1c-0.9,0-2.8-0.7-4.2-1.5
	c-2.6-1.5-11.2-2.1-12.3-0.8c-0.4,0.5,0.3,1.7,1.7,3.4c1.8,2.1,2.1,2.7,1.2,3c-2,0.7-1.9,2.1,0.1,3.1c2.5,1.3,3.6,1.3,4.9,0
	c0.7-0.7,1.6-0.8,2.9-0.1c2.5,1.3,5.5,1.9,11.3,2.6c2.6,0.3,4.8,0.7,4.9,0.9c0.1,0.2,0.4,0.4,0.5,0.4
	C944.8,169,944.2,167.8,943.3,166.5L943.3,166.5z M902.3,166.1c0.6-1.2,0.4-1.7-1.2-3.1c-2.2-2.1-8.4-3.4-6.5-1.4
	c0.6,0.6,1.2,1.6,1.2,2c0,0.5,0.5,0.9,1,0.8c0.6,0,1,0.4,1,0.9s0.6,1.1,1.4,1.4c0.8,0.2,1.6,0.5,1.9,0.6S902,166.9,902.3,166.1z
	 M125.3,169.9c0.5-1.3,0.4-1.4-0.9-0.8c-2.5,1.1-2.9,1.5-2.6,2.4C122.2,172.8,124.5,171.7,125.3,169.9L125.3,169.9z M892.5,156.4
	c0.2-0.6-0.1-1.7-0.6-2.5c-1.4-2.1-1.8-1.8-1.1,1.1C891.4,157.6,891.9,158.1,892.5,156.4z M931.1,151.8c0-1.1-4.3-1.8-5.2-0.8
	c-0.4,0.5-0.7,0.9-0.5,1c0.1,0.1,1,0.3,1.8,0.6c0.9,0.3,1.6,0.6,1.7,0.8C929.2,154,931.1,152.6,931.1,151.8L931.1,151.8z
	 M57.2,161.7c0-0.2-0.4-0.4-0.8-0.4c-0.4,0-0.8,0.5-0.8,1s0.4,0.7,0.8,0.4S57.2,161.9,57.2,161.7z M938.9,149.8
	c0-0.3-0.8-1.8-1.7-3.3l-1.7-2.7l2.9-0.1l2.9-0.1l-1.7-1.4c-0.9-0.8-1.7-2.1-1.7-3c0-2.2-1.4-2-2.2,0.4c-0.8,2.7-1.8,1.8-4.7-4.3
	c-1.7-3.5-2.3-5.4-1.9-5.9c0.9-1.2,0.5-1.6-4-3.4c-5.4-2.1-8.6-2-9.5,0.3c-0.6,1.7-0.8,1.7-2.6-0.2c-1.1-1.1-2.2-2.6-2.5-3.5
	c-0.6-1.5-0.8-1.4-4.4,2.1c-0.9,0.9-2.3-2.4-1.8-4.1c0.2-0.5-0.5-1-1.4-1.1c-2.4-0.2-4.9-0.5-8.4-1.2c-1.7-0.3-3.4-0.3-3.9,0.1
	c-4.2,3.8-7.1,3.4-8.6-1.2c-0.7-1.9-1.3-2.4-3.2-2.3c-1.7,0-2.6-0.5-3.1-1.7c-0.5-1.4-1.5-1.8-4.2-1.9c-2-0.1-3.9-0.4-4.3-0.7
	c-2.9-2.2-5.3-3.5-5.9-3.1c-3.8,2.6-3.7,2.6-2.7,4c0.5,0.7,2.1,1.9,3.5,2.6s2.7,1.9,2.9,2.5c0.6,1.8,3.5,4.5,5,4.5
	c0.7,0,1.5-0.7,1.9-1.5c0.3-0.8,1-1.2,1.4-0.9c0.6,0.4,0.6,0.9,0.2,2c-0.6,1.5,0.3,1.9,3.1,1.4c1-0.2,1.2,0.1,0.9,2
	c-0.3,2.1-0.3,2.2,1.6,1.5c1.1-0.4,2.2-0.7,2.5-0.7c0.3,0.1,3.7,0.3,7.5,0.5c5.3,0.3,7.1,0.7,7.5,1.8c0.3,0.8,2,1.7,3.9,2.1
	c3,0.6,3.3,0.5,2.4-0.8c-1-1.5-1-1.5,0.1-2.2c1.7-1.1,3.5,0.2,3.6,2.6c0.1,1.7-0.1,2-1.1,1.5c-1.4-0.7-2.1,1.5-1.2,3.3
	c0.4,0.8,0.4,1.8,0,3.7c-0.8,3.5-0.8,3.4,1.1,3.9c4.7,1.3,6.1,1.5,6.1,0.7c0-0.5-1.1-1.7-2.5-2.7c-2.4-1.8-2.4-1.9-1-2.4
	s1.5-0.6,0.6-2.3c-0.5-1-1.1-1.5-1.4-1.2c-0.3,0.3-0.5,0.2-0.5-0.4c0-1.7,4.9-0.1,6,1.9c0.6,1.1,1.3,1.8,1.6,1.7s1.5,0.5,2.8,1.4
	s3.2,1.9,4.2,2.2s2.5,0.8,3.4,1.2c1.4,0.6,1.5,0.5,0.8-1c-0.6-1.4-0.6-1.7,0-1.7c1,0,1.8,1.3,1.8,3c0,1,0.7,1.7,2.1,2.1
	c2.3,0.6,5.5,3,5.5,4.2c0,0.4-0.2,0.8-0.5,0.8s-0.5,0.5-0.5,1.1s1.1,1,2.6,0.8C937.7,150.5,938.9,150.1,938.9,149.8L938.9,149.8z
	 M917.2,134.6c-2.4-3-2.1-4.4,0.4-1.9c1.1,1.1,2.1,2.5,2.1,3C919.6,137.2,919,136.9,917.2,134.6L917.2,134.6z M929.1,148.1
	c-0.4-0.3-0.9-0.3-1.3,0c-0.4,0.3-0.1,0.5,0.7,0.5C929.2,148.7,929.5,148.4,929.1,148.1L929.1,148.1z M909,147.1
	c0.2-0.6,0-0.7-0.5-0.4c-0.9,0.7-1.1,1.4-0.3,1.4C908.5,148.1,908.8,147.6,909,147.1L909,147.1z M952.3,145.5c0-0.5-0.2-1.2-0.5-1.6
	c-1-1.2-0.5-3.5,0.8-4.2c1-0.5,1.2-0.9,0.7-2.1c-0.3-0.8-1-1.4-1.5-1.4s-1.1-0.5-1.5-1.1c-0.7-1.4-3.8,0.8-3.8,2.8
	c0,0.7,0.8,2.5,1.7,3.9s1.9,3.1,2.2,3.6C951.2,146.7,952.4,146.7,952.3,145.5L952.3,145.5z M48.6,156.4c0.2-0.5-0.1-1.7-0.6-2.6
	c-1-1.9-2.1-0.6-1.6,2C46.8,157.5,48.1,157.9,48.6,156.4z M69.6,155.5c0.4-0.8,1-1.5,1.4-1.5s0.7-0.5,0.7-1c0-0.6-0.3-1-0.7-1
	c-0.4,0-0.9-1.4-1.1-3c-0.4-3.8-2-4.1-3.1-0.5c-1.1,3.2-0.6,4.6,1.5,4.6c1.4,0,1.5,0.2,0.8,1.1c-0.9,1.1-1.2,3-0.4,3
	C68.8,157.1,69.2,156.4,69.6,155.5z M76.9,154.5c0.6,0.7,0.6-2.7,0-4.6c-0.4-1.2-0.7-1.2-1.8,0.3c-0.7,0.9-1.7,1.7-2.1,1.7
	c-1.4,0-0.9,2,0.6,2.6c0.8,0.3,1.7,0.7,1.9,0.9c0.3,0.1,0.6-0.1,0.7-0.6C76.4,154.3,76.6,154.2,76.9,154.5L76.9,154.5z M83.1,154.5
	c0-0.5-0.3-1.5-0.7-2.2c-0.6-1.2-0.9-1.1-1.7,0.5c-0.5,1-1.3,2.1-1.7,2.4c-0.4,0.3,0.4,0.5,1.7,0.4C82,155.5,83.1,155,83.1,154.5
	L83.1,154.5z M93.8,153.8c0.3-0.5,1.2-1.1,2-1.3c2-0.5,2.3-2.6,0.3-3.1c-0.9-0.2-1.4-0.1-1.3,0.4s0,0.8-0.3,0.8s-0.7-0.5-0.8-1
	c-0.2-0.6-0.7-0.7-1.2-0.1c-0.5,0.5-2.2,1.3-3.9,1.7c-1.6,0.4-3,1.1-3,1.6C85.7,154.4,93,155.3,93.8,153.8L93.8,153.8z M109.7,147.5
	c1.7-1.3-0.4-3.6-3-3.3c-0.8,0.1-0.9,0.4-0.3,1.7c0.4,1,0.4,1.5,0.1,1.5s-0.7-0.4-0.9-1c-0.4-1.4-2.9-1.3-2.9,0.2
	c0,0.6,0.5,0.9,1,0.6c0.6-0.3,0.9-0.1,0.7,0.4C104.2,148.6,108.3,148.6,109.7,147.5L109.7,147.5z M83.3,146.7c0.2-0.6-0.5-1-1.9-0.9
	c-1.9,0.1-2,0.3-0.9,0.9C82.3,147.9,83,147.9,83.3,146.7L83.3,146.7z M949,127.5c0.2-2.7-1.1-5.4-2.5-5.4c-1.1,0-1.3,1.8-0.4,5.6
	C946.9,131,948.7,130.8,949,127.5z M876.5,124.7c-0.1-0.2-1-0.7-2-1l-1.8-0.6l1.8,1.4C876,125.7,877.1,125.8,876.5,124.7
	L876.5,124.7z M963.5,121.8c-0.7-0.8-1.1-0.8-1.5,0.1c-0.4,0.8-0.2,1.1,1,1.1C964.3,122.8,964.3,122.7,963.5,121.8L963.5,121.8z
	 M926.3,120.3c0-0.6-0.3-1-0.6-1s-0.4,0.5-0.2,1c0.2,0.6,0.4,1,0.6,1C926.2,121.4,926.3,120.9,926.3,120.3z M934.3,119.2
	c1.7-0.1-2.3-2.9-4.2-2.9c-1.2,0-2.8-0.5-3.6-1c-1.8-1.3-2.8-0.1-1.5,1.7c0.5,0.7,1.9,1.4,3.1,1.4c1.2,0,2.6,0.4,3.1,0.9
	c0.6,0.5,1.4,0.7,1.7,0.4C933.4,119.4,933.9,119.2,934.3,119.2L934.3,119.2z M910.2,114.5c-1-1.3-5.7-1.2-5.7,0.1c0,0.6,1.4,1,3.2,1
	C910,115.4,910.8,115.1,910.2,114.5L910.2,114.5z M124.7,122.1c0.4-0.3,0.7-1,0.5-1.5c-0.5-1.5-2.7-1-3,0.7
	C121.9,122.9,123.2,123.3,124.7,122.1L124.7,122.1z M851.7,112c-0.5-0.9-0.8-0.9-1.2,0c-0.5,1-0.3,1.2,0.6,1.2
	C852,113.2,852.1,112.9,851.7,112L851.7,112z M896.4,109.5c-0.2-0.6-0.4-1-0.6-1c-0.1,0-0.2,0.5-0.2,1c0,0.6,0.3,1,0.6,1
	C896.5,110.6,896.6,110.1,896.4,109.5z M836.5,108.3c-0.4-0.5-1.1-1-1.6-1c-0.7,0-0.7,0.1,0,1c0.4,0.5,1.1,1,1.6,1
	C837.2,109.3,837.2,109.2,836.5,108.3L836.5,108.3z M825,99.8c0-1.5-0.9-2.4-3.9-3.8c-4.1-1.9-6.1-2-6.5-0.6
	c-0.4,1.1-0.6,1.1-1.1-0.3c-0.7-1.6-6.7-3.7-6.6-2.3c0,1,1.4,3.5,2,3.5c0.3,0,1.2,1.1,2,2.5c1.3,2.2,1.6,2.3,2.1,1
	c0.3-0.8,0.7-1.3,0.8-1.1c0.1,0.2,1.7,0.7,3.6,0.9s4.2,0.9,5.2,1.4C824.5,102.1,825.1,101.8,825,99.8L825,99.8z M123.5,102.8
	c-0.4-0.3-0.9-0.3-1.3,0s-0.1,0.5,0.7,0.5C123.6,103.3,123.9,103,123.5,102.8L123.5,102.8z M788.2,87.6c-1-1.3-1.7-1.3-1.3,0
	c0.2,0.6,0.7,1,1.2,1C788.8,88.5,788.8,88.4,788.2,87.6L788.2,87.6z M919.2,83.8c0.1,0,0.2-0.7,0.2-1.5c0-0.9-0.5-1.5-1.3-1.5
	c-0.7,0-1.4-0.5-1.6-1.2c-0.3-0.8-0.1-1,0.5-0.5c0.5,0.4,0.9,0.2,0.9-0.4c0-1.9-1.7-0.4-1.9,1.7c-0.2,2.3,1.3,4.9,2.3,4.1
	C918.7,84,919.1,83.8,919.2,83.8L919.2,83.8z M778.5,83.1c-1.7-1.5-2.6-1.8-4.1-1.6c-0.8,0.1-0.9,0.4-0.3,1.7c0.4,1,1.5,1.5,3.3,1.4
	C780.1,84.4,780.1,84.4,778.5,83.1z M821.9,81.6c0-0.8-0.2-1.7-0.5-2c-0.8-1-2.1,0.6-1.8,2.1C820,83.5,821.9,83.5,821.9,81.6z
	 M818.8,78c1.1,0,1.4-1.5,0.5-2.6c-0.3-0.4-0.4-1.3-0.3-2c0.3-1.5-1.4-2.7-2.6-1.8c-0.4,0.3-0.7,1.1-0.7,1.9c0,1.6,1.3,2.7,2.3,1.9
	c0.4-0.3,0.8-0.2,0.8,0.3s-0.8,1.4-1.8,2c-1.5,1-2,0.9-2.9-0.8c-0.9-1.5-1.3-1.7-2.1-0.7c-1.4,1.5-0.7,2.9,1.6,3.2
	c1,0.1,1.9,0.8,2,1.6c0.2,1,0.5,0.8,1.3-0.8C817.3,78.9,818.2,78,818.8,78L818.8,78z M700,80.9c-0.4-0.3-0.9-0.3-1.3,0
	c-0.4,0.3-0.1,0.5,0.7,0.5C700.1,81.4,700.4,81.2,700,80.9L700,80.9z M809.5,76.8c0-0.7,0-2.1-0.1-3.2c-0.2-3.6-2.6-6.5-2.6-3.1
	c0,1-0.5,1.5-1.3,1.5c-1.9,0-1.6,1.2,0.9,3.7C809,78.4,809.4,78.5,809.5,76.8L809.5,76.8z M917.3,75.7c-0.4-0.5-0.7-1.3-0.5-1.8
	c0.1-0.4-0.4-0.9-1.3-1c-1.5-0.2-1.5-0.2-0.4,0.9c0.6,0.6,1.2,1.5,1.2,2s0.4,0.9,0.9,0.8C918,76.7,918,76.5,917.3,75.7L917.3,75.7z
	 M758.8,75.7c-0.2-0.6-0.6-1-0.9-1c-0.4,0-0.3,0.4,0.2,1C759,77,759.2,77,758.8,75.7L758.8,75.7z M805.1,75.4
	c-0.5-0.2-1.3-0.2-1.8,0c-0.5,0.3-0.1,0.5,0.9,0.5S805.6,75.7,805.1,75.4L805.1,75.4z M771.2,72.5c-0.2-0.6-0.4-1-0.6-1
	c-0.1,0-0.2,0.5-0.2,1c0,0.6,0.3,1,0.6,1S771.4,73.1,771.2,72.5z M754.9,71.7c0.1-0.3,0.8-1.1,1.6-1.7l1.3-1.2l-1.4-0.1
	c-0.8,0-1.8-0.3-2.2-0.7c-0.5-0.4-0.8,0-0.8,1s-0.3,1.4-0.8,1c-0.4-0.3-1.2-0.2-1.7,0.2c-0.7,0.6-0.5,0.9,0.9,1.4
	C753.8,72.5,754.5,72.4,754.9,71.7L754.9,71.7z M764.8,71.9c-0.4-0.3-0.8-0.2-1,0.1c-0.2,0.3,0.1,0.6,0.7,0.5
	C765.1,72.5,765.3,72.2,764.8,71.9L764.8,71.9z M838.4,70.1c0-0.8-0.2-1.5-0.5-1.5s-0.6,0.7-0.8,1.5c-0.2,0.9,0,1.5,0.5,1.5
	C838.1,71.6,838.4,70.9,838.4,70.1z M746.6,67.1c0.5-1.1,0.4-1.5-0.1-1.5c-0.4,0-1.8-0.2-3.2-0.4c-1.7-0.2-2.5,0.1-2.5,1
	c0,2,0.4,2.3,2.8,2.3C745.1,68.6,746.2,68,746.6,67.1L746.6,67.1z M787.2,65.3c0.4-1.2-2.9-1.3-3.8-0.1c-0.6,0.7-0.2,1,1.4,1
	C786,66.2,787.1,65.8,787.2,65.3z M738.5,63.7c-0.9-0.5-2.1-0.8-2.9-0.7c-0.7,0.1-1.7-0.2-2.2-0.6s-1.2-0.5-1.6-0.2
	c-0.4,0.3-0.2,0.6,0.5,0.6c0.6,0,1.3,0.5,1.5,1.1s1.7,1,3.3,0.9C739.7,64.6,739.9,64.5,738.5,63.7L738.5,63.7z M728.5,61.2
	c-0.4-0.3-0.8-0.2-1,0.1c-0.2,0.3,0.1,0.6,0.7,0.5C728.8,61.7,728.9,61.5,728.5,61.2L728.5,61.2z M766.3,60.4c-1-1.3-3.3-1.3-2.9,0
	c0.2,0.6,1.1,1,2,1C766.7,61.3,766.9,61.1,766.3,60.4L766.3,60.4z M717.7,60.1c-0.7-1.2-9.6-4.5-10-3.7c-0.6,1.2,0.3,1.8,4.6,3
	C718.1,61.1,718.3,61.2,717.7,60.1L717.7,60.1z M700.1,56.1c-0.2-0.6-0.7-1-1.1-1c-0.4,0-0.6,0.5-0.5,1c0.2,0.6,0.7,1,1.1,1
	C700.1,57.2,700.3,56.7,700.1,56.1z M693.6,49.6c0-1.5-2.1-3-3.8-2.8c-0.5,0.1-1-0.3-1.2-0.8c-0.5-1.6-5.8-1.1-6.1,0.6
	c-0.4,2,0.8,2.6,1.5,0.7c0.5-1.4,0.7-1.3,1.8,0.1c0.7,0.9,2.2,1.7,3.3,1.7s2.6,0.4,3.1,0.9c0.6,0.5,1.1,0.9,1.2,0.9
	S693.6,50.5,693.6,49.6L693.6,49.6z M681,44.8c0.2-1.7,0-1.8-1.8-1.2c-2.2,0.9-2.8,1.4-2.8,2.6c0,0.5,1,0.8,2.2,0.7
	C680.3,46.8,680.9,46.3,681,44.8z M675,45.6c-0.4-0.3-0.8-0.2-1,0.1c-0.2,0.3,0.1,0.6,0.7,0.5C675.3,46.2,675.4,45.9,675,45.6
	L675,45.6z M232.8,43.3c-0.4-0.3-0.9-0.3-1.3,0c-0.4,0.3-0.1,0.5,0.7,0.5C232.9,43.8,233.2,43.6,232.8,43.3L232.8,43.3z M241.1,42.3
	c0.1-0.6-0.4-1.2-1-1.3c-1.2-0.3-1.6,1.3-0.5,2.2C240.4,43.9,241,43.6,241.1,42.3z M628.7,38.4c0-0.2-0.4-0.7-0.8-1
	c-0.5-0.3-0.7-0.2-0.5,0.4C627.7,38.7,628.7,39.2,628.7,38.4L628.7,38.4z M630.7,37.7c0-0.6-0.3-1-0.6-1s-0.4,0.5-0.2,1
	c0.2,0.6,0.4,1,0.6,1C630.6,38.7,630.7,38.3,630.7,37.7z M634.7,37.5c-1.3-0.6-2.2-0.5-2.6,0.1c-0.4,0.7,0.3,1,2,0.9l2.6-0.1
	L634.7,37.5z M244.6,37.6c0-0.5-0.4-1-0.9-1s0-0.7,1.2-1.4c1.1-0.8,1.8-1.4,1.6-1.5c-1.1-0.2,0.8-2.5,2.1-2.6
	c0.8-0.1,1.5-0.6,1.6-1.3c0.3-2.1-1.5-2.4-3.3-0.7c-1.7,1.6-1.9,1.6-2.5-0.1c-0.9-2.4-6.7-2.4-7.9,0c-1.3,2.5,0.1,4.8,2.1,3.6
	c1.4-0.8,1.6-0.6,1.9,1.1c0.2,1.2,0.6,1.8,1,1.5s0.7-0.1,0.7,0.4s-0.3,1-0.6,1c-0.4,0,0.1,0.6,0.9,1.4
	C243.9,39.5,244.6,39.3,244.6,37.6L244.6,37.6z M241.5,32.6c0-0.6,0.4-1,0.8-1c0.4,0,0.7,0.4,0.5,1s-0.5,1-0.8,1
	C241.7,33.7,241.5,33.2,241.5,32.6z M251.5,37.7c1.2-0.2,1.1-1.8-0.1-2.4c-1.3-0.7-5.8,1.3-5.5,2.4
	C246.1,38.4,247.2,38.4,251.5,37.7L251.5,37.7z M322.3,31.4c0.5-0.9,0.3-1.5-0.6-2.4s-1.5-0.9-2.6,0.3c-0.8,0.8-1.3,1.9-1.1,2.4
	C318.5,33.1,321.6,32.9,322.3,31.4z M340.6,26.3c0-0.6-0.2-1-0.5-1s-0.5,0.5-0.5,1c0,0.6,0.2,1,0.5,1S340.6,26.8,340.6,26.3
	L340.6,26.3z M325.1,24.7c-0.4-0.3-0.8-0.2-1,0.1s0.1,0.6,0.7,0.5C325.4,25.3,325.5,25.1,325.1,24.7L325.1,24.7z M347.3,24.1
	c0-0.6-0.2-0.8-0.5-0.4c-0.3,0.3-0.5,0.8-0.5,1.1c0,0.2,0.2,0.4,0.5,0.4C347.1,25.2,347.3,24.7,347.3,24.1z M353.8,22.4
	c0.2-1,0.1-1.5-0.3-1.2c-0.8,0.5-1.2,2.8-0.5,2.8C353.2,24.1,353.6,23.3,353.8,22.4L353.8,22.4z M287.4,20.8
	c0.9-0.8,0.9-0.8-0.3-0.8c-0.7,0-2,0.7-2.8,1.5l-1.6,1.5l1.8-0.7C285.5,21.9,286.8,21.2,287.4,20.8L287.4,20.8z M351.7,19.2
	c-0.2-0.3-0.6,0-0.9,0.7c-0.5,1-0.4,1.1,0.3,0.6C351.6,20.1,351.9,19.5,351.7,19.2z M387.8,17.5c0.5,0,1.1-0.5,1.3-1.2
	c0.3-0.9-0.6-1-3.2-0.4c-2,0.4-3.7,1-3.8,1.2s0.1,1.1,0.4,2c0.6,1.3,0.9,1.3,2.5,0C386.1,18.2,387.3,17.5,387.8,17.5L387.8,17.5z
	 M353.5,18.4c0-0.2-0.2-0.4-0.5-0.4s-0.5,0.5-0.5,1.1s0.2,0.8,0.5,0.4C353.3,19.1,353.5,18.6,353.5,18.4L353.5,18.4z M407.2,16.7
	c0.6-0.8,1.4-1.3,1.9-1s1,0.1,1.2-0.4c0.5-1.5-1.4-2-3.8-1.1c-1.2,0.4-2.6,0.6-3.3,0.4c-0.8-0.3-1.4,0.3-1.8,1.7
	c-0.6,2-0.5,2.1,2.1,2C405.1,18.2,406.6,17.6,407.2,16.7L407.2,16.7z M359,15.4c1-1.4,0.9-1.5-0.4-1.5c-1.7,0-3,0.9-3,2.2
	S357.9,17,359,15.4L359,15.4z M399.4,14.3c0.4-1.3-0.3-1.3-1.3,0c-0.7,0.9-0.7,1,0.1,1C398.7,15.3,399.3,14.8,399.4,14.3L399.4,14.3
	z M111.3,349.3c0-1.3,0.5-2.6,1.3-3.3c0.7-0.6,1.3-0.9,1.3-0.6s-0.6,1.8-1.3,3.3C111.4,351.3,111.3,351.3,111.3,349.3z M181.3,349.1
	c0-0.6,0.2-1.1,0.5-1.1s0.5,0.2,0.5,0.4c0,0.2-0.2,0.7-0.5,1.1C181.6,349.9,181.3,349.7,181.3,349.1z M171.5,347.2
	c-0.4-1.5-0.4-2.1,0-2.1c0.6,0,1.3,2.8,0.9,3.7C172.2,349.1,171.8,348.4,171.5,347.2L171.5,347.2z M285,347c-0.5-0.2-1-1.2-1.1-2.2
	c-0.3-2.2,0.6-7.3,1-5.5c0.1,0.7,0.6,1.3,1,1.3s0.7,0.6,0.7,1.4s0.5,1.8,1.1,2.1l1.1,0.7l-1.3,1.4c-0.7,0.8-1.4,1.3-1.5,1.3
	C286,347.4,285.5,347.2,285,347L285,347z M864.2,339.5c-0.2-0.3-1.9-0.6-3.9-0.8c-3.8-0.2-6.7-2.2-6.7-4.7c0-1.1,0.7-1.6,2.2-1.9
	c1.4-0.2,2.1,0,1.9,0.7c-0.4,1.2,4.4,4.1,6.7,4.1c0.9,0,2.9,0.3,4.4,0.6c2.3,0.5,2.6,0.8,1.6,1.4
	C868.9,339.9,864.6,340.2,864.2,339.5L864.2,339.5z M822.9,338.9c0.2-0.3,0.6-0.4,1-0.1s0.3,0.6-0.3,0.6
	C823,339.5,822.7,339.3,822.9,338.9L822.9,338.9z M131.6,346.4c0.1-0.7,1-1.3,1.9-1.4c1.3-0.1,1.5,0.1,1.1,1.3
	C133.8,348,131.3,348.1,131.6,346.4z M129.4,344.9c0-1.4,1.9-3.1,4.3-3.9c2.4-0.7,3.7-0.1,3.2,1.6c-0.2,0.5-0.7,0.5-1.2-0.2
	c-0.7-0.9-1.5-0.6-3.3,1.1C129.8,345.8,129.4,346,129.4,344.9z M292.4,342.5c0-0.6,0.2-1.1,0.5-1.1s0.5,0.2,0.5,0.4
	c0,0.2-0.2,0.7-0.5,1.1S292.4,343.1,292.4,342.5z M153.3,343.3c0-0.6-0.4-1-0.8-1c-0.4,0-1.1-1.1-1.4-2.6c-0.5-2.1-0.5-2.9,0.2-4.2
	c0.7-1.5,0.8-1.4,1.2,0.5c0.2,1.3,0.6,1.9,1.1,1.5s0.7-0.1,0.6,0.9c-0.1,0.8,0.4,2.5,1.1,3.7l1.3,2.1l-1.7,0.1
	C154,344.3,153.3,343.8,153.3,343.3L153.3,343.3z M232.5,341.6c-0.2-0.4-0.4-1.5-0.4-2.5c0-1.4,0.4-1.9,1.6-1.9
	c1.4,0,1.5-0.3,1.3-2.1c-0.4-2.3,0.2-2.7,1.3-0.8c0.6,1.1,0.6,1,0.1-0.3s-0.5-2,0.1-3.6c0.7-1.9,0.7-1.9,1.5,0.1
	c1.1,2.8,1,3.4-0.5,4.8c-0.7,0.6-1.3,1.7-1.3,2.4c0,1.3-2.2,4.6-3,4.6C233.1,342.2,232.7,341.9,232.5,341.6z M122.9,341.6
	c-0.2-0.6-0.9-0.8-1.6-0.5c-1,0.5-1.2,0.2-1.2-1.7c0-1.7,0.4-2.7,1.6-3.6c1.8-1.4,2.6-0.9,2.2,1.2c-0.5,2.4,1.4,3.5,3.8,2.3
	c2.4-1.3,2.9-0.9,2.4,1.6c-0.3,1.3-1,1.7-3.6,1.7C124.7,342.6,123.1,342.2,122.9,341.6z M115.4,339c0-0.5,0.6-2.1,1.3-3.5
	c1.2-2.2,1.3-2.2,1.2-0.6C117.7,337,115.4,340.7,115.4,339L115.4,339z M820.6,328.4c-0.4-0.5-0.9-0.7-1.1-0.4
	c-0.2,0.3-0.5,0-0.7-0.6s0-1,0.3-1.1c0.5,0,0.5-0.3-0.1-1c-1.1-1.3-0.3-2.4,1-1.6c0.6,0.4,1,0.9,0.8,1.3c-0.2,0.3,0.1,1.1,0.6,1.8
	C822.5,328.3,821.7,329.7,820.6,328.4L820.6,328.4z M957.1,326c0-1.2,2.5-3.5,4-3.5c1.7,0,1.5,1.6-0.2,2.4c-0.8,0.3-1.9,0.9-2.6,1.3
	S957.1,326.4,957.1,326L957.1,326z M300.9,330.1c-0.2-0.6-0.2-1.3-0.1-1.6c0.4-0.7,1.4,0.5,1.4,1.7
	C302.2,331.5,301.3,331.4,300.9,330.1L300.9,330.1z M841.2,323.3c-1.5-0.7-1-2.3,0.8-2.3c0.9,0,3-0.3,4.5-0.7l2.9-0.6l-1.3,2
	C846.9,323.7,843.7,324.4,841.2,323.3L841.2,323.3z M302.7,328.1c0-0.6,0.2-1.1,0.5-1.1s0.5,0.2,0.5,0.4c0,0.2-0.2,0.7-0.5,1.1
	C302.9,328.9,302.7,328.7,302.7,328.1z M922.3,319.6c0-0.8,0.7-2,1.5-2.6c0.9-0.6,1.6-0.9,1.6-0.7c0,0.2-0.7,1.4-1.5,2.6
	C922.7,320.6,922.3,320.8,922.3,319.6L922.3,319.6z M881.2,319.4c-1.1-1.2-1.2-3.3-0.2-4.9c0.9-1.5,3.9-3.3,3.9-2.3
	c-0.2,3.1,0.2,4.2,1.6,4.2c2,0,3.2,2.5,1.5,3.4C886.1,320.7,882.2,320.5,881.2,319.4L881.2,319.4z M89.3,327.7
	c0.3-0.7,0.8-1,0.9-0.7c0.2,0.3-0.1,0.9-0.6,1.3C88.8,328.8,88.7,328.7,89.3,327.7z M900.3,317.2c-0.2-0.6,0.2-1,0.8-1s1,0.4,0.8,1
	s-0.5,1-0.8,1S900.4,317.7,900.3,317.2L900.3,317.2z M83.3,327.3c0.2-0.3,0.6-0.4,1-0.1s0.3,0.6-0.3,0.6
	C83.4,327.9,83.1,327.6,83.3,327.3L83.3,327.3z M205.6,324.3c-0.6-1.1-1-2.4-1-2.9s0.5-1.7,1-2.7c0.6-1,1-2.5,1-3.2
	c0-1.6,0.5-1.7,1.5-0.5c0.4,0.5,0.6,1.8,0.4,3c-0.2,1.2-0.1,2.4,0.2,2.7c0.5,0.6-0.9,5.6-1.6,5.6
	C206.9,326.3,206.2,325.4,205.6,324.3L205.6,324.3z M88.7,323c0.2-1.5,0.6-3.1,0.9-3.5s0.1-1-0.5-1.4c-2.5-1.6-2.6-1.7-0.9-2.8
	c1.1-0.7,1.7-1.8,1.8-3.2c0.1-1.2,0.4-2,0.8-1.9c0.8,0.3,0.8-2.4,0.1-3.3c-0.6-0.8-0.7-3.6-0.1-3.6c0.3,0,0.6,0.8,0.7,1.9
	c0.2,1.5,0.6,1.8,1.9,1.4c1.6-0.5,1.6-0.4,1.1,1.6c-0.3,1.2-0.5,2.5-0.5,2.9c0.2,2.7-0.2,4.4-1.3,5c-0.7,0.4-1.6,1.4-1.9,2.3
	c-0.6,1.4-0.5,1.5,0.2,0.9c1.3-1,1.1,0.5-0.5,3.7C88.7,326.5,88.2,326.5,88.7,323L88.7,323z M359.5,321.2c-0.4-1.3,0.2-3.3,0.8-2.5
	c0.6,0.8,0.6,3.5,0,3.5C360,322.2,359.7,321.8,359.5,321.2L359.5,321.2z M233.1,321.5c0-0.7,0.3-1.4,0.8-1.4c0.4,0,0.9,0.6,1,1.3
	c0.2,0.8-0.1,1.4-0.8,1.4C233.6,322.9,233.1,322.3,233.1,321.5z M863.2,313.5c-1.6-1.2-1.3-4.4,0.4-4.8c0.9-0.2,1.5,0.4,2,1.8
	C866.8,314.1,865.7,315.4,863.2,313.5L863.2,313.5z M103.1,321.9c-1.2-1.7-1-3.4,0.5-3.5c0.7,0,1.3,0.4,1.3,0.9s0.5,1.1,1.1,1.3
	c0.6,0.2,1.2,0.9,1.3,1.6C107.7,323.9,104.3,323.6,103.1,321.9z M108.1,318.9c0.5-1,1.2-1.5,1.8-1.1c1.1,0.8,0.9,1.1-1.1,2.1
	C107.4,320.6,107.3,320.5,108.1,318.9z M52.3,319.5c-0.9-1.7-0.2-3.4,1.2-3.4c0.9,0,1.5,0.4,1.3,1C54.4,318.6,52.7,320.2,52.3,319.5
	z M304.2,315.8c0-0.6,0.4-1,0.8-1s0.7,0.4,0.5,1s-0.5,1-0.8,1C304.4,316.9,304.2,316.4,304.2,315.8L304.2,315.8z M792,309.4
	c0-0.6,0.9-1,1.9-1c1.4,0,1.7,0.2,1.2,1C794.1,310.7,792,310.7,792,309.4L792,309.4z M333.3,313.9c0.4-0.8,0.7-1.5,0.8-1.5
	c0.1,0,0,0.7-0.1,1.5c-0.2,0.8-0.5,1.5-0.8,1.5C332.8,315.5,332.9,314.8,333.3,313.9z M350.6,313.2c-0.8-0.7-0.7-0.9,0.9-1
	c1.1-0.1,1.9,0.4,1.9,0.9C353.5,314.4,352.1,314.4,350.6,313.2L350.6,313.2z M808.6,307.2c-0.6-0.8-0.5-1,0.4-1c0.7,0,1.1,0.4,0.9,1
	C809.5,308.4,809.6,308.4,808.6,307.2L808.6,307.2z M210.3,314.6c0-0.2,0.2-0.7,0.5-1.1c0.3-0.3,0.5-0.2,0.5,0.4s-0.2,1.1-0.5,1.1
	S210.3,314.8,210.3,314.6L210.3,314.6z M369.1,312c0-1.3,1.5-2.3,1.8-1.2c0.2,0.5-0.1,1.1-0.5,1.5
	C369.2,313.2,369.1,313.1,369.1,312L369.1,312z M953.3,304.6c0.4-0.3,1.1-0.3,1.6-0.1s0.2,0.5-0.6,0.5
	C953.3,305.1,952.9,304.9,953.3,304.6L953.3,304.6z M75.9,314.8c0-0.6-0.8-1-1.8-1c-1.8,0-3.8-2.6-4.8-6.6c-0.6-2.2-5.6-5-7.1-3.9
	c-1.9,1.5-0.7-0.9,1.5-2.7c1.3-1.1,2.5-2.7,2.7-3.4c0.4-1.4,2.3-2.6,5.3-3.3l1.8-0.4l-1.9,1.3c-2.6,1.7-2.9,2.5-1.6,4.9
	c0.6,1.1,1.5,3.5,2,5.2c0.8,2.9,1,3.1,2.8,2.6c1.5-0.4,1.9-0.2,1.7,0.8c-0.2,0.9,0.6,1.7,2.4,2.6c3.1,1.5,3.8,4.5,0.8,3.4
	c-1.2-0.4-1.8-0.3-1.8,0.5c0,0.6-0.5,1.1-1,1.1C76.3,315.8,75.9,315.3,75.9,314.8z M68.2,300.6c0.4,0,0.3-0.4-0.1-0.9
	c-0.8-1-2.1-0.3-2.1,1.2c0,0.6,0.4,0.7,0.8,0.4C67.2,300.9,67.9,300.6,68.2,300.6z M209.2,312.5c0-1.1-0.2-1.9-0.7-2.6
	c-0.3-0.4,0.1-0.7,0.9-0.7c1.7,0,2.1,1,0.8,2.6C209.7,312.5,209.2,312.8,209.2,312.5L209.2,312.5z M809.2,303.7
	c-0.7-0.7-1-1.6-0.7-2s0.9,0.3,1.5,1.4C811,305.4,810.9,305.5,809.2,303.7L809.2,303.7z M111.7,311.7c-0.4-0.2-1.6-0.6-2.7-0.9
	l-1.9-0.6l1.1-2.1c0.9-1.8,1.5-2,3.4-1.5c1.4,0.4,2.6,0.2,3-0.5c0.5-0.8,1-0.6,1.9,1l1.2,2.1l-1.1,0.6c-0.6,0.3-1,1-0.9,1.5
	C115.8,312.2,113.4,312.4,111.7,311.7L111.7,311.7z M128.5,310c1.4-1.1,2.8-2,3.1-2c0.9,0.1-3.6,3.9-4.7,3.9
	C126.4,312,127.1,311.1,128.5,310z M190.5,310.4c0-0.5-0.6-1.4-1.4-2.2c-0.8-0.7-1.1-1.5-0.8-1.8s1.2,0.4,1.9,1.4
	c1.4,1.9,1.7,3.4,0.8,3.4C190.8,311.2,190.5,310.9,190.5,310.4L190.5,310.4z M388.3,307.3c0-0.8,0.3-2,0.7-2.7
	c0.6-1,0.7-0.8,0.5,0.9C389.1,308.1,388.3,309.3,388.3,307.3L388.3,307.3z M103,310.8c0.2-0.3,0.6-0.4,1-0.1s0.3,0.6-0.3,0.6
	C103.1,311.3,102.8,311.1,103,310.8L103,310.8z M340.3,307.2c-0.2-0.6,0-0.7,0.5-0.4c0.9,0.7,1.1,1.4,0.3,1.4
	C340.8,308.2,340.4,307.8,340.3,307.2z M803.9,299.2c-0.7-0.4-2.6-0.7-4.2-0.6c-2,0.1-2.8-0.3-2.5-1s1.5-0.8,3.5-0.4
	c1.7,0.4,3.6,0.7,4.4,0.8c0.8,0,1.4,0.5,1.4,1.1C806.5,300.2,805.8,300.2,803.9,299.2L803.9,299.2z M105.7,307.1
	c0.1-0.5,0.5-0.9,0.8-0.9s0.5,0.4,0.5,0.8c0,0.5-0.3,0.9-0.8,0.9C105.8,307.9,105.6,307.6,105.7,307.1L105.7,307.1z M96.3,305.3
	c0.3-2.3,2.1-6,3-6c0.2,0,0.4,0.9,0.4,2c0,1.4,0.4,2,1.1,2c1.6,0,0.8,1.7-1.2,2.3c-0.9,0.3-2.1,0.9-2.7,1.3
	C96.1,307.6,96,307.4,96.3,305.3L96.3,305.3z M337,302.7c0.4-0.8,1.1-1.5,1.4-1.5c0.5,0,0.5,0.4,0,1.5c-0.4,0.8-1,1.5-1.4,1.5
	C336.4,304.2,336.4,304,337,302.7z M370.2,303.2c0.2-0.3,0.6-0.4,1-0.1s0.3,0.6-0.3,0.6C370.4,303.7,370,303.5,370.2,303.2
	L370.2,303.2z M759.2,298c0.4-0.3,1.1-0.3,1.6-0.1c0.5,0.3,0.2,0.5-0.6,0.5C759.2,298.5,758.8,298.3,759.2,298L759.2,298z
	 M41.7,303.5c-0.2-0.8-0.2-2.7-0.1-4c0.1-1.4,0-2.7-0.3-3s-0.1-0.4,0.6-0.2c1.4,0.3,2.2,1.6,1,1.6c-0.8,0-0.9,0.6-0.6,3.6
	C42.7,305.1,42.3,306.3,41.7,303.5L41.7,303.5z M760.2,294.9c0.4-0.3,1.1-0.3,1.6-0.1c0.5,0.3,0.2,0.5-0.6,0.5
	C760.2,295.4,759.8,295.2,760.2,294.9L760.2,294.9z M752.3,293c-1-1.9-0.5-3.2,1.3-3.7c1.1-0.2,1.3,0.2,1.5,2.5
	c0.1,2.2,0,2.8-0.9,2.8C753.6,294.7,752.7,293.9,752.3,293z M738.9,293.3c-0.2-0.4-1.1-1-2.1-1.5c-1.3-0.6-0.8-0.7,1.8-0.6
	c1.9,0.1,3.7,0.5,3.9,0.9s0,0.7-0.4,0.7s-1.2,0.3-1.8,0.6C739.7,293.7,739.1,293.6,738.9,293.3L738.9,293.3z M21.8,301.7
	c0-2,1.2-4.5,2.2-4.4c0.8,0.1,0.9,0.2,0.3,0.6c-0.5,0.3-1,1.4-1.2,2.4C22.8,302,21.8,303.1,21.8,301.7z M124.9,299.9
	c-0.2-0.5,0.1-1.5,0.7-2c1.1-1.2,1.9,0.1,1.4,2C126.5,301.2,125.3,301.2,124.9,299.9L124.9,299.9z M726.8,290
	c-2-1.7-2.1-1.8-0.8-2.7c0.7-0.5,1.4-0.9,1.6-1c0.1,0,0.5-0.3,0.8-0.7c0.3-0.3,0.9-0.5,1.4-0.3c1.8,0.5,0.9-1.4-0.9-2
	c-1-0.4-1.8-1.1-1.8-1.6c0-1.3,0.9-1.2,2.2,0.1c0.6,0.6,2.3,1.3,3.7,1.6c3.1,0.6,3.5,1,2.1,1.9c-0.5,0.4-1.5,1.1-2.1,1.7
	s-1.8,0.8-2.7,0.5c-1.2-0.5-1.6-0.2-1.6,0.9c0,0.8,0.4,1.5,0.8,1.5c0.4,0,0.7,0.4,0.5,1C729.5,292.2,729.3,292.1,726.8,290
	L726.8,290z M748.4,290.7c-0.6-0.8-0.5-1,0.7-1c0.8,0,1.3,0.4,1.1,1C749.8,291.9,749.4,291.9,748.4,290.7L748.4,290.7z M738.7,285.6
	c-0.3-0.8,2.5-1.8,6.8-2.5l3.1-0.5l-2.6,0.9c-1.4,0.5-3.1,1.4-3.7,2C741.2,286.7,739.1,286.7,738.7,285.6L738.7,285.6z M708.2,283.8
	c-1.9-1.9-2-2.1-0.9-3c0.6-0.5,1.5-0.6,2-0.2s1.2,0.7,1.6,0.6c0.4-0.1,0.6,0.2,0.7,0.8c0,0.5,0.1,1.7,0.3,2.6
	C712.3,286.6,710.8,286.4,708.2,283.8L708.2,283.8z M749,281.9c0.2-0.3,0.6-0.4,1-0.1s0.3,0.6-0.3,0.6
	C749.1,282.5,748.8,282.2,749,281.9L749,281.9z M693.3,277.1c0-0.6,0.4-1,0.8-1c0.4,0,0.7,0.4,0.5,1s-0.5,1-0.8,1
	S693.3,277.7,693.3,277.1L693.3,277.1z M53.1,282.3c0.6-3.6,1.7-5.8,2.9-5.9c0.6,0,0.5,0.4-0.2,1.9c-0.5,1.1-0.8,2.4-0.6,2.9
	s-0.4,1.7-1.2,2.6l-1.5,1.7L53.1,282.3z M77.3,284.2c0-0.5,0.3-1,0.8-1c0.4,0,0.8,0.2,0.8,0.4c0,0.2-0.3,0.7-0.8,1
	C77.7,284.9,77.3,284.7,77.3,284.2z M60.3,282.2c1.1-3.4,2.4-3.6,2.1-0.3c-0.2,2-0.6,2.6-1.5,2.6C59.6,284.5,59.6,284.3,60.3,282.2z
	 M70.6,281.9c0-1.1,1.6-3.8,2.3-3.8c0.4,0,0.7,0.7,0.7,1.5s-0.3,1.5-0.6,1.5c-0.4,0-1,0.3-1.5,0.6C70.9,282.2,70.6,282.2,70.6,281.9
	L70.6,281.9z M80.4,280.7c0-0.2,0.2-0.7,0.5-1.1c0.3-0.3,0.5-0.2,0.5,0.4s-0.2,1.1-0.5,1.1S80.4,280.9,80.4,280.7z M65.9,279.3
	c0-0.6,0.2-1.1,0.5-1.1s0.5,0.2,0.5,0.4c0,0.2-0.2,0.7-0.5,1.1C66.1,280.1,65.9,279.9,65.9,279.3z M57.2,277.9
	c-0.2-0.8,0-2.4,0.3-3.6c0.5-1.7,0.4-2.1-0.2-2.1c-0.4,0-0.8-0.4-0.8-1c0-1.2,0.3-1.2,1.9-0.4c1.6,0.8,2,4.1,0.9,6.6
	C58.3,279.8,57.6,279.9,57.2,277.9L57.2,277.9z M70.1,275.6c-0.6-1.2-0.5-1.5,0.5-1.5c0.7,0,1.7-0.3,2.4-0.7
	c0.8-0.5,1.2-0.2,1.2,0.9c0,0.9,0.3,1.8,0.7,2.1c0.4,0.3-0.4,0.5-1.7,0.6C71.7,277.1,70.5,276.5,70.1,275.6L70.1,275.6z M76,276.1
	c0.2-0.6,0.7-1,1.1-1s0.7,0.4,0.8,1c0,0.6-0.5,1-1.1,1C76.1,277.1,75.8,276.7,76,276.1L76,276.1z M32.2,275.2c0-1.1,0.1-1.7,0.3-1.3
	c0.2,0.3,0.2,1.2,0,2S32.2,276.4,32.2,275.2z M40.9,271.6c-1.4-3-1.5-6.2-0.2-6.2c0.4,0,0.7-0.5,0.7-1c0-0.6,0.5-1,1-1
	c1,0,1.4,1.6,1.1,5.1c-0.1,0.8-0.1,2.6-0.1,3.8C43.5,275.3,42.5,275,40.9,271.6z M55.6,273.7c0.2-0.3,0.6-0.4,1-0.1s0.3,0.6-0.3,0.6
	C55.7,274.3,55.4,274.1,55.6,273.7L55.6,273.7z M46.4,272c0.2-0.9,0.5-1.6,0.8-1.6c0.7,0,0.3,2.3-0.5,2.8
	C46.4,273.4,46.2,273,46.4,272L46.4,272z M10,266.6c-0.2-0.7-0.2-0.9,0.2-0.5c0.3,0.4,0.7,0.1,0.8-0.6c0.2-0.9,0.3-0.9,0.3-0.1
	C11.4,267.2,10.4,268,10,266.6L10,266.6z M63,266.1c0.2-0.6,0.6-1,0.8-1c0.3,0,0.4,0.5,0.2,1c-0.2,0.6-0.6,1-0.8,1
	C62.9,267.1,62.8,266.6,63,266.1z M970.6,245.9c-2.7-2.1-5.4-3.7-7.3-4.3c-0.6-0.2-1.2-0.5-1.3-0.6s-1.2-0.3-2.3-0.4
	c-5.8-0.3-7-0.5-6.8-1.3c0.1-0.5-0.2-1.9-0.8-3.1l-1.1-2.3l3.1,0.5c6.6,1.1,11.8,2.6,14,4c1.3,0.8,4.1,1.5,6.2,1.5
	c4.4-0.1,5,1.2,1.8,3.9c-1.1,1-2.1,2.3-2.1,3C974,248.4,973.7,248.3,970.6,245.9L970.6,245.9z M39.3,257.4c0-1.1,0.3-2.4,0.7-3
	c0.9-1.5,1.9,0.4,1.5,3C41.2,259.9,39.3,259.9,39.3,257.4L39.3,257.4z M4.6,256.3c0-0.9,1-3.6,2.2-6.2c1.2-2.5,3.3-7.1,4.8-10.3
	c2.4-5.3,3.9-7.1,3.9-4.7c0,0.6-0.2,1-0.5,1s-0.6,1-0.8,2.3s-0.8,3.5-1.3,4.9c-1.1,3.1-0.5,5,1.5,5c1.2,0,1.2,0,0.3,2
	c-1.1,2.5-2.2,2.7-2.1,0.3c0-1.1-0.4-1.9-1.1-2.1c-0.9-0.2-1.2,0.3-1.5,2.3c-0.2,1.8-0.7,2.6-1.5,2.6c-0.6,0-1.8,1-2.5,2.1
	C4.8,257.5,4.6,257.6,4.6,256.3z M35.9,252.8c0-2.8,0.4-5.3,1-6.7c0.9-2.1,0.9-2.1,0-2.2c-0.5,0-1.5-0.3-2-0.5
	c-0.6-0.2-1.9-0.5-2.9-0.6s-2.1-0.9-2.5-1.7c-0.8-2-0.9-6.5-0.1-5.6c1,1.2,3.1-0.5,3.1-2.6c0-3.2,2-5.2,5.3-5.2c1.6,0,3-0.4,3-0.9
	c0-0.4,0.8-0.6,1.7-0.4c1.5,0.3,1.8,0,2.1-2c0.2-1.3,0.3-2.8,0.3-3.4c-0.2-2.1,1.5-3.4,2.8-2.3c1.5,1.3,1.7,2.6,0.4,2.8
	c-0.5,0.1-0.6,0.3-0.3,0.6c1,0.8,0.8,2.3-0.6,3.4c-1.7,1.3-1.6,3.6,0.1,4.9c3.8,2.7,3.6,2.5,2.4,3c-0.6,0.2-1.4,1.1-1.7,1.9
	s-1.1,1.5-1.7,1.5c-1.4,0-3.4,2.7-3.4,4.6c0,2.8-1.6,2.6-3.1-0.5c-1.2-2.5-1.6-2.8-2-1.6c-0.9,2.2,3.7,6.4,7.4,6.6
	c0.5,0,0.8,0.5,0.6,1.1s-0.7,0.9-1.2,0.6s-1.6-0.7-2.5-1.1c-1.5-0.6-1.6-0.4-1.4,1.5c0.2,1.4,0,2.3-0.7,2.9c-0.5,0.4-1,1.7-1,2.8
	c0,1.4-0.3,1.9-0.9,1.7c-0.5-0.2-1.3,0.2-1.6,0.8C35.9,257.1,35.8,256.4,35.9,252.8L35.9,252.8z M35.4,236.3
	c0.5-0.9,0.7-1.9,0.6-2.1c-0.4-0.7-2.4,1.7-2.4,2.8C33.6,238.5,34.4,238.2,35.4,236.3z M28.4,255.9c0-1.1,1-1.5,1.3-0.6
	c0.2,0.6,0,1-0.5,1C28.8,256.4,28.4,256.2,28.4,255.9z M949,238.1c0-0.6,0.1-1,0.2-1c0.1,0,0.4,0.5,0.6,1c0.2,0.6,0.1,1-0.2,1
	C949.3,239.2,949,238.7,949,238.1z M947.1,237.5c0.2-0.3,0.6-0.4,1-0.1s0.3,0.6-0.3,0.6C947.2,238.1,946.9,237.9,947.1,237.5
	L947.1,237.5z M978.9,232.5c0.3-0.8,0-1-0.7-0.6c-0.6,0.3-1.2,0.2-1.4-0.3c-0.3-1,2.3-1.3,3.6-0.4s1,2.4-0.5,2.4
	C979,233.7,978.7,233.3,978.9,232.5z M50,243.4c0.2-1.1,0-1.4-0.8-1.1c-1.6,0.6-1.3-0.1,1-2.8c2.7-3.2,5.1-2.8,4.8,0.8
	c-0.3,2.7-0.6,3-1.5,1.4c-0.4-0.8-0.9-0.5-1.7,1C50.5,245.2,49.6,245.6,50,243.4L50,243.4z M1.9,239.2c0-1.3,0.5-2.9,1-3.6
	c0.6-0.7,1-2.1,1-3.2c0-1,0.4-2.6,0.9-3.6c1.1-2,3.7-2.3,3.7-0.4c0,1.7-2.3,5.8-3.4,5.8c-0.4,0-0.8,0.9-0.8,1.9
	c0,1.1-0.6,2.7-1.3,3.6C2,241.4,1.9,241.4,1.9,239.2z M17.9,240.6c-0.7-1.3,0.3-3.5,1.5-3.5c1.1,0,1.2,0.2,0.6,2
	C19.3,241.2,18.5,241.8,17.9,240.6z M947.7,227.4c-1.3-1.9-0.7-3.2,0.9-1.7c0.6,0.6,0.9,1.1,0.5,1.2c-0.4,0-0.5,0.5-0.4,1.1
	C949.2,229.3,948.9,229.2,947.7,227.4L947.7,227.4z M997.2,218.1c-1-0.5-2.7-0.6-3.7-0.3c-1.4,0.4-2,0.2-2.2-1
	c-0.2-0.9-0.9-1.6-1.8-1.6c-2.7,0-5.3-1.9-5.1-3.8c0.1-1.4,0.5-1.7,1.9-1.4c1,0.2,2,0.7,2.3,1.1c0.3,0.4,2.4,1.3,4.7,1.9
	c4.1,1.1,8.6,3.9,8.6,5.3C1001.9,219.3,999.6,219.2,997.2,218.1z M15.9,230.5c0-1,2.2-6.6,2.7-6.6c0.8,0,0.5,5.9-0.4,6.5
	C17.2,231.2,15.9,231.3,15.9,230.5z M25.2,228.9c-0.7-0.4-1-0.8-0.7-0.9c0.8-0.1,0.9-3.2,0.1-3.2c-0.3,0-1,0.4-1.5,1
	c-1,1-3.2,0.4-3.2-0.9c0-0.4,0.7-1.4,1.6-2.1c1.9-1.6,3.3-5.4,3.3-9.1c0-2,0.3-2.7,1.2-3c0.6-0.2,1.2,0.1,1.2,0.7
	c0,0.6,0.6,0.6,1.6-0.2c1.3-1,1.7-0.9,2.4,0.5c1,1.9,0.6,3.9-0.9,3.9c-0.6,0-1,0.5-1,1c0,0.6-0.3,1-0.7,1c-1.6,0-2,2.8-1.2,7.6
	C28.3,230.4,28.1,230.7,25.2,228.9z M990.9,209.6c-0.1-0.2-1.1-0.6-2.2-0.9c-2.5-0.6-2.9-1.3-1.3-2.5c0.9-0.7,1.7-0.5,2.8,0.6
	c2,1.9,2,1.9,1.4,2.7C991.3,209.8,991,209.8,990.9,209.6L990.9,209.6z M40,218.3c0.4-3.5,1.2-5.3,1.9-4c0.5,1-1,7.3-1.7,7.3
	C39.8,221.6,39.8,220.3,40,218.3L40,218.3z M44.4,217.1c-0.5-1.1-0.3-1.5,0.6-2c1.6-0.8,2.4,0.9,1,2.3
	C45.3,218.2,44.9,218.1,44.4,217.1z M31.8,205.8c0.4-0.3,0.9-0.3,1.3,0c0.4,0.3,0.1,0.5-0.6,0.5C31.7,206.3,31.4,206,31.8,205.8
	L31.8,205.8z M26,201.3c0.3-0.7,0.8-1,0.9-0.7s-0.1,0.9-0.6,1.3C25.6,202.4,25.5,202.3,26,201.3z M27.3,195.4
	c0.3-1.1,0.9-1.7,1.3-1.4c0.9,0.7,0.9,2-0.1,2.7C27,197.8,26.6,197.4,27.3,195.4z M982.4,179c0.4-0.3,0.9-0.3,1.3,0
	c0.4,0.3,0.1,0.5-0.6,0.5C982.4,179.5,982.1,179.3,982.4,179L982.4,179z M25.1,189.2c-1-1.2-0.3-2.4,0.8-1.3
	c0.5,0.5,0.7,1.2,0.4,1.5S25.5,189.7,25.1,189.2z M25.6,185.2c0-0.5,0.7-1.7,1.6-2.7c1.3-1.4,1.7-1.4,2-0.3c0.3,1.1,0.8,1.1,2.2,0.1
	c2.1-1.5,3.7-1.7,3.2-0.3c-0.2,0.6-1,1-1.8,1s-1.8,0.7-2.1,1.6C30.1,186.3,25.6,186.8,25.6,185.2L25.6,185.2z M40.9,172.7
	c-1-0.7-1-0.7,0.2-1.5c1.4-0.9,1.8-0.5,1.2,1.1C42.1,173,41.4,173.1,40.9,172.7L40.9,172.7z M31.4,166.1c0.2-0.3,0.6-0.4,1-0.1
	c0.4,0.3,0.3,0.6-0.3,0.6C31.5,166.7,31.2,166.5,31.4,166.1L31.4,166.1z M991.3,149.6c-0.5-1.1-0.4-1.5,0.3-2.1
	c0.9-0.7,2.3,0.9,2.3,2.5C993.9,151.5,992,151.2,991.3,149.6L991.3,149.6z M976.2,145.6c-0.4-0.8-0.9-1.5-1.1-1.5
	c-0.3,0-0.8-0.6-1.2-1.4c-0.4-0.8-1-1.6-1.4-1.9c-0.4-0.3-0.5-0.8-0.1-1.6c1.3-2.8,8.2,4,7.2,7C979.1,147.7,976.9,147.3,976.2,145.6
	L976.2,145.6z M985.6,139.8c-0.7-0.5-1.9-0.6-2.7-0.3c-0.8,0.4-1.9,0.2-2.4-0.4c-0.8-0.9-0.6-1.1,0.8-1.1c1.4,0,1.7-0.4,1.4-1.7
	s-0.1-1.5,1-1c2,1,4.6,4.3,3.8,4.9C987.1,140.4,986.3,140.3,985.6,139.8L985.6,139.8z M968.3,138.5c0.4-0.3,0.9-0.3,1.3,0
	c0.4,0.3,0.1,0.5-0.6,0.5C968.2,139,967.9,138.7,968.3,138.5L968.3,138.5z M50.4,149.7c0-0.8,4-4.7,4.8-4.6c0.4,0,0.2,0.6-0.4,1.2
	c-0.6,0.7-1.3,1.8-1.7,2.5C52.4,150.1,50.4,150.8,50.4,149.7z M43.2,148.2c-0.7-0.5-1.1-1.2-1-1.5c0.2-0.3,1,0.1,1.8,1
	C45.6,149.3,45.1,149.7,43.2,148.2L43.2,148.2z M976.2,132.9c0-0.6,0.1-1,0.2-1c0.1,0,0.4,0.5,0.6,1c0.2,0.6,0.1,1-0.2,1
	C976.4,133.9,976.2,133.5,976.2,132.9L976.2,132.9z M57.1,142.5c0.7-1.8,1-2,1-0.7c0,0.5-0.4,1.2-0.8,1.6
	C56.6,144,56.5,143.8,57.1,142.5L57.1,142.5z M951.3,116.3c-1.9-4.6-2.9-9.1-2-9.7c0.9-0.7,2.9,1,3,2.5c0,0.9,0.8,1.3,2.3,1.3
	c3.1,0,4.1,1.9,2.4,4.6c-0.7,1.1-1.7,2.7-2.1,3.5C953.6,120.7,953,120.4,951.3,116.3L951.3,116.3z M96.7,125c-0.4-1.4,0.4-6.1,1-5.7
	c0.9,0.6,0.9,6.5,0,6.5C97.3,125.8,96.8,125.5,96.7,125L96.7,125z M909.7,108.4c0-0.6,0.1-1,0.2-1c0.1,0,0.4,0.5,0.6,1s0.1,1-0.2,1
	C909.9,109.4,909.7,108.9,909.7,108.4z M893.1,102.7c-0.9-2.1-1.4-3.9-1.1-4.1c0.8-0.5,3,3.1,2.8,4.6c-0.1,0.7,0.2,1.3,0.6,1.3
	c0.5,0,0.8,0.4,0.8,1C896.2,107.7,894.7,106.3,893.1,102.7L893.1,102.7z M898.5,104.4c-0.5-1.1-0.7-2-0.4-2s1.1,0.9,1.7,2
	c0.9,1.4,1,2,0.4,2C899.8,106.4,899,105.5,898.5,104.4z M103.5,114.9c-0.2-0.6-0.2-1-0.1-1s0.6-0.3,1.1-0.6c0.5-0.4,0.8-0.1,0.8,1
	C105.3,116,104,116.5,103.5,114.9L103.5,114.9z M93.9,114c0-0.6,0.5-1,1-1c0.6,0,1,0.4,1,1s-0.5,1-1,1C94.3,115,93.9,114.6,93.9,114
	z M911.6,102.1c-0.5-0.6-1.3-0.9-1.8-0.7c-0.6,0.2-0.9-0.6-1-2.7c-0.1-1.7-0.4-3.2-0.7-3.4c-0.9-0.6-0.6-2.2,0.4-2.2
	c1.5,0,1.8-1.3,0.5-2.7l-1.2-1.3l1.1-0.1c1.1,0,5.5,5,6.1,7c0.2,0.5-0.7,0.3-2-0.4c-1.9-1.1-2.3-1.1-2.2,0.1c0,0.8,0.3,1.4,0.7,1.4
	s0.7,0.4,0.7,1c0,0.5,0.6,1.3,1.3,1.6c0.8,0.4,1.2,1.1,1,2C914.2,103.4,912.9,103.6,911.6,102.1L911.6,102.1z M933,101.7
	c0-0.1-0.1-1.1-0.2-2.1c-0.1-1.5,0-1.6,0.6-0.7c0.4,0.6,0.6,1.6,0.5,2.1C933.5,101.9,933,102.2,933,101.7L933,101.7z M83.7,110
	c-0.5-1.7,0.1-2.3,1.7-1.5c1.3,0.7,1.4,0.8,0.4,1.6C84.4,111.2,84.1,111.2,83.7,110L83.7,110z M100.6,109.4c0-1.8,0.3-2.1,0.8-0.6
	c0.2,0.5,0.1,1.2-0.2,1.6C100.8,110.7,100.6,110.3,100.6,109.4z M898,97.4c-0.8-1.6-2.1-3.3-2.9-3.6c-1.7-0.7-4.9-5.1-4.3-5.8
	c0.2-0.3,1.7-0.1,3.2,0.3c2.6,0.8,4.7,3.7,4.8,6.6c0,0.6,0.6,1.6,1.4,2.3c0.7,0.6,1.2,1.6,1,2.2C900.5,101.1,899.5,100.4,898,97.4
	L898,97.4z M102.4,107.8c-0.7-0.6-0.8-0.9-0.3-0.9c0.4,0,1.1,0.4,1.6,0.9C104.6,109,103.8,109,102.4,107.8L102.4,107.8z M888.9,97.4
	c0-0.6,0.5-1,1.2-1c0.9,0,1,0.2,0.4,1C889.4,98.7,888.9,98.7,888.9,97.4L888.9,97.4z M874.3,97.2c-0.2-0.3-2-0.9-4.1-1.3
	s-3.8-1.2-3.8-1.7c0-0.6,1.8-1.2,4-1.3c3.2-0.2,4.1,0,4.3,1.2C875,95.7,874.7,98,874.3,97.2L874.3,97.2z M899.7,90.3
	c0-0.5,0.5-0.7,1-0.4c0.6,0.3,1,0.7,1,0.9c0,0.2-0.5,0.4-1,0.4C900.2,91.2,899.7,90.8,899.7,90.3z M875.8,89.4
	c-0.9-1.1-0.5-1.8,1.6-2.7c1.3-0.5,1.7-0.4,1.5,0.6C878.6,89.2,876.7,90.5,875.8,89.4L875.8,89.4z M900.9,83.1
	c-0.6-1.6-1.1-3.9-1.2-5.1c0-1.2-0.3-2.1-0.8-2.1c-0.4,0-0.8-0.4-0.8-1s0.6-1,1.3-1c0.9,0,1.3-0.6,1.3-1.9c0-1,0.4-2.7,1-3.7
	c0.9-1.7,1-1.7,2.2,0.5c1.4,2.7,2,9.9,0.9,11.2c-0.5,0.7-0.5,0.9,0,0.9c0.4,0,0.7,0.5,0.7,1c0,0.6-0.5,1-1,1c-0.6,0-1,0.7-1,1.5
	C903.4,87,902.1,86.3,900.9,83.1L900.9,83.1z M126.6,89.5c0.2-0.3,0.6-0.4,1-0.1s0.3,0.6-0.3,0.6C126.7,90.1,126.4,89.9,126.6,89.5
	L126.6,89.5z M888.1,77.1c-0.8-1-1.7-1.7-1.9-1.4c-0.2,0.2-0.5-0.2-0.7-1.1c-0.4-2,0.7-2,2.6,0c0.8,0.8,1.9,1.5,2.5,1.5
	c0.8,0,0.9,0.3,0.3,1.5C890.1,79.4,890,79.4,888.1,77.1L888.1,77.1z M857.1,69.8c0-2.3,0.2-2.5,2.3-2.6c1.3,0,2.3,0.2,2.3,0.4
	c0,1.4-2.4,4.7-3.5,4.7C857.4,72.4,857.1,71.8,857.1,69.8z M144.2,78.1c0.2-0.3,0.6-0.4,1-0.1s0.3,0.6-0.3,0.6
	C144.3,78.7,144,78.4,144.2,78.1L144.2,78.1z M150.5,76.1c1.1-0.9,2.5-2.2,3.1-2.8s1.5-1.6,2.1-2.3c2.9-3.2,7.5-9.4,7.5-10.1
	c0-0.5,0.7-2.1,1.6-3.7c1.6-2.9,5.1-5.8,5.1-4.2c0,1.5-5.7,12.2-6.5,12.2c-0.4,0-1.1,0.9-1.6,2.1c-0.5,1.1-1.3,2.1-1.8,2.1
	c-1.7,0-3,2-2.7,4c0.3,1.6-0.1,1.9-2.4,2.5c-1.5,0.3-3.6,0.9-4.5,1.3l-1.8,0.6L150.5,76.1z M906.6,65.6c-0.6-1.8,0.1-2.1,0.8-0.5
	c0.4,1,0.5,1.5,0.1,1.6C907.2,66.6,906.8,66.2,906.6,65.6z M898.1,61.7c0-0.6,0.2-1,0.5-1s0.5,0.5,0.5,1c0,0.6-0.2,1-0.5,1
	S898.1,62.2,898.1,61.7z M815.5,58.6c-0.5-0.6-0.2-0.9,0.9-0.9c0.9,0,1.8,0.3,1.9,0.7C818.7,59.5,816.4,59.6,815.5,58.6L815.5,58.6z
	 M889.8,57.2c0-0.8,0.3-1.5,0.8-1.5s0.6,0.6,0.5,1.5c-0.2,0.8-0.5,1.5-0.8,1.5S889.8,58,889.8,57.2z M859.9,55.5
	c-0.7-2-0.7-2.9-0.3-3.8c0.8-1.6,3,2.4,2.5,4.7C861.6,58.8,860.9,58.5,859.9,55.5z M801.4,56.2c0.4-0.3,1.1-0.3,1.6-0.1
	c0.5,0.3,0.2,0.5-0.6,0.5C801.5,56.7,801.1,56.5,801.4,56.2L801.4,56.2z M864.8,54c0-0.4,0.5-1,1-1.4s1-0.2,1,0.3c0,0.4-0.5,1-1,1.4
	C865.3,54.5,864.8,54.4,864.8,54z M820.5,51.5c-0.2-0.6-0.1-1,0.2-1s0.7,0.4,0.8,1c0.2,0.6,0.1,1-0.2,1S820.6,52.1,820.5,51.5
	L820.5,51.5z M209.4,48.9c0-0.8,0.2-1.5,0.5-1.5s0.6,0.7,0.8,1.5c0.2,0.9,0,1.5-0.5,1.5S209.4,49.7,209.4,48.9z M811.4,41.7
	c0-0.4,0.2-1.4,0.5-2.3c0.4-1.2,0.6-1.2,1.1-0.4c0.3,0.6,0.4,1.7,0.3,2.3C812.8,42.6,811.4,42.9,811.4,41.7L811.4,41.7z M886.1,38.5
	l-1.3-1.9l1.3-0.8c0.7-0.4,1.3-0.8,1.5-0.9c0.1-0.1,0.3,1.2,0.4,2.7C888.1,40.9,887.8,41.1,886.1,38.5L886.1,38.5z M222.6,47.2
	c-0.2-0.6-1.4-1-2.6-1c-1.4,0-2.3-0.4-2.3-1.1s0.6-0.9,1.6-0.5c0.9,0.3,2.9,0.6,4.5,0.6h2.9l-1.7,1.5
	C222.9,48.4,223,48.4,222.6,47.2L222.6,47.2z M707.2,40.2c0.2-0.3,0.6-0.4,1-0.1s0.3,0.6-0.3,0.6C707.3,40.7,707,40.5,707.2,40.2
	L707.2,40.2z M701.3,38.8c-1-0.5-2.6-1.1-3.6-1.4c-2.6-0.8-2.6-1.5-0.2-1.5c1.2,0,2.3,0.4,2.5,1s1,1,1.9,1c0.8,0,1.5,0.4,1.5,1
	s-0.1,1-0.1,0.9C703.2,39.6,702.3,39.2,701.3,38.8z M210.6,44.3l-2.1-0.7l2.7-0.2c1.5-0.1,2.8,0.3,3,0.8
	C214.6,45.3,213.8,45.3,210.6,44.3L210.6,44.3z M688.1,33.9c-0.4-1.2,1.1-1.2,2.6,0c0.9,0.7,0.8,0.9-0.6,1
	C689.1,34.9,688.2,34.5,688.1,33.9L688.1,33.9z M678.5,30.9c-3.7-1.4-3.7-1.9,0-1.3c3,0.4,3.3,0.3,2.5-0.9c-1.2-1.9-1.2-2.7,0.3-2.7
	c1.2,0,3.3,1.9,2.1,2c-0.3,0-0.8,0.9-0.9,2.1C682,32.1,681.9,32.1,678.5,30.9L678.5,30.9z M672.1,28.3c0.4-0.3,0.9-0.3,1.3,0
	c0.4,0.3,0.1,0.5-0.6,0.5C672,28.9,671.7,28.6,672.1,28.3L672.1,28.3z M731.5,26.6c0.2-0.3,0.6-0.4,1-0.1c0.4,0.3,0.3,0.6-0.3,0.6
	C731.7,27.2,731.3,26.9,731.5,26.6L731.5,26.6z M664.5,26.4c-0.6-0.2-1-0.9-0.9-1.4c0.2-0.5,0.5-0.7,0.7-0.4s1.4,0.6,2.5,0.7
	c1.2,0.1,2,0.5,1.8,1C668.5,27,666.7,27.1,664.5,26.4z M676.5,25.3c0.2-0.3,0.6-0.4,1-0.1c0.4,0.3,0.3,0.6-0.3,0.6
	C676.6,25.9,676.3,25.6,676.5,25.3L676.5,25.3z M225.4,29.2c0-0.9,0.3-1.4,0.6-1.2c1,0.6,1.1,2.8,0.2,2.8
	C225.8,30.8,225.4,30.1,225.4,29.2z M654.4,24.4c-1.8-0.3-2.8-2.3-1.2-2.3c2.3,0,5.5,1.3,4.9,2.1c-0.4,0.5-0.9,0.8-1.2,0.7
	C656.6,24.9,655.5,24.6,654.4,24.4L654.4,24.4z M659.5,24.3c-0.1-0.5,0.4-0.6,1.3-0.4s1.5,0.6,1.5,0.8
	C662.4,25.5,659.8,25.1,659.5,24.3z M648.2,22.5c-0.6-1.2-0.4-2.2,0.6-1.9c0.5,0.2,1.3,0.4,1.7,0.5c0.5,0.1,0.5,0.4-0.3,1
	C648.8,23.3,648.6,23.4,648.2,22.5z M516.1,22.3c0.2-0.3,0.6-0.4,1-0.1c0.4,0.3,0.3,0.6-0.3,0.6C516.3,22.9,516,22.7,516.1,22.3
	L516.1,22.3z M588,19.3c0.4-0.3,0.9-0.3,1.3,0c0.4,0.3,0.1,0.5-0.6,0.5C587.9,19.8,587.6,19.6,588,19.3L588,19.3z M323.4,19.4
	c0-0.6,0.5-1,1.2-1c0.9,0,1,0.2,0.4,1C324,20.6,323.4,20.6,323.4,19.4L323.4,19.4z M313,17.5c0-0.6,0.2-1.1,0.5-1.1s0.5,0.2,0.5,0.4
	s-0.2,0.7-0.5,1.1C313.3,18.3,313.1,18.1,313,17.5z M225.9,16.2c0-0.2,0.4-0.7,0.8-1c0.5-0.4,0.7-0.2,0.5,0.4
	C226.8,16.5,225.9,17,225.9,16.2z M312.5,14.4c0.4-0.5,1.1-1,1.6-1c0.7,0,0.7,0.1,0,1c-0.4,0.5-1.1,1-1.6,1
	C311.8,15.4,311.8,15.3,312.5,14.4z M476.2,12.2c-0.5-1.6,0.1-2.2,1.3-1.5c0.9,0.5,1,0.9,0.4,1.6C477.1,13.5,476.6,13.5,476.2,12.2z
	 M308.4,10.9l-1.2-1.3l1.6-0.7c0.9-0.4,1.8-0.5,2-0.1c0.2,0.3-0.1,0.6-0.6,0.6c-1,0-1.2,1.6-0.2,2.4c0.4,0.3,0.4,0.5,0.1,0.5
	C309.9,12.2,309.1,11.6,308.4,10.9z M647.5,6.9c-0.8-0.6-0.6-0.8,0.9-0.9c1.1-0.1,1.9,0.1,1.9,0.3C650.4,7.2,648.4,7.6,647.5,6.9
	L647.5,6.9z M475.6,7.1c-1.6-1.2-1.5-1.7,0.3-1.5c3,0.4,3.1,0.4,2.2,1.5C477.1,8.3,477.1,8.3,475.6,7.1L475.6,7.1z M503.9,6.7
	c0.3-0.7,0.8-1,0.9-0.7c0.2,0.3-0.1,0.9-0.6,1.3C503.4,7.8,503.4,7.7,503.9,6.7L503.9,6.7z M472.3,6.2c0-0.6,0.2-1,0.5-1
	s0.5,0.5,0.5,1c0,0.6-0.2,1-0.5,1C472.6,7.2,472.3,6.8,472.3,6.2z M353.1,7.2c0.2-0.3,0.6-0.4,1-0.1c0.4,0.3,0.3,0.6-0.3,0.6
	C353.3,7.7,352.9,7.5,353.1,7.2L353.1,7.2z M492.1,5.5c0-0.2,0.2-0.7,0.5-1.1c0.3-0.3,0.5-0.2,0.5,0.4c0,0.6-0.2,1.1-0.5,1.1
	C492.3,5.9,492.1,5.7,492.1,5.5L492.1,5.5z M509.4,4.7c2.1-1.1,6-1.3,6-0.3c0,0.5-1.7,0.9-3.8,1C508.9,5.5,508.3,5.3,509.4,4.7
	L509.4,4.7z M412.6,1.9c1-1.3,8.1-1.4,8.6-0.1c0.2,0.6-1.4,1-4.5,1.1C413.4,2.9,412.1,2.6,412.6,1.9L412.6,1.9z M507.3,0.7
	c-0.8-0.6-0.6-0.9,1.1-1.6c1.3-0.5,2.6-0.3,3.1,0.3c0.8,0.9,0.8,1.1-0.4,1.1c-0.8,0-1.7,0.3-2.1,0.5S507.9,1.2,507.3,0.7L507.3,0.7z
	 M525.9,0.8c0.2-0.3,0.6-0.4,1-0.1s0.3,0.6-0.3,0.6C526,1.4,525.7,1.1,525.9,0.8L525.9,0.8z M532.3,0.6c-0.1-0.4,0.3-0.8,1-0.8
	s1.2,0.3,1.3,0.7c0,0.4-0.5,0.8-1,0.8C533,1.3,532.5,1,532.3,0.6L532.3,0.6z M504.4,0c0.4-0.3,0.9-0.3,1.3,0s0.1,0.5-0.6,0.5
	C504.3,0.5,504,0.3,504.4,0L504.4,0z"/>
</svg>
