<?xml version="1.0" encoding="utf-8"?>
<!-- Generator: Adobe Illustrator 25.2.0, SVG Export Plug-In . SVG Version: 6.00 Build 0)  -->
<svg version="1.1"
	 id="svg2" xmlns:cc="http://creativecommons.org/ns#" xmlns:dc="http://purl.org/dc/elements/1.1/" xmlns:rdf="http://www.w3.org/1999/02/22-rdf-syntax-ns#" xmlns:svg="http://www.w3.org/2000/svg"
	 xmlns="http://www.w3.org/2000/svg" xmlns:xlink="http://www.w3.org/1999/xlink" x="0px" y="0px" viewBox="0 0 1003.8 372.4"
	 style="enable-background:new 0 0 1003.8 372.4;" xml:space="preserve">
<style type="text/css">
	.st0{fill:#F6C60C;}
</style>
<path id="path2987" class="st0" d="M357.7,372.3c-3.3-0.1-8.8-0.2-12.1-0.1c-3.3,0-8.6,0-11.8-0.1s-8.2-0.1-11.2-0.2
	c-9.7-0.2-20-0.9-21.1-1.6c-1.3-0.7,4.2-0.8,13.6-0.1c3.5,0.2,13.9-0.1,28.3-0.9c22.1-1.2,22.8-1.2,22.9-0.1c0,0.6,0.4,1.1,0.9,1.1
	s0.9,0.3,0.9,0.8C368.1,372.2,365.1,372.6,357.7,372.3L357.7,372.3z M407.6,366.6c-1.1-1.2,0.2-1.6,1.4-0.4c0.9,0.9,0.9,1.1,0.2,1.1
	C408.7,367.4,408,367.1,407.6,366.6L407.6,366.6z M469.8,363c-1.1-0.3-1.1-0.4,0-1c0.6-0.4,2.3-0.9,3.7-1.1c2.9-0.5,8.2-2.2,10-3.2
	c0.8-0.4,1.5-0.4,2.3,0c0.6,0.4,0.7,0.5,0.2,0.4s-1.1,0.1-1.4,0.5c-0.5,0.6-4.3,2-11.6,4.2C471.9,363.1,470.5,363.2,469.8,363
	L469.8,363z M453.8,363.3c-0.2-0.2-0.4-0.6-0.4-1s0.3-0.3,0.7,0.1c0.4,0.4,0.6,0.8,0.4,1C454.3,363.5,454,363.5,453.8,363.3z
	 M411.4,364.2c-0.1-0.1-2.6-0.3-5.6-0.3c-2.9,0-5.8-0.3-6.5-0.6c-0.8-0.4-1.2-0.3-1.3,0.2c-0.1,0.5-0.5,0.5-1.2-0.2
	c-0.6-0.5-1-1-1-1.2c0-0.5,3.1-1.3,6.5-1.6c1.9-0.2,5.2-0.6,7.4-0.8c6-0.6,10.1-1.2,11.7-1.7c0.8-0.2,3.7-0.8,6.4-1.3
	c2.7-0.5,5-1.1,5-1.3c0-0.3-0.2-0.5-0.5-0.5c-0.2,0-1.2-0.1-2.1-0.2c-2.5-0.2-2.5-0.6,0.1-1.1c1.9-0.4,2.5-0.3,3.5,0.7
	c1,0.9,2,1.1,4.9,1c2-0.1,3.8-0.4,4-0.7c0.2-0.3,1.6-0.8,3.2-1.1c2.1-0.4,3-0.8,3.1-1.6c0.2-0.8,0.5-0.9,1.3-0.6
	c0.6,0.3,1.6,0.4,2.4,0.2c0.7-0.2,2.3-0.5,3.5-0.7s2.7-0.7,3.2-1c0.7-0.4,1.6-0.4,2.6-0.1c1.2,0.4,2.1,0.2,4.2-0.8
	c2.8-1.5,3-1.5,6.9-2.2c1.4-0.3,3.7-0.9,5-1.4s3.9-1.1,5.6-1.4s4.6-1.2,6.3-2.1c1.8-0.9,3.4-1.7,3.6-1.7s0.7-0.4,1-0.7
	c0.5-0.5,0-0.9-1.8-1.5c-2.9-1-3.8-1-4.5,0c-0.6,0.8-1.7,0.8-6.2,0.3c-1.3-0.1-1.8-0.4-1.6-1.1c0.2-0.5,0.7-0.9,1.2-0.9
	c0.6-0.1,0.7-0.2,0.2-0.3c-0.4-0.1-0.7-0.5-0.8-0.8c0-0.3,0.4-0.4,1-0.1s1.3,0.3,1.7,0.2c0.4-0.2,0.7,0.1,0.7,0.6s0.1,0.9,0.3,0.9
	c0.1,0,0.7,0.1,1.3,0.3c0.6,0.2,0.9,0.1,0.7-0.2c-0.2-0.3-0.1-0.9,0.1-1.4c0.4-0.7,0.6-0.7,1.1-0.1c0.7,1,2.4,0.3,2.3-1
	c0-0.8,0.1-0.9,0.5-0.2c0.3,0.4,1.3,0.8,2.3,0.8s1.6,0.1,1.5,0.2s0.3,0.6,1,1s1.1,1,0.9,1.2c-0.1,0.3,0.1,0.6,0.6,0.8
	c1.5,0.5,3,0.3,3.2-0.5c0.1-0.4,1.3-0.8,2.7-1c6.2-0.6,6.8-0.8,7.5-1.8s6.3-2.5,10.5-2.8c0.8-0.1,1.2-0.4,1-0.8s-0.1-0.7,0.1-0.6
	c0.9,0.2,5.8-1.1,6.1-1.6c0.2-0.3,0.8-0.6,1.4-0.6c0.6,0,1.3-0.4,1.7-0.9s1.7-1.1,2.9-1.3c1.9-0.4,2.2-0.7,2.2-1.8
	c0-1.1-0.5-1.4-3-1.9c-1.6-0.3-3.1-0.4-3.3-0.2c-0.2,0.2,0,0.4,0.5,0.6c4.5,1.2,3.7,1.4-3.5,1c-13.9-0.7-17.9-1.4-18-3
	c0-1,0.9-1,1.3-0.1c0.2,0.5,0.4,0.5,0.8-0.1c0.3-0.5,0.9-0.7,1.6-0.4c1.3,0.5,1.1,0.4,3.7,1c2.8,0.5,5.9,0.3,7.3-0.5
	c0.6-0.4,2.1-0.7,3.2-0.8c1.1,0,2.4-0.5,2.8-1c0.5-0.5,1.8-0.9,3.2-1c1.9-0.1,2.3-0.3,2.3-1.1c-0.1-1.4-3.3-3-6-3
	c-2.3,0-2.7,0.3-1.5,1.4c1.5,1.4,0.1,1.2-2.5-0.3c-2.1-1.2-3.2-1.5-5.2-1.3c-1.7,0.2-3.1-0.1-4.4-0.8c-2.1-1.2-4.8-1.2-11.2-0.3
	c-3.5,0.5-4.9,0.5-7.1-0.3c-1.7-0.6-3.5-0.8-4.9-0.5c-1.4,0.2-2.9,0.1-3.8-0.3s-2.1-0.7-2.8-0.7c-0.7,0-1.6-0.2-1.9-0.6
	c-0.4-0.4-1.1-0.4-1.7-0.1c-1.3,0.6-3.8,0.9-4.2,0.4c-0.2-0.2-2.4-0.4-4.9-0.5s-7.1-0.5-10.1-1.1c-3-0.5-5.5-0.9-5.7-0.9
	c-0.1,0-0.2-0.4-0.2-0.9s-0.4-0.8-0.7-0.6c-0.4,0.1-0.7,0.6-0.7,1.1s-0.5,0.8-1.1,0.7c-0.6-0.1-2.4-0.1-4-0.2
	c-1.6,0-3.7-0.4-4.6-0.9c-1-0.4-3.3-0.8-5.2-0.7c-1.9,0-4.9-0.3-6.6-0.7c-4.8-1.2-7.6-1.6-10-1.5c-1.2,0-2.2-0.2-2.2-0.5
	s1.9-0.7,4.6-0.8c5-0.2,5.9-1,2.1-1.8c-1.4-0.3-3.4-0.9-4.4-1.3c-1.2-0.5-2.7-0.6-3.8-0.4c-1,0.2-2.1,0.1-2.5-0.2
	c-0.3-0.3-2.6-0.5-4.9-0.5c-4.5,0.1-7-0.6-2.9-0.8c1.3-0.1,2.5-0.4,2.7-0.7c0.4-0.8-3.3-2.1-5.4-2.1c-0.9,0-1.9-0.4-2.3-1
	c-0.5-0.7-1.7-1.1-4-1.3c-2-0.2-4.9-1-7.2-2.1c-2.1-1-4.4-1.8-5.1-1.7c-1.1,0-3.4-0.6-6.9-2c-1.9-0.7-5.3-1.3-9.3-1.6
	c-1.6-0.1-3.7-0.6-13.6-2.9c-1.8-0.4-4.9-0.8-6.9-0.8s-5.1-0.3-6.8-0.6c-1.7-0.3-3.3-0.4-3.6-0.2c-0.3,0.2-1.2,0-2.1-0.4
	s-2.3-0.7-3.2-0.7c-0.8,0.1-4.3,0.1-7.7,0.1c-3.4,0-6.2,0.2-6.2,0.4c0,0.3-1,0.4-2.3,0.3c-1.9-0.1-2.2,0-1.9,0.7
	c0.2,0.5,0.7,0.9,1.2,0.8c0.4,0,0.8,0.2,0.8,0.5s-0.2,0.6-0.5,0.6c-1.1,0-0.5,0.9,1.2,1.9c1.2,0.7,1.7,1.5,1.7,2.5
	c0,1.4,0.2,1.5,2.3,1.4c1.3-0.1,2.7,0.2,3.2,0.5c1.7,1.2,4.6,2.3,6.8,2.5c1.2,0.1,3.4,0.3,4.8,0.5s2.8,0.2,3.1,0.1
	c0.3-0.1,1.6,0.2,2.9,0.6c3.3,1,7,1.7,11.3,2c2.1,0.1,4.9,0.7,6.4,1.2c2,0.8,4,0.9,9,0.7c3.5-0.1,6.9-0.4,7.5-0.6
	c1.3-0.5,2.8,0.3,2.3,1.3c-0.2,0.4-1,0.6-1.9,0.4l-1.5-0.3l1.5,1.1c0.8,0.6,1.3,1.2,1.1,1.5c-0.2,0.2-2.8,0.6-5.7,0.8
	c-7.5,0.6-7.4,0.5-7.3,1.6c0,0.6-0.3,0.9-1.1,0.7c-0.6-0.1-2.1,0-3.3,0.3c-1.5,0.4-3.1,0.4-5.1-0.1c-4.7-1.1-12.4-1.7-13.1-1
	c-0.4,0.4,0,0.7,0.9,0.9c0.8,0.2,1.5,0.6,1.5,0.9c0,0.7-0.9,0.6-6.9-0.6c-7.7-1.6-15.1-2.6-15.9-2.3c-1.4,0.6-0.9,1.4,1.1,2
	c1.1,0.3,2.3,1,2.9,1.5s2.5,1.3,4.5,1.6c3.5,0.6,3.8,0.8,3.7,2.9c0,0.6,0.3,1,0.9,1c0.7,0,0.9-0.4,0.6-1.5s-0.1-1.4,0.8-1.5
	c0.6,0,1.7,0.4,2.4,1c0.7,0.6,1.7,1.1,2.2,1.1s1.6,0.6,2.4,1.3c0.8,0.8,1.7,1.4,2.2,1.3s1.7,0.8,2.9,1.9c1.2,1,2.6,2,3.3,2.2
	s1,0.6,0.9,0.9c-0.5,0.9-2.7,0.7-5.2-0.3c-3.6-1.6-7.2-2.2-8-1.5c-0.4,0.3-0.9,0.5-1.1,0.3c-0.4-0.4-3.9-1-7.4-1.3
	c-4.9-0.5-11.1-1.8-15.7-3.3c-2.7-0.9-12-2.1-13-1.7c-0.4,0.2-1.4,0-2.2-0.3c-3.5-1.8-5.3-0.6-4.6,3c0.5,2.7,0.4,2.8-1.9,1.8
	c-1.6-0.7-7-2.3-8.7-2.6c-2.2-0.3-8-1.9-8.5-2.2c-0.3-0.2-2.1-0.6-4-0.9c-1.8-0.3-3.6-0.6-3.8-0.7c-0.3-0.1-2.4-0.2-4.7-0.1
	c-2.3,0.1-5,0.2-5.9,0.3c-0.9,0-2.1-0.4-2.6-1c-1.3-1.4-9.2-3.3-11.3-2.8c-1.1,0.3-1.7,0.1-2.2-0.6c-0.6-1.1-5.5-2.5-6.4-1.9
	c-0.3,0.2-2.5-0.2-5-0.8c-3.6-1-4.4-1-4.4-0.4s-0.4,0.8-2,0.5c-1.5-0.2-2.1-0.1-2.3,0.6s-0.7,0.8-2.7,0.4c-2.7-0.5-6.3,0-9.1,1.3
	c-1,0.5-2.3,1-2.9,1.3c-1.1,0.5-1.1,0.5,0.1,1.3c1.1,0.8,1.1,0.8-0.3,0.6c-0.8-0.2-2.8,0-4.3,0.4s-3.5,0.9-4.5,1.1
	c-1.7,0.4-2.6,0.7-6.2,2.5c-0.9,0.5-2.7,1-4,1.3c-5.8,1.2-12.8,4.7-17.2,8.6c-0.9,0.8-2.4,1.4-4.2,1.6c-3.4,0.3-10.1,3-16.9,6.6
	c-2.8,1.5-5.9,2.7-6.9,2.8c-1,0-2.1,0.4-2.4,0.9c-0.3,0.4-2.5,1.5-4.7,2.3c-6.1,2.3-9.4,3.6-13.3,5.4c-1.9,0.9-4.6,1.9-5.9,2.3
	c-1.3,0.3-5.3,1.3-8.7,2.1c-6,1.5-8.3,2-13.9,3.6c-1.4,0.4-7.1,1-12.7,1.3c-9.7,0.6-10.2,0.6-10.2-0.5c-0.1-1.6,4.8-3.2,7.9-2.5
	c0.4,0.1,0.9-0.2,1-0.7s0-0.6-0.1-0.2c-0.2,0.5-0.6,0.6-1.7,0.1c-1.8-0.7-0.9-1.5,1.9-1.7c1.9-0.1,2.3,0.4,1.3,1.5
	c-0.4,0.5,0.8,0.7,4.4,0.9c5.2,0.2,9.6-0.7,21.9-4.7c2.3-0.7,5.4-1.7,6.8-2.1c6.7-2.1,8.5-2.8,9.2-4c1-1.7,6.2-3.7,10.3-4
	c6.6-0.4,7.2-0.5,8.5-2.1c0.7-0.8,1.8-1.5,2.4-1.5c0.6,0,1.6-0.7,2-1.5c0.5-0.8,1.6-1.7,2.4-1.9c1.8-0.5,3-1.4,2.9-2.2
	c0-0.7-7.2,0.2-13.2,1.7c-2.3,0.6-5.8,1.9-7.7,2.9s-3.7,1.8-4,1.9c-0.3,0-1.5,0.6-2.8,1.2c-2.1,1.1-4.7,1.3-4.8,0.2
	c0-0.2,0.8-0.6,1.7-0.9c1-0.2,2.5-1,3.4-1.7s2.5-1.4,3.5-1.6s2.5-0.7,3.4-1.1c1.8-0.9,2-2.8,0.3-2.7c-1.3,0.1-1.6-0.8-0.5-1.3
	c0.4-0.2,0.5-0.5,0.2-0.7s-2,0.2-4,1s-6.2,2.4-9.5,3.6s-7.6,2.8-9.6,3.6c-2,0.8-5,1.7-6.5,2.1c-1.6,0.4-4.3,1.1-6,1.6
	c-5.9,1.8-11,3.1-12.2,3.3c-1.5,0.2-3.8,2.1-4.3,3.6c-0.2,0.6-1,1.1-2.1,1.2c-1,0.1-1.9,0.2-2.2,0.3c-3.2,1-3.6,1.3-3.3,1.9
	c0.4,1,0.1,1.2-3.7,1.8c-2.8,0.5-3.3,0.4-3.3-0.4c0-0.6,0.5-1,1.7-1c0.9,0,1.7-0.3,1.7-0.6c0-0.3-0.2-0.6-0.5-0.6
	c-2.6-0.1-4.9-1.1-4.2-1.7c0.1-0.1,1.9-0.5,4-0.8c4.8-0.7,12-2.9,15.8-4.9c1.6-0.8,5.8-2.4,9.3-3.5c6.7-2,15.2-5,17.1-5.9
	c0.6-0.3,2-0.8,3.1-1c1.1-0.3,2.2-0.7,2.5-0.9c0.7-0.6,7.9-3.2,8.8-3.3c1.1,0,4.5-2,4.5-2.6c0-0.7-4.3-0.4-6.1,0.4
	c-0.9,0.4-2.6,1.2-3.8,1.8c-7.9,3.9-11.2,5.2-12.9,5.1l-1.5-0.1l1.4-2.2c1-1.6,1.8-2.2,2.9-2.3c0.9,0,2.2-0.4,3-0.9s2.9-1.2,4.8-1.7
	c6.2-1.6,7.7-2.2,7.6-3c-0.1-1.6-2-1.3-10.3,1.9c-4.7,1.8-9.4,3.3-10.5,3.3c-1.9,0.1-2,0-1.4-1.2c1.1-2.2-2-2.6-5.8-0.6
	c-2,1-1.7,1.8,0.6,2c2.5,0.1,3.5,0.9,2,1.5c-0.6,0.3-1.5,1-2,1.7c-0.8,1.1-1.1,1.1-2.9,0.6c-3.5-1.1-7.4-1.2-12.3-0.2
	c-2.6,0.5-5,0.8-5.2,0.6c-0.2-0.2,0.1-1.1,0.6-2.1c1-2,2.7-2.7,8.9-3.9c4.5-0.9,7.2-1.9,7.1-2.7c0-0.6-6.5,0-8.3,0.9
	c-0.5,0.2-0.9,0.1-0.9-0.3c0-0.3,0.3-0.6,0.7-0.7c0.4,0,2-0.6,3.5-1.3s4.7-2,6.9-3c4.3-1.8,5-3,1.7-2.9c-1.6,0.1-2-0.2-2.5-1.5
	c-0.3-0.9-0.9-1.5-1.2-1.5c-0.5,0-0.5-0.1,0-0.6c0.6-0.7,2.1-0.3,1.7,0.5c-0.5,0.9,4.3,0.4,6.7-0.7c2.8-1.4,3.4-2.5,1.2-2.4
	c-1.1,0-1.5-0.3-1.9-1.7c-0.5-1.7-0.5-1.8-3-1.3c-1.4,0.3-2.4,0.2-2.3,0c0.4-0.7,6.3-2.5,10.2-3.1c4.3-0.6,6.8-3.1,3-2.9
	c-7.2,0.4-13.8,1.2-14.1,1.7c-0.6,1-2.7,1.5-4.3,1.2c-1.5-0.3-1.5-0.4-0.6-1.4c0.5-0.6,1.5-1.1,2.3-1.2c0.7,0,1.3-0.3,1.3-0.7
	c0-0.3,0.8-1,1.8-1.5s2.2-1.2,2.7-1.4c2.5-1.5,3.5-2,4.4-2c0.6,0,1.8-0.4,2.7-0.9c0.9-0.5,4.1-1.2,7.1-1.5c7.6-0.9,13.4-2.5,14.3-4
	c0.3-0.4,1.1-0.4,2.4,0c1.1,0.4,2.3,0.5,2.6,0.3s0.7,0,0.9,0.5s0.6,0.7,0.9,0.5c0.3-0.2,0.5,0.3,0.6,1.1c0.1,1.3,0.2,1.4,1.8,0.8
	c2.4-0.8,2.5-1,1.2-2.4c-0.8-0.9-1-1.3-0.4-1.5c1.2-0.5,0.7-1.9-0.9-2.2c-1.6-0.3-8.5,0.5-9.4,1.1c-0.3,0.2-3.5,0.6-7,0.9
	s-8,0.7-9.8,0.9c-1.9,0.2-6.4,0.7-10,1.1c-9.4,1-12.6,1.7-12.5,2.6c0,0.3-1.9,0.6-4.1,0.7c-7.2,0.4-8.6,0.8-9.7,2.3
	c-0.9,1.3-1.2,1.4-3.4,1c-1.3-0.3-3-0.9-3.8-1.5c-0.8-0.5-2-1-2.6-1c-1.2,0-1.2,0,0.1-0.6c1.8-0.8,5.8-1,7.6-0.4
	c1.8,0.6,4.9,0.1,5.8-1c0.3-0.5,1.2-0.9,1.8-0.9c1.4-0.1,6.2-3.3,5.6-3.9c-0.2-0.2,0.4-0.5,1.3-0.8c0.9-0.2,3.7-1,6.2-1.8
	s5.5-1.6,6.7-1.9s2.4-0.9,2.6-1.2c0.2-0.4,0.9-0.8,1.6-1s1.8-0.6,2.5-1l1.3-0.7l-1.4-0.7c-0.8-0.4-2.8-0.7-4.5-0.6s-3.9-0.2-4.9-0.6
	s-2.4-0.6-3-0.4c-3.4,0.7-9.7,0.9-9.9,0.2c-0.2-0.4-0.8-0.7-1.3-0.7c-0.6,0-1.2-0.2-1.5-0.5c-0.2-0.3-0.6-0.4-0.9-0.2
	c-0.3,0.2-0.5,0.1-0.5-0.3c0-0.3,0.4-0.8,0.9-1c0.8-0.4,0.8-0.5-0.2-0.8c-1.6-0.5-14.5,0-14.8,0.6c-0.3,0.5-6.2,1.7-13.3,2.7
	c-3.4,0.5-4.1,0.7-4,1.5c0.1,0.6,1.4,1.2,3.3,1.7c1.7,0.4,3.5,1.1,4.1,1.6s1.5,0.7,2.1,0.5c1.4-0.3,8.9,0.7,9.3,1.3
	c0.2,0.3,0,0.5-0.4,0.5c-1.9,0.2-7.6,0.2-8.7,0c-0.7-0.1-2.5-0.3-4-0.3s-3.3-0.5-3.9-1c-1-0.8-1.1-0.8-1.6,0
	c-0.4,0.8-0.6,0.8-1.2-0.2c-0.7-1-0.6-1.1,0.7-1.5c2.7-0.8,0.2-2-4.1-2.1c-3.8,0-4.9-0.3-5-1.1c0-0.7,7.6-2.2,14.5-2.9
	c3.8-0.3,7-0.8,7.1-1.1c0.1-0.2,1.2-0.5,2.3-0.5s2.9-0.5,4-1.1c1.6-0.9,3.6-1.2,10.7-1.5c6.9-0.3,8.8-0.6,8.7-1.2
	c0-1.1-1.4-1.3-7.2-1.2c-8.4,0.2-14.8,1.4-17.1,3.3c-1.6,1.3-2,1.4-2.6,0.8c-1-1.1,0.4-2.4,4.4-4c3.1-1.3,5-2.7,3.2-2.4
	c-0.4,0.1-2.7,0.2-5.1,0.2l-4.3,0.1l1.8-1.8c1-1,1.8-2.2,1.8-2.6c-0.1-1.3-3.5-2.3-9.8-3c-3-0.4-5.7-0.8-6-0.9s-2.1-0.3-4.1-0.4
	s-4.4-0.3-5.4-0.6s-3.6-0.7-5.8-0.9c-6.2-0.7-6.7-0.9-6.4-1.5c0.3-0.5,2.4-0.5,6.7,0.1c0.6,0.1,1.1-0.1,1.3-0.4
	c0.5-0.9-0.8-2-3.3-2.6c-2.8-0.7-3-1.2-0.5-2.2s3.6-1,4.1,0c0.2,0.5,1,1.1,1.8,1.3s1.5,0.8,1.5,1.1c0,0.8,1.6,0.7,1.8-0.1
	c0.1-0.4,0.7-0.5,1.8-0.1c0.9,0.3,2.2,0.5,2.9,0.5c1.2-0.1,1.2-0.1,0.1-0.8c-0.6-0.4-2.1-1-3.2-1.3c-5.5-1.5-6.7-2.1-6.6-3.1
	c0.3-1.9,0.9-2,6.4-0.8c3,0.7,6.2,1.2,7.1,1.1c0.9,0,1.6,0.2,1.6,0.4c0,0.7,3.5,1.1,7.4,1c1.9-0.1,3.7,0.2,4.5,0.7
	c1.1,0.6,2.7,0.7,7.1,0.4c6.5-0.5,7.9-1.3,5.3-2.8c-1.4-0.8-2.8-0.9-9.4-0.6c-4.3,0.2-8.7,0.6-9.8,0.9c-1.6,0.4-2.1,0.3-2.8-0.7
	s-0.6-1.2,0.7-1.5c0.8-0.2,2.1-0.5,2.9-0.8c0.8-0.2,4.4-0.5,7.9-0.6c8.8-0.4,9.8-1.3,4.1-3.9c-2.6-1.2-3.7-1.3-8.2-1.1
	c-2.9,0.2-7,0.2-9.2,0.1c-2.2-0.1-5.7-0.1-7.8,0.1c-2.7,0.2-4,0-4.5-0.6c-0.6-0.7-0.5-0.9,0.8-1.4l1.6-0.6l-2.1-0.8
	c-2.9-1.2-7-1.5-9.6-0.6c-1.2,0.4-3.4,0.9-4.8,1.1c-1.4,0.2-3.3,0.5-4.2,0.7c-1.1,0.2-1.5,0.1-1.4-0.4c0.1-0.4,0.7-0.8,1.4-0.9
	c0.6-0.1,1.3-0.8,1.4-1.4c0.2-1,0.6-1.1,2.3-0.9c1.7,0.2,2.2,0.1,3.4-1.3c1.2-1.4,1.6-1.5,3.6-1.3c1.4,0.2,2.4,0,2.7-0.4
	c0.5-1,2.9-0.9,3.8,0.1c0.5,0.5,1.3,0.7,2.2,0.6c0.7-0.2,2.4-0.1,3.7,0.1c2.5,0.5,4.2-0.4,3.6-1.8c-0.2-0.4-0.1-0.8,0.2-0.8
	s0.7,0.4,0.9,0.8c0.2,0.5,1.1,0.8,2.4,0.8c2.4-0.1,2.1-0.9-0.5-1.3c-1.7-0.3-1.8-0.4-1-1.2c0.5-0.6,2-1,4-1.1
	c1.7-0.1,3.4-0.5,3.8-0.8c0.4-0.3,1.5-0.7,2.6-0.8L60,216l-2.4-3.9c-3.7-6.1-5.1-7.6-7.3-7.5c-1,0-2.5-0.1-3.3-0.3
	c-1.4-0.4-1.4-0.4,0.3-0.9s2.9-1.9,1.9-2.4c-1.5-0.7-4.6-0.7-6.1,0.2c-1.6,0.9-2.9,0.9-5.3-0.2c-1-0.4-1.6-0.3-2.9,0.7
	c-0.9,0.7-1.9,1.3-2.2,1.3c-0.6,0-2.6-3.6-2.7-4.8c0-0.5-0.4-0.8-0.9-0.8s-0.9-0.2-0.9-0.4s1-0.4,2.3-0.3c1.4,0.1,2.3-0.1,2.3-0.5
	c0-0.3,0.2-0.6,0.4-0.6c1.1,0.1,1.4-0.2,0.7-1c-0.8-0.9-2.1-1.1-1.5-0.3c0.2,0.3-0.1,0.5-0.7,0.5c-1,0-1-0.2,0.2-2.1
	c0.7-1.1,1.2-2.3,1.2-2.5c0-0.3,0.4-0.5,1-0.5c2.4-0.1,3.1-2.8,0.9-3.2c-0.8-0.2-1.7-1-2.1-1.8c-1.5-3.4-3-4.9-5.5-5.6
	c-1.4-0.4-2.4-1-2.3-1.3c0.3-0.7,2.6-0.8,6.8-0.1c1.8,0.2,3.3,0.3,3.4,0.2s0.2-1.1,0.2-2.2c-0.1-2.6-2.8-5-4.8-4.4
	c-1.1,0.3-1.8,0-3.4-1.5c-1.8-1.8-2.2-1.9-3.6-1.3c-1.8,0.8-2.8,0.2-2.5-1.4c0.1-0.8,0.7-1.1,2.6-1.2c2-0.1,2.4-0.3,2-1
	c-0.7-1.4-0.8-3.6-0.2-4.5c0.4-0.6-0.2-1.4-2-3.1L21,155l1.5-0.3c0.8-0.1,1.6-0.6,1.8-1c0.2-0.7-1-4.8-2.6-8.5
	c-0.4-0.9-0.7-1.9-0.6-2.1c0.1-0.2-0.1-0.4-0.5-0.4c-0.3,0-0.6-0.2-0.6-0.5c0-1.1-5.7-9-6.4-8.9c-0.4,0-1.2-0.4-1.7-1
	c-1-1-1-1.1,0.2-0.8c0.7,0.1,1.4,0.5,1.6,0.8c0.4,0.7,2.6,0.5,2.5-0.1c0-0.3,0.4-0.7,1-0.8c0.8-0.2,0.8-0.3-0.2-0.3
	c-1.5,0-3.2-1.6-3.2-3.1c0-0.6-0.7-1.9-1.5-2.8l-1.5-1.8l1.4-0.7c0.8-0.4,1.4-1,1.4-1.3c0-0.8,1.9-0.8,2.8,0
	c0.6,0.6,0.7,0.5,0.3-0.4c-0.3-0.7-0.2-1.2,0.5-1.6c0.5-0.3,0.9-0.9,0.9-1.4c0-0.8,1.1-1.3,1.2-0.5c0.1,1.3,2.8,3.2,5.4,3.7
	c3.7,0.8,5,0.1,3.4-2c-0.5-0.7-0.8-1.4-0.6-1.4c0.2,0-0.3-0.8-1.1-1.8c-1.1-1.4-1.6-2.7-1.9-5.7s-0.3-3.9,0.3-3.9
	c0.4,0,0.9,0.2,1.1,0.5c0.7,1,2.9,0.5,3.6-0.7c0.9-1.7,2.1-1.5,4.2,0.5c1.5,1.5,1.9,1.6,2.3,0.9c0.3-0.5,0.4-2.4,0.2-4.3
	c-0.4-4.2,0.3-5.1,4-5.4c3.6-0.3,5-0.9,5.3-2.3c0.1-0.7-0.2-1.8-0.7-2.5c-0.9-1.2-0.9-1.3,0.1-1.4c1.5-0.1,2.5-1.1,4-3.8
	c1.4-2.5,1.2-2.8-1.9-4.3c-2.4-1.1-2.7-2.5-0.6-2.7c3-0.2,3.4-0.4,3.4-1.4c-0.1-1.2-11.1-10.9-14.3-12.4c-2.6-1.3-5.8-3.5-5-3.5
	c1.1,0,6,1.4,9.3,2.8c1.9,0.8,4,1.5,4.7,1.4c0.9,0,1.2,0.4,1.3,1.6c0.1,1.1,0.9,2.3,2.3,3.6c2.2,2,2.2,2,3.8,1
	c1.6-1.1,2.9-0.7,3,0.9c0.1,1.3,1.9,2.4,3.2,2.1c0.7-0.2,2-0.5,2.9-0.6c2.4-0.3,2.7-2.2,0.4-2.1c-1.2,0-2.3-0.6-3.9-2
	c-2.9-2.8-3-4-0.2-4.1c1.8-0.1,4.9-1.3,3.3-1.3c-0.3,0-0.1-0.3,0.4-0.6c0.5-0.3,1.3-0.5,1.6-0.3s0.9,0.1,1.3-0.3
	c0.4-0.3,2-0.8,3.5-1c1.6-0.2,2.9-0.4,3-0.5c0.1,0,0.1-0.6,0.1-1.2c0-1,0.3-1.2,2.6-1.3c1.5-0.1,3-0.5,3.4-1s2.4-1.1,4.3-1.4
	c4.1-0.7,7.4-2,7.1-3c-0.1-0.4,0.4-0.8,1.1-0.9s1.5-0.6,1.9-1.1s1.1-0.9,1.7-0.9c1,0,1-0.1,0-1.1c-1.8-1.6-3.1-1.9-3.4-0.5
	c-0.1,0.7-0.5,1-0.9,0.8c-1.4-0.9-6.3-0.5-6.3,0.3c0,0.6-1.1,0.8-4.5,0.9c-2.5,0.1-4.8,0.3-5.2,0.6c-0.7,0.5-0.8-0.2-0.1-1.3
	c0.3-0.5,1.4-0.8,2.9-0.9c2-0.1,2.3-0.2,1.7-0.9c-0.4-0.4-1.4-0.8-2.3-0.7c-2,0.1-2.4-0.4-1.8-1.8c0.4-0.8,0.4-1.3,0-1.5
	c-0.6-0.3-0.7-0.6-0.8-2c0-1.1-2.1-1.5-4.6-0.8c-1.4,0.4-2,0.9-2.2,1.9c-0.2,1.1-0.7,1.5-2.2,1.7c-1.1,0.2-2.2,0.5-2.4,0.8
	c-0.3,0.3-1.3,0.3-2.4,0c-1.4-0.4-2.6-0.3-4.1,0.2c-1.2,0.4-3.6,1-5.5,1.2c-2.7,0.4-3.6,0.3-4.5-0.5c-1.1-0.9-1.1-1,0-2
	c0.6-0.6,1.9-1.1,3-1.2c1.1,0,2.9-0.5,4-1.1s2.3-0.8,2.7-0.6c0.8,0.4,4-1.1,3.6-1.7c-0.7-1,5.3-2.9,9.1-2.8c2.3,0.1,6.3-1.6,6.2-2.5
	c0-0.5,1-1,2.6-1.3c1.5-0.3,3.2-0.8,3.8-1.2c0.6-0.4,1.6-0.7,2.2-0.7c1,0,4.1-2.5,4.1-3.3c0-0.2-0.9-0.7-2-1.1
	c-1.7-0.6-3.4-2.7-2.7-3.4c0.1-0.1,1.6,0.1,3.4,0.5s5.1,0.5,7.5,0.3l4.3-0.4l-0.1-1.8c-0.1-1.4-0.4-2-1.5-2.4
	c-0.8-0.3-2.1-1-2.9-1.5s-2.1-0.9-2.9-1s-1.9-0.4-2.6-0.7c-1.2-0.6-1.2-0.6,0.3-1.2c1.9-0.8,2-1.5,0.2-1.8s-7.1-0.6-10.4-0.7
	c-1.9,0-3.2-0.4-4.1-1.2c-0.8-0.7-1.7-1.2-2.1-1.2c-1.1,0-6.5-2.2-6.5-2.7c0-0.8,2.3-0.5,2.7,0.3c0.2,0.5,0.7,0.7,1.2,0.5
	s0.7-0.1,0.4,0.3c-0.2,0.4-0.1,0.5,0.4,0.3c0.4-0.2,1.5,0,2.4,0.4s2.1,0.6,2.6,0.4c0.5-0.2,3.7-0.5,7-0.7c7-0.4,7.8-0.6,6.8-1.7
	c-0.4-0.4-0.5-1-0.4-1.2c0.2-0.2,3-0.6,6.2-0.8c3.2-0.2,6.1-0.4,6.3-0.5c0.2,0,0.3-0.4,0.1-0.8c-0.6-1.4,1.5-1.7,3.3-0.5
	c1.5,1,2.4,1.1,9,0.7c4-0.2,9-0.4,11-0.5c2.5,0,3.8-0.3,4.1-0.8c0.3-0.6,0.6-0.6,1.2-0.1c0.4,0.4,1.1,0.7,1.6,0.6
	c0.6,0,0.3-0.5-0.8-1.2c-0.9-0.6-1.9-1.7-2.2-2.4c-0.4-1-1.1-1.3-2.7-1.4c-2.6-0.1-2.8-1-0.3-1.8c1.8-0.6,6.4,0.1,6.4,1
	c0,0.3,1.2,1.6,2.7,3c2.6,2.4,4,3.1,4.6,2c0.4-0.6,23.2-2,33.6-2c4.3,0,14.7-1.5,15.6-2.3c2.3-1.7,16.8-0.4,21.7,2
	c0.8,0.4,1.6,1.3,1.7,2.1c0.1,0.8,0.6,1.6,0.9,1.9c1.5,1,5.4,1.6,7.1,1c1.2-0.4,2.1-0.4,3.1,0.1c0.8,0.4,2.8,0.7,4.4,0.6
	c1.6-0.1,3.9,0.2,5.1,0.7c1.2,0.4,3.7,0.9,5.7,0.9c2,0.1,4.4,0.5,5.4,0.8s2.9,1,4.4,1.3c2.2,0.6,2.7,0.9,3,2.4s0.6,1.7,2.5,1.8
	c1.2,0,2.4,0.4,2.8,0.9c0.4,0.4,1.1,0.8,1.5,0.8s1.1,0.5,1.4,1.1c0.4,0.6,1.3,1.1,2,1.1c0.8,0,1.6,0.2,1.8,0.6
	c0.5,0.7,8.6,4.2,9.6,4.1c0.4,0,2.1,0.6,3.8,1.3c2.5,1,3.2,1.7,3.6,3c0.6,2.2,2.6,4.5,3.9,4.4c0.6,0,1.2,0.5,1.4,1.1
	c0.2,0.6,1.3,1.5,2.4,2s2.5,1.6,3.1,2.5s1.8,2,2.8,2.4s1.7,1.2,1.8,1.6c0,0.4,0.7,1.2,1.5,1.7c0.9,0.5,1.5,1.4,1.5,2.3
	c0,0.8,0.5,1.7,1,2.1c2.6,2,5.1,4.6,5,5.3c-0.2,1,1.1,2.8,3.3,4.6c2.5,2.1,2.6,2.7,0.5,5.8c-1,1.6-1,1.6,0.4,6
	c0.8,2.5,1.7,4.9,2,5.4s0.6,2.2,0.6,3.8c0.1,3.4,0.5,4.1,2,4c1.4-0.1,1.5,0.6,0,1.6c-1.2,0.9-1.4,3.2-0.3,5.6
	c0.5,1.1,0.5,1.9-0.1,3.2c-1,2.2-0.5,3.3,1.5,3.6c0.8,0.1,2.8,0.6,4.3,1s3,0.7,3.2,0.7c0.7,0,1.7-2.7,1.7-4.2c0-1,0.1-1.1,0.9-0.5
	c1.3,1,1.5,0.5,0.5-1.6c-0.9-1.9-2.4-2.3-3.6-1.1c-1.4,1.5-2-0.1-1.9-5.2c0.1-5.3,0.3-6.3,1.3-6.3c0.3,0,0.4,0.2,0.2,0.6
	c-0.2,0.3,0.1,0.6,0.5,0.6c0.5,0,1.4-0.9,2-2s1.6-2.2,2.3-2.4c1-0.3,1.1-0.6,0.7-2.4c-0.6-2.7,0.7-2.8,3-0.2c2,2.3,3.1,2.3,6.8,0.5
	c2.9-1.5,3.5-2.4,2.6-4.3c-0.4-0.9-0.5-2.2-0.2-4.2c0.4-2.6,0.3-3.3-1-5.7c-3.3-6.2-3.3-6.1-2.3-5.4c0.9,0.7,2.1,0.3,2.1-0.7
	c0-0.3-1.2-1.7-2.7-3.2c-2.5-2.4-2.6-2.6-1.4-2.8c1.2-0.2,2.6,0.8,4,3.1c0.5,0.7,0.7,0.7,1.8-0.2c1.8-1.4,3.3-1.4,3.4,0.1
	c0.1,1.6,0.9,2.9,3.1,4.9c1.1,1,1.8,2.3,1.9,3.1c0.1,1.7,1,2.4,2.1,1.4c1.2-1.1,4.3,0,4.4,1.7c0,0.2-0.8,0.8-1.8,1.3
	s-2.3,1.5-2.9,2.2c-1.1,1.3-1.1,1.3,0.2,1.6c0.7,0.1,1.3,0.8,1.5,1.5c0.1,0.7,0.7,1.3,1.4,1.3c0.9,0.1,1.2,0.6,1.3,2.2
	c0.3,3.8,3.9,5.1,7.5,2.7c1.4-0.9,2.2-1.1,3.2-0.8c0.8,0.3,2.9,0.3,4.8,0.2c3.2-0.3,3.5-0.4,5.3-2.8c1.1-1.4,2.6-3,3.4-3.6
	c4.6-3.3,7.6-5.7,8.7-7.1c1.8-2.1,2.5-2,2.6,0.4c0.1,1.5-0.2,2.2-1.3,2.8c-5.6,3.1-12.2,10.5-12.1,13.4c0,0.8-0.2,1.4-0.6,1.4
	c-0.3,0-1,0.4-1.4,0.9s-1.2,0.7-1.7,0.6c-1.1-0.4-3.8,2.5-3.4,3.6c0.2,0.5,1.5,0.9,3.1,1c1.5,0.1,4.6,0.4,6.8,0.6
	c9.1,0.9,12.9,1.2,15.9,1.4c4.5,0.3,5.9,0.5,5.6,1.1c-0.1,0.3-1.8,0.4-3.6,0.2c-5.8-0.5-14.2-0.4-15.6,0.2c-1.1,0.5-1.2,0.7-0.6,1.4
	c0.9,1,2.4,1,3.3,0c0.5-0.5,0.7-0.5,0.9,0.1c1.2,3.8,1.5,4.2,2.9,4.3c0.8,0.1,1.7,0.3,1.9,0.6s1.9,0,3.7-0.6
	c3.6-1.1,5.6-1.3,6.8-0.4c0.4,0.3,2.4,0.5,4.3,0.4c2.2-0.1,4.2,0.1,5.3,0.6c1.4,0.7,2.7,0.7,6.3,0.2c2.5-0.3,5.8-0.5,7.4-0.3
	c2.5,0.2,2.9,0.4,2.7,1.4c-0.2,0.9,0.1,1.1,1.8,1c1.1,0,2.5,0.3,3.2,0.8c1,0.8,1.4,0.8,3.8,0.1c5.8-1.8,7.8-2,9.6-1.3
	c1.6,0.6,7.8,1.9,11,2.3c0.6,0.1,2.2-0.3,3.4-0.8c2.8-1.1,7.3-1.6,25.5-2.7c7.7-0.5,14.7-1,15.5-1.1s2.1,0,3,0.4
	c0.8,0.4,1.7,0.5,1.9,0.3s2.5-0.5,5.1-0.7c11-0.6,10.8-0.6,10.6-2c-0.2-1.1,0.1-1.3,2.3-1.5c2.7-0.3,5.2,0.5,5.2,1.6
	c0,0.8,2.3,1.4,3,0.9c0.9-0.6,0.4-1.3-0.9-1.5c-1.3-0.1-1.3-0.2-0.2-0.8c0.6-0.4,5.1-1,10-1.5c4.9-0.4,9.5-0.9,10.3-1
	s2.2-0.3,3.3-0.4c1-0.1,2.2-0.6,2.6-1c0.7-0.7,1.4-0.8,4.5-0.4c3.4,0.4,17.6-0.5,22-1.3c3.7-0.7,13.7-1.6,13.3-1.1
	c-0.2,0.3-1.6,0.5-3,0.5s-2.6,0.3-2.6,0.6c0,0.3-0.8,0.6-1.9,0.7c-1.1,0-3.3,0.4-5,0.8s-3.8,0.9-4.8,1.1c-0.9,0.2-2.1,0.5-2.6,0.6
	s-1.7,0.3-2.8,0.3c-1.1,0.1-1.7,0.4-1.5,0.7c0.4,0.6,8.2-0.1,11.2-1c1.6-0.5,12.7-2.1,16-2.4c11.7-0.8,23.1-1.9,24.8-2.4
	c1.2-0.4,5.4-0.9,9.4-1.2c4-0.3,8.6-0.7,10.1-1c1.6-0.3,3.9-0.7,5.3-0.9c1.6-0.3,2.4-0.7,2.4-1.3c0-0.5,0.4-0.8,1-0.7
	c0.7,0.1,1-0.2,1-1s-0.4-1.1-1.1-0.9c-0.6,0.1-1-0.1-0.9-0.5c0.4-1.2,5-2.4,12-3.1c8-0.7,7.9-0.7,11.4-2.4c1.5-0.7,3.9-1.4,5.4-1.5
	s4.1-0.5,5.8-1c2.9-0.8,8-0.8,8.9,0c0.2,0.2-0.9,0.6-2.4,0.8c-1.5,0.3-3.6,0.9-4.7,1.4c-1,0.5-2.8,0.9-4,0.9s-3.4,0.4-4.9,0.8
	c-1.6,0.4-5,1.1-7.7,1.5s-4.9,0.9-5,1.2c-0.1,0.3-1.6,0.5-3.4,0.5c-4.2,0-5.2,0.6-4.1,2.5c0.6,1.1,1.2,1.3,3,1.2
	c1.2-0.1,2.4-0.3,2.6-0.6c0.2-0.2,1.2-0.5,2.3-0.5s1.9-0.3,1.9-0.6c0-0.3,0.6-0.4,1.6-0.1c0.9,0.3,2.4,0.4,3.3,0.2
	c2.5-0.4,6.5-1.9,6.5-2.5c0-0.3,0.6-0.5,1.3-0.5c1.1,0,1.1,0.1,0.5,0.6s1.2,0.5,6.2,0c4.1-0.4,7.4-0.9,7.9-1.3
	c0.4-0.4,3.2-0.9,6.1-1.2c3.5-0.3,6.1-0.9,7.5-1.7c1.3-0.7,3.5-1.2,5.4-1.3c1.8-0.1,3.9-0.6,4.9-1.1c0.9-0.6,3.2-1.1,5.1-1.3
	s3.7-0.4,4.1-0.7c0.6-0.4,1.3-0.6,11.3-2.3c3.5-0.6,8.3-1.5,10.7-1.9s9.3-2.3,15.4-4.1c6-1.8,11.7-3.5,12.7-3.7
	c0.9-0.2,3.2-0.7,5.1-1.2c1.9-0.4,4.1-0.9,4.8-1.1c0.8-0.2,3.3-0.7,5.5-1.1c3.8-0.7,11-2.9,22.5-7.1c2.5-0.9,6.3-2.6,8.5-3.7
	c6.6-3.5,7.1-3.6,7.1-2.2c0,1.1,0.3,1.2,2.6,0.7c1.4-0.3,4.5-1.3,6.8-2.4c2.4-1,4.7-1.9,5.1-1.9c0.4,0,1.3-0.6,2-1.2
	s1.8-1.2,2.5-1.3c1.6-0.1,3.7-1.7,6.6-5c1.7-2,2.9-2.9,4-2.9c1.7-0.1,1.8,0.1,1,1.8c-0.9,2-1.1,4.4-0.2,4.3c2.3-0.2,2.8,0.1,2.8,1.7
	c0.1,1.4,0.3,1.6,1.3,1.3c0.6-0.2,1.4-0.8,1.7-1.4c0.4-0.8,1-0.9,2.7-0.7c2.4,0.3,4.1-0.2,5.8-1.9c0.6-0.6,1.5-1.1,1.8-0.9
	s1.8-0.8,3.1-2.1c1.9-1.8,2.7-2.3,3.4-1.9c1.8,0.9,4.1-0.8,9.1-6.7c0.6-0.7,1.3-1.3,1.5-1.3c0.7,0,0.7,2.1,0,2.6
	c-1.2,0.8-4.3,6.9-4,7.7s0.5,0.8,1.7-0.1c2-1.5,3.1-1.3,3.2,0.4c0,0.8-0.2,2-0.5,2.7c-0.8,1.7,0.3,2.6,2.1,1.6
	c0.8-0.4,1.4-0.5,1.4-0.3c0,0.7,7.1-0.3,8.3-1.2c0.6-0.5,1.6-0.9,2.1-0.9c1.2-0.1,3-1.1,4.7-2.7c0.7-0.7,1.6-1,2.3-0.8
	c1.4,0.4,4.1-0.9,4.1-2c0-0.4,0.3-0.6,0.6-0.4s0.6,1.1,0.5,2.1c-0.1,0.9,0.1,1.8,0.3,2c0.9,0.5,3.9-0.6,3.5-1.2
	c-0.2-0.4-0.1-0.4,0.3-0.2c0.4,0.2,1.4-0.4,2.3-1.4c1.5-1.7,3.9-2.1,3-0.6c-0.2,0.4,0,0.5,0.4,0.3s2.2-0.9,3.9-1.6
	c2.5-1,3.3-1.7,4.4-3.7c1.3-2.3,2.8-3.4,2.8-2c0,0.3,2-0.5,4.4-1.9c5-2.9,5.5-3,5.9-1.5c0.3,1.1-0.4,2.4-1.3,2.4
	c-0.8,0-8.4,5.9-9.8,7.6c-0.7,0.9-1.6,1.6-1.8,1.6c-0.3,0-1.3,0.8-2.3,1.8s-2.1,1.8-2.4,1.8c-0.4,0-0.7,0.2-0.8,0.5
	s-1.6,1.1-3.3,1.9c-3.1,1.5-6.2,4-6.1,5.2c0,0.3-1.1,1.4-2.5,2.4s-2.5,2-2.5,2.3s-0.4,0.5-0.9,0.6c-0.5,0-1.5,0.6-2.1,1.2
	s-2.7,1.5-4.5,1.9s-3.8,1.1-4.2,1.6c-1.5,1.4-8,4.7-12.1,6.1c-4.7,1.7-5.4,2.2-5,3.7c0.1,0.6,0,1.1-0.3,1.1s-0.5,0.4-0.5,1
	c0,1,0.4,1,5.1-1.2c3.9-1.8,6.8-2.4,6.8-1.4c0,0.9,4.2,0.1,6.5-1.3c1.5-0.9,10.7-4.6,11.3-4.7c0.2,0-0.6,0.9-1.8,2
	c-1.9,1.8-4.7,3.8-9.2,6.4c-1.3,0.7-1.5,1.2-1.3,2.6c0.2,1.2-0.1,1.9-0.9,2.4c-2.1,1.3-2.5,2.4-2,5.1c0.3,1.4,0.6,2.8,0.7,3
	c0.4,0.7,2.5-0.8,2.4-1.7c0-0.5,0.2-0.9,0.4-0.9s1.2-0.7,2-1.5c1.5-1.4,2.2-1.8,2.8-1.4c0.1,0.1,1.1-1.1,2.3-2.5
	c1.1-1.5,2.3-2.8,2.6-3s0.9-1.2,1.4-2.2c1.3-2.6,3.8-6.7,4.9-8c0.6-0.7,0.8-1.8,0.7-2.7c-0.2-1.4,0-1.7,2.3-2.6
	c1.9-0.8,2.5-0.9,2.5-0.3c0,0.4-0.3,1.1-0.8,1.5s-0.8,1.2-0.8,1.7s-0.3,1.5-0.8,2.3s-0.7,1.3-0.5,1.3s-0.2,1.2-1,2.6
	c-0.9,1.7-1.2,2.7-0.8,3c0.3,0.2,0.9-0.1,1.3-0.7c1-1.5,2.9-1,3.1,0.7c0.2,1.1-0.3,1.7-1.6,2.7c-1.6,1.1-3.1,4.1-2.4,4.7
	c0.1,0.1,1.1,0,2-0.4c2.6-0.9,3.8,0.9,3.1,4.4c-0.1,0.5,0.3,0.9,1.1,1c1.3,0.1,4.1-2.6,4.1-3.9c0-0.8,1.5-1.6,2.3-1.2
	c0.3,0.2,0,1.9-0.6,3.8c-0.7,2.2-0.9,3.7-0.5,4c0.3,0.3,2.1,0.5,4,0.6c2.9,0.1,3.7-0.1,5.1-1.2c1.5-1.2,3-1.5,8-1.9
	c1-0.1,2,0.3,2.5,0.9c0.4,0.5,0.8,0.7,0.8,0.3c0-0.7,0.9-1.1,3.9-1.8c1.5-0.3,2-0.2,2.2,0.6c0.6,1.8,4.1,2.3,7.8,1.1
	c3.2-1,5.4-0.9,4.8,0.2c-0.2,0.3-0.9,0.6-1.7,0.7c-0.9,0-1.3,0.4-1.2,1.1c0.1,0.8-0.4,1.1-2.2,1.3c-1.3,0.2-2.5,0.5-2.8,0.8
	s-1.1,0.6-1.8,0.6s-1.6,0.7-2.1,1.5s-1.3,1.6-1.9,1.8c-0.7,0.2-1,0.8-0.9,1.7c0.1,0.7,0.2,1.5,0.3,1.7c0.2,1.2,6.9-0.4,6.9-1.7
	c0-0.3,0.3-0.5,0.7-0.5c1.3-0.1,5.3-4.2,6.2-6.3c0.5-1.1,1.2-2,1.6-2c0.4,0,0.8-0.2,0.8-0.5c0-0.7,3.4-2.6,4-2.3
	c0.8,0.4,0.7,1.2-0.4,3.7l-1,2.3l1.7,0.3c0.9,0.2,3.8,0,6.3-0.3c3.6-0.5,5.3-1.1,8.3-2.8c2.1-1.2,3.9-2.4,4-2.6
	c0.4-0.6,2.8-2,2.8-1.6c0,0.9-0.7,2.1-1.3,2.1c-0.4,0-0.9,0.4-1,0.9c-0.2,0.5-0.8,0.9-1.5,0.9s-1.2,0.4-1.1,0.9
	c0,0.5-0.3,0.9-0.8,0.9s-1.7,0.9-2.7,1.8c-1,1-2.2,1.8-2.5,1.8c-0.4,0-1.6,0.7-2.7,1.5c-1.1,0.8-2.7,1.7-3.4,1.9
	c-0.7,0.3-1.6,0.8-2,1.2c-0.4,0.4-2.2,1.5-3.9,2.5c-2.1,1.1-3,2-2.5,2.2c0.4,0.2,1.6-0.1,2.7-0.7c3.1-1.8,5.7-2.3,5.7-1.2
	c0,0.5-0.2,0.9-0.5,0.9s-0.7,0.5-0.8,1.1c-0.3,1-1.5,1.7-10.2,6c-3.2,1.6-4,2.4-4.9,5.4c-0.9,2.9-1.1,4.3-0.8,4.3
	c1.9-0.4-0.1,2-3.5,4.1c-1.8,1.1-4,5.1-4.7,8.6c-0.2,0.8-0.9,2-1.7,2.5c-1.1,0.8-1.3,1.3-1,3s0.1,2.1-0.9,2.6
	c-2.2,0.9-7.4,7.1-8.8,10.4c-1.4,3.2-3.3,5-4.9,4.4c-1.2-0.4-1.2-2,0-4.2c0.6-1.1,0.8-2,0.5-2.2c-0.7-0.4-5.3,0.4-8.1,1.3
	c-2.4,0.8-2.8,2.3-0.7,2.2c0.8,0,2,0.4,2.8,1c1.2,0.9,1.3,1.2,0.7,2c-0.4,0.5-0.9,0.8-1.2,0.7c-0.8-0.5-6.7,1.8-8,3.2
	c-0.7,0.7-2.4,1.8-3.8,2.5c-1.4,0.6-2.8,1.6-3.2,2.3c-0.4,0.6-1.1,1.2-1.5,1.2s-1,0.3-1.2,0.7c-0.3,0.5-0.1,0.5,0.4,0.2
	c0.4-0.3,0.2,0.2-0.5,1c-0.9,1.1-1.1,1.6-0.5,1.8c0.4,0.1,0.9,0.9,1,1.8c0.1,1.1-0.2,1.7-1.2,2.2c-0.8,0.4-1.4,0.9-1.4,1.2
	c0,0.2-0.6,1.2-1.4,2.1c-0.8,0.9-1.8,2.2-2.4,2.9c-0.5,0.7-1.6,2.1-2.4,3.3l-1.4,2.1l1.6,1.2l1.6,1.2l3.6-4c2-2.2,3.8-4.6,4.1-5.2
	c0.3-0.7,1.2-1.6,2.1-2c0.8-0.4,1.5-1,1.5-1.3c0-0.6,2.6-1.9,4-2c0.7,0,1,0.2,0.8,0.8c-0.2,0.5,0,0.9,0.3,0.9
	c1.2-0.1,2.4-0.8,2.3-1.6c0-0.4,0.5-0.9,1.1-1.2c0.6-0.2,1.1-0.8,1.1-1.2c0-0.5,0.2-0.8,0.5-0.8c0.8,0,2.8-3.3,3-4.9
	c0.1-0.7,0.9-1.9,1.7-2.6c0.8-0.7,1.4-1.5,1.2-1.7c-0.5-0.5,2.3-3.8,3.3-3.9c0.7,0,0.7,0.2-0.1,1.1c-0.5,0.6-0.7,1.3-0.5,1.5
	s0,0.3-0.5,0.1c-0.7-0.2-1,0.1-1.2,1.2c-0.2,0.8-0.2,1.7,0,2c0.2,0.2-0.8,1.7-2.1,3.2s-2.8,3.6-3.2,4.7c-1.2,2.7-1.8,3.9-4.4,7.4
	c-1.3,1.7-2.3,3.5-2.3,4c0,0.4-0.3,1-0.7,1.3s-1,1.2-1.4,2s-1.6,2-2.6,2.6s-1.9,1.5-1.9,2c0,0.7-0.1,0.7-0.9,0.1
	c-1.1-0.8-4.9,0.3-6.5,1.9c-1.4,1.4-2.8,2.4-4.7,3.3c-1.2,0.6-1.4,0.9-1,1.7c0.4,0.7,0.3,1.6-0.4,3c-0.5,1.1-1.1,1.9-1.3,1.7
	c-0.5-0.5-2.6,2-2.6,3c0,0.5-0.5,1.2-1.2,1.4s-2,1.5-2.9,2.7c-2.3,3.2-6,5.7-4.7,3.1c0.3-0.7,0.4-1.4,0.2-1.7s-0.2-0.5,0.1-0.5
	c0.8,0.2,3.5-1.5,3.2-2c-0.2-0.3,0.1-0.5,0.6-0.5s0.9-0.4,0.9-0.9c-0.1-1.6,1.6-4.7,2.8-5.4c0.7-0.3,1.6-1.5,2.2-2.5l1-1.9l-1.7,0.1
	c-2.1,0.1-5.3,1.3-5.2,2c0,0.3-0.3,0.5-0.7,0.4c-0.8-0.1-5.6,1.5-6.1,2.1c-0.9,1-9.6,4.6-11.9,4.9c-1.8,0.2-3.4,1.1-3.1,1.6
	c0.2,0.3,0.1,0.5-0.3,0.5c-1.2,0-1.5,0.2-1.8,0.7c-0.2,0.3-0.9,0.4-1.7,0.1c-0.8-0.3-2-0.2-3,0.2c-1.8,0.8-2,1.3-0.7,1.7
	c0.5,0.2,0.9,0.7,0.9,1.1c0,0.4,0.4,0.9,0.9,1.1c0.5,0.2,0.9,0.6,0.9,0.9c0,0.9-5.4,3.5-10.1,4.8c-2.3,0.6-5.5,1.8-7,2.6
	s-3.2,1.5-3.7,1.5c-0.6,0-1.3,0.5-1.7,1c-0.5,0.6-1.6,0.9-3.9,0.9c-3.4,0-4.6,0.5-4.6,1.7c0.1,1.2-2.6,2.9-6.8,4.5
	c-4.3,1.6-9,4.5-8.7,5.4c0.1,0.3,1.2,0.5,2.5,0.3s1.9-0.1,1.4,0.1c-3.4,1.4-5.2,2.5-5.9,3.8c-0.5,0.8-1.2,1.4-1.5,1.3
	c-0.4,0-1.4,0.3-2.3,0.7c-0.9,0.4-1.8,0.7-2.1,0.8c-1.6,0.1-5.7,3-6.2,4.4c-0.3,0.9-0.8,1.5-1.1,1.3c-0.3-0.1-0.5,0-0.4,0.3
	c0,0.3-0.3,0.5-0.8,0.3s-0.9,0.2-1.1,1.1c-0.2,0.7-0.9,1.6-1.6,2c-0.7,0.4-1.3,1.1-1.2,1.8c0.1,1.6-2.1,2.6-5.1,2.4
	c-2.7-0.2-3.7,0.7-2.2,2c1.3,1.1,0.7,2-1.1,1.7c-1-0.2-1.4-0.1-1.4,0.5c0.1,1.4-2.6,4.1-4,4c-2.1-0.1-2.5,0.1-2.6,1
	c0,0.5-0.1,1.2-0.1,1.7s-0.3,0.7-0.6,0.6c-0.3-0.2-0.5,0.1-0.5,0.6s-0.4,0.9-0.9,0.9s-0.8,0.3-0.6,0.5s-0.3,0.8-1.1,1.3
	c-0.8,0.5-1.4,1-1.4,1.3c0,0.2-0.9,0.3-2,0.2c-1.4-0.2-2.4,0.1-3.6,1c-1.9,1.5-8.1,3.1-8.1,2.1c0-0.3-0.9-0.5-2-0.4
	c-1.6,0.1-2,0.3-2,1.2c0,0.6-0.2,1.2-0.5,1.2s-0.6,0.5-0.5,1.2s0.3,1.1,0.6,1.1s0.7,0.4,0.9,0.9c0.5,1.2-1.6,3.7-3.2,3.8
	c-0.7,0-1.6,0.8-2.3,1.8c-0.6,1-1.5,1.8-2,1.8s-1,0.2-1.1,0.5c-0.1,0.2-1.1,0.9-2.1,1.4s-3.6,1.9-5.6,2.9s-4.9,2.1-6.4,2.4
	c-2.8,0.5-8.5,3.1-9.1,4.2c-0.2,0.3-0.9,0.6-1.5,0.7c-0.6,0-1.3,0.4-1.4,0.9s-1.3,1.2-2.5,1.6s-2.1,0.9-1.9,1.2
	c0.5,0.7,9.5-0.2,13.2-1.4c6.6-2.1,12.3-4.3,14-5.5c1-0.6,3.9-1.5,6.4-1.9s5.3-1.1,6.1-1.4c0.8-0.4,2.1-0.8,2.8-1
	c2.2-0.5,9-3.4,9.4-4c0.8-1.2,5.2-3.3,7-3.4c1.1,0,2.4-0.5,3-1s1.5-0.9,2-1c0.5,0,1.2-0.4,1.6-0.9c0.3-0.5,1.9-1.3,3.5-1.9
	s4.4-2.1,6.3-3.4c3.9-2.6,13.9-8.2,15-8.5c2.3-0.5,5.5-2,6.7-3.2c0.8-0.8,2.9-2.2,4.7-3.3c1.9-1,5.5-3.4,8.1-5.3s5-3.4,5.4-3.4
	s1-0.5,1.4-1s2.3-1.8,4.2-2.8s4.5-2.9,5.9-4.3c2.4-2.5,14.4-11.5,15.3-11.5c0.3,0,1.4-1.1,2.5-2.4c1.2-1.4,3.1-2.7,4.8-3.4
	c1.5-0.6,3.5-1.8,4.4-2.8c0.9-0.9,2.2-1.8,2.8-2s1.1-0.6,1.1-0.9c-0.1-1.4,0.9-1.5,2.3-0.2l1.4,1.4l-1.9,1.8c-1.1,1-2.8,2.6-3.8,3.7
	s-2,2-2.2,2c-0.7,0-2.4,2.8-2.4,3.9c0,1.5-1.6,3.2-3.1,3.2c-0.6,0-1.6,0.6-2.1,1.2c-0.5,0.6-1.7,1.5-2.6,1.9s-1.6,1.1-1.6,1.5
	c0,1-3.2,4.3-4.7,4.8c-0.6,0.2-1.6,0.8-2.1,1.3s-1,0.7-1,0.5s-0.9,0.3-1.9,1.1c-1,0.9-2.1,1.6-2.3,1.6s-1.9,1.1-3.8,2.5
	s-3.7,2.5-4.1,2.5c-1,0-4.2,1.9-4.2,2.5c0,0.3-0.7,0.7-1.5,0.9s-4.4,2-7.8,3.9c-3.4,1.9-6.7,3.4-7.2,3.4c-0.6,0-1.6,0.7-2.2,1.5
	c-0.7,0.8-2.2,2-3.4,2.7c-3.4,2.1-4.3,2.7-5.4,4.2c-0.6,0.7-1.2,1.2-1.5,1.1c-0.2-0.1-1.3,0.4-2.3,1.2c-1,0.8-2.2,1.5-2.6,1.5
	c-0.4,0-2,1.2-3.7,2.6c-1.6,1.4-3.6,2.9-4.4,3.4c-0.8,0.4-2.5,1.5-3.9,2.4c-4.4,2.7-8.8,5.2-9.5,5.2c-0.4,0-1.4,0.6-2.3,1.3
	c-0.9,0.7-2.9,1.7-4.6,2.3c-1.6,0.6-3.4,1.4-3.8,1.8c-1.5,1.4-8.7,3.7-13,4.1c-2.7,0.3-4.6,0.8-5.2,1.4c-0.5,0.5-1.5,1-2.3,1.1
	c-0.7,0.1-1.7,0.4-2.2,0.6c-4.5,1.8-13.4,3.9-16.9,4c-1.3,0.1-3,0.4-3.8,0.7c-0.8,0.3-4.1,0.9-7.6,1.2c-3.4,0.4-6.6,0.9-7.1,1.2
	c-2.5,1.5-6,2.6-8.5,2.7c-1.5,0.1-3.7,0.6-4.9,1.1c-2.3,1.1-9,2.9-12.8,3.5l-2.6,0.4l2-1.2c1.2-0.7,2.6-1.1,3.4-1
	c1.4,0.2,1.4,0.2,0.2-0.7c-1.3-1-4.3-0.7-8.1,0.8c-1.8,0.7-1.9,0.9-1.1,1.5c1.5,1.2,1.2,1.6-2,2.4c-7.2,1.7-8.8,1.8-11.1,0.5
	c-2.1-1.2-3.1-1.2-8.6,0.1c-0.9,0.2-2.3,0.5-3,0.6s-1.5,0.5-1.7,0.9c-0.2,0.3-1.4,0.8-2.6,1.1c-2.6,0.5-2.6,0.5-8.9,0.7
	c-2.5,0.1-4.8,0.3-4.9,0.4c-0.2,0.2-1.3,0-2.4-0.3c-2.8-0.8-6.3-0.2-5.5,1c1.3,1.9,9,3,8.2,1.2c-0.2-0.4,0.1-0.8,0.8-0.9
	c0.6-0.1,1.3,0.2,1.5,0.7c0.2,0.4,0.8,0.8,1.2,0.8c0.8,0,0.7,0.1-0.1,1.1c-0.9,1.1-0.9,1.2,3.1,1c2.2-0.1,4.6,0.1,5.2,0.4
	c0.6,0.3,3.1,0.5,5.5,0.4c3.4-0.1,4.3-0.4,4.6-1.1c0.3-0.8,1.3-0.9,7.4-0.9c12.9,0,14.9,0.3,16.4,1.9l1.4,1.4l-4.1,0.8
	c-2.3,0.4-4.8,0.6-5.8,0.4c-2.3-0.5-19.7,0.8-22,1.7c-1.9,0.7-3.9,1-17.9,2.4c-4.9,0.5-10.2,1.3-11.8,1.9c-1.7,0.6-3.2,0.8-3.7,0.5
	c-1.3-0.7-4.9-0.4-5.6,0.6c-0.4,0.6-1.2,0.8-2.1,0.6c-1.4-0.3-4.2,0.9-4.1,1.8c0,0.6,2.5,1.4,5,1.6c2.3,0.2,7.9,2.4,7.9,3.1
	c0,0.3-2.2,0.5-5,0.4c-19.8-0.1-25.5,0.2-25.4,1.6c0,1.1-5,1.5-11.2,0.8c-2.9-0.3-6.1-0.5-7.2-0.5c-1.1,0-6.5,0-12.1,0
	c-10.2-0.1-16.4,0.5-15.7,1.5c0.2,0.3-0.4,0.5-1.6,0.5c-3.8,0-4.5,0.1-4.1,1.1c0.2,0.6,0.1,0.8-0.3,0.7c-0.4-0.1-0.7-0.5-0.7-0.8
	c-0.1-0.6-5.1-1.7-7.2-1.7c-1.1,0-1.1,0.1-0.1,0.8c0.7,0.5,0.9,1.1,0.7,1.7c-0.3,0.8-0.8,1-2.7,0.7c-4.7-0.6-8.6-0.5-9.8,0.2
	c-0.7,0.4-2.3,0.8-3.8,1c-3.3,0.4-8.9,1.1-8.9,1.2c0,0-0.6,0.2-1.4,0.4c-0.8,0.2-1.5,0.6-1.6,0.9s-1.4,0.6-2.8,0.7
	c-3,0.1-4.2,0.8-3.9,1.9c0.1,0.4-0.1,0.9-0.6,1.1s-0.6,0.1-0.4-0.3c0.4-0.7-1.8-2-2.6-1.4c-0.5,0.3-0.9-1.2-0.7-3
	c0.1-0.9-0.1-0.9-4.3,0.1c-3.8,0.8-8.2,2.6-8.2,3.2c0,0.9-3.1,1.9-7.8,2.4c-2.7,0.3-6,1-7.2,1.5s-2.8,1-3.4,1.1s-2,0.7-3.1,1.3
	c-1.4,0.8-4.8,1.3-12.9,2.1c-6,0.6-11.9,1.4-13.2,1.8c-1.2,0.4-3.9,1.1-6,1.7c-5.9,1.5-6.8,1.8-7.1,2.4c-0.2,0.3-1.3,0.6-2.4,0.6
	c-1.2,0.1-2.4,0.4-2.7,0.7c-0.3,0.4-2.1,0.6-4.1,0.6c-1.9,0-3.5,0.1-3.5,0.4C414.3,364.3,411.9,364.6,411.4,364.2L411.4,364.2z
	 M508.3,342.3c0.7-0.5,0.7-0.7,0-1.1c-1-0.6-3.7-0.6-4.2-0.1c-0.2,0.2-0.2,0.7,0,1.2C504.5,343.2,507.1,343.2,508.3,342.3
	L508.3,342.3z M612.6,332.9c1.7-0.1,3.6,0,4.2,0.2c0.6,0.3,1,0.2,1-0.2c0-0.3-0.5-0.8-1-0.9c-0.5-0.2-1.6-0.9-2.2-1.6
	c-1-1-2.2-1.3-6.7-1.6c-3-0.2-6.7-0.5-8.2-0.7s-2.6-0.1-2.4,0.1c0.2,0.3-0.7,0.5-2,0.6s-2.3,0.3-2.3,0.6c0.1,1.2,1.9,2.1,4,2.1
	c1.3,0,3.1,0.3,4.1,0.8s2.1,0.7,2.4,0.5c0.3-0.2,0.9-0.1,1.3,0.1c1,0.7,2.9,1.1,3.9,0.7C609.1,333.3,610.9,333.1,612.6,332.9
	L612.6,332.9z M648.2,317.2c0.6-0.5,0.5-0.6-0.8-0.5c-0.9,0-1.5,0.3-1.2,0.6C646.7,318,647.1,318,648.2,317.2L648.2,317.2z
	 M552.3,319.3c-0.4-0.1-0.9-0.1-1.1,0.1c-0.2,0.2,0.2,0.3,0.8,0.3C552.6,319.6,552.8,319.5,552.3,319.3L552.3,319.3z M566.5,317
	c0.7-0.7-0.4-0.9-4.7-0.6c-2.3,0.1-4.1-0.2-6.6-1.2c-2.3-0.9-3.6-1.2-4.1-0.8c-0.4,0.3-1.2,0.7-1.8,0.8c-1,0.2-0.9,0.4,0.5,1.2
	c1.1,0.7,3.1,1,6.3,1.1c2.6,0,4.8,0.2,4.9,0.3C561.7,318.3,566,317.5,566.5,317L566.5,317z M542.2,315.8c-0.8-0.4-2-0.7-2.8-0.6
	c-1.4,0.1-1.4,0.1-0.3,0.8c0.6,0.4,1.9,0.7,2.8,0.6l1.7-0.1L542.2,315.8L542.2,315.8z M686.9,306.7c0-0.9-1.6-1.4-2.8-1
	c-0.4,0.2-0.7,0.5-0.7,0.8c0,0.4,0.6,0.6,3.1,0.9C686.7,307.5,686.9,307.1,686.9,306.7z M443.4,304.2c0-0.3,0.2-0.4,0.6-0.2
	s0.6,0.1,0.6-0.3c0-0.6-1.4-0.8-7-1.2c-3-0.2-3.1-0.1-2.2,0.7C436.9,304.7,443.4,305.5,443.4,304.2L443.4,304.2z M328.2,308.2
	c-0.2-0.3-0.7-0.4-1-0.2c-0.4,0.3-0.3,0.5,0.2,0.8C328.4,309.4,328.8,309,328.2,308.2z M433.8,303c-0.2-0.3-0.6-0.5-1-0.5
	c-0.3,0-0.4,0.3-0.2,0.6c0.2,0.3,0.6,0.5,1,0.5C433.9,303.6,434,303.3,433.8,303z M143.7,313.4c0.2-0.3,1.1-0.7,2-1s1.7-0.7,1.7-1
	c0-0.4-0.6-0.4-1.6-0.1c-0.9,0.3-2.4,0.6-3.4,0.9c-2.2,0.5-2.5,2-0.4,1.9C142.8,314,143.5,313.7,143.7,313.4z M110.1,313.9
	c0-0.1-0.4-0.2-0.9-0.2s-0.9,0.3-0.8,0.6c0,0.3,0.4,0.4,0.9,0.2C109.7,314.3,110.1,314,110.1,313.9L110.1,313.9z M133.3,312.4
	c1-0.8,1-1,0.1-1.8c-0.8-0.7-1.2-0.7-2.1-0.2c-1.2,0.7-1.5,1.8-0.7,2.6C131.2,313.5,132.1,313.3,133.3,312.4z M172.9,309.5
	c1-0.8,2.1-1.5,2.5-1.5c1.4-0.1,5.6-2.7,5.2-3.2c-0.2-0.4-0.5-0.3-0.8,0.2c-0.3,0.6-0.6,0.6-1.3,0.1c-1.6-1.2-12.7,3.4-13.3,5.5
	c-0.1,0.5,0.7,0.7,2.8,0.6C170.4,311,171.5,310.7,172.9,309.5L172.9,309.5z M137.6,309.8c-0.4-0.1-0.9-0.1-1.1,0.1
	c-0.2,0.2,0.2,0.3,0.8,0.3C138,310.1,138.1,309.9,137.6,309.8L137.6,309.8z M359,299.2c-1.1-1.5-4.2-2.3-10.5-2.8
	c-2.8-0.2-7.6-1-10.6-1.6c-6.3-1.3-6.1-1.3-6-0.6c0,0.6,6.1,2.9,7.4,2.8c0.4,0,0.8,0.2,0.8,0.4c0,0.9,3.3,1.4,9.1,1.5
	c2.7,0,4.5,0.3,5.1,0.8c0.5,0.4,1.9,0.8,3.2,0.8C359.7,300.4,359.8,300.3,359,299.2z M320.6,300.2c-0.8-0.4-2.6-0.8-4-0.9
	c-2.2-0.2-2.4-0.1-1.4,0.5s2.8,0.9,6,1.1C321.7,300.9,321.5,300.6,320.6,300.2z M331.2,298.8c-2.6-1.1-7.3-1.3-5.2-0.2
	c1.4,0.7,4.2,1.3,6.1,1.2C333.4,299.8,333.2,299.7,331.2,298.8z M186.1,302.9c0-0.3-0.5-0.6-1.1-0.5c-0.6,0-1.3,0.3-1.4,0.6
	c-0.2,0.3,0.3,0.6,1.1,0.5C185.5,303.5,186.1,303.2,186.1,302.9z M169.3,300.4c0-0.1-0.4-0.2-0.9-0.2s-0.7,0.3-0.5,0.6
	C168.3,301.3,169.4,301,169.3,300.4z M324,292.3c-0.9-0.7-3.8-1.2-3.7-0.5c0,0.6,1.3,1,3.2,1C324.1,292.8,324.4,292.6,324,292.3z
	 M187.7,294.2c0.2-0.3,1.2-0.7,2.4-1c1.1-0.3,2.4-0.8,2.8-1.3c1.3-1.4-0.8-1.5-3.2-0.2c-1.2,0.7-2.5,1.3-3,1.3
	c-0.4,0-1.3,0.4-1.9,0.9c-1,0.8-1,0.9,0.8,0.8C186.6,294.8,187.6,294.5,187.7,294.2L187.7,294.2z M124.4,293.1
	c2.2-0.9,2.2-0.9-1.7-0.4c-4.7,0.6-5.4,0.8-5.4,1.6C117.3,295.1,121.1,294.4,124.4,293.1z M116.6,291.8c0-0.1-0.3-0.2-0.6-0.2
	c-0.3,0-0.6,0.3-0.5,0.6c0,0.3,0.3,0.4,0.6,0.2C116.4,292.2,116.6,291.9,116.6,291.8z M129.7,291.7c0.7-0.2,1.3-0.6,1.3-0.9
	c0-0.8-2.7-0.5-3.4,0.5C126.7,292.3,127.4,292.5,129.7,291.7L129.7,291.7z M118.9,291.2c0-0.5,0.7-1.2,1.5-1.7s1.6-1.3,1.7-1.8
	c0.1-0.8-0.3-1-2.4-0.9c-1.4,0.1-3.7,0.3-5.1,0.6c-2.1,0.4-2.6,0.7-2.8,1.8c-0.2,1.2,0,1.4,1.3,1.4c2.7,0,2.9,0.1,3.6,0.8
	C117.7,292.3,118.9,292.2,118.9,291.2L118.9,291.2z M104.5,290.9c0-0.3-0.5-0.6-1.2-0.5c-0.6,0-1.1,0.3-1.1,0.6
	c0,0.3,0.5,0.6,1.2,0.5C104,291.5,104.5,291.2,104.5,290.9z M110.8,290.7c0-0.7-1.6-1.2-2.6-0.7c-1.4,0.6-0.9,1.4,0.9,1.3
	C110,291.2,110.8,291,110.8,290.7z M143.4,288.3c1.3-0.2,2.6-0.7,2.8-1c0.5-0.8-7.1,0.4-9.2,1.5c-1.7,0.9-1.7,0.9,1.2,0.4
	C139.6,288.9,142,288.5,143.4,288.3z M127,286.5c-0.2-0.3-0.8-0.5-1.2-0.5c-0.5,0-0.8,0.3-0.8,0.6c0,0.3,0.6,0.6,1.2,0.5
	C126.9,287.1,127.2,286.8,127,286.5z M130.2,285.3c-0.4-0.1-1.1,0-1.6,0.2c-0.8,0.3-0.8,0.5-0.1,0.9c0.5,0.3,1.1,0.2,1.6-0.2
	C130.6,285.7,130.6,285.4,130.2,285.3z M148.8,283.3c-0.2-0.3,0-0.6,0.4-0.8c0.4-0.2,0-0.4-0.8-0.5s-2,0-2.6,0.2c-1,0.4-1,0.5,0.4,1
	C148,283.9,149.2,283.9,148.8,283.3L148.8,283.3z M157.6,281c0-0.3-0.4-0.4-0.9-0.2c-0.5,0.2-1.1,0.4-1.5,0.4
	c-0.3,0-0.4,0.3-0.2,0.5C155.4,282.4,157.6,281.7,157.6,281L157.6,281z M116.2,277.7c3.5-0.5,5.8-1.2,7.5-2.3c1.3-0.8,3-1.6,3.7-1.7
	c1.8-0.3,2-1.6,0.4-1.9c-4-0.7-5.2-0.6-4.8,0.4c0.5,1.4-2.4,2.4-7.9,2.7c-4.4,0.2-11.2,2.3-11.1,3.4
	C104,279.5,104.4,279.5,116.2,277.7L116.2,277.7z M134.5,274.3c0-0.3-1-0.6-2.2-0.7c-1.7-0.1-2.2,0.1-2.1,0.8c0,0.7,0.5,0.9,2.2,0.7
	C133.6,275,134.6,274.7,134.5,274.3z M136.8,271.2c0.1-0.5-0.5-0.7-2.1-0.6c-1.8,0.1-2.4-0.1-2.6-1c-0.3-0.8-0.8-1.1-2.1-1.1
	c-1.8,0.1-2,0.4-1.3,2c0.3,0.6,1.1,0.9,2.5,0.8c1.2,0,2.5,0.2,3,0.4C135.3,272.4,136.6,272.2,136.8,271.2L136.8,271.2z M789.6,241.6
	c0.4-0.6,0.7-1.2,0.6-1.5c-0.3-0.8,1.4-1.6,3.4-1.7c1.2-0.1,2.2-0.5,2.8-1.3c0.5-0.7,1.3-1.2,1.7-1.2s0.9-0.4,1.1-1
	c0.2-0.5,0.9-1.2,1.7-1.5s1.3-0.9,1.1-1.3c-0.4-1-3.4-0.4-4.3,0.7c-0.4,0.6-1.2,0.8-2.1,0.7c-0.9-0.1-1.9,0.2-2.6,0.9
	c-0.6,0.6-1.7,1.3-2.4,1.5c-1.4,0.5-4.4,3.8-4.6,5C785.8,243,788.2,243.4,789.6,241.6L789.6,241.6z M114.6,269.2
	c0.5-0.7,0.4-0.8-0.8-0.4c-0.8,0.2-1.7,0.5-2.1,0.5s-0.7,0.3-0.7,0.6C111.1,270.7,113.9,270.2,114.6,269.2L114.6,269.2z M74.7,256.2
	c-0.7-0.8-3.4-0.9-3.4-0.1c0,0.9,0.7,1.1,2.4,1C75,256.9,75.2,256.8,74.7,256.2z M49.6,246.7c-1.2-0.7-2.5-0.6-2,0.1
	c0.2,0.3,0.9,0.5,1.6,0.5C50.3,247.2,50.3,247.1,49.6,246.7L49.6,246.7z M39.8,245.3c-2.1-0.5-2.9-0.5-2.9,0.1s2.9,1,3.8,0.5
	C41,245.8,40.6,245.5,39.8,245.3L39.8,245.3z M52.7,244.1c0.7-0.8-0.6-1.2-3.1-0.9c-0.8,0.1-1.2,0.4-0.9,0.9
	C49,244.9,52,244.9,52.7,244.1L52.7,244.1z M57.3,244.1c-0.2-0.3-1.2-0.5-2.2-0.4l-1.8,0.1l1.7,0.4
	C57.5,244.7,57.7,244.7,57.3,244.1z M83.6,234.9c0-0.3-0.3-0.6-0.6-0.5c-0.3,0-0.6,0.3-0.5,0.6c0,0.3,0.3,0.6,0.6,0.5
	C83.4,235.4,83.6,235.2,83.6,234.9z M48.7,225.5c0.7-0.1,0.6-0.3-0.3-0.9c-1.3-0.9-5.9-0.9-7.2,0c-0.6,0.4-0.4,0.6,0.9,0.9
	c0.9,0.2,2,0.4,2.3,0.4c0.3,0.1,1.2,0,2-0.1C47.2,225.7,48.2,225.5,48.7,225.5L48.7,225.5z M56.2,225.1c0.5-0.3,0.7-0.6,0.5-0.6
	s-1.5-0.1-3-0.2c-2.2-0.1-2.7,0-2.7,0.7C51,226.1,54.7,226.1,56.2,225.1L56.2,225.1z M838.3,170.9c-0.2-0.3-0.1-0.7,0.2-0.9
	c0.9-0.6,0.6-1.5-0.3-1.4c-0.5,0-0.8,0.6-0.8,1.5c0,0.8,0.3,1.4,0.7,1.4C838.4,171.4,838.5,171.2,838.3,170.9L838.3,170.9z
	 M900.8,166.7c0.4-1.1-0.1-1.1-1.9,0.1l-1.4,0.9h1.5C899.8,167.6,900.6,167.2,900.8,166.7L900.8,166.7z M898.2,160.7
	c0.9-0.5,1.7-0.5,2.4-0.2c2.4,1.2,8-1.9,10-5.6l1-1.8l-2.9,0.5c-1.7,0.3-3.4,1-4.1,1.7c-0.7,0.7-1.7,1.3-2.2,1.3
	c-0.6,0-1.2,0.3-1.3,0.6c-0.2,0.3-0.5,0.5-0.8,0.3c-0.3-0.1-1.4,0.7-2.6,1.8C895.4,161.4,895.7,162,898.2,160.7L898.2,160.7z
	 M44.9,193.7c0.1-0.1-0.2-0.6-0.6-1.1c-0.5-0.7-1.9-1-4.2-1.1c-3.3-0.2-3.4-0.1-2.6,0.9c1.7,2.1,2.6,2.4,5,1.9
	C43.7,194,44.8,193.8,44.9,193.7z M36.2,160.9c-0.6-0.6-1.8-0.1-1.8,0.8c0,0.7,2,1,2.2,0.3C36.7,161.7,36.5,161.2,36.2,160.9z
	 M35.4,158.6c0-0.8-1.3-2.9-2-3.3c-1.9-1.2-3.6,1.7-1.9,3.3C33,159.9,35.5,159.9,35.4,158.6L35.4,158.6z M31.4,152.4
	c-1-1.7-2-1.6-1.9,0.2c0,1,0.8,1.5,2.2,1.5C32.1,154.1,32,153.6,31.4,152.4z M863.1,112.5c0-0.5-0.3-0.9-0.6-0.8
	c-0.3,0-0.6,0.4-0.5,0.9c0,0.5,0.3,0.9,0.6,0.8C862.9,113.4,863.1,113,863.1,112.5z M470.5,108c1.1-0.3,3.3-0.8,4.8-1
	c1.6-0.2,3.1-0.8,3.5-1.3c0.7-1,2.1-1.1,3.7-0.4c1,0.5,9-0.6,9.6-1.3c0.1-0.1-0.1-0.7-0.6-1.2c-0.7-0.8-2.3-0.8-14.3,0
	c-7.4,0.5-14.9,1.1-16.7,1.4c-3,0.4-7.4,2.2-7.3,2.9c0,0.2,1.5,0.7,3.4,1.1C460.2,109.1,467.3,108.9,470.5,108L470.5,108z
	 M501.9,103.6c1.5-0.3,2.8-1.1,2.6-1.5c-0.8-1.2-10.7,0.3-10.6,1.6c0,0.6,2.9,0.9,5.2,0.4C500.2,103.9,501.5,103.6,501.9,103.6z
	 M35.3,119.7c-0.1-4.4-0.7-7-1.4-7c-0.3,0-0.4,0.3-0.2,0.6s0,0.6-0.5,0.6c-0.9,0-1.7,1.6-0.9,1.9c0.3,0.1,0.7,1.1,0.9,2.2
	C34.3,123.7,35.5,124.7,35.3,119.7L35.3,119.7z M610.6,96c1.4-0.7,2-0.7,3.6-0.1s2.7,0.5,6-0.1c2.3-0.5,7.2-1.1,10.9-1.4
	s7.2-0.8,7.7-1.1s4.3-0.7,8.4-0.9c4.1-0.2,8.6-0.7,10-1.1s4.1-1,6-1.4c1.9-0.3,3.9-0.9,4.5-1.2s3.1-1.1,5.5-1.6
	c2.7-0.6,4.4-1.2,4.4-1.6c0-0.8-11.6,0.1-12.1,1c-0.2,0.3-3.6,0.8-7.7,1.1c-7.6,0.6-20.2,2.2-21,2.8c-0.2,0.2-4,0.6-8.5,0.9
	c-4.4,0.3-8.6,0.8-9.3,1.1s-2.8,0.6-4.7,0.8c-1.9,0.2-4.1,0.7-5,1.2s-1.9,0.9-2.4,0.9c-1.1,0-1.1,1-0.1,1.4
	C608.2,97,608.8,96.9,610.6,96L610.6,96z M524.6,95.9c0-0.3-0.3-0.6-0.6-0.5c-0.3,0-0.6,0.3-0.5,0.6c0,0.3,0.3,0.6,0.6,0.5
	C524.4,96.5,524.6,96.3,524.6,95.9L524.6,95.9z M543.8,95.3c4.4-0.7,1.8-1.4-3.4-0.9c-2.5,0.2-5.7,0.5-7.1,0.7
	c-1.4,0.1-2.1,0.4-1.7,0.6C532.5,96.2,539.9,95.9,543.8,95.3z M549,94.9c0.2-0.3-0.3-0.6-1-0.5c-1.1,0.1-1.2,0.2-0.4,0.6
	C548.7,95.6,548.6,95.6,549,94.9L549,94.9z M374.9,97.2c3-1.7,3.2-2.9,0.4-2.8c-1.9,0.1-5.4,2.5-5.3,3.7
	C370,99.1,372.3,98.6,374.9,97.2z M685.1,83.8c0.6-0.4,0.5-0.6-0.5-0.9c-1.3-0.4-2.4,0.1-2.3,1C682.4,84.6,684.1,84.5,685.1,83.8z
	 M895.2,73.7c0.5-0.8,1.4-2,1.9-2.7c0.5-0.6,1-1.3,0.9-1.4c0-0.6-3.1-0.1-4,0.7c-0.7,0.7-3.6,1.5-6,1.7c-0.3,0-0.4,0.2-0.1,0.4
	c0.2,0.2,0.1,0.8-0.1,1.4c-0.6,1.2,0.1,1.5,1,0.4c0.4-0.5,0.8-0.4,1.4,0.2C891.6,75.8,894.1,75.4,895.2,73.7z M363.8,96.7
	c1.1-1,1.1-2.4,0-2.3c-1.1,0-3.7,1.4-3.7,1.9c0,0.7,1.3,1.6,2.1,1.4C362.6,97.5,363.3,97.1,363.8,96.7z M35.1,109.1
	c-0.5-0.4-0.7-0.4-0.6,0.3c0,1.1,0.9,1.9,1.1,1C35.6,110,35.4,109.4,35.1,109.1z M655.2,82.5c0-0.5-0.4-0.8-0.9-0.8
	c-0.9,0-1.1,0.7-0.4,1.4C654.6,83.7,655.3,83.4,655.2,82.5L655.2,82.5z M889.2,64.5c0-0.3,0.4-0.6,0.9-0.6c1.3-0.1,0.6-1.4-0.9-1.6
	c-1-0.1-1.2,0.2-1.2,1.3c0,0.8,0.3,1.5,0.6,1.5C889,65.1,889.2,64.8,889.2,64.5z M69.5,96.8c0-0.3-0.3-0.6-0.6-0.5
	c-0.3,0-0.4,0.3-0.2,0.6c0.2,0.3,0.5,0.6,0.6,0.5C69.5,97.4,69.6,97.1,69.5,96.8z M300.2,85.4c0.1-0.9-0.2-1.9-0.7-2.1
	c-1.2-0.7-1.7-0.5-1.6,0.6c0,0.6-0.2,1.3-0.6,1.7c-0.9,0.9,0,2,1.5,1.7C299.8,87.1,300.2,86.6,300.2,85.4L300.2,85.4z M325.7,85.1
	c-0.4-0.6-0.9-1.2-1.2-1.4c-0.8-0.5-0.7,1.1,0.2,1.9C325.8,86.6,326.4,86.3,325.7,85.1z M65.4,94.3c-1.5-0.9-2.2-0.5-1.1,0.7
	c0.4,0.4,1.1,0.6,1.6,0.4C66.5,95.1,66.4,94.9,65.4,94.3z M80,84.7c1.3,1.2,3.2,0.7,8.5-2.2c2.8-1.5,5.4-2.8,5.8-2.9
	c1-0.1,2.5-2.7,2-3.4c-0.2-0.3-1.1-0.7-2-0.8c-0.9-0.1-1.8-0.4-2.2-0.5c-0.3-0.2-0.6-0.1-0.6,0.2c0,0.8-3.2,1.5-6.8,1.6
	c-2.3,0.1-3.3,0.3-3.8,1c-0.9,1.3-8.8,3-10.8,2.4c-1-0.4-1.7-0.4-2.1,0.1s-0.1,1.1,1.4,2.1c2.3,1.6,8.9,3.2,9.5,2.3
	C79.2,84.2,79.6,84.3,80,84.7L80,84.7z M287.5,74.2c1.6-1.8,1.6-2.1,0.7-3.7c-0.9-1.5-0.5-1.8,2.6-2.3c3.4-0.6,4-1.6,2.8-4.8
	c-2.3-6.3-5.3-10.8-10.5-15.5c-5.3-4.9-7.4-6.6-8.3-6.6c-0.3,0-1-0.5-1.6-1.1s-1.3-1.1-1.6-1.1c-0.3,0-1.5-0.7-2.7-1.5
	c-1.9-1.4-4.8-3-9.5-5.2c-0.8-0.4-1.8-0.7-2.1-0.7S255,31,253,30.2s-3.9-1.4-4.2-1.2s-0.8,0.1-1.2-0.2s-2.4-0.9-4.3-1.4
	c-2-0.5-3.6-1.1-3.7-1.4c0-0.3-0.4-0.3-1,0c-0.5,0.3-1.4,0.5-1.9,0.4c-2.8-0.4-9-1.7-12.5-2.5c-6.8-1.6-11.6-1.9-23.6-1.6
	c-7.8,0.2-12.3,0-14.1-0.4c-3.9-1-7-1.2-9.5-0.5c-2.8,0.8-3.4,1.4-2.4,2.7c0.7,0.9,2.1,1,14.6,0.6c7.6-0.2,14.9-0.3,16.4-0.2
	c13.2,0.9,20.5,1.8,23.2,3.1c1.5,0.7,1.7,1,1,1.4c-0.5,0.3-1.7,0.3-2.8,0.1c-3.4-0.8-8.4-0.9-8.8-0.2c-0.5,0.9,1.7,1.5,8,2.3
	c2.9,0.4,6.4,1.1,7.7,1.7s5,2.1,8.2,3.4c3.2,1.3,6.5,2.9,7.4,3.6c0.8,0.7,3.1,2,5,3s4.5,2.6,5.7,3.7s4,3.6,6.2,5.5s4.5,4.1,5,4.8
	c1.1,1.5,2.1,1.6,3.1,0.3c1.2-1.6,1.7-1,1.8,2.5c0.1,3.1,0.3,3.5,1.6,4c0.8,0.3,1.6,1.1,1.8,1.7c0.2,0.6,0.9,1.2,1.5,1.4
	c1.2,0.3,1.4,0.7,1.3,2.7c-0.1,1.3,2.5,6.6,3.2,6.5C285.9,75.9,286.7,75.1,287.5,74.2L287.5,74.2z M71,77.8c0.9-0.6,1-0.9,0.5-1.8
	c-0.9-1.6-3.4-1.3-3.9,0.3c-0.2,0.7-0.2,1.4,0.1,1.5c0.3,0.1,0.4,0.4,0.2,0.7C67.5,79.1,69.5,78.7,71,77.8L71,77.8z M75.7,75
	c0.2-0.6-0.2-0.8-1.2-0.7c-1.4,0.1-1.4,0.1-0.4,0.8c0.6,0.4,1.2,0.7,1.2,0.7C75.4,75.8,75.5,75.5,75.7,75z M247.4,64.8
	c0.2-0.4-0.1-1-0.6-1.3c-0.5-0.4-1-1-1-1.4c0-0.6,0.2-0.6,1,0c0.9,0.7,0.9,0.6,0.3-0.1c-0.4-0.5-1.8-1.4-3.1-2.1l-2.4-1.2l-1.4,1.5
	c-0.8,0.8-1.4,1.7-1.4,2s1,0.9,2.2,1.5s2.6,1.1,3.1,1.4C245.5,65.7,247,65.6,247.4,64.8L247.4,64.8z M888.9,34.6
	c0.7-1,1.2-2,1.2-2.4c-0.1-1.2-1.9-0.5-3.5,1.3c-1.4,1.5-1.5,1.9-0.9,2.3C887.1,36.7,887.7,36.5,888.9,34.6z M253.2,61.9
	c0.3-1-0.9-0.8-1.2,0.3c-0.2,0.6-0.1,0.8,0.4,0.7C252.7,62.7,253.1,62.2,253.2,61.9L253.2,61.9z M250.9,60.2
	c0.4-0.9,0.2-1.3-1.4-2.4c-2.7-1.8-9.7-5.2-10.7-5.2c-1.3,0.1-0.9,1.1,0.8,2.1c0.9,0.5,2,1.3,2.5,1.9c1.6,1.7,5.1,3.2,5.8,2.4
	c0.5-0.5,0.6-0.3,0.7,0.9C248.7,61.6,250.1,61.9,250.9,60.2L250.9,60.2z M234,60c0.2-0.5,0-1.5-0.5-2.2c-0.6-1-1.4-1.3-3.8-1.5
	c-3-0.2-6.6,0.7-6.6,1.7c0,0.3,0.6,0.7,1.3,1c1.1,0.4,7,1.6,8.7,1.9C233.5,60.9,233.9,60.5,234,60L234,60z M80.4,62.9
	c0.9-0.5,0.8-0.5-0.7-0.4c-1,0.1-1.9,0.4-1.8,0.6C77.9,63.8,79,63.7,80.4,62.9z M221.8,54.5c-1.5-0.8-6.3-1.1-6.2-0.4
	c0,0.3-0.4,0.5-1,0.4c-0.6-0.2-0.8-0.1-0.3,0.2c0.4,0.3,2.5,0.4,4.6,0.4C221.7,55,222.5,54.9,221.8,54.5L221.8,54.5z M100.9,24.3
	c-1.3-1.2-5.2-3.5-6.1-3.4c-0.7,0-0.1,1.4,1.4,3.1c1.4,1.6,2,1.9,3.9,1.8l2.3-0.1L100.9,24.3L100.9,24.3z M468.9,356.7
	c0.6-0.4,1.8-0.9,2.8-1c1-0.2,2.7-0.7,3.9-1.2c1.3-0.6,2.2-0.7,2.5-0.4c0.2,0.3,0,0.6-0.4,0.7s-1,0.2-1.4,0.2
	c-0.4,0.1-1,0.4-1.4,0.8s-2.2,0.9-3.9,1.2C468.5,357.3,468.1,357.2,468.9,356.7z M489.9,355.8c0-0.3,0.3-0.6,0.8-0.6s1,0.2,1.2,0.5
	s-0.2,0.6-0.8,0.6C490.5,356.3,489.9,356.1,489.9,355.8z M495.9,350.4c-0.6-0.7-0.5-0.7,0.6-0.4c0.9,0.3,1.4,0.1,1.6-0.6
	c0.4-1,1.2-1.2,2.5-0.4c0.8,0.5,0.7,0.6-0.2,1.3C498.8,351.3,496.7,351.4,495.9,350.4L495.9,350.4z M398.2,354.5
	c0.4-0.4,0.8-0.6,1-0.4s-0.1,0.5-0.7,0.7C397.8,355.2,397.7,355.1,398.2,354.5L398.2,354.5z M607.6,337.4c-1.3-0.4-1.3-0.6-0.5-1.1
	c1.3-0.8,4.6,0.2,3.4,1.1C609.5,338,609.5,338,607.6,337.4L607.6,337.4z M395.8,346.1c-0.6-0.3-0.5-0.5,0.1-0.8
	c0.4-0.2,1.1-0.2,1.5,0.1c0.6,0.3,0.5,0.5-0.1,0.8C396.9,346.4,396.2,346.3,395.8,346.1L395.8,346.1z M402.5,346
	c0.4-0.2,1-0.2,1.4-0.1s0.1,0.3-0.7,0.3C402.4,346.3,402.1,346.2,402.5,346L402.5,346z M391.7,345.7c-0.8-0.4-0.8-0.5,0.1-0.6
	c0.5,0,1.1,0.2,1.4,0.5C393.6,346.3,392.8,346.4,391.7,345.7L391.7,345.7z M431.2,344c-1.2-0.6-1.1-2.5,0.2-2.8c1-0.2,3.4,2,3,2.8
	C434,344.6,432.4,344.6,431.2,344L431.2,344z M417.9,344.2c-0.6-0.1-1-0.6-1.1-1c0-1,1.9-1.7,3.5-1.3c0.7,0.2,2,0.3,3,0.4
	c2.3,0,2.8,1.4,0.6,1.5c-0.9,0-2.4,0.2-3.3,0.4S418.5,344.3,417.9,344.2L417.9,344.2z M374.9,344.7l-2-0.3l2.1-0.5
	c1.6-0.4,2.4-0.3,3.5,0.3l1.4,0.9h-1.4C377.6,345,376.1,344.9,374.9,344.7L374.9,344.7z M639.9,333.1c-0.2-0.3-0.3-0.7-0.1-0.9
	c0.1-0.2,0.4,0.1,0.6,0.6C640.9,333.8,640.6,334,639.9,333.1z M643.4,332.8l-2.9-0.6l2.4-0.4c2.4-0.4,5.2,0.4,4.4,1.2
	C646.9,333.5,647.1,333.5,643.4,332.8L643.4,332.8z M653.8,332.5c-0.2-0.3,0-0.6,0.5-0.6s0.9,0.2,0.9,0.5s-0.2,0.6-0.5,0.6
	C654.4,333.1,654,332.8,653.8,332.5z M465.6,338.5c2.1-1.2,10.8-2.1,10.9-1.1c0,0.5-3.6,1-5.6,0.8c-0.4,0-0.7,0.2-0.7,0.5
	s-1.4,0.6-3.3,0.7l-3.3,0.1L465.6,338.5L465.6,338.5z M340.8,343.2c0.4-0.4,0.8-0.6,1-0.4s-0.1,0.5-0.7,0.7
	C340.3,343.9,340.2,343.8,340.8,343.2z M497.3,333c0.4-0.7-1.3-1.1-3.8-1c-1.2,0.1-2.3-0.2-2.3-0.5s0.3-0.6,0.7-0.7
	c0.4-0.1,1.3-0.2,2-0.3c0.7-0.1,2,0.1,2.8,0.5s1.9,0.7,2.3,0.7c1.4-0.1,0.9,1-0.6,1.3C497.7,333.3,497.2,333.3,497.3,333z
	 M57.4,350.5c-0.8-0.2-0.2-0.6,2-1.1c4.3-1.1,9.1-1.7,8.8-1c-0.2,0.3-1,0.6-1.7,0.6c-0.8,0-1.9,0.3-2.5,0.7
	C62.5,350.5,58.8,351,57.4,350.5z M506.2,326.9c-0.2-0.3-0.3-0.7-0.1-0.9s0.4,0.1,0.6,0.6C507.1,327.6,506.8,327.7,506.2,326.9z
	 M56.2,345.4c0-0.2,0.6-0.9,1.3-1.4c1.1-0.8,1.7-0.8,3.4-0.3c1.9,0.6,2,0.7,1.1,1.3C60.9,345.7,56.3,346.1,56.2,345.4z M369.8,330.6
	c-0.6-0.4-0.3-0.6,1.2-1c2.4-0.6,4.2-0.4,4.2,0.4C375.2,330.8,370.8,331.2,369.8,330.6z M485.2,320.3c-1.3-0.2-3.5-0.6-4.9-0.9
	c-2-0.4-2.7-0.4-3,0.2s-0.7,0.6-1.5-0.1c-1.7-1.3-3.2-1.7-5.6-1.5c-1.5,0.2-2.3,0-2.5-0.6c-0.5-1.2-3-1.5-4.2-0.7
	c-0.9,0.6-1.5,0.6-3.3-0.1c-3.6-1.3-8.6-2.4-10.6-2.3c-1,0-2.4-0.2-3-0.5c-1.3-0.6-6.2-1.8-9.4-2.2c-3.4-0.4-3-1.2,0.6-1
	c2.2,0.1,3.8-0.1,4.3-0.5c0.8-0.7,3-0.4,5.9,1c1,0.5,2.7,0.8,3.8,0.8c1.1,0,3.1,0.1,4.3,0.4c3.7,0.8,3.9,0.8,6.2,0.2
	c1.2-0.3,2.3-0.3,2.5-0.1c0.5,0.7,5.4,1,6.5,0.3c0.6-0.3,1.3-0.4,1.6-0.2c0.3,0.2,1.9,0.8,3.5,1.3s3.5,1.2,4.1,1.6
	c0.7,0.4,2.1,0.8,3.2,1s2.7,0.8,3.5,1.3s2.4,1.1,3.5,1.3c1.1,0.2,2.4,0.5,2.9,0.8C494.7,320.6,488.5,320.8,485.2,320.3L485.2,320.3z
	 M111,335.5c0-0.7,0.4-0.9,2.4-1.5c2.2-0.6,2,0.4-0.2,1.3C111.1,336.2,111.1,336.2,111,335.5z M382.3,321.7l-2.3-0.6l1.8-0.7
	c1.5-0.6,2-0.5,3.5,0.6s1.6,1.3,0.6,1.3C385.1,322.3,383.6,322.1,382.3,321.7L382.3,321.7z M403.5,321c-0.7-0.2-1.4-0.7-1.6-1
	s-0.9-0.4-1.5-0.2c-0.7,0.2-1.1,0.1-1.2-0.4c0-0.5,0.6-0.6,1.7-0.5c1,0.1,1.7,0,1.7-0.2c0-0.7,5.2-1.8,7.5-1.6
	c1.4,0.1,2.3-0.1,2.9-0.8c1.5-1.6,3.8-1.2,4.7,0.8c0.3,0.8,0.1,1.1-0.8,1.4l-1.3,0.4l1.4,0.3c1.7,0.3,2.3,1.5,0.8,1.4
	c-0.6,0-1.3-0.2-1.6-0.4c-0.8-0.4-4.1-0.1-4.6,0.5C411,321.4,405,321.6,403.5,321L403.5,321z M405.5,320.1c-0.8-0.9-2.3-1.1-2.3-0.2
	c0,0.5,1.1,0.9,2.6,1C406,320.9,405.9,320.5,405.5,320.1z M393.9,320.9c-2.1-0.1-3.2-0.4-2.9-0.8c0.2-0.3,1-0.7,1.8-0.8
	c0.8-0.1,1.6-0.5,1.8-0.9c0.3-0.6,0.5-0.6,0.5,0c0,0.4,0.5,0.7,1.1,0.7c1.1,0,2.2,1.4,1.4,1.8C397.4,320.9,395.7,321,393.9,320.9
	L393.9,320.9z M422.2,319.6c0-0.7,1.1-0.8,2.3-0.1c0.7,0.4,0.5,0.5-0.7,0.6C422.9,320.2,422.2,319.9,422.2,319.6z M380.1,318.8
	l-2-0.6l2.4-0.1c1.3-0.1,2.6,0.1,2.7,0.3C383.9,319.3,382.2,319.5,380.1,318.8L380.1,318.8z M391.6,317.3c0-0.6,1.1-0.9,1.4-0.4
	c0.2,0.3,0,0.6-0.5,0.6C392,317.5,391.6,317.4,391.6,317.3L391.6,317.3z M54.8,327.6c-2.8-0.8-2.9-0.9-1.3-1c1-0.1,2.5,0.1,3.3,0.3
	c1.8,0.6,4.9-0.5,4.9-1.7c0-0.6,0.4-0.8,2.1-0.5c1.2,0.2,2.6,0.5,3.1,0.7c1,0.5,0.9,0.6-3.4,1.9C59.7,328.5,58.2,328.5,54.8,327.6z
	 M359.9,314.3c-1.3-2,0.4-4.3,2.4-3.1c0.6,0.3,0.7,1.6,0.4,3.7C362.7,315.8,360.7,315.4,359.9,314.3L359.9,314.3z M129.5,324.4
	c0-0.3,0.4-0.7,0.9-0.9c1.5-0.7,2.1-0.5,1.2,0.5C130.7,325,129.6,325.2,129.5,324.4L129.5,324.4z M776.8,295
	c-1.2-0.7-0.3-1.8,1.6-1.9c1.5-0.1,2.8,0.7,2.3,1.3C780.1,295.1,777.5,295.4,776.8,295z M353.4,311.7c0-0.3,0.2-0.6,0.5-0.6
	s0.7,0.2,0.9,0.5c0.2,0.3,0,0.6-0.5,0.6C353.8,312.3,353.4,312,353.4,311.7L353.4,311.7z M796.9,291.2c1.2-0.7,2.7-1.3,3.4-1.3
	c1.1,0,1.1,0-0.1,1.2c-0.8,0.7-2.2,1.2-3.4,1.3l-2.1,0.1L796.9,291.2L796.9,291.2z M401.8,307.8c-2.2-0.5-4.7-0.9-5.5-0.9
	c-3.1,0.1-0.1-1.1,3.9-1.5c4.1-0.4,4.3-0.4,6.4,1.4s2.1,1.8,0.7,1.8C406.5,308.7,404.1,308.3,401.8,307.8z M67.3,322.9
	c-0.5-1.3-0.5-4.5,0-4.9c0.3-0.2,0.5-0.1,0.3,0.2c-0.2,0.3,0.3,0.8,1.2,0.9c1.5,0.3,1.5,0.4,0.6,1.1c-0.5,0.4-1,1.1-0.9,1.4
	C68.4,322.3,67.4,323.3,67.3,322.9L67.3,322.9z M783.4,291.2c-0.7-0.5-0.6-0.5,0.4-0.3c0.7,0.1,1.3,0,1.3-0.3s0.2-0.4,0.6-0.2
	c0.3,0.2,0.6,0.1,0.6-0.2c0-0.3,0.3-0.5,0.7-0.6c0.9-0.1,3-0.7,4.4-1.2c0.6-0.2,1.2-0.1,1.5,0.3c0.6,0.9-0.9,1.8-1.8,1.1
	c-0.8-0.6-2.1-0.1-1.7,0.6c0.1,0.2-0.4,0.4-1.3,0.5c-0.8,0-2,0.3-2.7,0.5C784.8,291.5,783.9,291.5,783.4,291.2L783.4,291.2z
	 M780.5,290.8c0-0.3,0.4-0.6,0.8-0.6c0.5,0,0.9,0.2,0.9,0.5s-0.4,0.6-0.8,0.6C780.9,291.3,780.5,291.1,780.5,290.8z M55.5,321.3
	c-0.2-0.3-1.4-0.6-2.7-0.8c-1.7-0.2-2.3-0.6-2.4-1.4c-0.1-1.9,1.7-2.4,3.7-1c2.3,1.6,5,2.2,5,1.2c0-0.4,0.1-0.6,0.3-0.4
	s0.2,0.9,0,1.5c-0.2,0.9-0.8,1.2-2,1.3C56.6,321.8,55.7,321.6,55.5,321.3L55.5,321.3z M389.8,306.9c-0.2-0.2-0.3-0.6-0.1-0.8
	c0.3-0.6,2-0.1,2,0.6C391.7,307.2,390.4,307.4,389.8,306.9z M411.1,305.4c-1.4-0.5-2.7-0.5-3.8-0.1c-1.4,0.5-1.7,0.4-2-0.5
	c-0.4-1.2,0.8-1.9,1.8-1c0.4,0.3,1.7,0.5,3,0.4c2.2-0.3,4,0.4,4.1,1.5C414.1,306.3,413.7,306.3,411.1,305.4z M74.4,319.8
	c-1-0.3-1.1-0.4-0.2-0.8c0.5-0.2,1.5-0.4,2.2-0.3c1.1,0.1,1.2,0.2,0.2,0.8C76,319.9,75,320,74.4,319.8z M803.4,288.2
	c0-0.3,0.5-0.7,1.1-0.9c0.7-0.2,1.1-0.1,1,0.3C805.3,288.4,803.5,288.9,803.4,288.2z M383.2,305.7c-0.6-0.8,0-1,1.8-0.6
	c1.9,0.5,1.8,0.5-0.2,0.9C384.2,306.1,383.4,305.9,383.2,305.7L383.2,305.7z M417.7,303.7c-0.2-0.3-0.3-0.7-0.1-0.9
	c0.4-0.5,4.4,0.2,4.5,0.8C422.1,304.3,418.2,304.4,417.7,303.7L417.7,303.7z M806.2,286.3c0-1.9,7.2-5.3,7.3-3.5
	c0,0.8-1.2,1.9-2.2,1.9c-0.5,0-1.6,0.5-2.5,1C807.1,286.8,806.2,287,806.2,286.3L806.2,286.3z M393.2,301.5
	c-4.9-1.1-5.1-1.2-3.7-1.8c0.7-0.3,1.9-0.4,2.6-0.2s1.9,0.3,2.7,0.2c1.7-0.2,4.8,1.1,4.4,1.9C398.8,302.4,397.1,302.4,393.2,301.5
	L393.2,301.5z M64.1,315.5c-0.1-1.9,3.6-3.7,7.5-3.7c2.2,0,0.8,1.9-2.1,2.8c-1.6,0.5-3.4,1.1-4.1,1.3
	C64.5,316.3,64.2,316.1,64.1,315.5L64.1,315.5z M219.5,308.9c-0.2-0.3,0-0.6,0.5-0.6s1,0.2,1.2,0.5s0,0.6-0.5,0.6
	S219.7,309.2,219.5,308.9L219.5,308.9z M39.7,314.7c-0.2-0.5-0.4-1.5-0.4-2.2s-0.4-1.5-0.7-1.9c-1.5-1.3,0.1-1.8,5.9-1.8
	c10,0,13.1-0.4,20.2-2.2c9.7-2.5,10-2.5,10-1.9c0,0.3-0.9,0.9-2.1,1.4c-1.2,0.4-3.1,1.8-4.3,3c-1.2,1.2-2,1.9-1.8,1.5
	c0.7-1.4-5.6-1.3-7.4,0.1c-0.7,0.6-3.4,1.1-10.2,2.2c-2.8,0.4-5.7,1.2-6.4,1.7C40.8,315.8,40.2,315.8,39.7,314.7L39.7,314.7z
	 M801.7,280.7c-0.6-0.2-1.9-0.3-2.8-0.1c-2.9,0.5-0.7-1.4,2.3-2c3.2-0.7,2.7-0.5,5.8-1.6c1.4-0.5,2.7-0.9,3-0.8
	c0.2,0,0.4-0.1,0.4-0.4c0-0.9,1.8-1.4,5.5-1.7c2-0.2,3.9-0.6,4.3-0.9c0.4-0.3,1.8-1,3.1-1.4s3-1.4,3.8-2.2c0.7-0.8,1.7-1.5,2.2-1.5
	c0.4,0,1.1-0.5,1.5-1c0.4-0.6,1.3-0.9,2.1-0.7c0.9,0.1,1.5-0.1,1.7-0.7c0.7-2.3,10-10.3,12-10.4c0.5,0,1.1-0.4,1.3-0.8
	c0.5-1,4.6-3.1,5.1-2.7c0.4,0.4-2.6,3.3-3.4,3.4c-0.3,0-1.5,1-2.6,2.1c-1.1,1.2-2.3,2.1-2.6,2.1s-1.4,0.8-2.3,1.8
	c-0.9,1-2.4,2-3.3,2.2c-0.9,0.2-1.7,0.7-1.9,1.1c-0.3,0.9-5.7,5.1-10.9,8.5c-2,1.3-4.2,2.9-4.8,3.6c-0.9,0.9-2,1.2-4.3,1.3
	c-2,0.1-4.3,0.7-6.5,1.7C806.6,281,803.8,281.4,801.7,280.7L801.7,280.7z M398.2,297.4c-1.1-0.3-2.8-0.9-3.6-1.4
	c-0.8-0.5-2.6-1-3.9-1c-3.2-0.2-4.5-1.3-1.6-1.4c1.2,0,2.3-0.3,2.4-0.4c0.2-0.2,1.2,0.2,2.3,0.8c1.5,0.9,2.5,1,4.3,0.7
	c1.2-0.3,2.3-0.3,2.3,0c0,0.2,0.2,0.8,0.3,1.4C401.1,297.5,400.4,298,398.2,297.4L398.2,297.4z M82.6,309.3c-1-0.1-2.1-0.5-2.6-0.8
	c-0.7-0.5-0.5-0.7,0.8-1.1c0.9-0.3,2.2-0.7,2.9-0.9c0.9-0.3,1.3-0.2,1.7,0.7c0.2,0.7,0.8,1.2,1.2,1.2c0.4,0,1,0.2,1.2,0.5
	C88.1,309.5,85.9,309.6,82.6,309.3L82.6,309.3z M90.6,308.8c-0.5-0.8,1.5-2,2.7-1.6c0.9,0.3,1.3,1.3,0.5,1.4c-0.2,0-1,0.2-1.6,0.4
	C91.6,309.3,90.9,309.2,90.6,308.8L90.6,308.8z M30.1,300.2c0-0.5,0.7-1,1.5-1.2c0.9-0.2,2.8-0.8,4.3-1.4s4.5-1.2,6.5-1.5
	s4.8-0.9,6-1.4s3.8-1,5.7-1.1s4.7-0.5,6.1-0.9c1.9-0.5,3.1-0.6,4.7-0.1c2.7,0.8,2.3,1.6-0.8,1.7c-6,0.3-28.1,4.4-31,5.7
	C30.8,301.2,30.1,301.3,30.1,300.2L30.1,300.2z M20.5,297c-0.3-0.5,0.7-1.5,1.8-1.8c0.6-0.2,0.5,0.1-0.2,1
	C21,297.6,20.9,297.6,20.5,297z M18,296.6c0.2-0.2,0.7-0.2,1.1-0.1c0.5,0.2,0.3,0.3-0.3,0.4C18.2,297,17.8,296.8,18,296.6L18,296.6z
	 M77.6,293.1c-2-0.6-1.3-1,1.1-0.6c1.3,0.2,1.7,0.5,1.2,0.7C79.4,293.4,78.4,293.4,77.6,293.1L77.6,293.1z M69.3,281.3
	c-0.4-1,0.6-1.8,1.4-1.1c0.4,0.3,0.3,0.8-0.2,1.2C69.9,281.9,69.6,281.9,69.3,281.3L69.3,281.3z M76.6,280.2c0.2-0.2,1.1-0.5,2-0.6
	s3-0.4,4.6-0.7c2.4-0.4,2.9-0.4,2.9,0.4s-0.8,0.9-4.9,1.1C78.5,280.5,76.5,280.4,76.6,280.2L76.6,280.2z M860.2,244.7
	c0-0.3,0.2-0.7,0.5-0.9c0.3-0.2,0.6,0,0.6,0.5s-0.2,0.9-0.5,0.9C860.5,245.3,860.2,245,860.2,244.7z M864.1,241.4
	c1.4-1.7,2.2-1.9,2.3-0.7c0,1-0.6,1.5-2.3,1.9C862.9,242.8,862.9,242.8,864.1,241.4L864.1,241.4z M80.5,275.3
	c0.2-0.3,0.7-0.6,1.2-0.6s0.8,0.2,0.9,0.5c0,0.3-0.5,0.6-1.2,0.6C80.7,275.8,80.3,275.6,80.5,275.3z M71.2,275.3
	c0.6-0.6,3.8-0.9,3.8-0.3c0,0.3-0.9,0.6-2.1,0.6C71.8,275.7,71,275.5,71.2,275.3L71.2,275.3z M866.9,239.8c0-0.6,1.8-2.1,4.1-3.2
	c2.8-1.4,2.9-1.4,1,0.8c-0.9,1.1-1.6,2.1-1.6,2.3c0,0.2-0.8,0.4-1.7,0.4C867.7,240.2,866.9,240,866.9,239.8L866.9,239.8z M82.3,270
	c0-0.3,0.4-0.4,0.9-0.3c0.5,0.2,0.9,0.4,0.9,0.5s-0.4,0.2-0.9,0.3C82.7,270.6,82.3,270.3,82.3,270L82.3,270z M873.9,234.9
	c-0.2-0.3,0-0.6,0.5-0.6c1,0,1.2,0.3,0.4,0.8C874.5,235.3,874.1,235.2,873.9,234.9z M877.4,232.7c-0.7-0.7-0.5-1.2,0.7-1.6
	c0.9-0.3,1.1-0.1,1,0.6C878.9,232.7,878,233.2,877.4,232.7z M79.4,266.9c0.2-0.2,0.7-0.2,1.1-0.1c0.5,0.2,0.3,0.3-0.3,0.4
	C79.6,267.2,79.2,267.1,79.4,266.9L79.4,266.9z M17.7,246.9c-0.4-0.6,1.1-0.7,3.2-0.1c1.3,0.4,1.2,0.4-0.7,0.5
	C19,247.4,17.9,247.2,17.7,246.9z M2.6,242c-0.9-0.8-0.4-1.3,1.3-1.4c1.1,0,1.7,0.2,1.8,0.8C5.7,242.3,3.4,242.7,2.6,242L2.6,242z
	 M6.8,240.5c0.5-0.3,1.4-0.6,2-0.6c1,0,1,0.1,0.3,0.5c-0.5,0.3-1.4,0.6-2,0.6C6.1,241.1,6.1,241,6.8,240.5L6.8,240.5z M893.4,199.3
	c-0.7-0.7-0.4-1.5,0.6-1.6c0.3,0,0.4,0.2,0.2,0.6c-0.2,0.3-0.1,0.6,0.3,0.6c0.3,0,0.6,0.2,0.6,0.5
	C895.1,200.3,894.2,200.2,893.4,199.3z M38.5,208.5c-1.4-1.3-1.6-1.8-1-2.2c0.4-0.3,1.2-0.5,1.8-0.4s1.1,0,1.3-0.3
	c0.4-0.7,2.4-0.8,2.8-0.1c0.6,0.9-0.2,2.9-1,2.8c-0.4-0.1-1.1,0.3-1.5,0.9C40.3,210.1,40.1,210,38.5,208.5L38.5,208.5z M19.4,153.7
	c-0.2-0.3-0.1-0.6,0.2-0.6c0.3,0,0.6,0.2,0.6,0.5s-0.1,0.6-0.2,0.6S19.6,154,19.4,153.7z M18.8,114.7c0.1-0.7-0.1-1.4-0.5-1.5
	c-0.5-0.2-0.5-0.3,0-0.3c1-0.1,1.3,0.6,0.8,1.9C18.6,115.9,18.6,115.9,18.8,114.7L18.8,114.7z M317.6,97.4c-0.1-1.7,0-1.8,0.9-0.9
	c0.5,0.5,0.8,1.3,0.7,1.8C318.6,99.8,317.6,99.3,317.6,97.4L317.6,97.4z M598.1,86.4c0.2-0.3,1.4-0.6,2.7-0.7
	c1.8-0.1,2.2,0.1,1.6,0.5C601.3,87,597.7,87.2,598.1,86.4z M605.3,85.7c0-0.3,0.3-0.6,0.7-0.6s1.3-0.3,2.1-0.6
	c1-0.4,1.3-0.3,1.1,0.3C608.9,85.7,605.3,86.5,605.3,85.7z M466.3,91c0-0.3,0.4-0.6,0.8-0.6c0.5,0,0.9,0.2,0.9,0.5s-0.4,0.6-0.8,0.6
	C466.7,91.6,466.3,91.3,466.3,91z M471.2,90.8c-1.6-0.3-1.4-0.4,1.3-0.8c3.2-0.5,4.8-0.3,3.5,0.6C475.1,91.2,473.7,91.3,471.2,90.8z
	 M613.3,84.9c0-0.1,0.2-0.4,0.5-0.6s0.6-0.1,0.6,0.2c0,0.3-0.2,0.6-0.5,0.6C613.6,85.2,613.3,85.1,613.3,84.9z M477.7,89.1
	c0-0.1,0.4-0.4,0.9-0.6s0.7-0.1,0.6,0.2C478.8,89.3,477.7,89.6,477.7,89.1z M485.5,87.9c-0.4-0.7,0.1-0.9,2.2-1.3
	c3.6-0.5,5.7-0.5,5.8,0c0,0.3-0.5,0.6-1.2,0.7c-0.7,0-1.4,0.3-1.7,0.5C490,88.4,485.9,88.5,485.5,87.9L485.5,87.9z M13.9,106.4
	c-0.2-0.5,0-0.9,0.5-0.9c0.9,0,1.2,0.8,0.4,1.4C14.5,107.1,14.1,106.9,13.9,106.4z M509.7,83.9c0-0.3,0.2-0.6,0.5-0.6
	s0.6,0.2,0.6,0.5s-0.2,0.6-0.5,0.6C510,84.5,509.7,84.3,509.7,83.9z M544.3,80.4c-0.7-0.4-1.9-0.8-2.8-0.8c-0.9,0-1.6-0.2-1.6-0.5
	c0-0.8,3.8-1.7,10.5-2.4c2.5-0.3,4.7-0.5,4.9-0.6c2.2-0.3,2.1,0.7,0,1.1c-0.7,0.1-1.5,0.5-1.8,0.8s-1.3,0.6-2.1,0.7
	c-0.9,0-1.6,0.4-1.6,0.7c0,0.4-0.5,0.5-1.4,0.3c-1-0.2-1.6,0-1.8,0.6C546.2,81.4,545.9,81.4,544.3,80.4L544.3,80.4z M559.8,76.1
	c0.3-0.4,2.2-0.9,4.1-1.1c1.9-0.2,3.7-0.5,4-0.7c0.7-0.4,21.6-1.3,21.2-0.9c-0.5,0.6-0.9,0.6-12.2,1.5c-5.6,0.4-11.9,1-13.9,1.3
	C560.1,76.6,559.3,76.6,559.8,76.1L559.8,76.1z M21.5,99.1c-1.6-0.2-1.7-1-0.2-1.5c0.8-0.2,1.4,0,1.8,0.7c0.3,0.6,0.4,1,0.2,1
	C23,99.3,22.2,99.2,21.5,99.1z M626.5,72.2c-0.6-0.6-0.6-0.8,0.1-0.8c0.4,0,1.1,0.2,1.6,0.4c0.6,0.4,0.6,0.5-0.1,0.8
	C627.7,72.8,626.9,72.6,626.5,72.2L626.5,72.2z M313,85.6c-0.7-0.4-0.7-0.6-0.2-1.2s0.8-0.6,1.4-0.1c0.5,0.4,0.5,0.9,0.2,1.2
	C314.1,85.9,313.6,85.9,313,85.6L313,85.6z M589.8,73.5c0-0.2,1-0.5,2.3-0.5c1.3-0.1,2.2,0.1,2,0.4C593.8,74,589.8,74.1,589.8,73.5z
	 M598.4,73.1c0-0.3,0.9-0.5,2.1-0.6c2.5-0.1,2.3,0.4-0.3,0.8C599.3,73.5,598.4,73.4,598.4,73.1L598.4,73.1z M595.4,72.9
	c0.4-0.2,1-0.2,1.4-0.1s0.1,0.3-0.7,0.3C595.3,73.2,595,73.1,595.4,72.9L595.4,72.9z M639.7,70.7c0-0.6,4.9-1.5,5.7-1
	c1.5,0.8,0.5,1.5-2.5,1.5C641.2,71.1,639.8,70.9,639.7,70.7z M13.4,94.5c-1.6-0.8-3.4-2.5-4.8-4.4c-1.2-1.7-0.5-2.1,1-0.5
	c0.6,0.6,1.7,1.2,2.6,1.3c1,0.2,1.9,0.8,2.3,1.7C15.9,95.1,15.6,95.7,13.4,94.5L13.4,94.5z M58.3,58.7c-0.1-0.9,0.1-1.1,0.7-0.9
	c0.5,0.2,1.3,0.3,1.7,0.3s0.8,0.4,0.9,0.8c0,0.6-0.5,0.9-1.6,0.9C58.8,59.9,58.4,59.6,58.3,58.7L58.3,58.7z M67.5,55.5
	c-0.2-0.3,0.2-0.6,1.1-0.6c0.8,0,1.6,0.2,1.8,0.5c0.2,0.3-0.2,0.6-1.1,0.6C68.5,56,67.7,55.8,67.5,55.5z M940.6,16.8
	c0-0.3,0.1-0.6,0.2-0.6c0.1,0,0.4,0.2,0.6,0.5c0.2,0.3,0.1,0.6-0.2,0.6C940.9,17.4,940.6,17.1,940.6,16.8z M324.6,39.7
	c-1.2-1.1-1.6-1.9-1.3-2.7c0.3-0.9,0.6-0.7,1.8,1.2C327.4,41.6,327.2,42.2,324.6,39.7L324.6,39.7z M70.6,51.5
	c-0.4-0.1-0.6-0.5-0.4-0.8c0.3-0.6,2-0.2,2,0.6C72.2,51.9,71.7,51.9,70.6,51.5L70.6,51.5z M303,21.1c-0.5-0.7,0.6-1.4,1.4-1
	c0.7,0.4,0.3,1.4-0.5,1.5C303.6,21.6,303.2,21.4,303,21.1L303,21.1z M260.3,18.3c-0.2-0.3-0.1-0.6,0.2-0.6c0.3,0,0.6,0.2,0.6,0.5
	s-0.1,0.6-0.2,0.6S260.5,18.6,260.3,18.3L260.3,18.3z M257.7,17.9c0-0.3,0.2-0.6,0.5-0.6s0.6,0.1,0.6,0.2c0,0.1-0.2,0.4-0.5,0.6
	C258,18.3,257.7,18.2,257.7,17.9z M256.3,17.5c-0.2-0.2-0.4-0.6-0.4-1s0.3-0.3,0.7,0.1c0.4,0.4,0.6,0.8,0.4,1
	C256.9,17.7,256.6,17.7,256.3,17.5z M81.9,23.9c1.4-1,4-1.5,4-0.9c0,0.3-0.2,0.6-0.5,0.6S84,23.8,83,24
	C81.7,24.3,81.3,24.3,81.9,23.9z M61.7,22.3c-6.8-0.2-5.3-1.2,2.4-1.6c3.9-0.2,7-0.6,7.1-1c0.6-1,2.5-1.1,3.9-0.2l1.3,0.8l-1.3,0.8
	C73.8,22,68.3,22.5,61.7,22.3z M56.4,15.1c-0.6-0.5-0.2-1.2,0.6-1.2c0.5,0,0.9-0.4,0.9-0.8c0-0.6,0.1-0.6,0.3,0
	c0.2,0.4,0.6,0.6,0.8,0.4c0.3-0.2,0.5,0.2,0.6,0.8c0,0.8-0.3,1.1-1.4,1.1C57.4,15.4,56.6,15.3,56.4,15.1L56.4,15.1z M56.7,10.7
	c0.2-0.2,0.7-0.2,1.1-0.1c0.5,0.2,0.3,0.3-0.3,0.4C56.9,11,56.6,10.9,56.7,10.7L56.7,10.7z"/>
</svg>
