<?xml version="1.0" encoding="utf-8"?>
<!-- Generator: Adobe Illustrator 25.2.0, SVG Export Plug-In . SVG Version: 6.00 Build 0)  -->
<svg version="1.1"
	 id="svg2" xmlns:cc="http://creativecommons.org/ns#" xmlns:dc="http://purl.org/dc/elements/1.1/" xmlns:rdf="http://www.w3.org/1999/02/22-rdf-syntax-ns#" xmlns:svg="http://www.w3.org/2000/svg"
	 xmlns="http://www.w3.org/2000/svg" xmlns:xlink="http://www.w3.org/1999/xlink" x="0px" y="0px" viewBox="0 0 1003.8 346"
	 style="enable-background:new 0 0 1003.8 346;" xml:space="preserve">
<style type="text/css">
	.st0{fill:#F6C60C;}
</style>
<path id="path2987" class="st0" d="M208.6,344.6c-0.8-1.3-0.8-1.6,0.1-4.3c0.6-1.8,1.3-3,1.8-3.1c0.7-0.1,0.8,0.2,0.5,1.4
	c-0.2,0.8-0.2,2.3,0,3.5c0.4,1.9-0.2,4-1.1,4C209.7,345.9,209.1,345.4,208.6,344.6L208.6,344.6z M175,340.7
	c-0.2-0.2-0.9-0.4-1.5-0.5c-0.8-0.1-1.3-0.6-1.4-1.4c-0.2-1.4,1.5-5.8,1.8-4.8c0.2,0.5,0.5,0.5,1.2,0.2c1.3-0.7,1.6-0.2,1.6,2.5
	C176.7,338.9,175.7,341.3,175,340.7L175,340.7z M199.3,339c0-1.4,2-6.1,2.1-4.9c0,0.4,0.3,0.6,0.5,0.4c0.8-0.5,1,2.8,0.3,4.3
	C201.3,340.5,199.2,340.7,199.3,339L199.3,339z M226,331.6c-0.9-1-0.2-3.5,1.1-3.8c1.4-0.4,1.6,0,1.6,2.2
	C228.8,332,227.1,332.9,226,331.6z M224.6,316.7c-0.7-0.3-1.3-1.2-1.5-1.9s-1.1-2.2-2.1-3c-1.7-1.7-1.8-1.7-2.1-0.4
	c-0.2,0.6-0.3,1.9-0.3,2.7c0,1.6-0.8,2.5-1.3,1.6c-0.2-0.3-0.6-0.5-1-0.5s-0.3,0.2,0.2,0.5c0.7,0.5,0.7,0.5,0,0.5
	c-1.3,0-3-3.5-3.4-6.6c-0.4-2.9,0-3.8,2.5-5.4c0.5-0.3,0.9-1.2,1-2c0.2-1.8-1.4-2-3.1-0.4c-0.9,0.8-1.4,0.9-2.6,0.4
	c-1.1-0.4-1.4-0.4-1.1,0.1c0.3,0.4,0.1,0.5-0.6,0.2c-2-0.8-2.6-0.6-2.8,1c-0.1,0.9-0.4,1.9-0.6,2.2c-0.3,0.3-0.3,0-0.2-0.6
	c0.2-0.6,0-1.4-0.4-1.6c-0.5-0.3-0.6-0.2-0.3,0.5c0.2,0.5,0.1,0.9-0.2,0.9s-0.5-0.6-0.5-1.5c0-1.6-1.1-2.3-2.5-1.7
	c-0.5,0.2-1.5,0.4-2.2,0.5c-1.1,0.1-1.2-0.1-0.9-1.4c0.2-0.8,0.9-2.7,1.6-4.2c0.7-1.5,1.2-2.9,1.1-3.1s-0.4-1.4-0.6-2.6
	c-0.2-1.3-0.4-2.4-0.6-2.6c-0.4-0.6-3.3-0.5-3.7,0.1c-0.3,0.5-3.9-0.7-4.5-1.6c-1.2-1.6-2.1-1.9-3.7-1c-2.2,1.2-2.5,1.2-4.4-0.8
	c-0.9-0.9-2.2-1.7-2.8-1.7c-1.9,0-5.8-1.5-5.3-1.9c0.2-0.3,0-0.3-0.5-0.1c-1.1,0.4-1.9-0.9-1.6-2.7c0.3-1.6,2.7-4,4.2-4.3
	c0.8-0.1,1.1-0.7,1.2-2.3c0.1-1.2,0.5-2.7,1-3.5c1.1-1.8,0.7-4-0.9-4.5c-1.3-0.4-5.3,2.1-5.3,3.3c0,0.9-1.9,2.8-3,2.9
	c-1.4,0.2-1.5-2-0.3-3.5c1.2-1.4,1.1-2.7-0.2-2.2c-0.4,0.2-1.2,0-1.8-0.3c-0.8-0.4-1.4-0.2-3,1.5l-2,2l1.2,1.4
	c1.4,1.6,1.3,1.6-2,0.7c-3.3-0.8-4.1,0-2,2c1.3,1.3,1.4,1.6,0.7,2c-1.3,0.8-5.7,0.6-6.1-0.3c-0.2-0.5-1-0.8-1.9-0.8s-2.1-0.4-2.8-1
	c-1.9-1.5-3.2-1.9-4.1-1.2c-1.2,1-1.8-0.1-1.8-3.8c0-6.3,0.3-7.7,2.1-10.5c1-1.5,2-2.8,2.3-3c0.9-0.6,0.4-3.7-0.8-4.4
	c-1.7-0.9-5.6-1.7-8.7-1.6c-2,0-2.8-0.2-3.1-0.7c-0.4-1.2-1.4-1-1.4,0.1c0,1.6-0.8,2.4-2.3,2.6c-1.7,0.2-3.6-1.9-3.6-4
	c0-0.7-0.2-1.4-0.5-1.4s-0.5,0.4-0.5,0.8s-0.3,0.8-0.7,0.8s-1.1,0.4-1.4,0.8c-0.6,0.8-0.7,0.8-1.2,0c-0.3-0.5-1-0.8-1.7-0.8
	s-1.7-0.5-2.2-1c-0.9-1-0.9-1.2,0.2-1.7c1.6-0.8,0.9-2.2-1.5-2.8c-6.2-1.6-11-1.2-12.9,1.3c-0.6,0.8-2.8,1.4-2.8,0.7
	c0-0.1,0.4-1.3,0.8-2.5c0.9-2.6,0.6-4-0.7-4c-1.2,0-5.6,5.3-7.7,9.4c-2.2,4.2-5.8,9.1-6.7,9.1s-0.8-0.5,0.4-2.9
	c0.6-1.2,1.2-3,1.3-4.1c0.3-2.2,1.5-3.6,3.3-3.6c0.7,0,1.5-0.7,2.1-1.9c0.6-1,1.6-2.5,2.2-3.3c0.7-0.8,1.6-2.4,2.1-3.6s1.1-2,1.3-2
	c0.5,0,0.6-0.9,0.8-6.2c0.1-2.3,0.4-5.4,0.8-7c0.4-1.7,0.4-2.9,0.1-3.1c-1-0.6-0.9-1.2,0.7-2.8c0.9-0.9,1.4-1.9,1.3-2
	c-0.2-0.2,0.1-2.1,0.6-4.4c0.7-3.1,1.1-4.1,1.9-4.3c1.4-0.3,2.9-2.3,3-4.1c0-0.8,0.7-2.4,1.6-3.6c1.4-1.9,1.8-2.8,1.5-3.2
	c-0.1-0.1,0.3-0.9,0.7-1.8s1.4-3,2.1-4.7s1.9-4,2.7-5.2c0.8-1.2,1.5-2.5,1.5-2.9s0.5-1.3,1.1-1.8s1.1-1.3,1.1-1.6s0.8-1.7,1.9-2.9
	c1.1-1.3,1.9-2.5,1.9-2.7s1.2-2.1,2.7-4.4c2.8-4.2,3.1-5.9,1.4-7.6c-0.9-0.9-7.2,0.6-8.7,2.1c-0.6,0.6-1.5,1.2-2,1.2
	c-1,0-4.1,2.2-4.1,2.8c0,0.2-2,2.5-4.4,5.2c-4.1,4.5-7,8.8-8.8,13.3c-0.4,1-1,2.3-1.3,2.8c-0.7,1-2.3,4.6-2.4,5.1
	c-0.1,0.9-1,1.3-1.4,0.4c-1.2-2.1,1.4-9.5,6.4-18.1c0.7-1.2,1-2.2,0.7-2.4c-0.9-0.5,0-2.5,1.2-2.8c0.6-0.2,1.8-1.3,2.5-2.4
	c0.7-1.2,1.5-2.2,1.7-2.4c0.2-0.1,1.6-2.1,3.2-4.2c1.6-2.1,3.2-4.3,3.6-4.8c2-2.4,2.8-3.6,2.8-4c0-0.2,0.7-1.3,1.6-2.3
	s1.6-2.1,1.6-2.3c0-0.7,1.1-1.7,2.8-2.5c0.9-0.4,1.7-1.4,2.1-2.8c0.4-1.2,1-2.6,1.4-3.2c0.9-1.5,0.9-2-0.1-2c-0.4,0-0.8-0.1-0.8-0.3
	s0.4-0.7,0.8-1.2c0.5-0.5,0.8-1.9,0.8-3.6c0-1.5,0.3-2.9,0.6-3.1c0.3-0.2,0.4-0.9,0.3-1.7c-0.3-1.5,1.1-2.7,2.5-2.2
	c0.9,0.4,2.2-1.2,1.7-2c-0.4-0.7-4.1-0.2-4.6,0.7c-0.2,0.4-1.2,0.2-3.1-0.6c-1.5-0.6-3.2-1.3-3.7-1.3c-1.4,0-3.8,2.2-2.9,2.6
	c0.9,0.4,0.3,1.4-1,1.4c-0.8,0-0.9,0.3-0.7,0.9c0.2,0.5,0.5,1.2,0.8,1.3c0.2,0.2,0.2,0.6-0.1,1.2c-0.4,0.6-0.8,0.7-2,0.2
	c-1.8-0.6-2.4-2.8-0.9-3.2c0.7-0.2,0.8-0.3,0.1-0.3c-1.6-0.1-2.6-4.6-1.1-4.6c0.2,0,1.7-1,3.2-2.2c2.2-1.8,3.1-2.1,3.8-1.7
	c0.7,0.3,1.4,0.3,2.3-0.1c1.9-0.9,1.9-3.3-0.1-4.4c-0.8-0.4-1.9-1.2-2.4-1.6c-0.5-0.4-1.4-0.6-2-0.5c-1,0.3-1.1,0.1-0.8-1.8
	c0.2-1.2,0.3-2.5,0.4-3.1s0.3-1.5,0.6-1.9c0.2-0.4,0.2-1-0.2-1.6c-0.5-0.6-0.4-0.8,0.8-1.2c2.1-0.5,1.5-2.1-1.3-2.9
	c-2.3-0.7-2.3-0.8-1.1-1.6c0.7-0.4,1.7-0.7,2.2-0.7c1,0,1.4-1.2,0.4-1.2c-0.3,0-0.5-0.2-0.5-0.5s1-0.5,2.1-0.5
	c1.6,0,2.1-0.2,2.1-0.8c0-1.2-1-1.5-4.2-1.6c-3.4-0.1-3.4-1.4,0.1-2.6c4.6-1.6,7-3,7-4.3c0-1.6-5-2.4-6-1c-0.4,0.5-1,0.7-1.5,0.5
	c-1.2-0.5-1,0.6,0.2,1.4c1.1,0.6,1.5,2.2,0.5,2.2c-1.2,0-2.7-1.3-2.4-2c0.2-0.5,0.1-0.7-0.3-0.4c-1,0.6-7.4,0.7-7.4,0.1
	c0-0.3-0.4-0.4-0.8-0.2s-1.1,0.5-1.5,0.6c-0.4,0.2-1.2-0.1-1.7-0.6c-0.8-0.8-1.1-0.8-1.9-0.3c-0.6,0.3-1.8,0.6-2.8,0.6
	c-1.7,0-1.7,0-0.4-0.6c0.9-0.3,1.1-0.7,0.7-0.9c-0.4-0.3-0.5-0.7-0.1-1.3c0.9-1.5,0.6-2.1-1.4-3c-2-1-3.6-3.1-2.3-3.1
	c0.4,0,1.2-0.3,1.8-0.8c1-0.7,1-0.8,0-2c-0.8-0.9-0.9-1.4-0.3-2c0.5-0.6,0.5-0.8,0-0.8c-0.4,0-0.5-0.4-0.3-0.8
	c0.2-0.6-0.1-0.9-1.3-1.2c-2-0.4-3-2-1.9-3c0.9-0.8,4.3,0.2,5,1.5c0.3,0.5,0.8,0.6,1.3,0.4s0.8-0.6,0.6-0.8c-0.2-0.3,0.6-1,1.7-1.7
	c1.7-1,1.9-1.4,1.7-2.9l-0.3-1.8l1.1,1.4c1.2,1.6,2.5,1.3,3.2-0.7c0.3-0.9,0.8-1.3,1.3-1c0.6,0.2,0.8,0,0.9-0.9v-1.4l0.8,1.3
	c0.5,0.7,1.2,1.3,1.6,1.3c1,0,3.6-2.6,3-3c-0.3-0.2-3.3-0.5-6.9-0.7c-4.6-0.3-7-0.7-8.4-1.5c-1.1-0.5-2.3-1-2.7-1s-1.9-0.6-3.4-1.4
	c-2.9-1.5-6.3-1.8-8.7-0.7c-1,0.4-9.4,0.7-27.3,0.8C38.4,49,31,49.4,28.6,50.8c-0.5,0.3-2.1,0.6-3.4,0.8c-3.2,0.4-4.7-0.7-4.3-3.3
	c0.7-4.2,2.9-4.7,16.1-4.1c3.8,0.2,7.7,0.6,8.6,0.9c2.3,0.7,34,0.7,38.1,0c1.8-0.3,5.6-0.7,8.6-0.9c4.6-0.3,5.8-0.1,8.6,0.9
	c7.6,2.8,12.4,3.3,17.7,1.9c1.8-0.5,3.9-0.7,4.8-0.5c1.8,0.3,6.7-0.9,8.7-2.3c0.7-0.4,1.5-0.7,1.9-0.6s1.2,0,1.9-0.2
	c1-0.4,1.2-0.7,0.9-1.9c-0.3-1-0.2-1.4,0.5-1c0.4,0.2,0.8,0.5,0.8,0.8c0,0.7,1.5,0.6,2.2-0.2c0.7-0.8,2.6-0.6,2.6,0.3
	c0,0.3,1.2,0.4,2.6,0.4c1.4-0.1,2.8,0,3.1,0.2s2.1,0.1,4-0.1s4.2-0.2,5.1,0.1c8.5,2.6,18.5,3.5,20.7,1.7s3-1.9,4.2-0.3
	c0.8,1,1.5,1.4,3.1,1.4c3,0,3.6-0.5,3.2-3.2c-0.2-1.3-0.7-3.1-1.2-4.3c-1.3-2.7-0.6-4,2.3-4h2.1l-0.2,5.2c-0.2,4.5-0.1,5.2,0.7,5.2
	c0.5,0,1-0.3,1.2-0.8c0.2-0.4,1-0.9,1.9-1.2c1.4-0.3,1.6-0.5,1.4-2.3c-0.2-2.5,2-6.4,3.6-6.4s2.1,1,2,4.3c-0.1,3.1,0.5,3.8,1.5,1.6
	c0.3-0.7,0.9-1.4,1.3-1.4s1.1-0.7,1.6-1.6c1.6-2.5,3.1-4.1,4.1-4.1c0.8,0,0.9,0.2,0.6,1.3c-0.2,0.7-0.5,2.5-0.7,4l-0.3,2.7l1.6-0.4
	c0.9-0.2,1.9-0.8,2.2-1.3c1.2-1.7,1.4-0.2,0.2,1.7c-1.5,2.6-1.4,2.8,0.7,2.4c1.6-0.3,2.1-0.1,3.3,1c0.8,0.8,2.4,1.8,3.6,2.3
	c2,0.7,2.3,0.7,2.9-0.1c0.4-0.5,0.6-1.9,0.6-3c-0.1-2.3,2.1-6.8,3.8-7.9c1.5-0.8,3.2-0.7,3.2,0.2c0,0.5,0.4,0.7,1.1,0.5
	c0.6-0.2,1.1,0,1.1,0.3c0,0.9-2.3,4-3,4c-1,0-3.3,2.4-3.7,3.8c-0.2,0.7-0.1,1.8,0.3,2.4c0.5,1,0.9,1.2,2.3,0.8
	c0.9-0.2,2-0.4,2.4-0.4s0.6-0.4,0.4-1.2c-0.3-1.3,1.7-3.8,3.1-3.9c0.5,0,1.1-0.1,1.5-0.1s0.6,0.9,0.5,3.1c-0.1,2,0.1,3.2,0.4,3.2
	s0.6,0.3,0.6,0.7c0,0.6,0.8,0.7,3.8,0.5c3.7-0.3,3.8-0.3,3.8,1.2c0,0.9-0.5,1.8-1.4,2.4l-1.4,0.9l1.2,0.8c1.1,0.7,1.5,0.8,3.7,0
	c1.4-0.4,2.8-0.7,3.1-0.6c0.8,0.3,0.9,3.3,0.1,3.8c-0.6,0.4-0.2,5.2,0.6,6.1c0.6,0.6,4.8-0.8,4.8-1.7c0-1.2,2-2,4.2-1.8
	c1.7,0.1,2,0.3,1.9,1.4c-0.1,1.2,0.1,1.3,2.5,1.2c2.1-0.1,3-0.4,4.6-1.9c1.1-1,2.4-1.8,2.9-1.8c1.5,0,3.2,1.9,3.6,3.8
	c0.4,1.8,0.4,1.8,3.3,1.8c1.6,0,3.6-0.3,4.4-0.7c0.8-0.4,2.5-0.9,3.9-1c4.4-0.6,6.3-1.8,7-4.3c0.8-3.1,3.3-5,6.7-5
	c2.8,0,4,0.5,5.9,2.5c1.5,1.6,3.1,1.8,4.1,0.4c0.4-0.5,1.6-1.3,2.6-1.8c1.8-0.8,1.9-0.7,3.4,0.9c1,1.2,1.5,2.4,1.5,3.7
	c0,1.7,0.2,1.9,1.5,2.2c0.8,0.2,2,0.2,2.7,0c1.8-0.5,3.9,0.2,3.5,1.2s1.6,4.1,2.9,4.5c0.5,0.2,1.2,0.8,1.5,1.6
	c0.3,0.6,0.9,1.4,1.3,1.6c2.9,1.4,3,1.5,3,4.3c0,3.3,1.7,6.2,4,6.7c2.6,0.6,3.1,1.7,1.7,3.8l-1.2,1.7l1.1,1.2c1,1,2.2,1.3,9.5,1.7
	c7.2,0.4,8.5,0.4,9.3-0.3c3.3-3,8.9-4.1,15.1-2.9c3.8,0.7,4.7,1,5.6,2.3c0.5,0.8,1.9,1.9,3,2.5s2.7,1.6,3.6,2.1
	c4,2.4,10.1,3.8,20.7,4.6c10.4,0.8,15.9,1.6,19.6,2.5c1.8,0.5,4.2,1,5.4,1.3c1.2,0.2,2.5,0.6,2.9,0.9c0.4,0.2,3.3,0.6,6.4,0.8
	c7.2,0.5,9.7,1.6,9.7,4.3c0,1.7,0.1,1.8,2.4,2.2c1.3,0.2,11.6,0.1,22.9-0.3c11.3-0.4,24.3-0.7,28.9-0.7c9.9-0.1,33.4,0.3,33.9,0.6
	c0.2,0.1,6.6,0.3,14.2,0.5c7.6,0.2,15.2,0.4,16.8,0.5s7.7,0.3,13.6,0.5c9.9,0.3,10.6,0.3,10.5-0.6c-0.2-1.4,2.3-1.8,6.9-1.3
	c2,0.2,9.4,0.7,16.3,1c17,0.8,19.4,1,20.3,2c0.4,0.4,1.5,0.8,2.5,0.8c0.9,0,6.5,0.3,12.4,0.6s11.5,0.5,12.3,0.6
	c1.5,0,8.1,0.6,14.8,1.4c1.6,0.2,5.9,0.4,9.5,0.6c5.8,0.3,6.6,0.2,6.9-0.6c0.4-1.2,1.3-1.2,2.1,0c0.6,0.8,1.8,0.9,9.4,0.8
	c8.4-0.1,8.8-0.1,9.6,1c0.9,1.3,1.3,1.4,14.2,1.2c5.8-0.1,6.5-0.2,7.2-1.3s1.3-1.2,10.5-1c8.8,0.1,10,0,11.9-1
	c4-2.1,17.3-2.5,35.3-1c6.9,0.6,10.5,0.6,11.4,0.3c2.1-0.8,5.2-0.7,7.2,0.3c1.3,0.6,2.5,0.8,4.4,0.6c2.5-0.3,2.8-0.2,4.3,1.4
	s1.8,1.7,6.2,1.6c4.7-0.1,7.4,0.3,8.5,1.4c0.4,0.3,1,0.3,1.5,0s2-0.3,3.4-0.1s5.6,0.7,9.4,1.2c6,0.6,7,0.6,7.8-0.1s1.8-0.7,6.6-0.3
	c3.1,0.3,6.8,0.5,8.3,0.5s4.3,0.5,6.2,1c1.9,0.6,5.4,1.4,7.8,1.6c5.4,0.7,9,1.5,9.9,2c0.4,0.2,1.8,1.5,3.1,2.8
	c2.8,2.7,3.6,3,8.1,3.1c3.6,0.1,4.5,0.7,3.1,2.3c-0.6,0.6-0.7,1.2-0.3,1.4c1.1,0.7,0.5,1.4-1.4,1.6c-1.9,0.2-2.1,0.3-2.7,2.6
	c-0.7,2.2-0.6,2.5,0.3,3.1c0.5,0.4,1.6,0.6,2.4,0.5c1-0.2,1.8,0.2,3.2,1.5c1.3,1.3,1.6,1.9,1.1,2.2c-0.7,0.5-3.3,0.1-4.1-0.5
	c-0.6-0.4-3.3,0.6-2.9,1.2c0.1,0.1-0.1,0.8-0.4,1.5c-0.5,1-0.4,1.3,0.8,1.8c0.8,0.3,4.5,0.7,8.3,0.8s7.1,0.4,7.4,0.6
	c0.9,0.6,0.6,1.4-0.5,1.4c-1.3,0-5.4,1.8-5.4,2.3c0,0.2-1.9,0.3-4.2,0.1c-2.7-0.2-4.4-0.1-4.6,0.3c-0.6,0.9,5.1,2.2,11.8,2.6
	c1.8,0.1,5.4,0.3,8.1,0.5c2.7,0.2,8,0.4,11.8,0.6c6.9,0.3,7,0.4,8.5,2.1c0.8,0.9,1.5,2.2,1.5,2.7c0,1.5,3,3.1,6.1,3.7
	c1.5,0.2,3.1,0.8,3.7,1.5c1.7,1.8,4.7,2.3,21.9,3.8c6.8,0.5,12.5,1.3,12.8,1.5c1.1,1.2,1.1,3.3,0,4.7s-1.3,1.4-7.3,1.3
	c-5.3-0.1-6.1,0-5.6,0.7c0.4,0.4,1.2,0.9,1.9,1.2s1.9,0.9,2.7,1.8l1.4,1.4h-1.8c-1.8,0-1.8,0-1.6,2.2c0.2,2,0.1,2.3-1.2,2.6
	c-0.8,0.2-2.8,0-4.6-0.5c-1.7-0.5-3.8-0.9-4.7-0.9c-1.5,0-2.8,0.8-2.8,1.8c0,0.6,2.5,1.6,5.1,1.9c2.6,0.3,2.8,0.4,3.1,1.9
	c0.3,1,0,1.2-3.6,1.2c-4.7,0-6.4,0.8-3,1.5c1.3,0.2,2.9,0.4,3.6,0.3c0.7-0.1,1.8,0.2,2.5,0.7s1.3,0.8,1.3,0.6c0-0.1,0.8,0,1.7,0.3
	c1,0.3,3.7,0.9,6,1.4c3.6,0.6,4.5,1,5.6,2.4c0.7,0.9,2,1.9,2.8,2.1s1.5,0.5,1.5,0.8c0,0.5-2.8,1.3-5.6,1.4c-1.2,0-2.7,0.4-3.4,0.8
	s-2,0.6-2.9,0.5s-1.7-0.1-1.7,0.1c-0.1,0.4,1.8,3.2,3.3,4.9c1.8,2,1.5,2.4-1.6,2.1c-6.4-0.6-6.9-0.5-8.2,1.2
	c-0.9,1.3-1.6,1.6-2.6,1.4c-0.8-0.2-2,0.1-2.9,0.7c-1.9,1.3-4.5,1.4-7.9,0.1c-2.8-1-3.6-0.7-2.3,0.8c0.5,0.5,0.9,1.4,0.9,1.9
	s2.2,2,5.4,3.6c3,1.6,5.7,3.1,6.1,3.7c1,1.3,0.3,2.2-2.1,2.6c-1.6,0.3-2.7-0.1-5.9-1.7c-4.4-2.3-18.5-6.6-21.3-6.7
	c-1,0-2.9,0.1-4.2,0.3c-1.8,0.2-2.7,0.1-3.8-0.8c-1.7-1.3-5.9-1.6-6-0.4c-0.1,1.4,0.2,2.9,0.6,3.5c1.1,1.2,0.3,1.5-3.1,1.4
	c-3.8-0.1-4.2,0-3.8,0.9c0.4,1,6.3,5.9,7.1,5.9c0.5,0,0.9,0.2,0.9,0.5s1,1.6,2.3,2.8c1.9,1.9,2.1,2.4,1.5,2.8
	c-1.6,1-3.1,1.2-4.7,0.3c-2.1-1.2-2-1.2-2.7,0.8c-0.7,2.1-2.1,2.2-5.7,0.2c-8.1-4.4-7.7-4.3-8.6-3.3c-0.5,0.5-0.6,0.8-0.3,0.8
	c0.5,0,4.4,5.1,4.4,5.8c0,0.8-4,2.1-5.5,1.8c-0.9-0.2-2.7-0.5-3.9-0.5c-1.2-0.1-3.1-0.3-4.2-0.5c-1.2-0.2-2.7-0.1-3.6,0.3
	c-1.3,0.5-1.8,0.5-2.5-0.1c-0.5-0.4-0.9-0.6-1-0.5c-0.2,0.4-6.7-3.5-6.7-4c0-0.4-4.4-2.7-5.3-2.7c-0.3,0-1.7-0.6-3.1-1.4
	c-3.7-2-6.6-1.9-8.8,0.4c-1.2,1.3-2.4,1.9-4.4,2.2c-3.5,0.6-4.5,1.5-3.4,2.7c0.5,0.5,0.8,1.4,0.8,1.9c0,1-1.7,0.9-5-0.4
	c-2.2-0.9-2.4-0.8-1.1,0.5c0.5,0.5,0.7,1,0.6,1.3c-0.5,0.5-6.4-2.3-9.5-4.6c-3.2-2.3-5.1-2.6-4.6-0.8c0.2,0.8,0.1,1-0.4,0.8
	c-0.4-0.2-1.7-0.4-2.8-0.6s-3.3-0.8-4.7-1.6c-2-0.8-4.1-1.3-8-1.4c-2.9-0.1-6-0.4-6.9-0.8c-1-0.4-3.6-0.5-7.5-0.4
	c-3.3,0.1-7.1,0-8.4-0.2c-1.5-0.3-2.6-0.3-3,0.1c-0.8,0.8-3.7,0.7-5.8-0.2c-1.3-0.6-4.6-0.8-11.7-0.9c-9.4-0.2-10-0.1-11.5,1
	c-1.2,0.9-3,1.4-7.2,1.9c-3.1,0.4-6.6,1-7.9,1.5c-1.2,0.4-5,0.9-8.3,1c-3.4,0.2-6.7,0.4-7.4,0.6c-0.7,0.1-3.9,0.5-7.1,0.7
	c-3.2,0.3-6,0.6-6.2,0.7c-2.3,1.5-47.4,1.4-66.1-0.2c-3.4-0.3-8.3-0.6-11-0.8c-6.6-0.5-8.6-0.6-12.6-1.2l-3.5-0.4l1.6,1.3l1.6,1.3
	l-4.2-0.3c-2.6-0.2-4.1-0.1-3.9,0.2c0.2,0.3,0.5,0.4,0.8,0.2s0.5-0.1,0.5,0.2c0,0.3-5.5,0.5-12.5,0.4c-6.9,0-15.9,0.3-20,0.7
	c-9.6,0.9-19.3,1.6-35.4,2.3c-14.7,0.7-15.1,0.7-18.8,2c-2.4,0.8-7.6,0.9-45.9,0.8c-59.3-0.1-70.5-0.4-86.4-2.1
	c-2.8-0.3-7.2-0.7-9.7-0.9s-4.7-0.5-4.9-0.6c-0.6-0.4-13.7-0.4-14.9,0c-0.7,0.2-1.1,0.7-1,1.2c0.4,1-0.8,1.4-3.2,1
	c-1.7-0.2-9.7-0.3-20.8-0.1c-1.2,0-4.8,0-8.1,0c-3.2,0-6.7,0-7.6,0.2c-2,0.3-2.2-0.1-0.8-1.2c0.9-0.6,0.8-0.7-0.5-0.7
	c-0.8,0-1.8-0.4-2.3-0.9s-0.8-0.6-0.8-0.2c0,0.3-0.2,0.5-0.5,0.3s-0.7-0.1-0.8,0.3c-0.6,1-4.2,0.4-4.4-0.7c-0.1-0.5-0.6-1-1-1
	s-0.9-0.3-1-0.7s-1.2-0.8-2.4-0.8c-1.8-0.1-2.1,0-1.8,0.8c0.5,1.5,2.4,3.6,3.2,3.6c0.9,0,2.5,2.6,2.1,3.3c-0.2,0.3-0.7,0.6-1.1,0.6
	c-1.5,0-1.4,1.2,0.2,4.6c0.9,1.9,1.6,3.7,1.6,3.8c0,0.1,0.6,1.5,1.3,2.8c0.8,1.5,1.3,3.3,1.3,4.5c0,1-0.2,1.6-0.3,1.3
	c-0.4-1.2-5.8-4.1-9.5-5.2l-3.5-1l-0.6,1.2c-0.5,0.9-0.4,1.4,0.3,1.9c1,0.7,0.6,1.5-0.4,1c-0.4-0.1-1.2,0.6-1.8,1.7
	c-1,1.8-1.3,2-3.5,2c-1.3,0-2.6,0.2-2.7,0.5c-0.4,0.7-2.9,0.1-4.1-0.9c-2.3-2.1-3.4-0.3-3.2,5.2c0.1,2.7-0.1,3.6-0.7,3.9
	c-0.5,0.2-0.7,0.5-0.6,0.7c0.4,0.6-2.1,0.4-2.6-0.3c-0.6-0.7-6.6-3-7.8-3c-0.4,0,0.3,1,1.6,2.2c2.8,2.6,2.2,2.8-1.6,0.7
	c-2.9-1.6-7.5-2.5-7.5-1.5c0,0.3,0.5,0.9,1.1,1.3c1.6,0.9,1,1.2-1.2,0.5c-1-0.3-3.5-0.6-5.5-0.7c-3.1-0.1-4,0.1-5.6,1.2
	c-1.8,1.3-2,1.3-6.9,0.7c-6.8-0.8-6.8-0.8-6.6,0.6c0.1,0.7,0.7,1.4,1.5,1.6c2.5,0.6,0.1,1.3-3.4,0.8c-3.2-0.3-3.4-0.3-3.7,0.8
	c-0.2,0.6-0.2,1.7,0,2.3c0.2,0.9,0.6,1,2.5,0.7c2.1-0.3,2.4-0.2,3.7,1.5c1,1.2,1.4,2.4,1.4,3.8c0,2,0,2-2,1.7
	c-1.1-0.1-2.6-0.4-3.2-0.7c-1-0.3-1.2-0.2-1.2,1c0,0.8-0.2,2.1-0.5,2.9s-0.6,5.2-0.7,9.9c-0.1,4.8-0.4,8.7-0.8,9
	c-0.9,0.9-2.5,0.3-3-1.4c-0.4-1-0.3-2.3,0.1-4.1c0.4-1.4,0.6-3.6,0.6-4.7c0-2.7-1-8-1.7-8.9c-0.3-0.4-0.3-0.7-0.1-0.7
	c0.3,0,0.1-0.2-0.3-0.5c-0.6-0.4-0.6-0.7,0.2-1.9c0.6-0.8,0.8-2.3,0.7-3.6c-0.2-2-0.3-2.1-1.7-2c-1.1,0.1-1.6-0.1-1.8-0.9
	c-0.2-0.6-0.9-1.4-1.7-1.8c-2.1-0.9-5.3,0.6-6.1,2.8c-0.3,0.9-1,1.7-1.4,1.7c-0.5,0-0.1,0.4,0.7,0.8c1.3,0.7,6.3,5.7,6.3,6.2
	c0,0.7-3.4-0.1-5.6-1.3c-3.1-1.7-5.7-2-4.6-0.5c0.9,1.2-0.7,2.5-3.2,2.5c-1,0-2.2,0.2-2.7,0.5s-1.4,0.2-2.6-0.3
	c-2-0.8-3.5-1-2.5-0.4c0.3,0.2,0.8,1.4,1,2.5c0.2,1.3,0.7,2.1,1.2,2.1c0.4,0,0.8,0.5,0.8,1.2s0.4,1.2,0.8,1.2s0.8,0.4,0.8,0.8
	c0,0.5-0.5,0.8-1.3,0.8c-1,0-1.6,0.6-2.8,2.9c-0.8,1.6-2.3,3.6-3.3,4.2c-1,0.7-2.1,1.9-2.4,2.5C226.8,317.2,226.2,317.4,224.6,316.7
	L224.6,316.7z M219,302.2c0.1-0.8-0.1-1.3-0.7-1.3c-0.5,0-0.8,0.5-0.8,1.5C217.5,304.2,218.7,304,219,302.2L219,302.2z M231.3,294.7
	c-0.3-1-1.5-1.3-1.5-0.2c0,0.5,0.4,0.8,0.8,0.8C231.1,295.3,231.4,295.1,231.3,294.7z M208,280.9c-0.1-0.7,0.1-1.3,0.3-1.3
	c0.6,0,1.1-2.6,0.6-3.5c-0.3-0.5-0.9-0.4-2.3,0.3c-1.6,0.7-1.8,1.2-1.4,1.9c0.3,0.5,0.6,1.7,0.8,2.5
	C206.3,282.9,208.2,282.9,208,280.9L208,280.9z M291.8,274.6c0.3-0.5-0.9-1.2-2.4-1.2c-0.6,0-1,0.4-1,0.8
	C288.3,275.2,291.3,275.5,291.8,274.6z M301.8,271.5c0-0.2-0.7-1.5-1.5-2.8c-1.4-2.3-2.7-3.5-3.2-2.8c-0.5,0.5,0.5,2.1,1.5,2.4
	c0.8,0.2,1,0.6,0.9,1.4c-0.2,0.6,0.1,1.3,0.6,1.6C301.1,271.8,301.8,271.9,301.8,271.5L301.8,271.5z M442.9,240.7
	c0-0.1-0.4-0.3-0.8-0.5s-0.8-0.1-0.8,0.2c0,0.3,0.4,0.5,0.8,0.5C442.6,240.9,442.9,240.8,442.9,240.7L442.9,240.7z M446.8,240.5
	c-0.7-0.1-1.6-0.1-2.1,0s0,0.2,1.2,0.2S447.5,240.6,446.8,240.5z M643.1,240.4c0-0.3-0.4-0.4-0.8-0.2c-0.4,0.2-0.8,0.4-0.8,0.5
	s0.4,0.2,0.8,0.2C642.8,240.9,643.1,240.6,643.1,240.4L643.1,240.4z M439.8,240c-0.7-0.1-1.9-0.1-2.7,0c-0.8,0.1-0.3,0.2,1.2,0.2
	S440.5,240.1,439.8,240L439.8,240z M339.7,238.3c0.4-1.2-3.2-2.1-7-2c-1.3,0.1-1.4,0.2-0.9,1.2C332.6,239,339.3,239.6,339.7,238.3z
	 M840.9,123.3c-0.1-0.2-0.7-0.4-1.3-0.4s-0.9,0.2-0.8,0.5c0.2,0.3,0.8,0.5,1.3,0.4C840.7,123.8,841,123.5,840.9,123.3z M821.7,120.3
	c5.6-1.7,2.4-2.3-3.4-0.6c-1.3,0.3-2.3,0.8-2.3,1C816,121.5,818.5,121.2,821.7,120.3L821.7,120.3z M350.2,117.4
	c0.3-0.3,0.3-0.6,0-0.8c-0.7-0.4-7.6,0.3-7.6,0.8C342.5,118.3,349.2,118.3,350.2,117.4L350.2,117.4z M365.6,116.1
	c0-0.3-1-0.5-2.1-0.5s-2.1,0.2-2.1,0.5s1,0.5,2.1,0.5S365.6,116.4,365.6,116.1z M363.8,113.4c-0.2-0.3-2-1.3-4-2.1
	c-3.1-1.3-3.9-1.4-4.6-0.8c-2,1.7-0.8,2.6,4,3c1.3,0.1,3,0.2,3.7,0.3C363.5,113.8,363.9,113.6,363.8,113.4L363.8,113.4z
	 M344.1,112.8c1,0-4.6-1.8-5.8-1.8c-2.8-0.1-3.8,0.2-3.8,1c0,0.7,0.5,0.8,3.2,0.6c1.8-0.2,3.4-0.1,3.5,0.2c0.2,0.3,0.7,0.4,1.1,0.2
	C342.8,112.9,343.6,112.8,344.1,112.8z M383.3,112.8c0-0.3-0.2-0.7-0.5-0.8s-0.5-0.8-0.5-1.5c0-1.2,2.2-2.1,3.3-1.4
	c0.4,0.2,1.6,0.5,2.8,0.6c1.2,0.1,2.4,0.4,2.8,0.7c1,0.8,21.4,2.6,21.6,1.9c0.1-0.4,1.6-0.5,4.3-0.3c3.8,0.2,4,0.2,3.1-0.6
	c-1.2-1-1.5-2.9-0.5-3.8c0.8-0.7,7.7-0.3,10.1,0.6c0.8,0.3,4.2,0.5,7.6,0.5c5.5,0,6.1-0.1,5.5-0.8c-0.4-0.4-1.1-0.8-1.6-0.8
	s-1.1-0.3-1.3-0.6c-0.2-0.3-1.2-0.5-2.4-0.3c-1.1,0.2-2.5,0-3.3-0.5c-0.7-0.4-2.5-0.7-3.9-0.7s-3.9-0.5-5.6-1
	c-3.9-1.3-17.1-1.7-21.1-0.6c-2.2,0.6-3,0.5-5.2-0.2c-1.4-0.5-3.6-0.8-5-0.7s-3.4-0.3-4.9-0.9c-2.4-1-2.5-1-4.8,0.1
	c-3,1.5-4.6,1.5-8.7,0c-2.8-1-3.6-1-5-0.5c-2.4,0.9-4.1,0.8-6.9-0.4c-2.6-1.2-4.1-2.9-4.1-4.8c0-3-0.5-3.1-13.4-2.4
	c-7.3,0.4-9.2,0.7-7.6,1.4c0.4,0.1,1.3,0.8,2,1.6c1.6,1.7,2.1,1.7,4.9,0c2.9-1.8,3.4-1.2,0.9,1.2c-1.9,1.8-2,1.9-1.1,3.1
	c0.5,0.8,1.6,1.5,2.6,1.7s3.4,1,5.4,2.1c2,0.9,4,1.8,4.4,1.8c1,0,5.4,2.3,8.6,4.5c1.2,0.8,2.6,1.8,3.2,2.1
	C370.4,113.4,383.3,113.6,383.3,112.8L383.3,112.8z M377.7,108.4c-0.8-0.8-0.1-1.3,1.9-1.3c1.2,0,2.1,0.1,2,0.3
	C381.1,108,378.1,108.7,377.7,108.4L377.7,108.4z M333.7,95.4c0.3-0.3,1-0.6,1.6-0.8s-0.1-0.2-1.6-0.2c-1.6,0.1-2.7,0.4-2.9,0.8
	C330.6,96,332.9,96.1,333.7,95.4z M326.1,84c0.7-1.2,0.1-2.7-1-2.7c-0.4,0-1,0.6-1.1,1.4C323.4,85.1,324.9,86.1,326.1,84z M324.9,77
	c0.7-2,0.4-2.1-1.6-0.2c-1.1,0.9-1.6,1.9-1.4,2.2C322.4,79.9,324.2,78.7,324.9,77L324.9,77z M129.2,76.8c-0.2-0.3-0.9-0.5-1.5-0.5
	c-1,0-1,0.1-0.4,0.5C128.4,77.5,129.6,77.5,129.2,76.8z M132.7,64.9c2.7-1.7,3.7-3.6,1.7-3.2c-0.6,0.1-1.5-0.3-2.1-0.8
	c-0.9-0.8-1.6-0.9-3.7-0.6c-2.2,0.3-2.4,0.5-1.4,0.9c1.3,0.5,1.4,0.8,1.2,3.5c-0.1,1.3,0.1,1.6,1.2,1.6
	C130.2,66.1,131.6,65.6,132.7,64.9L132.7,64.9z M170.7,59.6l-0.2-2.7l-5.1-0.6c-5.8-0.7-6.4-0.6-6.1,0.8c0.2,0.7,1,1.2,2.9,1.5
	c1.5,0.2,3,0.8,3.5,1.4c1.9,2,4.2,3.5,4.6,2.9C170.6,62.5,170.8,61.1,170.7,59.6L170.7,59.6z M156.8,56c0-0.7-2.2-2.3-3.3-2.3
	c-0.8,0-0.8,0.2-0.3,1.4c0.4,0.9,1,1.4,2.1,1.4C156.2,56.6,156.8,56.3,156.8,56z M125.4,55.4c-0.2-0.3-0.7-0.5-1.2-0.5
	c-0.8,0-0.8,0.1-0.1,0.5C125.1,56.1,125.8,56.1,125.4,55.4L125.4,55.4z M197.2,308.6c0.1-0.3-0.2-1-0.7-1.6s-1-0.7-1-0.4
	c0,0.3-0.6,0.2-1.3-0.3s-1.3-0.6-1.3-0.3c0,0.3-0.5,0.7-1.2,0.9s-1.4,0.6-1.5,0.9c-0.2,0.3-1.2,0-2.4-0.8c-1.1-0.7-2.5-1.6-3-1.7
	c-0.5-0.2-0.9-0.7-0.9-1.3c0-0.5-0.2-0.8-0.5-0.8s-0.5-0.3-0.5-0.6c0-0.3,0.2-0.4,0.5-0.3c0.4,0.2,0.4-1,0.1-2.7
	c-0.2-1.2,0.1-1.9,1.8-3.8c1.5-1.6,2.3-2,4.7-2.3c3.1-0.4,5.9,0.5,6.2,2c1.1,4.7,1.2,6.8,0.3,7.4c-0.7,0.5-0.6,0.7,0.9,1
	c1.6,0.3,1.7,0.5,1.4,2.2c-0.2,1-0.6,2.1-1,2.4C197.2,308.9,197,308.9,197.2,308.6L197.2,308.6z M156.3,306.3c0-1,1.2-5,2.8-9.6
	c0.7-2,1.3-2.9,1.8-2.7c0.4,0.2,0.9,0,1.1-0.3c0.2-0.4,0.1-0.4-0.3-0.2c-0.5,0.3-0.6,0.2-0.3-0.2c0.4-0.6,2-0.3,1.9,0.4
	c0,0.2-0.5,2.1-1.1,4.3c-0.6,2.2-1,4.5-1.1,5.1c0,1.7-1.6,3.3-3.4,3.8C156.6,307.2,156.3,307,156.3,306.3L156.3,306.3z M157.6,305.5
	c-0.2-0.3-0.4-0.5-0.6-0.5s-0.2,0.2-0.2,0.5s0.3,0.5,0.6,0.5S157.8,305.8,157.6,305.5z M174.9,294.7c0.4-3.2,0.7-4.4,1.2-4.1
	c0.3,0.2,0.5,0.1,0.5-0.2s-0.3-0.6-0.8-0.6s-0.7-0.4-0.4-1.3c0.3-1.2,0.3-1.2,0.7-0.1c0.3,0.8,0.4,0.8,0.5,0.2
	c0.1-0.4,0.3,0.8,0.6,2.8c0.5,3.8,0.2,4.6-1.6,4.9C174.9,296.5,174.8,296.2,174.9,294.7L174.9,294.7z M78.7,287.6
	c-0.4-0.6,0.6-1.4,1.3-0.8c0.6,0.4,0.2,1.4-0.5,1.4C79.3,288.1,78.9,287.8,78.7,287.6L78.7,287.6z M120.9,282.6
	c0-0.3,0.4-0.6,0.8-0.8c1.3-0.5,1.5-0.4,0.8,0.5C121.7,283.1,120.9,283.3,120.9,282.6z M137,280.5c0.4-0.4,0.8-0.8,0.9-0.8
	c0.1,0,0,0.4-0.4,0.8s-0.8,0.8-0.9,0.8S136.6,281,137,280.5z M126,279.6c-0.3-0.5-0.5-1.5-1-4.2c-0.1-0.3-0.3-0.8-0.5-1.3
	c-0.3-0.4-0.1-0.7,0.6-0.7c6.4-0.4,6.8-0.4,5.9,0.1c-0.5,0.3-1.2,0.4-1.5,0.2s-1-0.1-1.6,0.3c-0.8,0.4-1,0.8-0.6,1.4s0.4,0.9,0,1.4
	c-0.4,0.4-0.3,0.5,0.5,0.3c1.3-0.3,1.3-0.2,0.6,1.8C127.9,280.3,126.6,280.7,126,279.6L126,279.6z M729.7,274.3c0.2-0.2,0.6-0.2,1,0
	s0.3,0.3-0.3,0.3C729.8,274.6,729.5,274.4,729.7,274.3L729.7,274.3z M41.2,272.9c-0.2-0.3,0-0.5,0.5-0.5c0.9,0,1.1,0.3,0.3,0.8
	C41.7,273.4,41.3,273.2,41.2,272.9z M343.4,267c-0.2-0.4-0.1-0.8,0.2-0.8c0.3,0,0.5,0.4,0.5,0.8s-0.1,0.8-0.2,0.8
	S343.6,267.5,343.4,267z M133.2,265.7c-1.2-3.1,0.5-6.6,3.4-7.2c1.2-0.2,1.4,0,1.7,1.7c0.2,1.2,0.7,2,1.1,2c1.1,0,1,0.2-1.2,2.7
	C135.8,267.8,134,268,133.2,265.7L133.2,265.7z M41.1,263.8c-0.5-0.7,0.4-1.9,2.9-3.8c2.9-2.1,10.3-6,10.7-5.5
	c0.4,0.4-0.8,2.6-1.5,2.6c-0.3,0-1.7,1.2-3.1,2.5c-1.4,1.4-2.8,2.5-3.1,2.5s-1.1,0.5-1.9,1C43.8,264.3,41.6,264.7,41.1,263.8z
	 M58.7,261.5c0.1-0.3,1-1,2-1.7c1-0.5,2.2-1.4,2.7-1.8c1.2-1,6.3-3.8,7-3.8c1.5,0-0.3,1.7-4.5,4.2c-2.5,1.5-4.7,2.9-4.9,3.2
	C60.5,262.5,58.5,262.4,58.7,261.5L58.7,261.5z M341.5,247.6c0-0.3,0.9-0.4,2-0.3c2.8,0.4,2.9,0.8,0.3,0.8
	C342.5,248.2,341.5,247.9,341.5,247.6z M2.1,247.3c-0.2-0.2-0.4-1-0.4-1.9c0-1.4,0.4-1.7,3.3-2.8c1.8-0.7,3.5-1.8,3.8-2.3
	s1.1-0.9,1.9-0.9c1.7,0,2.6-0.5,6.9-4c3.3-2.6,5.7-3.5,6.4-2.3s-0.5,4.1-2.3,6c-2.3,2.4-5.6,4.3-8.1,4.6c-1,0.1-3.3,1-5.2,2.2
	C5.3,247.5,2.9,248.1,2.1,247.3L2.1,247.3z M647.6,242.8c0.2-0.2,0.6-0.2,1,0s0.3,0.3-0.3,0.3C647.7,243.1,647.4,243,647.6,242.8
	L647.6,242.8z M39.9,240.3c0.2-0.7,4.6-2.6,6.5-2.7c2.9-0.1-1.2,2.5-4.8,3.1C40.1,241,39.7,240.9,39.9,240.3L39.9,240.3z
	 M82.4,235.6c-0.4-1.2-0.2-1.4,2.3-1.8l2.1-0.3l-0.9,1.4C84.9,236.4,82.9,236.8,82.4,235.6L82.4,235.6z M80.1,229.7
	c0-0.5,3.3-2.8,3.9-2.8c0.2,0-0.4,0.7-1.2,1.7C81.3,230.1,80.1,230.6,80.1,229.7z M19.6,206.5c-0.2-0.3-0.2-0.5-0.1-0.6
	c2.9-2.3,5.8-2.8,5.8-0.9C25.3,206.6,20.5,207.9,19.6,206.5L19.6,206.5z M71.5,171.8c0-0.6,0.4-1.4,0.9-1.8c0.5-0.4,1.4-1.9,2-3.2
	c1.5-3.3,6.5-8.5,9.5-9.8c1.3-0.6,3.9-1.8,5.6-2.6c1.8-0.8,4.8-1.7,6.7-1.9s3.8-0.6,4.1-0.9c0.6-0.5,6.5-1.7,9.3-1.8
	c0.9,0,1.5,0.4,2,1.5c1.3,2.9-0.3,4-8.2,5.9c-7.2,1.6-10.3,2.9-12.5,5c-1.1,1-2.2,2-2.5,2s-1.6,1-3,2.2s-3.4,2.6-4.5,3
	s-2.7,1.6-3.6,2.3C75.3,173.3,71.5,173.5,71.5,171.8z M88.3,150.6c-2.4-0.4-2-5.1,0.6-5.2c5.5-0.3,8.9,1.4,5.3,2.8
	c-0.8,0.3-2.2,1-3.1,1.7C90.2,150.2,88.9,150.7,88.3,150.6L88.3,150.6z M94.7,139.8c0.4-0.6,1.1-1.2,1.7-1.2c1,0,1,0,0.1,1.2
	c-0.5,0.6-1.3,1.2-1.7,1.2C94.1,140.8,94.1,140.6,94.7,139.8z M88.1,136.3c0-0.9,2.2-1.5,4.5-1.3c2.6,0.3,3,0.5,1.9,1.3
	C93.5,137.1,88.1,137.1,88.1,136.3L88.1,136.3z M111.8,130.4c-0.4-0.5-0.6-1-0.4-1.2c0.4-0.4,3.6,0.9,3.6,1.6
	C115,131.6,112.6,131.3,111.8,130.4L111.8,130.4z M125.1,130.4c-0.6-0.7-0.5-0.8,0.6-0.7c0.7,0.1,1.4,0.5,1.5,0.9
	C127.5,131.6,126,131.5,125.1,130.4z M98.3,122.6c-1.1-1.5,0.6-4.6,3.1-5.7c2.3-0.9,2.6-1.2,5.5-3.2c1.7-1.3,2.3-1.5,2.8-0.9
	c0.5,0.5,0.3,0.9-0.6,2.1c-1.1,1.3-1.2,1.6-0.7,2.8c0.9,2,0.4,2.6-3,4.4C102,123.7,99.3,123.9,98.3,122.6L98.3,122.6z M42.8,119.6
	c-0.1-0.2,0.3-0.7,1.1-1.2c0.7-0.4,1.3-0.9,1.3-1.2s0.6-0.3,1.2-0.1c0.7,0.1,2.7-0.2,4.4-0.8c1.8-0.6,3.3-1,3.4-0.8
	c0.3,0.3,0.3,0.3-3.2,1.9C47.2,118.9,43.1,120.1,42.8,119.6z M868.4,117.5c-0.6-0.6-0.4-1.4,0.4-1.4c0.4,0,0.8,0.4,0.8,0.8
	C869.7,117.9,869,118.1,868.4,117.5L868.4,117.5z M33.9,115.9c0-0.1,0.2-0.4,0.5-0.6s0.5-0.1,0.5,0.2s-0.2,0.6-0.5,0.6
	S33.9,116,33.9,115.9L33.9,115.9z M24.6,109.5c-1.5-0.4-0.9-2,1-2.5c0.9-0.2,2.4-0.2,3.5,0.1c1,0.3,3.5,0.5,5.4,0.5
	c3.6,0,5.2,0.5,4.6,1.6C38.8,109.7,26.4,110,24.6,109.5z M62.1,103.9c0.8-0.8,2.9-1.4,2.9-0.7c0,0.6-1.3,1.3-2.6,1.3
	C61.9,104.3,61.8,104.2,62.1,103.9z M66.4,102.2c1-1.3,4-1.7,4-0.6c0,0.3-0.2,0.6-0.4,0.6c-0.2,0-0.9,0.1-1.5,0.2s-1.5,0.3-2.1,0.6
	C65.5,103.3,65.5,103.3,66.4,102.2L66.4,102.2z M421.2,95.2c-0.8-0.6-0.9-0.8-0.2-1.3c1-0.6,2.7-0.9,3.6-0.5
	c0.5,0.2,0.6,0.5,0.1,1.5C424,96.1,422.6,96.2,421.2,95.2L421.2,95.2z M111.6,94.3c-0.5-0.1-0.9-0.5-0.9-0.8s0.4-0.3,1.1,0.1
	c0.6,0.3,1.1,0.7,1.1,0.8s-0.1,0.2-0.1,0.2C112.6,94.7,112.1,94.6,111.6,94.3L111.6,94.3z M91.1,89.7c-2.3-0.3-2.7-0.5-2.9-1.7
	c-0.4-3,2.9-3,6-0.1C96.7,90.5,96.8,90.5,91.1,89.7L91.1,89.7z M405.6,89.9c-0.6-0.1-1.6-0.3-2.3-0.5c-0.9-0.2-1.2-0.6-1.2-1.7
	c0-1.7,1.4-2.5,4-2.5c3.8,0,5.4,2.3,2.8,4.2C407.8,90.3,407.5,90.4,405.6,89.9L405.6,89.9z M114.2,88.6c0.2-0.3,0.9-0.5,1.6-0.5
	s1.3,0.2,1.3,0.5s-0.7,0.5-1.6,0.5C114.5,89.1,114,88.9,114.2,88.6z M393.6,77.1c-0.5-0.6-0.3-0.9,1-1.7c1.7-0.9,3.6-1.2,4-0.4
	c0.1,0.2,0,0.9-0.2,1.7c-0.4,0.9-0.9,1.3-2.3,1.3C395,77.9,393.9,77.6,393.6,77.1z M386.8,76.1c-0.6-0.3-1.9-0.8-3-1
	s-3.2-0.9-4.8-1.6c-1.6-0.6-4.2-1.3-5.8-1.4c-1.5-0.2-3-0.4-3.3-0.6c-0.9-0.6-18-0.7-20.6-0.2c-4.3,0.9-7.1-1.3-6.5-5.1
	c0.2-1-0.1-1.3-1.3-1.3c-0.8,0-2.1-0.4-2.7-0.9c-1.1-0.8-1.2-1.3-1-3.5c0.2-1.6,0-3-0.4-4c-0.5-1-0.6-1.8-0.2-2.5
	c0.5-0.9,0.3-1-1.5-0.7c-1.1,0.2-3.2,0.4-4.7,0.5s-4.1,0.4-5.8,0.6c-2.7,0.3-3.2,0.2-3.8-0.6c-0.8-1.3-0.6-2.1,1.1-4.5l1.2-1.8
	l-2.3-0.6c-2.7-0.8-7-0.1-10.2,1.6c-1.4,0.8-2.5,0.9-3.5,0.6c-0.8-0.2-4-0.4-7.2-0.3c-6.1,0.1-6.4,0.3-10.8,4
	c-1.7,1.5-3.9,1.7-6,0.6c-1.1-0.5-1.6-0.5-2.4,0c-0.6,0.4-1.4,0.6-1.8,0.6c-0.7,0-0.7-0.2-0.2-1.4c0.4-0.9,1-1.4,1.9-1.4
	s1.3-0.4,1.6-1.6c0.7-3.2,1.9-3.9,8.8-4.3c2-0.1,3.6-0.5,3.7-0.8s0.5-0.6,0.9-0.6s0.6,0.3,0.4,0.8c-0.5,1.3,1.6,1,3.1-0.3
	c1.2-1,1.2-1.2,0.3-1.7c-1.2-0.7-1.2-2,0.1-2.7c1.3-0.7,5.8-0.7,6.2,0c0.2,0.3,0.7,0.4,1.1,0.2c0.4-0.2,1.8,0.1,3.1,0.5
	c4,1.5,7.3,2.1,9.5,1.8c1.9-0.3,2.2-0.5,2.2-1.9c0-0.8-0.4-1.9-0.9-2.3c-0.8-0.7-0.8-0.7,0-1c0.5-0.2,3-0.1,5.6,0.2
	c3.3,0.4,5.6,0.3,7.8-0.2c2.9-0.6,9-0.5,15.2,0.3c2.1,0.3,2.3,0.2,2.3-1c0-0.7,0.5-1.8,1.1-2.4c0.9-0.8,2.2-1,9.5-1
	c8.6-0.1,10.3-0.4,9.3-1.8c-0.4-0.5-1.8-0.6-5.1-0.5c-4.3,0.2-4.5,0.2-5.6-1.3c-1.5-2-1.4-3.1,0.5-6.8c0.9-1.7,1.6-3.2,1.6-3.5
	c0-0.2-0.7-0.3-1.6-0.2c-0.9,0.1-2,0-2.5-0.3c-0.7-0.4-0.3-0.8,2.2-2.1c2.5-1.3,3.3-1.5,4.1-0.9c1.5,0.9,3.4,0.7,4.5-0.5
	c1.5-1.8,3.9-2.6,8.3-3c2.3-0.2,4.6-0.7,5.3-1.3c0.7-0.5,2.9-1,4.8-1.2c3.4-0.2,4.6,0,7.4,1.8c1,0.6,2,0.6,5.9,0
	c5-0.8,9.5-2,12.3-3.3c2.7-1.3,8.8-2.6,11.4-2.5c1.3,0,3.5,0.1,4.8,0.1s5.1-0.5,8.3-1.2c3.2-0.6,7.2-1.2,8.9-1.3
	c1.6,0,3.9-0.2,5.1-0.5s3.8-0.6,5.9-0.8c5.6-0.5,7.3-0.8,8.5-1.7c2.8-2,9-2.2,11.2-0.5c0.8,0.6,0.9,1.2,0.5,3.1
	c-0.6,3.2-2.4,4-9.3,3.2c-5-0.5-6.4-0.4-18.5,1.4c-3.2,0.4-7.4,1-9.2,1.2c-1.8,0.2-4.4,0.7-5.6,1.3c-1.5,0.5-4.9,0.9-9.3,1.2
	c-4.6,0.2-7.4,0.5-8.1,1c-0.6,0.4-2.2,0.9-3.5,1.2c-3.8,0.5-8.1,1.9-10.6,3.2c-1.3,0.7-3.6,1.5-5.1,1.7s-3,0.7-3.5,1.2
	c-0.8,0.7-3.3,2.2-7,4c-1,0.5-3.8,1-6.2,1.3c-3.3,0.2-4.8,0.6-6.4,1.7c-3,2-3.8,2.9-3,3.5c0.4,0.2,0.5,0.8,0.3,1.4
	c-0.3,0.8-0.1,0.8,1.5,0.6c1-0.2,2.6-0.6,3.6-0.8c1-0.3,3.5-0.6,5.7-0.7c3.1-0.1,4.4-0.5,6.2-1.7c1.2-0.8,2.8-1.5,3.5-1.5
	s1.9-0.2,2.6-0.5c1.8-0.7,3.3,0.1,4.5,2.4c1,2.1,1,2.1,0,2.8c-0.6,0.5-2.3,0.8-4.3,0.8c-1.8,0-4.1,0.3-5.1,0.6c-1,0.3-4,0.6-6.7,0.5
	c-3.8,0-5.2,0.2-6.8,1c-1.1,0.6-2.9,1.3-4,1.5s-2.4,0.5-2.9,0.6c-0.4,0.2-3.1,0.3-5.9,0.4c-5.9,0.1-8.7,0.9-9.9,2.9
	c-0.7,1-1.3,1.4-2.9,1.4c-1.1,0-3.3,0.6-4.8,1.5c-4.1,2.2-7.1,1.2-7.1-2.5c0-1-0.3-1.2-2.5-0.9c-1.4,0.1-3.2,0.4-3.9,0.7
	c-0.7,0.3-2.1,0.7-3,0.9c-0.9,0.2-2.1,0.8-2.6,1.5c-0.9,1-0.9,1.2,0.1,1.9c0.7,0.5,1.9,0.7,3.5,0.6c2.2-0.2,2.5-0.1,2.8,0.9
	s0.5,1.2,4.2,0.7c5.1-0.5,9.8-1.4,12.8-2.4c1.3-0.4,4-1,5.9-1.4s4.6-0.6,5.9-0.8c1.3-0.2,3.3-0.9,4.4-1.7c1.8-1.2,2.7-1.4,8.3-1.5
	c4.8-0.1,7.1-0.4,9.2-1.2c1.6-0.6,3.3-0.9,3.9-0.8c0.6,0.2,1.7-0.2,2.5-0.9c1.4-1.2,2.1-1.3,14.1-1.3c8.8-0.1,14.2-0.4,18-1
	c4.9-0.8,7.5-1.3,14.8-2.3c3.1-0.4,5,1.2,4.7,3.9c-0.3,2.8-1,2.9-10.5,2.2c-6-0.4-9.6-0.5-12.3-0.1c-6.7,1-12.1,1.3-14.3,0.5
	c-1.6-0.5-2.7-0.5-5.2,0.2c-1.7,0.4-3.6,0.7-4.3,0.5c-0.7-0.2-1.9,0.1-3,0.8c-3.9,2.4-19.7,7.5-23.8,7.6c-1.3,0-2.7,0.5-3.3,1
	c-1.3,1.3-4,1.8-5.4,1c-0.8-0.4-1.7-0.4-3.4,0.2c-3.9,1.4-8.6,2-11.5,1.7c-1.5-0.2-3.5-0.2-4.3,0.1l-1.5,0.4l1.3,0.7
	c0.7,0.4,2.2,0.9,3.3,1c2.4,0.4,3,1.2,1.8,2.5c-1.4,1.7-1.1,3.2,0.8,3.7c1.5,0.3,2.3,1.5,1.1,1.5c-1.3,0-0.3,1,2.8,2.6
	c5,2.6,6.3,2.9,16,3.9c4.9,0.4,9.8,1.2,11,1.5s4,0.8,6.4,1c2.3,0.3,4.8,0.9,5.5,1.4C394.6,74.3,390.4,78.3,386.8,76.1L386.8,76.1z
	 M32.8,72.9c0-0.3,0.2-0.5,0.5-0.5s0.5,0.2,0.5,0.5s-0.2,0.5-0.5,0.5C33.1,73.4,32.8,73.2,32.8,72.9z M95.1,71.2
	c0-0.3,0.6-0.5,1.3-0.5s1.3,0.2,1.3,0.4s-0.6,0.5-1.3,0.5S95.1,71.5,95.1,71.2z M390.7,68.3c-0.5-0.3-3.8-0.7-7.2-0.9
	c-6.2-0.3-9.8-1.2-9.8-2.4c0-0.3,0.6-1.3,1.4-2.1c1.3-1.4,1.6-1.5,5-1c6.2,0.6,12.7,1.8,13.6,2.3c1.2,0.7,1.4,2.7,0.5,3.9
	C393.3,69,392.1,69.1,390.7,68.3z M377.2,59.4c-0.2-0.3,0.1-0.7,0.5-0.9c1-0.4,1.6,0,1.1,0.8C378.4,60.1,377.6,60.1,377.2,59.4
	L377.2,59.4z M270.2,55.6c-1.4-1-1.6-2.2-0.4-2.6c1.4-0.5,2.4-0.4,3.2,0.4c1,1,1,1.2-0.1,2.2C272,56.8,271.8,56.8,270.2,55.6
	L270.2,55.6z M78,40.7c-1.5-0.6-1.8-1.4-0.8-2.4c1.8-1.9,5.9-0.5,5.5,1.7C82.5,41.2,80.1,41.6,78,40.7z M95.3,39.5
	c-0.6-0.4-0.8-0.8-0.5-0.8s1,0.3,1.6,0.8c0.6,0.4,0.8,0.8,0.5,0.8C96.6,40.2,95.9,39.9,95.3,39.5L95.3,39.5z M215.1,36.3
	c-0.6-0.9,0.3-2.8,1.4-2.8c1.3,0,1.5,2.5,0.2,3C215.5,37,215.5,37,215.1,36.3z M225.3,31.4c0.2-1.2,0.5-2.5,0.8-3.1
	c0.6-1.2-0.5-5.4-1.3-5.4c-0.3,0-0.1-0.3,0.5-0.8c0.6-0.4,1.3-0.6,1.5-0.4c0.3,0.2,1.7,0.3,3.1,0.2c2.7-0.1,3.4,0.7,1.8,2.2
	c-0.4,0.4-0.8,0.9-0.8,1.2s-0.7,1.2-1.5,2s-1.6,2-1.6,2.6c-0.4,2.2-1.2,3.8-2,3.8C225.2,33.5,225.1,33.1,225.3,31.4L225.3,31.4z
	 M305.8,32.4c-1.1-1.3-0.5-3.6,1.2-4.4c1.6-0.7,3.9-0.8,5-0.1c0.7,0.4,0.7,0.7-0.2,2.5C310.3,33.1,307.3,34.1,305.8,32.4L305.8,32.4
	z M268.4,30.4c-0.5-0.6-0.5-1.3-0.2-2.3c0.6-1.8,2.2-2.3,2.5-0.8C271.3,30,269.7,32.1,268.4,30.4z M329,30.4
	c-0.6-0.6-0.5-2.5,0.3-3.2c1-0.9,5.2-2,6.3-1.6c1.2,0.5,0.5,2.5-1.3,3.8C332.8,30.4,329.6,31,329,30.4L329,30.4z M193.9,27.9
	c0-0.3,0.2-0.5,0.5-0.5s0.5,0.2,0.5,0.5s-0.2,0.5-0.5,0.5C194.1,28.5,193.9,28.2,193.9,27.9z M218.8,26.7c-0.3-0.5,1.2-2.1,2-2.1
	c0.7,0,1.1,1.3,0.5,1.8C220.5,27.2,219.2,27.3,218.8,26.7L218.8,26.7z M68.9,26.4c-0.4-0.1-0.7-0.7-0.7-1.3c0-1,1-1.7,2.6-1.7
	c1.2,0,2.9,2,2.5,2.8C73,26.8,70.2,26.9,68.9,26.4L68.9,26.4z M320.3,26.2c-0.2-0.3,0.3-0.8,1.2-1.2c0.8-0.3,2-1,2.6-1.6
	c0.7-0.7,2.3-1.2,5.1-1.4c5.8-0.5,7.3-0.8,10.2-2.4c2.6-1.4,4.9-1.4,5.7,0c0.5,0.9-1.9,2.6-3.8,2.6c-0.9,0-2.3,0.3-3.2,0.8
	c-0.8,0.4-2.4,0.8-3.5,0.8s-3.9,0.6-6.2,1.5C324,26.8,320.8,27.2,320.3,26.2L320.3,26.2z M213.9,22.1c-2.7-1.6-5-3.2-5-3.7
	s-1-1.2-2.1-1.8c-2.5-1.4-3.8-3.2-2.6-4c1.2-0.7,1.4-0.6,3.8,1.8c1.2,1.3,2.5,2.2,2.9,2.2s0.7,0.2,0.7,0.5s1.5,1.3,3.2,2.3
	c2,1.2,3.5,2.4,4,3.5C220.3,25.9,220.1,25.9,213.9,22.1z M236.6,7.8c-0.2-0.3,0.1-1.3,0.5-2.2c0.6-1.4,0.7-2.1,0.2-3.6
	c-0.3-1-0.9-2.3-1.2-2.7c-0.5-0.7-1.3-2.2-4.4-8.4c-0.8-1.5-0.8-2-0.2-2.6c1.9-2.3,3.8,0.2,3.8,5c0,1.4,0.5,3.1,1.1,4.2
	c1.1,1.9,1.1,1.9,4.3,1.6c2.9-0.3,3.2-0.2,3.2,0.7c0,0.6-0.5,1.4-1.1,1.8s-1.1,1-1.1,1.4c0,0.3-0.2,0.7-0.4,0.7s-1.1,1-2,2.2
	C237.6,8.3,237.1,8.6,236.6,7.8L236.6,7.8z M205.1,6.8c-0.4-0.5-2.3-2.1-4.2-3.5c-1.9-1.5-4.3-3.3-5.3-4.2s-2.6-2-3.7-2.4
	c-1-0.4-2.6-1.6-3.4-2.4c-2.3-2.5-5.5-5.4-7.5-6.8c-1.8-1.4-1.8-1.4-0.8-2.4c1.3-1.4,3-0.7,6.1,2.3c1.3,1.3,2.5,2.3,2.8,2.3
	s0.4,0.2,0.2,0.5s0.7,1.3,1.9,2.1s3.2,2.7,4.4,4.1c1.2,1.4,3.2,2.9,4.5,3.7c2.5,1.4,5.4,4.2,6.1,6C206.8,7.4,206,8,205.1,6.8
	L205.1,6.8z M208,3.8c-6.1-4.9-9.5-9.6-6.8-9.5c0.5,0,2.6,1.7,4.7,3.7c2.1,2,4,3.7,4.3,3.7s1.2,0.6,1.9,1.5c1,1.2,1.2,1.7,0.7,2.3
	C212,6.7,211.5,6.6,208,3.8z M272.9,3.5c0.1-1.2,0.5-2.3,0.8-2.4c1-0.3,0.8,2.9-0.2,3.9C272.8,5.6,272.7,5.4,272.9,3.5z M123-0.1
	c0-0.3-0.5-0.6-1-0.6c-0.6,0-1.3-0.4-1.7-0.8c-0.4-0.5-1.4-0.8-2.3-0.8c-2.6,0.1-2.9,0-2.8-0.9c0-0.5-0.4-1.3-1-1.6s-1-1-0.9-1.6
	c0.1-0.7-0.3-1-1.5-1.4c-1.5-0.3-1.6-0.4-0.8-1.3c0.7-0.8,0.7-1-0.1-1.8c-0.5-0.5-1.5-1.2-2.1-1.5c-1.2-0.6-1.2-0.6-0.1-1.8
	c1.6-1.7,1.3-3-0.7-4.1c-1.5-0.7-1.6-0.9-0.6-0.9c0.9,0,1.3-0.5,1.7-2.1c0.4-1.4,0.4-2.3,0-2.6c-0.9-0.9-0.6-1.6,0.7-1.3
	c1.7,0.4,3.1-0.8,2.7-2.4c-0.3-1-0.1-1.3,1-1.2c0.7,0.1,1.8,0.1,2.4,0c0.9-0.1,0.9-0.2,0.3-0.6c-1.5-1,0.6-1.7,4.2-1.4
	c3.3,0.3,3.4,0.3,3.4-1c0-1.8,0.7-2.3,2.1-1.6c0.7,0.4,1.2,0.4,1.4,0c0.6-0.9,1.7-0.6,2.1,0.7c0.3,1.3,0.4,1.3,1.1,0.2
	c0.8-1,1.6-0.8,1.6,0.4c0,0.3,0.5,0.6,1,0.7c0.6,0.1,1.3,0.4,1.6,0.7s1.5,0.6,2.6,0.6c1.7,0,2.1,0.3,3.1,2c1.4,2.5,2.3,2.8,4.4,1.7
	c0.9-0.5,1.9-0.7,2-0.5c0.2,0.2,0,0.5-0.4,0.6c-1.1,0.4-2.3,1.9-2.1,2.6c0.1,0.3,1,1,2,1.6c1,0.5,1.7,1.2,1.6,1.4s0.3,0.7,1.1,1.2
	c0.7,0.4,1.2,0.7,0.9,0.8c-0.2,0-0.6,0.1-0.9,0.2c-0.3,0.1-0.9,0.2-1.3,0.2c-1.2,0.1-1,1.9,0.3,2.7c0.6,0.4,1,0.9,0.8,1.3
	s-0.1,0.6,0.2,0.8c0.8,0.5,0.7,2.3-0.2,3c-0.4,0.3-1.7,0.7-2.8,0.7c-1.4,0.1-2.1,0.4-2.1,1c0,1.2-0.8,1.7-2.8,1.7
	c-1.3,0-1.9,0.3-2.5,1.6c-0.4,0.8-0.6,1.9-0.5,2.2c0.2,0.5-0.2,0.5-1.4,0.2c-1.5-0.4-1.7-0.3-2.3,0.8c-0.5,1.2-0.7,1.3-1.6,0.6
	c-0.8-0.5-1.1-0.5-1.5,0.1c-0.3,0.4-0.7,0.6-1,0.4c-0.6-0.3-4.5,0.3-6.2,1C123.4,0.3,123,0.2,123-0.1L123-0.1z M300.4-3.5
	c0.6-0.2,1.7-1.2,2.4-2.1c1.9-2.3,4-3.8,8-6c1.7-0.9,6.3-4.3,6.5-4.8c0.2-0.5,5.8-3.3,7.5-3.8c0.8-0.2,1.6-0.1,1.8,0.3
	c0.7,1.2-1.2,3.1-4.4,4.4c-1.7,0.7-3.5,1.6-3.9,1.8c-0.4,0.3-3.1,1.8-5.9,3.2c-2.8,1.6-6.3,3.8-7.7,5c-1.7,1.5-3.1,2.3-4,2.3
	C299.5-3,299.5-3.1,300.4-3.5L300.4-3.5z M261.8-14.4c-0.5-2-0.4-9.3,0.2-9.6c0.9-0.6,3.8-7,3.8-8.6c0-1.7,1.1-3.5,2.1-3.5
	c0.7,0,0.7,1.7,0.1,6.7c-0.3,2.6-1,4.5-2.2,6.6c-1.1,1.9-1.7,3.6-1.7,4.8C264.3-13.9,262.6-11.3,261.8-14.4L261.8-14.4z M196.1-22.7
	c-1.9-0.8-4.4-3.5-4.4-4.5c0-1.3-4.1-7.4-5.4-8.2c-0.8-0.4-1.5-1-1.5-1.3c0-0.2-0.7-0.8-1.6-1.2c-1.5-0.6-4.3-3.9-3.4-4
	c0.2,0-0.3-0.5-1.3-1.2s-2.2-2-2.7-3.1c-0.6-1.4-1.9-2.6-3.9-3.8c-1.6-1-4-2.4-5.2-3.2c-1.2-0.7-3-1.9-4-2.5c-1-0.6-3.2-2.2-4.8-3.5
	c-1.7-1.3-3.7-2.6-4.4-3c-0.7-0.4-1.8-1.3-2.4-2c-0.6-0.7-3.3-2.5-6.1-4c-3.7-2-6.2-3.9-9.4-7.1c-2.4-2.4-5-4.9-5.9-5.7
	c-0.8-0.7-2.3-1.9-3.2-2.7c-0.9-0.8-2.6-2.1-3.7-2.8c-1.8-1.3-8.2-6.8-11.2-9.8c-0.8-0.7-2.1-1.9-3.1-2.6c-0.9-0.7-3.1-2.5-4.9-3.9
	c-1.8-1.5-3.9-3-4.7-3.5s-2.2-1.6-2.9-2.4c-2.7-3-7.7-7.9-9.6-9.2c-1-0.7-2.1-1.6-2.4-1.8c-0.3-0.2-1.6-1.4-3-2.4
	c-2.8-2.2-4.2-4.9-3.3-6.4c1.4-2.4,6.4-2.2,8.7,0.4c0.8,0.8,2.7,2.9,4.2,4.6c1.5,1.7,3.7,3.9,4.8,4.7c1.1,0.8,4.1,3.9,6.6,6.5
	c6.9,7.1,7.6,7.7,9.1,8.2c0.8,0.2,1.9,1,2.5,2s1.7,2,2.4,2.3c3.5,2,10.7,8,14.6,12.1c2.4,2.5,4.6,4.6,4.9,4.6s0.7,0.4,0.8,1
	c0.5,1.6,4.6,5.8,6.2,6.1c2,0.5,3.8,1.6,5.7,3.2c0.9,0.8,2.8,2.3,4.3,3.3s3.4,2.6,4.3,3.7c0.9,0.9,3.2,2.7,5.2,3.9s3.6,2.2,3.6,2.4
	c0,0.2,1.6,1,3.6,1.9c2.4,1,4.8,2.6,7.1,4.8c1.9,1.8,4.4,3.7,5.5,4.2s2.1,1.3,2.3,1.7c0.2,0.4,1.1,1.4,2.2,2
	c1.1,0.6,1.7,1.4,1.5,1.7c-0.2,0.3,0,0.4,0.5,0.2c0.5-0.2,0.8-0.1,0.8,0.3c0,0.3,0.4,0.6,0.8,0.6c0.5,0,0.7,0.2,0.5,0.5
	c-0.3,0.5,3.6,1.8,5.6,1.8c0.6,0,2.1,0.5,3.2,1.2c1.2,0.6,2.6,1.2,3.2,1.2c0.6,0,1.9,0.7,2.8,1.6c1.6,1.5,1.7,2,1.9,5.4
	c0.2,3.8,0.2,3.9-1.7,5.8C203.5-22,199.3-21.2,196.1-22.7L196.1-22.7z M312.2-33.6c-0.5-2.2,0.2-4.2,1.7-4.5
	c0.7-0.2,1.3-0.6,1.3-0.8c0-0.2,0.2-0.4,0.5-0.2c0.3,0.2,0.5,0.6,0.5,0.9s-0.3,0.4-0.6,0.2c-0.3-0.2-0.5,0-0.5,0.4
	c0.1,0.7-0.1,1.5-1.2,4.3C313.4-31.8,312.6-31.9,312.2-33.6L312.2-33.6z M316.4-39.2c-1.5-1-1.1-2.3,0.9-2.7c1-0.2,1.7-0.8,2-1.9
	c0.3-0.8,1.4-2.6,2.6-3.8c1.1-1.3,3.5-4,5.3-6.2c1.8-2.2,3.7-4.4,4.2-5c0.5-0.6,1.1-1.5,1.3-2c0.4-1.2,2.6-2.5,3.4-2
	c0.3,0.2,0.6,0.7,0.6,1.3c0,1.2-3.2,5.2-4.1,5.2c-0.4,0-0.7,0.2-0.7,0.5c0,0.3-1.5,1.8-3.3,3.3c-2.6,2.2-3.5,3.5-4.5,5.9
	c-0.7,1.7-1.1,3.2-1,3.3c0.1,0.1-0.7,0.8-1.8,1.6c-1.1,0.7-2.4,1.8-2.8,2.3C317.7-38.4,317.5-38.4,316.4-39.2L316.4-39.2z M135-50
	c-1.7-2.4-0.6-4.8,1.3-2.8c0.7,0.7,0.9,4.4,0.2,4.4C136.3-48.5,135.6-49.2,135-50L135-50z"/>
</svg>
