<?xml version="1.0" encoding="utf-8"?>
<!-- Generator: Adobe Illustrator 25.2.0, SVG Export Plug-In . SVG Version: 6.00 Build 0)  -->
<svg version="1.1"
	 id="svg2" xmlns:cc="http://creativecommons.org/ns#" xmlns:dc="http://purl.org/dc/elements/1.1/" xmlns:rdf="http://www.w3.org/1999/02/22-rdf-syntax-ns#" xmlns:svg="http://www.w3.org/2000/svg"
	 xmlns="http://www.w3.org/2000/svg" xmlns:xlink="http://www.w3.org/1999/xlink" x="0px" y="0px" viewBox="0 0 1003.8 267.7"
	 style="enable-background:new 0 0 1003.8 267.7;" xml:space="preserve">
<style type="text/css">
	.st0{fill:#F6C60C;}
</style>
<path id="path2987" class="st0" d="M260.7,1.8c0-0.7,0-1.8,0.1-1.8s1.4,0.2,3,0.5s4.5,0.7,6.6,0.9c2.1,0.2,5.3,0.5,7.1,0.8
	c4.3,0.6,14.3,1.4,21.4,1.6c0.9,0.1,2.1,0.7,2.8,1.4c2.2,2.4,12.9,4.4,26.9,5.1c7.6,0.3,21.7,1.6,24.3,2.2c0.8,0.1,6.1,0.4,11.9,0.5
	s13.8,0.4,17.7,0.8c3.9,0.4,7.7,0.7,8.4,0.7c0.6,0,1.2,0.3,1.2,0.5s0.2,0.3,0.5,0.1c0.2-0.1,0.6,0,0.7,0.4c0.2,0.5,0.5,0.4,1.2-0.3
	c1.2-1.2,2.8-1.3,2.3-0.1c-0.1,0.5-0.3,1-0.3,1.1s-0.9,0.2-1.9,0.2c-1.1,0-2.2,0.3-2.6,0.8c-0.4,0.4-0.5,0.8-0.4,0.8
	s1.6,0.2,3.2,0.6s6.9,0.7,11.8,0.8c4.8,0.1,10.6,0.3,12.8,0.5c3.5,0.4,4,0.3,4-0.5s0.3-0.9,1.8-0.6c0.9,0.2,2,0.6,2.4,0.9
	c0.3,0.3,1.7,0.5,3,0.5s4.7,0.2,7.6,0.6c2.8,0.4,5.7,0.7,6.3,0.6c0.6-0.1,1.6-0.1,2.2-0.2s1.9,0.1,3,0.3c1.8,0.4,3.7,0.5,4.8,0.2
	c0.9-0.2,6,0.8,7.1,1.4c0.6,0.3,3.6,0.7,6.7,0.7s6.3,0.2,7,0.4c0.8,0.2,8.5,0.4,17.3,0.6c8.7,0.2,18.3,0.4,21.2,0.5
	c3.5,0.1,5.8-0.1,6.6-0.5c1.3-0.7,6-0.2,6.6,0.7c0.2,0.3,0.9,0.8,1.7,1.2c0.8,0.5,1.1,0.9,0.7,1c-2.7,0.9,2.2,3.5,6.5,3.4
	c5.5-0.1,23.6,0.6,24.5,1c0.5,0.2,2.4,0.2,4.3,0s13.2-0.3,25.2-0.3c28.5,0.1,27.6,0.1,33.7-0.1c2.9-0.1,5.5-0.4,5.9-0.6
	c0.5-0.3,0.6-0.2,0.4,0.4s0,0.7,0.6,0.5c0.5-0.2,0.9-0.6,0.9-0.8s0.5-0.4,1.2-0.4s1.6-0.1,2.1-0.2s0.7,0.2,0.6,0.9
	c-0.1,1,0,1,0.8,0.3c1-0.9,2-1,11.1-1.2c3.4-0.1,6-0.4,5.9-0.6c-0.4-0.6,2.4-1.2,3.5-0.7c1.3,0.6,4.8,0.3,8.1-0.7
	c0.6-0.1,1.9-0.3,2.9-0.4c1,0,2.1-0.4,2.4-0.7c0.3-0.4,1.3-0.5,2.2-0.3c1.1,0.3,1.8,0.1,2.1-0.4c0.4-0.7,0.6-0.7,1,0
	c0.5,0.7,2.8,0.9,13.7,0.9c7.3,0,15.7-0.2,18.7-0.4c3-0.3,11.1-0.6,17.9-0.7s13.9-0.3,15.7-0.5c5.5-0.5,13.5-1,18.8-1.2
	c7.3-0.3,17.4-0.8,19.6-1.1c1.1-0.1,3.8-0.4,6.1-0.6s4.3-0.5,4.5-0.6s3.4-0.5,7.2-0.8c3.7-0.3,9.4-0.9,12.6-1.3s8.9-0.8,12.7-0.8
	c6.8-0.1,17.5-1.3,30-3.4c6.2-1,13.4-1,12.8,0c-0.3,0.5,25.6,0.3,27.2-0.2c0.8-0.2,2,0,3,0.5c1.1,0.5,3.2,0.9,5.3,0.9
	c3.7,0,4.3,0.7,1.3,1.4c-0.9,0.2-1.6,0.6-1.6,0.9c0,0.6,0.4,0.6,3.8-0.1c2.1-0.4,3.1-0.4,4,0.1c1.2,0.6,1.1,0.7-1.5,1.7
	c-1.5,0.6-2.7,1.1-2.8,1.2c0,0.1,3.1,0.2,6.9,0.3c3.9,0,7.2,0.3,7.5,0.6c0.6,0.6-3,1.7-5.5,1.7c-0.9,0-2.6,0.3-3.7,0.8
	c-1.1,0.5-3.5,1-5.2,1.3c-11.6,1.7-18.4,3.1-18.1,3.8c0.2,0.4,0.3,1,0.3,1.4s0.5,0.8,1,0.8c1.7,0.1,9.8-1.1,10.4-1.6
	c0.8-0.6,8.6-2.3,9-1.9c0.1,0.2,0,0.3-0.4,0.3c-0.3,0-0.5,0.3-0.3,0.6c0.2,0.4,1.8,0.4,4.4,0.2c3.4-0.3,4.1-0.2,4.1,0.5
	c0,0.6-1.2,1.2-3.5,1.8c-7.3,2-8.2,2.3-8.8,3c-0.4,0.5-0.4,0.9,0,1.3c0.8,0.8,9.8-0.3,14.2-1.7c3.1-1,12.4-2,12.4-1.3
	c0,0.2-0.4,0.8-0.9,1.3c-0.8,1-0.8,1.1,0.3,2.5c0.6,0.8,1,1.7,0.9,1.9s-1.8,0.6-3.7,0.8c-7,0.8-14.2,3.1-12.6,4.1
	c0.9,0.5,0.2,0.7-5.4,1.7c-2.2,0.3-4.1,0.8-4.3,1.1c-0.4,0.7,6.7,0.6,10.5-0.1c2.9-0.5,3.3-0.5,4.4,0.5c1.9,1.8,3.2,1.9,7.8,0.7
	c5.2-1.3,5.5-1.4,6.5-0.4c0.4,0.4,1.6,0.9,2.8,1.1c1.1,0.2,2.9,0.8,3.9,1.4c1,0.5,1.9,0.9,2.1,0.7c0.1-0.2,0.6-0.2,1.1,0
	c1.4,0.5,0.4,1.9-1.5,2.1l-1.7,0.2l1.7,0.8c0.9,0.5,1.9,1.1,2.1,1.4c0.3,0.4,0.6,0.3,0.9-0.2s0.6-0.6,0.8-0.2
	c0.2,0.3,0.1,0.7-0.2,0.9s-0.2,0.8,0.3,1.6c0.8,1.2,0.7,1.3-1.1,2.2c-1,0.5-2.1,0.9-2.4,0.9c-0.2,0-1,0.6-1.7,1.3l-1.2,1.3l3.9,0.9
	c2.1,0.5,4.7,1,5.8,1c1,0.1,1.8,0.3,1.6,0.6s0.2,0.4,0.8,0.2c0.9-0.2,1.5,0.1,2.6,1.4c0.8,0.9,1.3,1.9,1.1,2.2
	c-0.1,0.3,0.1,0.4,0.5,0.2s0.9,0.1,1.1,0.5c0.5,1.2-4.2,3.1-10.6,4.3c-3.3,0.7-5.4,1.4-5.7,1.9c-0.3,0.4-0.9,0.8-1.3,0.8
	c-0.4,0-0.8,0.2-0.8,0.5c0,0.7,1.3,1.2,3,1.2c0.7,0,1.5,0.3,1.7,0.6c0.2,0.4,1,0.5,2.1,0.2c2.8-0.6,8.3-0.2,9.3,0.7
	c0.7,0.7,2,0.8,6.2,0.6c2.9-0.1,5.2-0.1,5.1,0.1c-0.2,0.2,0.8,0.4,2.1,0.5c1.8,0.1,2.8,0.5,3.8,1.5c0.8,0.7,1.3,1.5,1.1,1.7
	s0,0.2,0.5,0c0.9-0.4,1.9,1.3,1.1,1.9c-0.2,0.2-0.6,0.7-0.7,1.1s-1.8,1.3-3.8,1.9c-3.8,1.2-4.5,2.3-2.2,3.4c1.3,0.7,1.3,0.7,0.2,1.3
	c-0.6,0.3-1.5,0.6-2,0.6s-0.9,0.3-0.9,0.6s-1,0.6-2.3,0.6s-3.4,0.3-4.8,0.6s-3.2,0.7-4,0.9c-3.6,0.8-0.7,1,9.1,0.9
	c5.9-0.1,11.5-0.4,12.6-0.7c2.6-0.7,9-0.5,9.3,0.3c0.1,0.3,0.7,0.5,1.4,0.4c1.7-0.3,5,1.8,4.7,3c-0.1,0.5-0.6,0.9-1.1,0.9
	c-0.5-0.1-0.8,0.1-0.7,0.3c0.3,0.4-5,1.1-8.3,1.1c-1,0-3.4,0.8-5.4,1.9c-2.1,1-4.4,1.9-5.2,1.9s-2,0.4-2.5,0.8
	c-0.9,0.7-0.9,0.8,0.3,1.1c0.7,0.1,2,0.3,2.8,0.3c0.9,0,1.5,0.3,1.5,0.8c0,0.9,1.7,1.6,4.1,1.7c5.7,0.1,7.2,0.3,6.1,0.8
	c-1.1,0.4-1.1,0.4,0,0.5c1,0.1,1,0.1-0.1,0.6c-1.6,0.6-2.4,3.8-1.1,4.5c0.5,0.3,0.9,0.9,0.9,1.4c0,0.7,0.5,0.8,2.1,0.5
	c1.1-0.2,4.3-0.5,7-0.7c4.6-0.3,4.9-0.3,4.6,0.6c-0.2,0.5-0.4,1.1-0.4,1.2s-0.4,0.2-1,0.2c-1.3,0-1.8,0.5-1.1,1.4
	c0.5,0.5,0.4,1-0.2,1.9c-1.2,1.6-0.6,2.6,1.6,3c1,0.2,1.7,0.6,1.6,0.8c-0.1,0.3,0.2,0.4,0.7,0.4s0.9,0.3,0.8,0.7s0.1,0.6,0.4,0.4
	s0.6-0.1,0.8,0.2c0.7,1.2-1.7,1.8-8.9,2.3c-7.8,0.5-15.4,1.5-23.9,3.1c-2.6,0.5-5,1-5.3,1c-1.2,0.2-1.9,0.9-1.8,2s0.4,1.1,10.6,0.9
	c5.8-0.1,11.5-0.5,12.7-0.8s4.1-0.6,6.5-0.6c3.4,0,4.3,0.2,4.3,0.8c0,1.3-1.9,2-5.5,2c-6,0-14.6,2.8-16.7,5.3
	c-1.2,1.5,0.4,1.9,7.3,1.6c5.4-0.2,6.4-0.1,6.7,0.6c0.2,0.4,0.8,0.8,1.3,0.8c0.9,0,0.9,0,0.2-0.5c-0.6-0.4-0.6-0.5,0-0.5
	c1.1,0,2.8,1.6,2.8,2.6c0,0.7-0.7,0.8-3.6,0.6c-2-0.1-3.6-0.1-3.6,0.1s-2.6,0.7-5.7,1.1c-6.3,0.8-8.3,1.4-7,1.9
	c2.2,0.8,6.2,1.6,9.7,1.9c3,0.3,3.6,0.4,2.6,0.8c-0.7,0.2-1.5,0.3-1.6,0.1s-0.6-0.1-0.9,0.2s-2.7,0.7-5.3,0.9s-5.5,0.6-6.6,0.9
	c-1,0.3-2.8,0.5-4,0.5c-1.5,0-2.1,0.2-1.9,0.7s1.7,0.7,5,0.7c2.6,0,4.9,0.2,5.1,0.4c0.3,0.2,2.3,0.4,4.5,0.4c4.5,0,5.4,0.8,1.4,1.4
	c-1.5,0.2-2.9,0.6-3.2,0.8s-2.3,0.6-4.3,0.8c-2.1,0.2-3.9,0.6-4,0.8s0.2,0.9,0.7,1.6c1.1,1.4,2.5,1.6,9.6,0.9
	c3.5-0.3,4.4-0.2,5.2,0.5c0.6,0.5,2.5,0.9,4.5,1.1c5.5,0.5,5.5,1.1,0.2,2c-1.9,0.3-3.8,0.8-4.1,1.1s-2.2,0.7-4.2,0.9
	c-3.3,0.4-6.5,1.4-4.4,1.4c2.2,0-0.8,1.1-5.6,1.9c-5.7,1-8.2,2.1-6.4,2.8c1.5,0.6,1.1,1.3-1,1.7c-1,0.2-1.9,0.6-1.9,0.9
	s0.3,0.4,0.6,0.2c0.8-0.5,5.6,0.3,5.3,0.8s-5.9,1.2-13,1.5c-3.3,0.2-5.7,0.6-6.5,1.1c-0.7,0.5-3.1,1-5.3,1.2s-4.3,0.7-4.6,1
	s-2.3,0.8-4.4,1c-2.1,0.2-4.1,0.7-4.4,1.1c-0.4,0.5-2.8,0.9-7.5,1.1c-3.8,0.2-9,0.6-11.6,0.9s-6.5,0.7-8.6,0.8
	c-2.1,0.1-6.4,0.5-9.4,0.9c-7.6,0.9-9.3,2-2.6,1.6c1-0.1,3.1,0.1,4.7,0.5c5.6,1.3,6.8,2.8,2.3,2.8c-1.3,0-2.5,0.2-2.7,0.5
	c-0.2,0.2-4.7,0.6-10.1,0.8c-13.4,0.5-15.6,0.8-15.6,2c0,0.9-1,1-10.1,1.3c-5.6,0.1-13.4,0.5-17.3,0.8c-3.9,0.3-7.8,0.6-8.5,0.6
	c-1.7,0-1.1,0.7,0.9,1c1.7,0.2,3.7,1.2,3.3,1.6c-0.1,0.2-1.6,0.4-3.2,0.6c-5.9,0.6-3.3,0.8,5.6,0.5c5-0.2,18.1-0.5,29-0.6
	s21.5-0.4,23.5-0.6c2.1-0.2,4.6-0.1,5.7,0.2c1.1,0.3,2.2,0.4,2.3,0.2c0.1-0.2,0.9-0.4,1.8-0.3s2.4,0.2,3.4,0.2s1.7,0.2,1.5,0.5
	c-0.2,0.2-2.9,0.6-6,0.8c-3.1,0.2-7.9,0.6-10.6,0.9c-8,0.8-23.1,1.7-42,2.4c-2.7,0.1-8.9,0.6-13.8,1.1s-11.4,1-14.4,1.1
	c-5,0.2-15.9,0.8-26.8,1.7c-2.3,0.2-4.4,0.5-4.7,0.7s-3.4,0.4-6.9,0.5c-5.1,0.1-6.5,0.3-7,1c-0.4,0.5-1.6,0.9-2.8,1
	c-1.1,0.1-2.6,0.4-3.2,0.6c-0.6,0.3-1.5,0.6-1.9,0.7s-5.2,0.5-10.5,0.8s-11,0.7-12.7,0.8c-5.9,0.4-13.6,0.9-24.7,1.4
	c-6.1,0.3-11.7,0.7-12.4,0.8c-0.6,0.2-5.8,0.6-11.4,0.9c-5.6,0.4-13.6,1-17.9,1.5c-4.3,0.4-8.6,0.8-9.7,0.8s-3.8,0.3-6.1,0.6
	l-4.1,0.6l2.5,0.4c1.3,0.2,5.2,0.4,8.6,0.4c5.2,0,6.2,0.1,6.5,0.9s1.2,0.8,8.5,0.5c4.5-0.2,12.6-0.7,18.1-1.2s12.3-0.9,15.2-1.1
	s6.8-0.5,8.8-0.7s5.7-0.4,8.3-0.4c5.4,0,17.7-1.2,20.1-1.8c0.9-0.3,2.6-0.3,3.9-0.1c2.5,0.4,3.5,0.3,9.1-0.3c6.4-0.7,10.5,0,8.3,1.5
	c-0.6,0.4,0.9,0.4,4.4,0.1c4.8-0.4,10.9-0.5,15.3-0.1c1.1,0.1,1.8,0.5,1.8,0.9c0,0.6,0.2,0.6,1.2,0.1c0.7-0.4,2.3-0.7,3.5-0.8
	c1.3-0.1,3.1-0.3,4.2-0.5c3.2-0.6,14.4-0.8,14.7-0.3c0.1,0.2,0.6,0.1,1.1-0.4c0.5-0.4,1-0.7,1.2-0.6s1.8,0.4,3.6,0.6
	c2.4,0.2,3.4,0.1,3.7-0.4c0.2-0.4,1.3-0.8,2.5-0.9c3.8-0.2,8-0.1,8.5,0.2c0.7,0.5,0.6,1.2-0.2,1.2c-2.3,0.1-11.3,0.8-14.8,1.1
	c-2.2,0.2-4.3,0.4-4.5,0.3c-0.9-0.3-17.8,1.1-18.3,1.4c-0.3,0.2-2.3,0.4-4.4,0.5c-9.1,0.3-20.5,1.3-24.8,2.1
	c-0.6,0.1-2.8,0.4-4.8,0.6s-3.7,0.6-3.7,0.8c0,0.4,13.3,0.3,15.2-0.2c3.4-0.8,7.9-1.1,14.3-1c10.1,0.2,17.5,0.1,17.9-0.1
	c0.2-0.1,2.1-0.4,4.2-0.6c5.3-0.5,6.5-0.7,8.5-1.1c1.2-0.2,1.8-0.1,2,0.5c0.2,0.4,0.6,0.7,1,0.6s2-0.3,3.7-0.5s5.4-0.6,8.3-0.9
	c7.2-0.8,11.1-0.9,16.3-0.5c3,0.3,4.6,0.2,4.9-0.2c0.3-0.4,0.4-0.3,0.2,0.3c-0.3,1.2,0.9,1.3,2.1,0.1c1.1-1.1,1.4-1,1.3,0.3
	c-0.1,0.7-0.5,1.1-1.3,1.1c-0.7,0-1.7,0.2-2.2,0.4c-0.7,0.2-0.9,0.1-0.6-0.3c0.2-0.3,0.1-0.6-0.2-0.6s-0.6,0.3-0.6,0.8
	c0,0.9,0,0.9-7.4,1.1c-2.7,0.1-5.3,0.3-5.7,0.5c-0.4,0.1-2.2,0.4-3.9,0.6s-3.2,0.4-3.4,0.5s-2.3,0.3-4.7,0.5
	c-2.5,0.2-6.3,0.5-8.6,0.7s-5,0.4-6.1,0.5s-3.2,0.3-4.7,0.5c-9.5,1-15.8,1.5-22.4,1.7c-7.4,0.2-12.5,0.6-15.8,1.1
	c-1,0.2-3.7,0.4-6.1,0.6c-2.4,0.1-5.5,0.5-6.8,0.8c-1.4,0.3-9.8,0.7-18.8,0.8c-9,0.1-18.8,0.5-21.9,0.8s-7.3,0.5-9.4,0.5
	c-2.2-0.1-6,0.1-8.6,0.3s-8.8,0.5-13.8,0.6c-10.9,0.2-21.3,0.7-41.1,2c-7.9,0.5-13.8,0.9-29,2.2c-3.7,0.3-12.3,0.8-19,1.1
	s-14.2,0.7-16.7,0.9c-3.1,0.2-4.6,0.1-4.6-0.3c0-0.3,0.5-0.7,1-0.8c0.5-0.2-0.3-0.3-1.8-0.4c-8.7-0.3-14.4-0.3-24.3,0.1
	c-15.3,0.7-14.5,0.7-29.3,0.2c-7.3-0.2-19-0.3-26.1-0.3c-9.8,0.1-13.5-0.1-15.7-0.7c-1.7-0.5-6.9-1-12.6-1.2
	c-12.3-0.4-15-0.3-16,0.6c-0.4,0.5-1.9,0.8-3.3,0.9c-3.1,0.1-16-0.6-17-0.9c-0.4-0.2-4.5-0.3-9.1-0.3s-9.4-0.3-10.6-0.6
	s-3.9-0.7-6-0.8c-2.1-0.1-6.7-0.5-10.2-0.8s-8.7-0.7-11.6-0.8s-7.3-0.5-9.7-0.8c-35.4-4.2-34.6-4.2-35.5-3.1
	c-0.6,0.7-0.4,0.9,1.5,1.2c1.2,0.2,2.6,0.9,3.3,1.7c1.3,1.5,1.5,2.3,0.4,1.4c-1-0.8-1.6-0.2-0.9,1.1c0.5,0.9,0.4,1-0.7,1.1
	c-0.7,0-1.5,0-1.7,0s-0.4,0.2-0.4,0.6s-0.6,1.2-1.3,1.8c-1.3,1.1-2.6,1.2-9,0.1c-0.9-0.2-4.2-0.7-7.2-1.2s-8-1.4-11-2
	c-6.6-1.2-7.9-1.5-14.4-2.4c-12.6-1.8-17.3-2.7-19.6-3.4c-1.4-0.4-3.3-0.8-4.3-0.8s-3.3-0.4-5.2-0.8c-1.8-0.4-5.4-1.1-7.8-1.6
	c-5.3-1.1-16-3.2-24.2-4.8c-4.9-1-6.3-1.1-7.3-0.5s-2.8,0.5-9.3-0.5c-4.4-0.7-8.2-1.1-8.5-0.9s-1.6,0.1-2.9-0.2
	c-4.7-1-13-2.2-18.4-2.5c-3.1-0.2-6.4-0.5-7.5-0.6c-7-0.8-12.9-1-13.2-0.4c-0.2,0.4-1.1,0.4-3-0.2c-1.5-0.4-5.6-1-9.1-1.3
	s-11.1-1-16.9-1.6c-5.7-0.6-12.3-1.3-14.6-1.5c-7.6-0.7-40.2-6.1-42.2-7c-0.6-0.3-1.9-1-3-1.6s-2.6-1.1-3.5-1.1
	c-0.8,0-1.4-0.2-1.2-0.5s0-0.7-0.4-0.8c-1.5-0.5,9.5,0.2,14.2,1c2.7,0.4,6,0.8,7.3,0.8s2.2,0.2,2.1,0.4s1.5,0.5,3.7,0.6
	s9.3,0.8,15.8,1.5s12.2,1.3,12.7,1.3s4.2,0.1,8.3,0.3c7,0.2,7.3,0.2,4.7-0.5c-1.5-0.4-3.5-0.8-4.5-0.8c-0.9,0-3.3-0.4-5.2-0.8
	s-5.6-0.9-8.2-1.1c-3.4-0.3-4.9-0.6-5.4-1.3c-0.4-0.5-0.7-0.6-0.7-0.3c0,0.4-1.3,0.6-3.6,0.6c-2.5,0-3.6-0.2-3.6-0.7
	c0-1.1-1.9-1.3-3.4-0.5c-1.5,0.9-4.1,1-5.7,0.2c-0.9-0.5-0.9-0.5,0.3-0.3l1.4,0.3l-1.4-1c-0.8-0.5-1.2-1.2-1-1.4s0.7-0.1,1.2,0.3
	c0.4,0.4,0.8,0.5,0.8,0.2s0.8-0.5,1.7-0.5c1,0,1.4,0.2,1.1,0.4c-0.5,0.2-0.4,0.5,0.2,0.7c0.4,0.2,1,0.1,1.1-0.1
	c0.4-0.7,17.6-0.1,18,0.6c0.2,0.4,0.7,0.5,1.1,0.2s4.7-0.4,9.7-0.4c4.9,0,9.5-0.1,10.2-0.4c1-0.4,0.8-0.6-1.8-1.4
	c-1.6-0.5-3.7-0.9-4.5-0.9c-0.9,0-1.7-0.3-1.9-0.6c-0.2-0.4-0.5-0.5-0.8-0.3c-0.6,0.4-2.9-0.8-3.5-1.8c-0.2-0.4-0.9-0.7-1.5-0.7
	c-0.7,0-0.9-0.2-0.7-0.8c0.2-0.4,1-0.8,1.9-0.8c2.2,0,1.5-1.4-0.8-1.4c-1,0-2.3-0.2-2.9-0.5c-1.7-0.8-2.4-0.8-2.8-0.2
	c-0.2,0.3-0.5,0.3-0.8-0.2c-0.4-0.6-0.5-0.6-0.5-0.1c0,0.4-0.8,0.7-2.2,0.7c-2.1,0-2.9-0.6-1.5-1.3c0.3-0.1-0.1-0.2-1,0
	c-1.5,0.3-1.6,0.2-0.7-0.5c0.6-0.5,0.7-0.9,0.3-1c-0.5-0.1-0.4-0.6,0.3-1.7c0.6-0.9,1.3-1.4,1.8-1.2s0.6,0.1,0.4-0.3
	c-0.2-0.5,0.3-0.5,1.8-0.2c2.3,0.4,8.5,0.4,13.2,0c1.6-0.1,3.3-0.3,3.9-0.3c0.9,0,1-0.1,0.3-0.5c-1.3-0.7-5.1-1.4-7.3-1.2
	c-1.6,0.1-2.1-0.1-2.1-0.7c0-0.9-1.8-1.6-3.9-1.5c-2.2,0.2-4.1-0.8-4.2-2.1c0-0.8,0.4-1.3,1.3-1.5c1.5-0.4,1.6-0.7,0.8-1.9
	c-0.4-0.7-0.5-0.7-0.5,0.2c0,1,0,1-1,0.1c-1-0.8-1.1-0.9-1.4-0.1c-0.5,1.2-1.5,1.1-1.1-0.1c0.2-0.6,0.1-0.8-0.1-0.6
	c-0.3,0.3-0.8,0-1.1-0.4s-1.3-0.9-2.2-1c-0.9-0.1-1.7-0.5-1.8-0.8s-0.6-0.6-1-0.6s-0.7-0.2-0.7-0.4c0.1-0.2-0.1-0.9-0.3-1.4
	c-0.3-0.8-0.5-0.8-1.2-0.3c-0.6,0.5-1,0.5-1.8,0c-0.5-0.3-1.9-0.5-3.1-0.3c-1.6,0.2-1.9,0.1-1.3-0.3c0.9-0.6,0.1-0.8-1-0.1
	c-0.4,0.3-0.5,0.9-0.3,1.5c0.3,0.7,0.2,0.9-0.4,0.5c-0.7-0.4-0.7-0.3,0,0.5c0.4,0.6,1.1,0.9,1.5,0.7c0.4-0.1,0.7-0.2,0.7,0
	c0,0.8-2.6,1.1-3.7,0.4c-1.2-0.8-2.4-1.1-4.2-1.2c-0.6,0-0.9-0.2-0.7-0.6s0-0.6-0.5-0.6c-1.1,0-2-1.7-2-3.7c0-1.2,0.1-1.3,0.5-0.7
	c0.3,0.6,0.5,0.6,0.5,0.2c0-1,2.3-2.3,4.6-2.6c1.4-0.2,2-0.1,1.9,0.4s0.6,0.7,1.9,0.7c1.2,0,2.1-0.2,2.1-0.6s0.5-0.6,1.1-0.4
	s1,0.5,0.8,0.8c-0.5,0.7,0.2,0.6,1.7-0.4c0.9-0.6,1.4-0.7,1.4-0.3c0,0.3,0.5,0.6,1,0.6c0.8,0,0.8,0.1,0.1,0.6
	c-0.7,0.4-0.6,0.5,0.4,0.2c0.6-0.2,1.2-0.2,1.2,0.1c0,0.2,0.8,0.5,1.7,0.5c1,0.1,1.9,0.3,2.1,0.6s1.3,0.5,2.5,0.5
	c3.3-0.1,11.1,0.6,18.6,1.6c3.8,0.5,9.2,0.8,11.9,0.8s8,0,11.6,0.2s7.7,0.1,9.1-0.1l2.5-0.4l-2.8-0.5c-1.6-0.2-3.3-0.5-3.9-0.5
	c-4.1-0.2-10.2-1.1-11.5-1.8s-3.2-0.8-9.5-0.6c-8,0.2-9.7-0.1-8.4-1.7c0.5-0.5,0.5-0.9,0.1-1.3c-0.3-0.4-0.4-1.4-0.1-2.5
	c0.4-1.8,0.3-1.9-1.6-2.5c-2-0.6-17.3-2.2-21.4-2.2c-1.3,0-2.6,0.3-3.1,0.8c-1.1,1-2,1-3.6-0.1c-0.8-0.5-2.8-1-5-1.1
	c-4.2-0.3-11.4-1.7-13.3-2.7c-1.2-0.6-0.9-0.7,2.5-0.8c5.7-0.1,6.5-0.4,6.2-2.3c-0.2-0.8-0.1-1.4,0.1-1.3c0.2,0.1,1.1-0.2,2-0.7
	c1.8-0.9,5.1-1.1,13.5-0.6c2.9,0.1,5.7,0.1,6.2,0c1.5-0.3,1.2-1.2-0.4-1.2c-1,0-1.4-0.3-1.4-1.1c0-0.6,0.3-1.1,0.8-1.1
	c0.4,0,0.8-0.2,0.8-0.5c0-0.5-1.9-0.8-8.8-1.4c-7.7-0.6-10.2-1.1-10.4-1.8c-0.1-0.4,0.3-0.8,0.9-1c0.7-0.2,1.1-0.5,0.9-0.8
	c-0.1-0.3,0.1-0.5,0.6-0.5s0.9-0.3,0.9-0.6c0-0.7-0.5-0.6-2.2,0.3c-0.7,0.4-2.8,0.8-4.5,0.8c-1.8,0.1-3.3,0.3-3.5,0.6
	c-0.2,0.4-0.7,0.3-1.4-0.1c-0.8-0.5-1.3-0.5-2.4,0.1c-0.8,0.5-1.7,0.6-2.1,0.3c-0.4-0.2-1.2-0.4-1.7-0.3c-0.5,0-1.4-0.2-1.9-0.5
	c-0.8-0.6-0.8-0.6,0.3-0.3c0.8,0.2,1.5,0.1,1.9-0.5c0.6-0.9,3.1-1.3,7.8-1.5c1.8-0.1,2-0.2,1.1-0.6c-0.6-0.2-1.9-0.5-2.8-0.5
	c-1,0-2.2-0.4-2.8-0.8c-1.2-0.8-9.1-2.8-13.2-3.3c-1.5-0.2-3.5-0.7-4.4-1.2c-0.9-0.4-5.1-1.3-9.3-1.9c-8.4-1.2-10.5-1.7-10.1-2.8
	c0.6-1.6-3.6-4.5-8.8-6.2c-3.7-1.3-4.7-1.9-3.7-2.5c0.5-0.3-1-1.3-4.7-3.2c-4-2-5.4-3-5.4-3.8c0-1.6,2.7-2,7.7-1.1
	c4,0.8,12,1.1,10.4,0.5c-1.8-0.7-0.3-1.3,3.4-1.3c2.2,0,4.2-0.3,4.4-0.6c0.2-0.4-0.1-0.6-0.7-0.6c-1.3,0-3.9-1.2-4.2-2
	c-0.1-0.4,0.5-0.9,1.5-1.3c4.5-1.7,4.6-2.5,0.5-3.3c-1.8-0.4-3.7-1.1-4.2-1.7c-0.6-0.6-2.4-1.3-4.9-1.7c-5-0.9-10.6-2.9-10.6-3.8
	c0-0.4,1.1-1,2.5-1.3c1.3-0.3,2.2-0.7,1.9-0.9c-0.4-0.3-3-0.8-14.3-2.8c-1.8-0.3-5.1-0.7-7.2-0.8s-5.9-0.6-8.3-1.1s-5.5-1-6.9-1.1
	C3.6,94.5,0,93.3,0,92.3c0-1.8,2.3-3.1,6.8-3.6c1.9-0.2,3.4-0.5,3.4-0.6s-1-1.1-2.1-2.2l-2.1-2l2.5,0.4c1.4,0.2,3.5,0.6,4.8,0.8
	c3,0.4,4.4-0.3,2.1-1.1c-2.7-1-4.4-2.1-4.6-3.1c-0.2-0.7,0.1-0.8,0.8-0.6c1.1,0.3,5.9,1,14.1,2c4.5,0.5,5.5,0.5,6.3-0.1
	c0.5-0.5,2.2-0.8,4-0.8c5.8,0,3.7-1.1-5.3-2.6c-4.9-0.8-9.5-1.8-10.2-2.2l-1.3-0.7l1.3-0.5c1.3-0.5,15.4,1.6,16,2.4
	c0.7,1.1,9.5,2.2,9.3,1.2c-0.2-0.9,0.9-2.3,1.8-2.3c0.6,0,1.2-0.3,1.4-0.6c0.2-0.4-0.3-0.6-1.1-0.6c-2,0-6.8-2.5-7.5-3.9
	c-0.7-1.3-0.3-2.2,1-2.2c0.5,0,1.6-0.6,2.5-1.3l1.6-1.3L44,66.4c-0.8-0.2-3.8-0.4-6.6-0.4c-6,0-16.5-1.2-18.7-2.1s-1.6-1.9,1.4-2.6
	c3.3-0.7,3.5-1.1,1.5-2c-1.9-0.8-2.2-1.4-0.9-1.4c0.4,0,0.8,0.2,0.8,0.5s0.3,0.2,0.7-0.1c0.4-0.4,0.9-0.5,1.1-0.3s0.4,0.2,0.4-0.2
	s-0.3-0.9-0.8-1.3c-0.4-0.3-0.8-0.9-0.8-1.1c0-0.4,6.3-0.2,7.1,0.3c0.6,0.4,9.2,0.4,11.4,0.1c0.9-0.1,3-0.4,4.8-0.6
	c2.7-0.3,3.1-0.5,2.6-1.1c-0.4-0.5-1.2-0.8-1.9-0.8s-1.9-0.6-2.7-1.3s-2-1.5-2.6-1.7c-1.1-0.4-1.1-0.9,0.2-1.2
	c0.4-0.1,1.2-0.3,1.8-0.4c0.6-0.1,1.3-0.3,1.6-0.3c2.2-0.2-5.5-2.2-8.6-2.2c-1.1,0-3-0.4-4.2-0.8c-1.2-0.4-4-1.1-6.3-1.4
	c-2.2-0.3-4.6-1-5.3-1.4c-0.6-0.4-1.2-0.6-1.2-0.4s-0.5-0.2-1.1-0.9c-0.6-0.7-1.1-1.3-1.1-1.3s1.5,0,3.3,0s5.7-0.1,8.7-0.3l5.4-0.3
	l-2.1-0.9c-1.5-0.7-2-1.2-1.8-1.8c0.1-0.4,0-0.8-0.4-0.8s-0.3-0.2,0.2-0.5c0.7-0.4,0.7-0.5-0.1-0.5c-0.6,0-1-0.3-1-0.6
	s0.4-0.5,0.8-0.3s0.8-0.1,1-0.7c0.2-0.8-0.2-1.1-2.3-1.6c-3.5-0.7-8.4-1.6-13.5-2.2c-3-0.4-5-1-6.6-2c-2.1-1.3-2.2-1.5-1.4-2
	c2-1.1,4-1.3,7.5-0.9c7.7,1,9.8,1.1,14.9,1.3c7.2,0.3,7.3,0.3,7,0.8c-0.4,0.6,9.8,0.4,10.7-0.2c0.4-0.2,0.9-0.1,1.1,0.3
	c0.7,1.1,16.5,1,21-0.1c2-0.5,5.7-1,8.3-1.2c4.9-0.3,7.4-0.9,9.9-2.3l1.5-0.8l-1.4,0.1c-0.7,0.1-3-0.1-5-0.3
	c-3.3-0.4-3.7-0.5-3.6-1.6c0.1-1,0.5-1.2,2.3-1.3c3.2-0.1,5.8-0.7,6.2-1.4c0.2-0.3,0-0.4-0.4-0.1c-0.5,0.3-0.6,0.2-0.4-0.1
	s0.9-0.4,1.7-0.3s2.2,0,3.2-0.4c1-0.3,3.7-0.7,6-0.9s6.2-0.5,8.7-0.7c2.8-0.3,4.6-0.2,4.6,0.1c0,0.3,0.4,0.1,1-0.4
	c1.2-1.1,4.5-1.2,4.5-0.2c0,0.5,0.2,0.5,0.5-0.1s1.4-0.7,4.8-0.4c5.9,0.4,9,1,8.7,1.5c-0.2,0.2,0.2,0.7,0.7,1
	c0.7,0.5,0.4,0.5-1.4,0.4c-1.6-0.2-2.3,0-2.3,0.5c0,0.4-0.5,0.6-1,0.5c-0.6-0.1-2.1-0.4-3.5-0.6c-1.4-0.3-3.2-0.8-4-1.2
	c-1.8-0.9-5.1-1.1-4.6-0.2c0.2,0.3,0.7,0.5,1.1,0.3c0.5-0.2,0.8-0.1,0.8,0.2s-0.3,0.6-0.6,0.7c-0.4,0.2-0.4,0.6,0.1,1.2
	c1.5,2,15.5,3.2,18.5,1.6c1.5-0.8,2-0.8,1.6-0.1c-0.4,0.7,1.5,0,2-0.7c0.2-0.3,1-0.1,2,0.4s2.3,0.8,3,0.8s4,0.1,7.3,0.3
	c4.4,0.3,6.5,0.6,7.5,1.3c0.8,0.5,1.9,1.1,2.5,1.3c0.6,0.1,1.1,0.5,1,0.8s0.3,0.6,0.8,0.6c9.6,0.8,10.8,1,10.3,1.8
	c-0.2,0.3,0.7,0.6,1.8,0.8c1.2,0.1,3.1,0.5,4.3,0.9s3.7,0.7,5.5,0.8c1.9,0.1,3.8,0.2,4.3,0.2c0.5,0.1,1.4,0.6,2,1.2s1.5,1.1,2.1,1
	c1.5-0.2,5.7,0.7,5.7,1.2c0,0.4,4.8,1.4,5.7,1.2c0.2,0,0.4,0.2,0.4,0.5c0,0.4,0.2,0.5,0.5,0.3c0.3-0.1,0.6-0.1,0.8,0.2
	c0.2,0.2,1.5,0.3,3,0.2s3.2,0,3.8,0.3s4.1,0.8,7.7,1.2c3.6,0.4,7.8,0.9,9.1,1.2s9.4,0.6,17.9,0.7s15.8,0.3,16.3,0.5s1.6,0.1,2.5-0.3
	c0.9-0.3,1.7-0.7,1.9-0.7c0.1,0,1.1-0.4,2.2-0.9c1.5-0.6,2.9-0.7,6.6-0.4c7,0.7,35.3,1,35.3,0.5s-2.5-1.3-7.1-2.2
	c-1.7-0.3-3.8-0.8-4.8-1.1c-1-0.3-2.4-0.4-3.1-0.2c-0.8,0.1-2.4-0.1-3.8-0.4s-2.7-0.7-3-0.7c-0.8,0-1.1-2.5-0.3-2.5
	c0.4,0,0.5-0.3,0.3-0.6c-0.2-0.3-0.8-0.6-1.3-0.6s-2.4-0.7-4.2-1.6s-3.8-1.6-4.5-1.6c-0.6,0-1.3-0.2-1.5-0.5s-1.9-0.7-3.8-0.9
	c-1.9-0.2-4.9-0.8-6.6-1.2c-1.7-0.5-3.3-0.8-3.6-0.7c-0.9,0.2-3.8-1.2-4.5-2.3c-0.4-0.6-1.2-1.1-1.8-1.1c-0.6,0-1.1-0.4-1.1-0.8
	c0-0.5-0.8-0.9-2.3-1.2c-1.8-0.3-2.1-0.5-1.2-0.8c0.6-0.2,1.3-0.3,1.6-0.1c0.3,0.2,0.4-0.2,0.2-0.9c-0.2-0.8-0.1-1.2,0.3-1
	c0.4,0.1,0.6,0.4,0.6,0.7c-0.2,1,1.2,1.7,1.9,0.9c0.5-0.6,0.5-0.7-0.2-0.7s-0.8-0.2-0.3-1.1c0.5-0.8,0.5-1.1,0-1.1
	c-0.3,0-0.5-0.4-0.3-0.9s0.1-0.7-0.2-0.5c-0.3,0.2-0.5,0.1-0.5-0.2s0.3-0.7,0.7-0.8c0.6-0.1,0.5-0.4-0.1-1.2c-0.6-0.7-0.7-1-0.1-1.2
	s0.6-0.4,0.1-1s-0.4-0.8,0.3-0.8c0.5,0,1.2-0.9,1.7-2s1.1-1.8,1.4-1.6S260.7,2.6,260.7,1.8L260.7,1.8z M260.7,6.9
	c0-0.5-0.4-1.1-0.8-1.4c-0.6-0.5-0.9-0.4-1.1,0.2c-0.2,0.5,0.2,1.1,0.8,1.4C260.5,7.5,260.7,7.5,260.7,6.9L260.7,6.9z M353.7,15.1
	c-2.3-0.9-16.3-1.5-16.3-0.8c0,0.4,3.3,0.7,13.8,1.3C355.8,15.9,355.9,15.9,353.7,15.1L353.7,15.1z M96.5,21.2
	c-0.4-0.2-0.8-0.1-0.8,0.2s0.3,0.5,0.8,0.5c0.4,0,0.8-0.1,0.8-0.2S96.9,21.4,96.5,21.2z M135.6,23c-0.7,0-1.2,0.3-1,0.6
	c0.2,0.4,0.9,0.6,1.7,0.6c0.7,0,1.2-0.3,1-0.6S136.3,23.1,135.6,23z M109.7,25.7c-1.5-0.3-1.9,0.4-0.5,0.9c1.2,0.4,1.9,0.4,1.9-0.2
	C111.1,26.2,110.4,25.8,109.7,25.7z M423.4,26.5c-1.3-0.3-4-0.7-6-0.9c-4.1-0.2-23.9,0.4-21.3,0.6c9.5,0.8,27,1.5,28.5,1.2
	C425.5,27.2,425.3,27,423.4,26.5L423.4,26.5z M440.1,27.5c-0.8-0.2-2.4-0.3-3.6-0.1c-3,0.4-1.1,0.9,3.6,1c2,0,3.1-0.1,2.5-0.2
	C442,28.1,440.9,27.8,440.1,27.5z M90.3,28.1c-0.7,0-1.6-0.2-2-0.3c-0.5-0.2-0.9,0-0.9,0.3c0,0.9,1.3,1.2,2.8,0.6
	C91.4,28.2,91.4,28.1,90.3,28.1L90.3,28.1z M450.9,28.7c-0.2-0.2-1.4-0.4-2.8-0.5c-1.8-0.1-2.5,0-2.2,0.4c0.2,0.3,1.5,0.6,2.8,0.5
	C450.1,29,451,28.8,450.9,28.7L450.9,28.7z M879.3,35.2c-1.5,0.4-1.4,0.4,1,0.5c1.6,0,2.5-0.2,2.3-0.5
	C882.2,34.6,881.7,34.6,879.3,35.2z M31.7,43.3c0.4-0.2,0.3-0.3-0.4-0.3c-0.6,0-0.9,0.1-0.7,0.3C30.8,43.4,31.3,43.5,31.7,43.3
	L31.7,43.3z M36.3,44c0.6,0.3,1.6,0.5,2.2,0.5c0.9-0.1,0.8-0.1-0.3-0.5C36.3,43.4,34.8,43.4,36.3,44z M45.6,43.8
	c-1.2-0.4-1.8-0.4-2.1,0.1c-0.2,0.4-0.8,0.6-1.5,0.6c-2,0-0.3,1,2.2,1.3c2,0.2,2.3,0.1,2.3-0.7C46.5,44.6,46.1,44,45.6,43.8
	L45.6,43.8z M941.4,53.4c-0.7,0.4-0.7,0.5,0.1,0.5c0.6,0,1-0.2,1-0.5C942.5,52.8,942.4,52.8,941.4,53.4z M59.3,75.9
	c0.4-0.2,0.3-0.3-0.4-0.3c-0.6,0-0.9,0.1-0.7,0.3C58.4,76,58.9,76.1,59.3,75.9L59.3,75.9z M52.2,76.5c-2.8-0.2-3.3,0.4-1.1,1.2
	c2.1,0.8,3.6,0.7,3.6-0.2C54.7,77,53.9,76.7,52.2,76.5z M63.9,76.6c-0.8,0-1.4,0.3-1.4,0.8c0,0.8,1.9,0.6,2.5-0.3
	C65.2,76.8,64.7,76.6,63.9,76.6z M57.5,77.7c0,0.3,1,0.5,2.1,0.5c1.5,0,1.8-0.1,1.2-0.5C59.7,77,57.5,77,57.5,77.7z M980.5,141.7
	c-0.4,0-0.6,0.2-0.6,0.6s0.3,0.6,0.6,0.6c0.4,0,0.6-0.3,0.6-0.6S980.9,141.8,980.5,141.7z M985.1,152.6c0.4-0.1,0.1-0.3-0.7-0.3
	s-1.1,0.1-0.7,0.3S984.7,152.8,985.1,152.6L985.1,152.6z M975.6,159.1c-1.3,0-1.9,0.1-1.2,0.2c0.7,0.1,1.8,0.1,2.5,0
	C977.5,159.1,977,159,975.6,159.1z M951.3,163.7c0-0.2,0-0.4-0.2-0.4c-0.1,0-0.4,0.1-0.7,0.2c-0.3,0.1-2.7,0.6-5.4,0.9
	s-5,0.9-5.2,1.2c-0.2,0.4,0.2,0.4,1,0.2c0.7-0.2,3.4-0.6,5.9-1C949.3,164.4,951.3,163.9,951.3,163.7L951.3,163.7z M143.9,168.8
	c0.2,0.3,1,0.5,1.8,0.5c1.3,0,1.4-0.1,0.4-0.5C144.6,168.2,143.5,168.2,143.9,168.8z M947.5,172.1c0-0.3-0.1-0.5-0.1-0.4
	c-0.1,0.1-2.9,0.4-6.2,0.6s-6.3,0.7-6.6,1c-0.7,0.7,0.5,0.7,7.4-0.1C945,172.9,947.5,172.4,947.5,172.1L947.5,172.1z M114.3,178.2
	c-0.3,0-0.5,0.2-0.5,0.5s0.4,0.5,0.8,0.5s0.7-0.2,0.5-0.5C115,178.4,114.6,178.2,114.3,178.2z M189,179.7c0.4-0.2,0.3-0.3-0.4-0.3
	c-0.6,0-0.9,0.1-0.7,0.3C188.1,179.8,188.6,179.9,189,179.7L189,179.7z M102.2,180.4c-0.7,0.4-0.7,0.5,0.1,0.5c0.6,0,1-0.2,1-0.5
	C103.3,179.7,103.3,179.7,102.2,180.4z M105.5,181.3c0-0.2-0.2-0.4-0.6-0.6s-0.6-0.1-0.6,0.2c0,0.3,0.3,0.6,0.6,0.6
	C105.3,181.5,105.5,181.4,105.5,181.3L105.5,181.3z M137,185.1c-0.8-0.2-2.7-0.4-4.2-0.8c-2.2-0.1-2.9,0-2.9,0.6
	c0,0.5,0.4,0.8,0.9,0.8c1.5,0,5.7,1.8,5.7,2.4c0,0.3,0.4,0.3,0.8-0.1c0.5-0.5,1.3-0.5,2.6-0.2c1,0.3,2.3,0.5,3,0.4
	c0.9,0,1.1,0.2,0.9,0.8c-0.3,0.8-0.2,0.8,0.5,0.2c0.7-0.5,1-0.5,1.2,0.1c0.1,0.4,1.1,0.9,2.1,1.1c4.2,0.8,5.4,1.1,5.4,1.6
	c0,0.2-0.2,0.3-0.4,0.2c-0.2-0.2-0.8-0.1-1.2,0.2c-0.7,0.4-0.6,0.5,0.3,0.5c0.7,0,2.8,0.6,4.7,1.4c2.5,1,4.5,1.3,6.9,1.3
	c3.6,0,6.4-0.6,5.5-1.1c-1.2-0.7-6.3-1.6-8.1-1.5c-4.1,0.3-6.6-0.1-6.6-0.9c0-0.6,0.6-0.8,1.9-0.8c2.6,0,2.4-0.9-0.4-2.1
	c-1.9-0.8-5.7-2-5.7-1.8c0,0.1-0.8-0.2-1.9-0.5s-3.7-0.7-5.8-1C140.1,185.7,137.8,185.3,137,185.1L137,185.1z M159.1,204.6
	c-0.9-0.3-1.1-0.2-0.7,0.2c0.3,0.3,0.9,0.4,1.3,0.3C160.1,205,159.9,204.8,159.1,204.6z M826.6,207.3c0-0.6-2.7-0.5-3,0.1
	c-0.2,0.3,0.3,0.5,1.3,0.4C825.8,207.8,826.6,207.5,826.6,207.3L826.6,207.3z M161.3,210.8c-0.8,0-1.9-0.2-2.7-0.4
	c-0.6-0.2-1.2-0.1-1.2,0.2c0,0.8,2.5,1.3,4,0.7l1.3-0.5L161.3,210.8L161.3,210.8z M821.3,210.2c-0.4,0-0.8,0.2-0.8,0.5
	s0.3,0.5,0.8,0.5c0.4,0,0.8-0.2,0.8-0.5S821.8,210.2,821.3,210.2z M824.5,210.6c0.4-0.2,0.3-0.3-0.4-0.3c-0.6,0-0.9,0.1-0.7,0.3
	C823.6,210.7,824.1,210.8,824.5,210.6L824.5,210.6z M170.8,211.7c0.4-0.2,0.3-0.3-0.4-0.3c-0.6,0-0.9,0.1-0.7,0.3
	C169.9,211.8,170.4,211.9,170.8,211.7L170.8,211.7z M108.2,211.8c-0.4,0-0.6,0.3-0.6,0.6c0,0.4,0.3,0.6,0.6,0.6
	c0.4,0,0.6-0.3,0.6-0.6S108.6,211.9,108.2,211.8z M122.4,213c-0.7-0.6-0.8-0.6-0.5,0.2c0.3,0.8,1.3,1.3,1.3,0.7
	C123.2,213.8,122.8,213.4,122.4,213z M128.2,213c-0.3,0-0.4,0.3-0.2,0.8c0.1,0.4,0.4,0.8,0.5,0.8s0.2-0.3,0.2-0.8
	C128.7,213.4,128.5,213,128.2,213z M851.5,232.7c0.4-0.2,0.3-0.3-0.4-0.3c-0.6,0-0.9,0.1-0.7,0.3
	C850.6,232.8,851.1,232.9,851.5,232.7L851.5,232.7z M343.2,243.9c-0.5-0.9-1.4-0.6-1,0.3c0.2,0.4,0.5,0.7,0.8,0.5
	C343.3,244.6,343.4,244.2,343.2,243.9L343.2,243.9z M81.1,6.9c0.4-0.4,2.4-0.7,5.3-0.8c3.9-0.1,5.1,0.1,5.9,0.8
	c0.7,0.7,0.9,0.7,0.8,0.2c-0.1-0.4,0.1-0.9,0.5-1c0.9-0.3,0.3,1.8-0.8,2.7c-0.7,0.5-0.9,0.5-1.1,0c-0.4-1.1-4.6-0.8-5.5,0.3
	c-0.7,0.9-0.7,0.9-0.5,0.1c0.3-0.8-0.9-1.6-2.5-1.6c-0.8,0-0.1,1.4,1,1.7c0.7,0.2,0.4,0.4-1.1,0.4c-2.9,0.1-4.2-0.7-2.7-1.5
	C81,7.9,81.3,7.6,81,7.6C80.7,7.6,80.8,7.3,81.1,6.9L81.1,6.9z M74.8,7.9c0.5,0.3-0.1,1.9-0.7,1.9c-0.9,0-1.2-1.2-0.5-1.7
	C74,7.9,74.5,7.8,74.8,7.9z M88.7,12.6c0.9,1.1,0.7,1.6-0.8,1.4c-0.5-0.1-1.4-0.2-2.1-0.2c-1.1-0.1-1.2-0.2-0.6-1.2
	C86.1,11.2,87.4,11.2,88.7,12.6z M420.3,16.5c0.4,0,0.6,0.3,0.6,0.6s-0.2,0.4-0.6,0.2c-0.4-0.2-0.6-0.5-0.6-0.6
	C419.7,16.6,419.9,16.5,420.3,16.5z M426.4,16.8c0.6,0.2,0.9,0.5,0.7,0.7c-0.2,0.1-0.6,0-1-0.4C425.6,16.5,425.7,16.5,426.4,16.8z
	 M129.8,18.6c0-0.6,1.2-0.6,2.2,0c0.7,0.4,0.7,0.7,0.2,1.2c-0.5,0.6-0.8,0.5-1.5,0C130.2,19.4,129.8,18.9,129.8,18.6L129.8,18.6z
	 M754.2,23c0.6,0,1,0.2,0.8,0.6s-0.7,0.6-1.1,0.6c-0.4,0-0.8-0.3-0.8-0.6C753.1,23.3,753.6,23.1,754.2,23z M743.7,24.2
	c0-0.3,0.5-0.5,1.1-0.4c0.6,0,0.9,0.3,0.8,0.5C745.2,24.9,743.7,24.8,743.7,24.2L743.7,24.2z M199.7,24.6c0.3,0.1-0.3,0.5-1.3,1
	c-1.9,1-2.7,0.8-2.2-0.5C196.5,24.4,197.3,24.3,199.7,24.6z M674.2,25.8c0.3,0,0.4,0.2,0.2,0.6s-0.5,0.6-0.6,0.6s-0.2-0.3-0.2-0.6
	S673.9,25.8,674.2,25.8z M665.7,26.9c0.3-0.6,0.4-0.6,0.7,0c0.2,0.8-0.3,1.5-0.8,1C665.4,27.7,665.5,27.3,665.7,26.9L665.7,26.9z
	 M669.2,26.8c0,0.3-0.5,0.6-1.1,0.8c-1.2,0.3-1.5-0.4-0.4-0.9C668.8,26.3,669.2,26.3,669.2,26.8z M932.4,29.5
	c0.6-0.6,1.3-0.4,1.3,0.5c0,0.4-0.3,0.8-0.8,0.8C932,30.8,931.8,30.1,932.4,29.5L932.4,29.5z M248.8,33c0.1,0.2-0.2,0.4-0.8,0.4
	s-0.9-0.3-0.8-0.5C247.6,32.3,248.4,32.3,248.8,33z M255.2,33.2c1.9,0.1,3.5,0.3,3.7,0.5c0.2,0.2,0,0.4-0.4,0.4
	c-0.7,0-0.7,0.1,0,0.6c0.6,0.4,0.1,0.5-1.7,0.3c-1.4-0.1-2.9-0.3-3.4-0.3c-0.5-0.1-1-0.4-1.2-0.9C251.9,33.2,252.4,33.1,255.2,33.2z
	 M27.7,34.7c0.8,0,1.2,1,0.6,1.4c-0.8,0.4-1.8-0.2-1.4-0.9C27.1,34.9,27.4,34.7,27.7,34.7z M32.8,49.9c0.2,0.5,0.1,0.7-0.2,0.5
	s-0.5-0.6-0.5-0.9C32.1,48.7,32.5,48.9,32.8,49.9z M36.9,49.5c0.1,0.3,0.1,0.6-0.2,0.8s-0.5-0.1-0.5-0.5
	C36.2,48.9,36.3,48.8,36.9,49.5z M999.7,121.4c0.3,0,0.2,0.2-0.3,0.5s-1.1,0.5-1.4,0.5c-0.3,0-0.2-0.2,0.3-0.5
	C998.7,121.6,999.4,121.4,999.7,121.4z M92.3,162.4c0.6-0.1,1.1,0.1,1.1,0.4s-0.5,0.5-1.1,0.5s-1.1-0.2-1.1-0.4
	C91.2,162.6,91.7,162.4,92.3,162.4z M114.3,171c1.3-1.1,2.8-1.4,2.8-0.6c0,0.2,1.3,0.5,2.9,0.5s3.6,0.4,4.5,0.9
	c1,0.5,2.3,0.7,3.3,0.5c1-0.2,1.6-0.2,1.4,0c-0.5,0.6-3.8,1.4-3.8,1c0-0.2-1.3-0.4-2.9-0.4s-4.4-0.3-6.2-0.5L113,172L114.3,171
	L114.3,171z M107.3,170.8c-0.1-0.2,0.2-0.3,0.8-0.3s0.7,0.1,0.3,0.3C108,171,107.5,171,107.3,170.8L107.3,170.8z M97.6,178
	c0.2,0.4,0.2,0.9,0,1.1s-0.3-0.1-0.3-0.7S97.5,177.7,97.6,178z M112.4,183.1c-0.2-0.3,0-0.6,0.5-0.6s0.9,0.3,0.9,0.6
	c0,0.3,0.5,0.6,1,0.6c0.8,0,0.8,0,0.1,0.5c-0.7,0.4-0.6,0.5,0.3,0.6c0.6,0.1,1.9,0.1,2.9,0c1,0,1.8,0.2,1.8,0.5s-0.4,0.5-1,0.4
	s-1.4,0-1.8,0.3c-0.6,0.4-0.6,0.5,0.2,0.5c0.6,0,1,0.4,1,1.1c0,1.5-0.4,1.4-4.4-0.5c-3.4-1.6-3.4-1.6-2.3-2.6
	C112.2,184,112.6,183.3,112.4,183.1L112.4,183.1z M120.5,187.7c0.6,1-0.1,1.6-1,0.9c-0.6-0.5-0.7-0.8-0.1-1.1
	C119.8,187.3,120.3,187.4,120.5,187.7z M101.5,210.2c0.5,0,0.7,0.3,0.5,0.6c-0.2,0.4-0.7,0.6-1.2,0.6s-0.7-0.3-0.5-0.6
	S101,210.2,101.5,210.2z M111.6,213.3c-0.6-0.8-0.5-0.8,0.2-0.5c0.5,0.2,0.9,0.5,0.9,0.8C112.7,214.4,112.4,214.3,111.6,213.3
	L111.6,213.3z M897,222.4c0.3,0,0.2,0.2-0.2,0.5c-0.7,0.5-4.3-0.1-4.9-0.7C891.6,221.9,894,222,897,222.4z M888.5,222.8
	c0.9-0.5,2.6-0.6,2.7,0c0,0.3-0.8,0.5-1.7,0.5C888.4,223.3,888,223.1,888.5,222.8L888.5,222.8z M874.3,223.5
	c1.2-0.2,2.3-0.5,2.6-0.4c0.4-0.1,3,1.5,2.6,1.6c-1,0.2-1.6,0.4-1.7,0.5c-0.1,0.1-1.4,0.2-2.9,0.3c-1.6,0.1-2.8,0.2-2.8,0.2
	s-2.1,0.1-4.7,0.2c-2.6,0.1-5,0.4-5.4,0.6s-0.7,0.1-0.7-0.2c0-0.4-0.4-0.4-1-0.1c-0.6,0.2-2.5,0.4-4.4,0.4c-1.8-0.1-3.2,0.1-3.1,0.3
	s-1.1,0.5-2.7,0.5s-3.4,0.1-4,0.1s-1.5-0.2-1.9-0.5c-0.6-0.4-0.7-0.4-0.4,0.1c0.2,0.4,0.1,0.7-0.2,0.7s-0.6-0.3-0.6-0.6
	c0-0.4-0.8-0.6-1.7-0.6s-1.5,0.3-1.3,0.6c0.2,0.4,0.2,0.6,0,0.6c-0.4,0-3.6-1.6-3.6-1.8c0-0.1,2.3-0.1,5,0c3,0.1,5.5-0.1,6.2-0.5
	c0.7-0.3,4.2-0.7,7.9-0.8C866.2,224.4,871.9,224,874.3,223.5L874.3,223.5z M850.6,225.8c-0.8,0-1.3,0.2-1.1,0.5s0.8,0.5,1.4,0.5
	s1.1-0.2,1.1-0.5S851.3,225.8,850.6,225.8z M881.5,227.9c0.2-0.3,0.4-0.7,0.6-0.7s0,0.5-0.4,1.1c-0.7,1.1-1.6,1.1-1.6,0
	c0-0.3,0.2-0.4,0.5-0.2C880.9,228.3,881.3,228.2,881.5,227.9L881.5,227.9z M869.7,230.1c0.5-0.6,1.4-1.1,2-1c0.8,0,1.6,1.9,1.1,2.8
	c-0.4,0.7-3.2,0.8-3.8,0.2c-0.7-0.7-2.2-0.7-3.1,0c-0.8,0.7-4.7,0.8-5.3,0.2c-0.8-0.8,2.3-2,4.9-1.8c1.4,0.1,2.8,0.3,2.9,0.4
	S869.1,230.7,869.7,230.1L869.7,230.1z M875.4,229.6c0.5-0.9,2.3-0.7,2.3,0.2c0,1-0.7,1.1-1.2,0.3c-0.1-0.3-0.6-0.4-0.9-0.2
	C875.2,230.1,875.2,230,875.4,229.6L875.4,229.6z M229.9,233.7c-0.2-0.1,0.1-0.3,0.8-0.3c0.6,0,0.7,0.1,0.3,0.3
	S230.1,233.9,229.9,233.7L229.9,233.7z M341.9,248.8c0.3,0,0.4,0.3,0.2,0.6c-0.2,0.4-0.5,0.6-0.6,0.6s-0.2-0.3-0.2-0.6
	S341.6,248.8,341.9,248.8z M354.1,249.4c0.7-0.5,6,0.5,7.5,1.6c0.9,0.5,1.6,0.6,1.8,0.3c0.1-0.3,0.7-0.4,1.1-0.2
	c0.4,0.2,0.7,0.5,0.5,0.8c-0.1,0.3,0,0.7,0.3,0.8c0.3,0.1,0.8-0.2,1.1-0.7c0.6-1,3.4-1.6,3.4-0.7c0,0.3,1.1,0.5,2.3,0.4
	c1.4-0.1,2.3,0.1,2.5,0.6s0.4,0.6,1,0.1c0.8-0.7,2.1-0.2,1.6,0.6c-0.1,0.3,0,0.5,0.3,0.5s0.6-0.3,0.6-0.6c0-1.1,10.3,0.1,11.1,1.2
	c0.4,0.6,6.1,1.5,5.7,0.9c-0.1-0.3,0.1-0.5,0.6-0.5s0.9,0.2,0.9,0.4s0.6,0.4,1.4,0.4s1.4-0.3,1.4-0.5s0.5-0.2,1.2,0s2.8,0.4,4.8,0.5
	c5,0.2,5.1,0.2,4.7,0.8c-0.2,0.4,0.4,0.4,1.9,0.2c1.6-0.2,2.6-0.1,3.2,0.4c0.5,0.5,0.8,0.5,0.6,0.2c-0.2-0.4,1.4-0.6,5-0.7
	c2.9-0.1,5.6-0.4,6-0.7c0.4-0.4,1.3-0.5,2.2-0.2c0.8,0.2,2.6,0.4,3.9,0.5s2.5,0.3,2.6,0.4c0.1,0.2,1.7,0.1,3.4-0.2
	c1.7-0.2,4.8-0.4,6.9-0.3c2,0.1,3.7,0.1,3.7-0.1c0-0.3,7.3,0,7.7,0.4c0.8,0.7-1.6,1.5-5.3,1.5c-2.3,0-4.3,0.3-4.4,0.6
	c-0.1,0.3,0.9,0.5,2.6,0.5c2.2-0.1,3,0.2,4.1,1.3c0.8,0.8,1.4,1.6,1.4,1.8c0,0.2-1,0.6-2.3,0.8c-1.3,0.2-2.7,0.5-3.2,0.7
	c-1,0.3-8.5,0.3-13.2-0.1c-1.9-0.1-5.9-0.4-8.8-0.6c-7.4-0.4-13.1-0.8-16-1.1c-1.4-0.1-4.6-0.3-7.2-0.5c-5.5-0.4-17.6-1.7-22.4-2.5
	c-1.8-0.3-4.2-0.6-5.2-0.6c-1.1-0.1-2.4-0.3-3-0.6c-1.1-0.5-1.1-0.5,0-0.3c1.5,0.2,1.6-1.1,0.2-1.5c-0.6-0.2-1.1,0.1-1.3,0.8
	c-0.2,0.5-0.7,1-1.1,1s-1.2,0.2-1.7,0.4c-0.7,0.3-0.9,0.2-0.5-0.4c0.4-0.7,0.3-0.7-0.4-0.1c-0.9,0.7-2.6,0.4-3.4-0.7
	c-0.3-0.4-0.5-0.4-0.7,0.1c-0.2,0.4-0.8,0.7-1.4,0.7s-1-0.2-0.8-0.5c0.4-0.6-0.7-1.5-2.7-2c-0.9-0.3-1.9-0.5-2.1-0.6
	s-0.8-0.2-1.4-0.2s-1-0.4-1.1-0.9s-0.1-1.2-0.2-1.7s-0.5-0.8-1.1-0.6C353.4,251,353.2,250.1,354.1,249.4L354.1,249.4z M346.8,251.3
	c0.3,0.2,0.4,0.6,0.2,0.9c-0.5,0.8-0.8,0.7-0.8-0.3C346.2,251.4,346.5,251.2,346.8,251.3z M348.3,252.8c-0.4-0.4-0.2-0.5,0.7-0.3
	c0.8,0.2,1,0.5,0.6,0.6C349.2,253.3,348.6,253.1,348.3,252.8L348.3,252.8z M538.5,254.2c0.7-0.1,1.3-0.2,1.4-0.3
	c0.1,0,0.1,0.2,0,0.6c-0.2,0.7-2.6,1.1-2.6,0.4C537.3,254.6,537.8,254.3,538.5,254.2L538.5,254.2z M526.8,255c0.5,0,1.2,0.2,1.7,0.5
	c1,0.7,0.1,0.7-1.4,0C526.3,255.2,526.2,255,526.8,255z M531.5,254.9c1.2,0,1,0.4-0.3,0.7c-0.6,0.2-1,0.1-0.8-0.2
	C530.6,255.2,531.1,254.9,531.5,254.9z M459.3,256.7c0.8-0.7,1.6-0.9,3.9-0.6c1.7,0.2,3.4,0.5,3.8,0.8c0.5,0.3,0.6,0.3,0.4-0.1
	c-0.6-0.9,0.6-1.4,1.8-0.7c0.7,0.4,1.2,0.4,1.4,0c0.5-0.8,2.9-0.6,3.8,0.3s1.8,1.1,1.3,0.4c-0.1-0.2,0.7-0.3,1.9-0.2
	c2.5,0.3,2.5,1.1,0,0.9c-1-0.1-1.8,0-2,0.3c-0.1,0.2-0.8,0.3-1.5,0.2s-4.5-0.3-8.5-0.3C458.8,257.6,458.4,257.6,459.3,256.7
	L459.3,256.7z M504.2,255.4c0.3,0,0.4,0.3,0.2,0.6c-0.2,0.4-0.5,0.6-0.6,0.6s-0.2-0.3-0.2-0.6C503.6,255.7,503.9,255.5,504.2,255.4z
	 M482.3,257.2c-0.2,0.3-0.6,0.5-1,0.5s-0.3-0.2,0.2-0.5C482.6,256.5,482.8,256.5,482.3,257.2z M697.1,257.2c-0.4-0.7,6.3-0.3,7,0.3
	c0.5,0.6,0.4,0.7-0.5,0.7c-0.7,0-1.3,0.2-1.5,0.4c-0.1,0.2-2.1,0.4-4.4,0.4s-4.2,0.2-4.2,0.4c0,0.7-1.7,0.4-1.7-0.3
	c0-0.4-0.3-0.2-0.6,0.3c-0.3,0.6-1.2,1-1.9,1c-1,0-1.3-0.3-1-1c0.3-0.9,0.3-0.9-0.4,0s-0.9,0.9-2.3,0.2c-1.4-0.8-1.5-0.7-1.5,0.4
	c0,0.7-0.2,1-0.4,0.7s-0.7-0.6-1.2-0.7s-0.9-0.4-1-0.7c-0.1-0.2-0.6-0.3-1.1-0.2c-0.5,0.2-0.1-0.1,1-0.6c1.5-0.7,2.9-0.9,6.2-0.6
	c2.7,0.2,4.3,0.2,4.3-0.2c0-0.6,2.4-0.5,3,0.1C695.3,258.2,697.4,257.7,697.1,257.2L697.1,257.2z M709.7,257c2.1,0.3,1.3,1.3-0.9,1
	c-1-0.2-2-0.3-2.2-0.3s-0.4-0.2-0.4-0.5C706.2,256.7,707.6,256.6,709.7,257z M666.5,259.1c0-0.3,1.8-0.5,4.6-0.3
	c7.7,0.1,8.5,0.2,7.6,0.7c-0.6,0.3-0.4,0.5,0.6,0.7c1.2,0.2,1.2,0.2-0.2,0.3c-0.8,0-2,0.3-2.5,0.6c-0.5,0.3-2.3,0.3-4,0.1
	c-2.5-0.4-3.2-0.3-3.7,0.4c-0.3,0.5-0.5,0.6-0.3,0.2s-0.3-0.8-1.2-1c-0.8-0.2-1.9-0.5-2.3-0.6c-0.6-0.2-0.7-0.1-0.1,0.6
	c0.5,0.7,0.5,0.9-0.1,1.1c-1.7,0.5-11,1.3-15,1.2c-2.4-0.1-4.3,0-4.3,0.2c0,0.6-15.8,1.5-25,1.4c-5.9,0-9.3,0.2-9.3,0.5
	c-0.1,0.3-0.3,0.2-0.6-0.3c-0.4-0.7-0.7-0.7-1-0.2c-0.2,0.4-0.7,0.5-1.1,0.2c-0.6-0.4-5.1,0.2-6.1,0.8c-0.5,0.2-5.7,0.5-26,1.1
	c-5.7,0.2-14.7,0.5-20.2,0.7s-18.8,0.4-29.7,0.4c-16,0-19.8-0.1-20.2-0.7c-0.3-0.5-0.5-0.5-0.8-0.1c-0.2,0.4-0.8,0.3-1.8-0.5
	l-1.5-1.1l-0.4,1.1c-0.2,0.6-0.6,1.1-0.7,1.1s-0.1-0.3,0.1-0.6c0.2-0.4,0-0.5-0.8-0.2c-0.7,0.2-1.2,0.1-1.2-0.2
	c0-0.3-0.5-0.6-1.1-0.6c-0.7,0-1.5-0.3-2-0.8c-0.6-0.6-0.7-0.8-0.1-0.8c0.5,0,0.5-0.1-0.1-0.5s-0.4-0.5,1-0.5c1.1,0,1.7,0.2,1.5,0.5
	c-0.2,0.4-0.1,0.6,0.2,0.6s0.6-0.3,0.6-0.6c0-0.4,0.4-0.6,0.9-0.6s0.7-0.3,0.5-0.6c-0.2-0.4-0.1-0.6,0.2-0.6s0.6,0.2,0.6,0.4
	c0,0.2,1.4,0.4,3,0.4s3-0.1,3-0.3s5.2-0.4,11.5-0.4c6.3-0.1,20.5-0.2,31.6-0.4s23.5-0.4,27.6-0.4c4.5,0,7.7-0.3,7.9-0.6
	s0.4-0.3,0.4,0.2c0,0.6,0.2,0.6,0.8,0.1c0.5-0.5,2.6-0.6,6.1-0.5c2.9,0.1,5.4,0.1,5.6-0.1c0.6-0.5,2.5-0.6,2.5-0.1
	c0,0.3,0.7,0.3,1.8,0c1-0.3,2.5-0.5,3.2-0.5s6-0.2,11.7-0.3c6.5-0.1,10.4,0,10.4,0.3s0.4,0.5,0.8,0.5s0.8-0.2,0.8-0.5
	c0-0.6,5.5-0.2,6.3,0.5c0.4,0.4,7.7,0.4,7.7,0c0-0.1,1.3-0.2,3-0.3c5.1-0.3,10-0.8,10.5-1.1c0.3-0.2,0.5-0.1,0.5,0.2
	c0,0.7,3.3,0.5,3.3-0.2c0-0.4,0.1-0.4,0.4,0c0.2,0.4,1.4,0.6,2.5,0.6C665.6,259.7,666.5,259.4,666.5,259.1L666.5,259.1z
	 M505.5,263.3c-0.9,0-1.1,0.8-0.3,1.3c0.3,0.2,0.6,0,0.8-0.5S506,263.2,505.5,263.3z M473.8,262.2c-0.6-1.1-0.6-1.2,0.5-0.8
	c0.6,0.2,1.6,0.4,2.4,0.3c2.1-0.2,3.9,0.3,3.5,1c-0.2,0.4-0.1,0.5,0.5,0.3c0.5-0.2,1,0,1.2,0.5s0.1,0.7-0.2,0.5s-0.5-0.1-0.5,0.2
	c0,1.2,2,0.6,2.6-0.7c0.6-1.2,0.9-1.3,4.1-1.2c2.1,0,3.4,0.3,3.2,0.6c-0.2,0.3-0.5,0.5-0.8,0.4s-0.3,0.5-0.2,1.3c0.2,1,0,1.6-0.7,2
	c-1.4,0.8-1.4,0.8-2.2-1.1c-0.7-1.6-1.7-2.3-1.7-1.1c0,0.4,0.2,0.6,0.5,0.6s0.6,0.3,0.8,0.8c0.3,0.7,0.2,0.7-0.8,0.2
	c-0.8-0.4-1.1-0.4-0.8,0c0.2,0.4-0.3,0.6-1.6,0.6c-1.1,0-2-0.3-2-0.6c0-0.5-0.9-0.5-2.7-0.3c-2.2,0.3-2.7,0.2-2.7-0.5
	c0-0.4,0.2-0.8,0.4-0.8s0.3-0.3,0.1-0.8c-0.4-1.2-1.6-1-2.2,0.4l-0.5,1.2l-0.7-1.2c-0.5-1.1-0.5-1.2,0.3-0.9
	C474.3,263.4,474.4,263.3,473.8,262.2L473.8,262.2z M488.4,263.7c-0.1,0-0.3,0.2-0.5,0.5s0.1,0.5,0.5,0.5s0.7-0.2,0.5-0.5
	C488.7,264,488.5,263.8,488.4,263.7z M468,262.4c0.8,0.8,1,2.6,0.2,2.6c-0.3,0-0.4-0.4-0.2-0.9c0.2-0.6-0.1-1-0.8-1.2
	c-0.6-0.2-1-0.5-0.8-0.8C466.8,261.4,467.1,261.4,468,262.4z M470.1,262.9c0.4,0,0.6,0.3,0.4,0.7c-0.1,0.4-0.3,0.7-0.4,0.7
	c0,0-0.2-0.3-0.4-0.7C469.6,263.2,469.7,262.9,470.1,262.9z M471.9,265.1c-1.3-0.9-0.2-1,1.5-0.2c0.9,0.5,1.2,0.5,1.4,0
	c0.1-0.3,0.4-0.5,0.7-0.3c0.9,0.5,0,1.3-1.3,1.3C473.5,265.9,472.5,265.5,471.9,265.1L471.9,265.1z M464.5,265.2
	c-0.1-0.2,0.2-0.3,0.8-0.3s0.7,0.1,0.3,0.3C465.2,265.4,464.7,265.4,464.5,265.2L464.5,265.2z M493.7,265.4c1-0.6,1.1-0.6,1.1,0
	c0,0.3-0.5,0.5-1,0.5C493,265.9,493,265.9,493.7,265.4L493.7,265.4z M491.8,265.5c1.1,0,1,0.4-0.3,1.1c-0.9,0.4-1.1,0.4-0.8-0.3
	C490.9,265.8,491.4,265.4,491.8,265.5z"/>
</svg>
