<?xml version="1.0" encoding="utf-8"?>
<!-- Generator: Adobe Illustrator 25.2.0, SVG Export Plug-In . SVG Version: 6.00 Build 0)  -->
<svg version="1.1"
	 id="svg2" xmlns:cc="http://creativecommons.org/ns#" xmlns:dc="http://purl.org/dc/elements/1.1/" xmlns:rdf="http://www.w3.org/1999/02/22-rdf-syntax-ns#" xmlns:svg="http://www.w3.org/2000/svg"
	 xmlns="http://www.w3.org/2000/svg" xmlns:xlink="http://www.w3.org/1999/xlink" x="0px" y="0px" viewBox="0 0 1003.8 410"
	 style="enable-background:new 0 0 1003.8 410;" xml:space="preserve">
<style type="text/css">
	.st0{fill:#F6C60C;}
</style>
<path id="path2987" class="st0" d="M260.7,85.8c0-0.7,0-1.8,0.1-1.8c0.1,0,1.4,0.2,3,0.5c1.6,0.3,4.5,0.7,6.6,0.9
	c2.1,0.2,5.3,0.5,7.1,0.8c4.3,0.6,14.3,1.4,21.4,1.6c0.9,0.1,2.1,0.7,2.8,1.4c2.2,2.4,12.9,4.4,26.9,5.1c7.6,0.3,21.7,1.6,24.3,2.2
	c0.8,0.1,6.1,0.4,11.9,0.5c5.8,0.1,13.8,0.4,17.7,0.8c3.9,0.4,7.7,0.7,8.4,0.7c0.6,0,1.2,0.3,1.2,0.5s0.2,0.3,0.5,0.1
	c0.2-0.1,0.6,0,0.7,0.4c0.2,0.5,0.5,0.4,1.2-0.3c1.2-1.2,2.8-1.3,2.3-0.1c-0.1,0.5-0.3,1-0.3,1.1s-0.9,0.2-1.9,0.2
	c-1.1,0-2.2,0.3-2.6,0.8c-0.4,0.4-0.5,0.8-0.4,0.8c0.1,0,1.6,0.2,3.2,0.6c1.6,0.4,6.9,0.7,11.8,0.8c4.8,0.1,10.6,0.3,12.8,0.5
	c3.5,0.4,4,0.3,4-0.5c0-0.8,0.3-0.9,1.8-0.6c0.9,0.2,2,0.6,2.4,0.9c0.3,0.3,1.7,0.5,3,0.5c1.3,0,4.7,0.2,7.6,0.6
	c2.8,0.4,5.7,0.7,6.3,0.6c0.6-0.1,1.6-0.1,2.2-0.2c0.6-0.1,1.9,0.1,3,0.3c1.8,0.4,3.7,0.5,4.8,0.2c0.9-0.2,6,0.8,7.1,1.4
	c0.6,0.3,3.6,0.7,6.7,0.7s6.3,0.2,7,0.4c0.8,0.2,8.5,0.4,17.3,0.6c8.7,0.2,18.3,0.4,21.2,0.5c3.5,0.1,5.8-0.1,6.6-0.5
	c1.3-0.7,6-0.2,6.6,0.7c0.2,0.3,0.9,0.8,1.7,1.2c0.8,0.5,1.1,0.9,0.7,1c-2.7,0.9,2.2,3.5,6.5,3.4c5.5-0.1,23.6,0.6,24.5,1
	c0.5,0.2,2.4,0.2,4.3,0s13.2-0.3,25.2-0.3c28.5,0.1,27.6,0.1,33.7-0.1c2.9-0.1,5.5-0.4,5.9-0.6c0.5-0.3,0.6-0.2,0.4,0.4
	s0,0.7,0.6,0.5c0.5-0.2,0.9-0.6,0.9-0.8s0.5-0.4,1.2-0.4s1.6-0.1,2.1-0.2s0.7,0.2,0.6,0.9c-0.1,1,0,1,0.8,0.3c1-0.9,2-1,11.1-1.2
	c3.4-0.1,6-0.4,5.9-0.6c-0.4-0.6,2.4-1.2,3.5-0.7c1.3,0.6,4.8,0.3,8.1-0.7c0.6-0.1,1.9-0.3,2.9-0.4c1,0,2.1-0.4,2.4-0.7
	c0.3-0.4,1.3-0.5,2.2-0.3c1.1,0.3,1.8,0.1,2.1-0.4c0.4-0.7,0.6-0.7,1,0c0.5,0.7,2.8,0.9,13.7,0.9c7.3,0,15.7-0.2,18.7-0.4
	c3-0.3,11.1-0.6,17.9-0.7s13.9-0.3,15.7-0.5c5.5-0.5,13.5-1,18.8-1.2c7.3-0.3,17.4-0.8,19.6-1.1c1.1-0.1,3.8-0.4,6.1-0.6
	s4.3-0.5,4.5-0.6c0.2-0.1,3.4-0.5,7.2-0.8c3.7-0.3,9.4-0.9,12.6-1.3s8.9-0.8,12.7-0.8c6.8-0.1,17.5-1.3,30-3.4c6.2-1,13.4-1,12.8,0
	c-0.3,0.5,25.6,0.3,27.2-0.2c0.8-0.2,2,0,3,0.5c1.1,0.5,3.2,0.9,5.3,0.9c3.7,0,4.3,0.7,1.3,1.4c-0.9,0.2-1.6,0.6-1.6,0.9
	c0,0.6,0.4,0.6,3.8-0.1c2.1-0.4,3.1-0.4,4,0.1c1.2,0.6,1.1,0.7-1.5,1.7c-1.5,0.6-2.7,1.1-2.8,1.2c0,0.1,3.1,0.2,6.9,0.3
	c3.9,0,7.2,0.3,7.5,0.6c0.6,0.6-3,1.7-5.5,1.7c-0.9,0-2.6,0.3-3.7,0.8c-1.1,0.5-3.5,1-5.2,1.3c-11.6,1.7-18.4,3.1-18.1,3.8
	c0.2,0.4,0.3,1,0.3,1.4s0.5,0.8,1,0.8c1.7,0.1,9.8-1.1,10.4-1.6c0.8-0.6,8.6-2.3,9-1.9c0.1,0.2,0,0.3-0.4,0.3
	c-0.3,0-0.5,0.3-0.3,0.6c0.2,0.4,1.8,0.4,4.4,0.2c3.4-0.3,4.1-0.2,4.1,0.5c0,0.6-1.2,1.2-3.5,1.8c-7.3,2-8.2,2.3-8.8,3
	c-0.4,0.5-0.4,0.9,0,1.3c0.8,0.8,9.8-0.3,14.2-1.7c3.1-1,12.4-2,12.4-1.3c0,0.2-0.4,0.8-0.9,1.3c-0.8,1-0.8,1.1,0.3,2.5
	c0.6,0.8,1,1.7,0.9,1.9s-1.8,0.6-3.7,0.8c-7,0.8-14.2,3.1-12.6,4.1c0.9,0.5,0.2,0.7-5.4,1.7c-2.2,0.3-4.1,0.8-4.3,1.1
	c-0.4,0.7,6.7,0.6,10.5-0.1c2.9-0.5,3.3-0.5,4.4,0.5c1.9,1.8,3.2,1.9,7.8,0.7c5.2-1.3,5.5-1.4,6.5-0.4c0.4,0.4,1.6,0.9,2.8,1.1
	c1.1,0.2,2.9,0.8,3.9,1.4c1,0.5,1.9,0.9,2.1,0.7c0.1-0.2,0.6-0.2,1.1,0c1.4,0.5,0.4,1.9-1.5,2.1l-1.7,0.2l1.7,0.8
	c0.9,0.5,1.9,1.1,2.1,1.4c0.3,0.4,0.6,0.3,0.9-0.2s0.6-0.6,0.8-0.2c0.2,0.3,0.1,0.7-0.2,0.9s-0.2,0.8,0.3,1.6
	c0.8,1.2,0.7,1.3-1.1,2.2c-1,0.5-2.1,0.9-2.4,0.9c-0.2,0-1,0.6-1.7,1.3l-1.2,1.3l3.9,0.9c2.1,0.5,4.7,1,5.8,1c1,0.1,1.8,0.3,1.6,0.6
	c-0.2,0.3,0.2,0.4,0.8,0.2c0.9-0.2,1.5,0.1,2.6,1.4c0.8,0.9,1.3,1.9,1.1,2.2c-0.1,0.3,0.1,0.4,0.5,0.2c0.4-0.2,0.9,0.1,1.1,0.5
	c0.5,1.2-4.2,3.1-10.6,4.3c-3.3,0.7-5.4,1.4-5.7,1.9c-0.3,0.4-0.9,0.8-1.3,0.8c-0.4,0-0.8,0.2-0.8,0.5c0,0.7,1.3,1.2,3,1.2
	c0.7,0,1.5,0.3,1.7,0.6c0.2,0.4,1,0.5,2.1,0.2c2.8-0.6,8.3-0.2,9.3,0.7c0.7,0.7,2,0.8,6.2,0.6c2.9-0.1,5.2-0.1,5.1,0.1
	c-0.2,0.2,0.8,0.4,2.1,0.5c1.8,0.1,2.8,0.5,3.8,1.5c0.8,0.7,1.3,1.5,1.1,1.7s0,0.2,0.5,0c0.9-0.4,1.9,1.3,1.1,1.9
	c-0.2,0.2-0.6,0.7-0.7,1.1s-1.8,1.3-3.8,1.9c-3.8,1.2-4.5,2.3-2.2,3.4c1.3,0.7,1.3,0.7,0.2,1.3c-0.6,0.3-1.5,0.6-2,0.6
	s-0.9,0.3-0.9,0.6s-1,0.6-2.3,0.6s-3.4,0.3-4.8,0.6s-3.2,0.7-4,0.9c-3.6,0.8-0.7,1,9.1,0.9c5.9-0.1,11.5-0.4,12.6-0.7
	c2.6-0.7,9-0.5,9.3,0.3c0.1,0.3,0.7,0.5,1.4,0.4c1.7-0.3,5,1.8,4.7,3c-0.1,0.5-0.6,0.9-1.1,0.9c-0.5-0.1-0.8,0.1-0.7,0.3
	c0.3,0.4-5,1.1-8.3,1.1c-1,0-3.4,0.8-5.4,1.9c-2.1,1-4.4,1.9-5.2,1.9s-2,0.4-2.5,0.8c-0.9,0.7-0.9,0.8,0.3,1.1
	c0.7,0.1,2,0.3,2.8,0.3c0.9,0,1.5,0.3,1.5,0.8c0,0.9,1.7,1.6,4.1,1.7c5.7,0.1,7.2,0.3,6.1,0.8c-1.1,0.4-1.1,0.4,0,0.5
	c1,0.1,1,0.1-0.1,0.6c-1.6,0.6-2.4,3.8-1.1,4.5c0.5,0.3,0.9,0.9,0.9,1.4c0,0.7,0.5,0.8,2.1,0.5c1.1-0.2,4.3-0.5,7-0.7
	c4.6-0.3,4.9-0.3,4.6,0.6c-0.2,0.5-0.4,1.1-0.4,1.2s-0.4,0.2-1,0.2c-1.3,0-1.8,0.5-1.1,1.4c0.5,0.5,0.4,1-0.2,1.9
	c-1.2,1.6-0.6,2.6,1.6,3c1,0.2,1.7,0.6,1.6,0.8c-0.1,0.3,0.2,0.4,0.7,0.4s0.9,0.3,0.8,0.7s0.1,0.6,0.4,0.4s0.6-0.1,0.8,0.2
	c0.7,1.2-1.7,1.8-8.9,2.3c-7.8,0.5-15.4,1.5-23.9,3.1c-2.6,0.5-5,1-5.3,1c-1.2,0.2-1.9,0.9-1.8,2s0.4,1.1,10.6,0.9
	c5.8-0.1,11.5-0.5,12.7-0.8c1.2-0.3,4.1-0.6,6.5-0.6c3.4,0,4.3,0.2,4.3,0.8c0,1.3-1.9,2-5.5,2c-6,0-14.6,2.8-16.7,5.3
	c-1.2,1.5,0.4,1.9,7.3,1.6c5.4-0.2,6.4-0.1,6.7,0.6c0.2,0.4,0.8,0.8,1.3,0.8c0.9,0,0.9,0,0.2-0.5c-0.6-0.4-0.6-0.5,0-0.5
	c1.1,0,2.8,1.6,2.8,2.6c0,0.7-0.7,0.8-3.6,0.6c-2-0.1-3.6-0.1-3.6,0.1s-2.6,0.7-5.7,1.1c-6.3,0.8-8.3,1.4-7,1.9
	c2.2,0.8,6.2,1.6,9.7,1.9c3,0.3,3.6,0.4,2.6,0.8c-0.7,0.2-1.5,0.3-1.6,0.1s-0.6-0.1-0.9,0.2s-2.7,0.7-5.3,0.9
	c-2.6,0.2-5.5,0.6-6.6,0.9c-1,0.3-2.8,0.5-4,0.5c-1.5,0-2.1,0.2-1.9,0.7s1.7,0.7,5,0.7c2.6,0,4.9,0.2,5.1,0.4
	c0.3,0.2,2.3,0.4,4.5,0.4c4.5,0,5.4,0.8,1.4,1.4c-1.5,0.2-2.9,0.6-3.2,0.8c-0.3,0.2-2.3,0.6-4.3,0.8c-2.1,0.2-3.9,0.6-4,0.8
	s0.2,0.9,0.7,1.6c1.1,1.4,2.5,1.6,9.6,0.9c3.5-0.3,4.4-0.2,5.2,0.5c0.6,0.5,2.5,0.9,4.5,1.1c5.5,0.5,5.5,1.1,0.2,2
	c-1.9,0.3-3.8,0.8-4.1,1.1s-2.2,0.7-4.2,0.9c-3.3,0.4-6.5,1.4-4.4,1.4c2.2,0-0.8,1.1-5.6,1.9c-5.7,1-8.2,2.1-6.4,2.8
	c1.5,0.6,1.1,1.3-1,1.7c-1,0.2-1.9,0.6-1.9,0.9c0,0.3,0.3,0.4,0.6,0.2c0.8-0.5,5.6,0.3,5.3,0.8s-5.9,1.2-13,1.5
	c-3.3,0.2-5.7,0.6-6.5,1.1c-0.7,0.5-3.1,1-5.3,1.2c-2.2,0.2-4.3,0.7-4.6,1s-2.3,0.8-4.4,1c-2.1,0.2-4.1,0.7-4.4,1.1
	c-0.4,0.5-2.8,0.9-7.5,1.1c-3.8,0.2-9,0.6-11.6,0.9s-6.5,0.7-8.6,0.8c-2.1,0.1-6.4,0.5-9.4,0.9c-7.6,0.9-9.3,2-2.6,1.6
	c1-0.1,3.1,0.1,4.7,0.5c5.6,1.3,6.8,2.8,2.3,2.8c-1.3,0-2.5,0.2-2.7,0.5c-0.2,0.2-4.7,0.6-10.1,0.8c-13.4,0.5-15.6,0.8-15.6,2
	c0,0.9-1,1-10.1,1.3c-5.6,0.1-13.4,0.5-17.3,0.8c-3.9,0.3-7.8,0.6-8.5,0.6c-1.7,0-1.1,0.7,0.9,1c1.7,0.2,3.7,1.2,3.3,1.6
	c-0.1,0.2-1.6,0.4-3.2,0.6c-5.9,0.6-3.3,0.8,5.6,0.5c5-0.2,18.1-0.5,29-0.6s21.5-0.4,23.5-0.6c2.1-0.2,4.6-0.1,5.7,0.2
	c1.1,0.3,2.2,0.4,2.3,0.2c0.1-0.2,0.9-0.4,1.8-0.3s2.4,0.2,3.4,0.2s1.7,0.2,1.5,0.5c-0.2,0.2-2.9,0.6-6,0.8
	c-3.1,0.2-7.9,0.6-10.6,0.9c-8,0.8-23.1,1.7-42,2.4c-2.7,0.1-8.9,0.6-13.8,1.1s-11.4,1-14.4,1.1c-5,0.2-15.9,0.8-26.8,1.7
	c-2.3,0.2-4.4,0.5-4.7,0.7c-0.3,0.2-3.4,0.4-6.9,0.5c-5.1,0.1-6.5,0.3-7,1c-0.4,0.5-1.6,0.9-2.8,1c-1.1,0.1-2.6,0.4-3.2,0.6
	c-0.6,0.3-1.5,0.6-1.9,0.7c-0.4,0.1-5.2,0.5-10.5,0.8s-11,0.7-12.7,0.8c-5.9,0.4-13.6,0.9-24.7,1.4c-6.1,0.3-11.7,0.7-12.4,0.8
	c-0.6,0.2-5.8,0.6-11.4,0.9c-5.6,0.4-13.6,1-17.9,1.5c-4.3,0.4-8.6,0.8-9.7,0.8s-3.8,0.3-6.1,0.6l-4.1,0.6l2.5,0.4
	c1.3,0.2,5.2,0.4,8.6,0.4c5.2,0,6.2,0.1,6.5,0.9s1.2,0.8,8.5,0.5c4.5-0.2,12.6-0.7,18.1-1.2s12.3-0.9,15.2-1.1s6.8-0.5,8.8-0.7
	c2-0.2,5.7-0.4,8.3-0.4c5.4,0,17.7-1.2,20.1-1.8c0.9-0.3,2.6-0.3,3.9-0.1c2.5,0.4,3.5,0.3,9.1-0.3c6.4-0.7,10.5,0,8.3,1.5
	c-0.6,0.4,0.9,0.4,4.4,0.1c4.8-0.4,10.9-0.5,15.3-0.1c1.1,0.1,1.8,0.5,1.8,0.9c0,0.6,0.2,0.6,1.2,0.1c0.7-0.4,2.3-0.7,3.5-0.8
	c1.3-0.1,3.1-0.3,4.2-0.5c3.2-0.6,14.4-0.8,14.7-0.3c0.1,0.2,0.6,0.1,1.1-0.4c0.5-0.4,1-0.7,1.2-0.6c0.2,0.1,1.8,0.4,3.6,0.6
	c2.4,0.2,3.4,0.1,3.7-0.4c0.2-0.4,1.3-0.8,2.5-0.9c3.8-0.2,8-0.1,8.5,0.2c0.7,0.5,0.6,1.2-0.2,1.2c-2.3,0.1-11.3,0.8-14.8,1.1
	c-2.2,0.2-4.3,0.4-4.5,0.3c-0.9-0.3-17.8,1.1-18.3,1.4c-0.3,0.2-2.3,0.4-4.4,0.5c-9.1,0.3-20.5,1.3-24.8,2.1
	c-0.6,0.1-2.8,0.4-4.8,0.6c-2,0.2-3.7,0.6-3.7,0.8c0,0.4,13.3,0.3,15.2-0.2c3.4-0.8,7.9-1.1,14.3-1c10.1,0.2,17.5,0.1,17.9-0.1
	c0.2-0.1,2.1-0.4,4.2-0.6c5.3-0.5,6.5-0.7,8.5-1.1c1.2-0.2,1.8-0.1,2,0.5c0.2,0.4,0.6,0.7,1,0.6s2-0.3,3.7-0.5
	c1.7-0.2,5.4-0.6,8.3-0.9c7.2-0.8,11.1-0.9,16.3-0.5c3,0.3,4.6,0.2,4.9-0.2c0.3-0.4,0.4-0.3,0.2,0.3c-0.3,1.2,0.9,1.3,2.1,0.1
	c1.1-1.1,1.4-1,1.3,0.3c-0.1,0.7-0.5,1.1-1.3,1.1c-0.7,0-1.7,0.2-2.2,0.4c-0.7,0.2-0.9,0.1-0.6-0.3c0.2-0.3,0.1-0.6-0.2-0.6
	s-0.6,0.3-0.6,0.8c0,0.9,0,0.9-7.4,1.1c-2.7,0.1-5.3,0.3-5.7,0.5c-0.4,0.1-2.2,0.4-3.9,0.6s-3.2,0.4-3.4,0.5s-2.3,0.3-4.7,0.5
	c-2.5,0.2-6.3,0.5-8.6,0.7s-5,0.4-6.1,0.5c-1.1,0.1-3.2,0.3-4.7,0.5c-9.5,1-15.8,1.5-22.4,1.7c-7.4,0.2-12.5,0.6-15.8,1.1
	c-1,0.2-3.7,0.4-6.1,0.6c-2.4,0.1-5.5,0.5-6.8,0.8c-1.4,0.3-9.8,0.7-18.8,0.8c-9,0.1-18.8,0.5-21.9,0.8s-7.3,0.5-9.4,0.5
	c-2.2-0.1-6,0.1-8.6,0.3s-8.8,0.5-13.8,0.6c-10.9,0.2-21.3,0.7-41.1,2c-7.9,0.5-13.8,0.9-29,2.2c-3.7,0.3-12.3,0.8-19,1.1
	s-14.2,0.7-16.7,0.9c-3.1,0.2-4.6,0.1-4.6-0.3c0-0.3,0.5-0.7,1-0.8c0.5-0.2-0.3-0.3-1.8-0.4c-8.7-0.3-14.4-0.3-24.3,0.1
	c-15.3,0.7-14.5,0.7-29.3,0.2c-7.3-0.2-19-0.3-26.1-0.3c-9.8,0.1-13.5-0.1-15.7-0.7c-1.7-0.5-6.9-1-12.6-1.2
	c-12.3-0.4-15-0.3-16,0.6c-0.4,0.5-1.9,0.8-3.3,0.9c-3.1,0.1-16-0.6-17-0.9c-0.4-0.2-4.5-0.3-9.1-0.3c-4.6,0-9.4-0.3-10.6-0.6
	s-3.9-0.7-6-0.8c-2.1-0.1-6.7-0.5-10.2-0.8s-8.7-0.7-11.6-0.8s-7.3-0.5-9.7-0.8c-35.4-4.2-34.6-4.2-35.5-3.1
	c-0.6,0.7-0.4,0.9,1.5,1.2c1.2,0.2,2.6,0.9,3.3,1.7c1.3,1.5,1.5,2.3,0.4,1.4c-1-0.8-1.6-0.2-0.9,1.1c0.5,0.9,0.4,1-0.7,1.1
	c-0.7,0-1.5,0-1.7,0c-0.2,0-0.4,0.2-0.4,0.6s-0.6,1.2-1.3,1.8c-1.3,1.1-2.6,1.2-9,0.1c-0.9-0.2-4.2-0.7-7.2-1.2s-8-1.4-11-2
	c-6.6-1.2-7.9-1.5-14.4-2.4c-12.6-1.8-17.3-2.7-19.6-3.4c-1.4-0.4-3.3-0.8-4.3-0.8s-3.3-0.4-5.2-0.8c-1.8-0.4-5.4-1.1-7.8-1.6
	c-5.3-1.1-16-3.2-24.2-4.8c-4.9-1-6.3-1.1-7.3-0.5s-2.8,0.5-9.3-0.5c-4.4-0.7-8.2-1.1-8.5-0.9c-0.3,0.2-1.6,0.1-2.9-0.2
	c-4.7-1-13-2.2-18.4-2.5c-3.1-0.2-6.4-0.5-7.5-0.6c-7-0.8-12.9-1-13.2-0.4c-0.2,0.4-1.1,0.4-3-0.2c-1.5-0.4-5.6-1-9.1-1.3
	c-3.5-0.3-11.1-1-16.9-1.6c-5.7-0.6-12.3-1.3-14.6-1.5c-7.6-0.7-40.2-6.1-42.2-7c-0.6-0.3-1.9-1-3-1.6c-1.1-0.6-2.6-1.1-3.5-1.1
	c-0.8,0-1.4-0.2-1.2-0.5s0-0.7-0.4-0.8c-1.5-0.5,9.5,0.2,14.2,1c2.7,0.4,6,0.8,7.3,0.8s2.2,0.2,2.1,0.4s1.5,0.5,3.7,0.6
	s9.3,0.8,15.8,1.5c6.5,0.7,12.2,1.3,12.7,1.3s4.2,0.1,8.3,0.3c7,0.2,7.3,0.2,4.7-0.5c-1.5-0.4-3.5-0.8-4.5-0.8
	c-0.9,0-3.3-0.4-5.2-0.8s-5.6-0.9-8.2-1.1c-3.4-0.3-4.9-0.6-5.4-1.3c-0.4-0.5-0.7-0.6-0.7-0.3c0,0.4-1.3,0.6-3.6,0.6
	c-2.5,0-3.6-0.2-3.6-0.7c0-1.1-1.9-1.3-3.4-0.5c-1.5,0.9-4.1,1-5.7,0.2c-0.9-0.5-0.9-0.5,0.3-0.3l1.4,0.3l-1.4-1
	c-0.8-0.5-1.2-1.2-1-1.4s0.7-0.1,1.2,0.3c0.4,0.4,0.8,0.5,0.8,0.2s0.8-0.5,1.7-0.5c1,0,1.4,0.2,1.1,0.4c-0.5,0.2-0.4,0.5,0.2,0.7
	c0.4,0.2,1,0.1,1.1-0.1c0.4-0.7,17.6-0.1,18,0.6c0.2,0.4,0.7,0.5,1.1,0.2s4.7-0.4,9.7-0.4c4.9,0,9.5-0.1,10.2-0.4
	c1-0.4,0.8-0.6-1.8-1.4c-1.6-0.5-3.7-0.9-4.5-0.9c-0.9,0-1.7-0.3-1.9-0.6c-0.2-0.4-0.5-0.5-0.8-0.3c-0.6,0.4-2.9-0.8-3.5-1.8
	c-0.2-0.4-0.9-0.7-1.5-0.7c-0.7,0-0.9-0.2-0.7-0.8c0.2-0.4,1-0.8,1.9-0.8c2.2,0,1.5-1.4-0.8-1.4c-1,0-2.3-0.2-2.9-0.5
	c-1.7-0.8-2.4-0.8-2.8-0.2c-0.2,0.3-0.5,0.3-0.8-0.2c-0.4-0.6-0.5-0.6-0.5-0.1c0,0.4-0.8,0.7-2.2,0.7c-2.1,0-2.9-0.6-1.5-1.3
	c0.3-0.1-0.1-0.2-1,0c-1.5,0.3-1.6,0.2-0.7-0.5c0.6-0.5,0.7-0.9,0.3-1c-0.5-0.1-0.4-0.6,0.3-1.7c0.6-0.9,1.3-1.4,1.8-1.2
	s0.6,0.1,0.4-0.3c-0.2-0.5,0.3-0.5,1.8-0.2c2.3,0.4,8.5,0.4,13.2,0c1.6-0.1,3.3-0.3,3.9-0.3c0.9,0,1-0.1,0.3-0.5
	c-1.3-0.7-5.1-1.4-7.3-1.2c-1.6,0.1-2.1-0.1-2.1-0.7c0-0.9-1.8-1.6-3.9-1.5c-2.2,0.2-4.1-0.8-4.2-2.1c0-0.8,0.4-1.3,1.3-1.5
	c1.5-0.4,1.6-0.7,0.8-1.9c-0.4-0.7-0.5-0.7-0.5,0.2c0,1,0,1-1,0.1c-1-0.8-1.1-0.9-1.4-0.1c-0.5,1.2-1.5,1.1-1.1-0.1
	c0.2-0.6,0.1-0.8-0.1-0.6c-0.3,0.3-0.8,0-1.1-0.4s-1.3-0.9-2.2-1c-0.9-0.1-1.7-0.5-1.8-0.8s-0.6-0.6-1-0.6s-0.7-0.2-0.7-0.4
	c0.1-0.2-0.1-0.9-0.3-1.4c-0.3-0.8-0.5-0.8-1.2-0.3c-0.6,0.5-1,0.5-1.8,0c-0.5-0.3-1.9-0.5-3.1-0.3c-1.6,0.2-1.9,0.1-1.3-0.3
	c0.9-0.6,0.1-0.8-1-0.1c-0.4,0.3-0.5,0.9-0.3,1.5c0.3,0.7,0.2,0.9-0.4,0.5c-0.7-0.4-0.7-0.3,0,0.5c0.4,0.6,1.1,0.9,1.5,0.7
	c0.4-0.1,0.7-0.2,0.7,0c0,0.8-2.6,1.1-3.7,0.4c-1.2-0.8-2.4-1.1-4.2-1.2c-0.6,0-0.9-0.2-0.7-0.6s0-0.6-0.5-0.6c-1.1,0-2-1.7-2-3.7
	c0-1.2,0.1-1.3,0.5-0.7c0.3,0.6,0.5,0.6,0.5,0.2c0-1,2.3-2.3,4.6-2.6c1.4-0.2,2-0.1,1.9,0.4s0.6,0.7,1.9,0.7c1.2,0,2.1-0.2,2.1-0.6
	s0.5-0.6,1.1-0.4c0.6,0.2,1,0.5,0.8,0.8c-0.5,0.7,0.2,0.6,1.7-0.4c0.9-0.6,1.4-0.7,1.4-0.3c0,0.3,0.5,0.6,1,0.6
	c0.8,0,0.8,0.1,0.1,0.6c-0.7,0.4-0.6,0.5,0.4,0.2c0.6-0.2,1.2-0.2,1.2,0.1c0,0.2,0.8,0.5,1.7,0.5c1,0.1,1.9,0.3,2.1,0.6
	s1.3,0.5,2.5,0.5c3.3-0.1,11.1,0.6,18.6,1.6c3.8,0.5,9.2,0.8,11.9,0.8c2.7,0,8,0,11.6,0.2s7.7,0.1,9.1-0.1l2.5-0.4l-2.8-0.5
	c-1.6-0.2-3.3-0.5-3.9-0.5c-4.1-0.2-10.2-1.1-11.5-1.8s-3.2-0.8-9.5-0.6c-8,0.2-9.7-0.1-8.4-1.7c0.5-0.5,0.5-0.9,0.1-1.3
	c-0.3-0.4-0.4-1.4-0.1-2.5c0.4-1.8,0.3-1.9-1.6-2.5c-2-0.6-17.3-2.2-21.4-2.2c-1.3,0-2.6,0.3-3.1,0.8c-1.1,1-2,1-3.6-0.1
	c-0.8-0.5-2.8-1-5-1.1c-4.2-0.3-11.4-1.7-13.3-2.7c-1.2-0.6-0.9-0.7,2.5-0.8c5.7-0.1,6.5-0.4,6.2-2.3c-0.2-0.8-0.1-1.4,0.1-1.3
	c0.2,0.1,1.1-0.2,2-0.7c1.8-0.9,5.1-1.1,13.5-0.6c2.9,0.1,5.7,0.1,6.2,0c1.5-0.3,1.2-1.2-0.4-1.2c-1,0-1.4-0.3-1.4-1.1
	c0-0.6,0.3-1.1,0.8-1.1c0.4,0,0.8-0.2,0.8-0.5c0-0.5-1.9-0.8-8.8-1.4c-7.7-0.6-10.2-1.1-10.4-1.8c-0.1-0.4,0.3-0.8,0.9-1
	c0.7-0.2,1.1-0.5,0.9-0.8c-0.1-0.3,0.1-0.5,0.6-0.5s0.9-0.3,0.9-0.6c0-0.7-0.5-0.6-2.2,0.3c-0.7,0.4-2.8,0.8-4.5,0.8
	c-1.8,0.1-3.3,0.3-3.5,0.6c-0.2,0.4-0.7,0.3-1.4-0.1c-0.8-0.5-1.3-0.5-2.4,0.1c-0.8,0.5-1.7,0.6-2.1,0.3c-0.4-0.2-1.2-0.4-1.7-0.3
	c-0.5,0-1.4-0.2-1.9-0.5c-0.8-0.6-0.8-0.6,0.3-0.3c0.8,0.2,1.5,0.1,1.9-0.5c0.6-0.9,3.1-1.3,7.8-1.5c1.8-0.1,2-0.2,1.1-0.6
	c-0.6-0.2-1.9-0.5-2.8-0.5c-1,0-2.2-0.4-2.8-0.8c-1.2-0.8-9.1-2.8-13.2-3.3c-1.5-0.2-3.5-0.7-4.4-1.2c-0.9-0.4-5.1-1.3-9.3-1.9
	c-8.4-1.2-10.5-1.7-10.1-2.8c0.6-1.6-3.6-4.5-8.8-6.2c-3.7-1.3-4.7-1.9-3.7-2.5c0.5-0.3-1-1.3-4.7-3.2c-4-2-5.4-3-5.4-3.8
	c0-1.6,2.7-2,7.7-1.1c4,0.8,12,1.1,10.4,0.5c-1.8-0.7-0.3-1.3,3.4-1.3c2.2,0,4.2-0.3,4.4-0.6c0.2-0.4-0.1-0.6-0.7-0.6
	c-1.3,0-3.9-1.2-4.2-2c-0.1-0.4,0.5-0.9,1.5-1.3c4.5-1.7,4.6-2.5,0.5-3.3c-1.8-0.4-3.7-1.1-4.2-1.7c-0.6-0.6-2.4-1.3-4.9-1.7
	c-5-0.9-10.6-2.9-10.6-3.8c0-0.4,1.1-1,2.5-1.3c1.3-0.3,2.2-0.7,1.9-0.9c-0.4-0.3-3-0.8-14.3-2.8c-1.8-0.3-5.1-0.7-7.2-0.8
	s-5.9-0.6-8.3-1.1s-5.5-1-6.9-1.1c-3.3-0.3-6.9-1.5-6.9-2.5c0-1.8,2.3-3.1,6.8-3.6c1.9-0.2,3.4-0.5,3.4-0.6s-1-1.1-2.1-2.2l-2.1-2
	l2.5,0.4c1.4,0.2,3.5,0.6,4.8,0.8c3,0.4,4.4-0.3,2.1-1.1c-2.7-1-4.4-2.1-4.6-3.1c-0.2-0.7,0.1-0.8,0.8-0.6c1.1,0.3,5.9,1,14.1,2
	c4.5,0.5,5.5,0.5,6.3-0.1c0.5-0.5,2.2-0.8,4-0.8c5.8,0,3.7-1.1-5.3-2.6c-4.9-0.8-9.5-1.8-10.2-2.2l-1.3-0.7l1.3-0.5
	c1.3-0.5,15.4,1.6,16,2.4c0.7,1.1,9.5,2.2,9.3,1.2c-0.2-0.9,0.9-2.3,1.8-2.3c0.6,0,1.2-0.3,1.4-0.6c0.2-0.4-0.3-0.6-1.1-0.6
	c-2,0-6.8-2.5-7.5-3.9c-0.7-1.3-0.3-2.2,1-2.2c0.5,0,1.6-0.6,2.5-1.3l1.6-1.3l-1.5-0.4c-0.8-0.2-3.8-0.4-6.6-0.4
	c-6,0-16.5-1.2-18.7-2.1s-1.6-1.9,1.4-2.6c3.3-0.7,3.5-1.1,1.5-2c-1.9-0.8-2.2-1.4-0.9-1.4c0.4,0,0.8,0.2,0.8,0.5s0.3,0.2,0.7-0.1
	c0.4-0.4,0.9-0.5,1.1-0.3c0.2,0.2,0.4,0.2,0.4-0.2s-0.3-0.9-0.8-1.3c-0.4-0.3-0.8-0.9-0.8-1.1c0-0.4,6.3-0.2,7.1,0.3
	c0.6,0.4,9.2,0.4,11.4,0.1c0.9-0.1,3-0.4,4.8-0.6c2.7-0.3,3.1-0.5,2.6-1.1c-0.4-0.5-1.2-0.8-1.9-0.8s-1.9-0.6-2.7-1.3
	s-2-1.5-2.6-1.7c-1.1-0.4-1.1-0.9,0.2-1.2c0.4-0.1,1.2-0.3,1.8-0.4c0.6-0.1,1.3-0.3,1.6-0.3c2.2-0.2-5.5-2.2-8.6-2.2
	c-1.1,0-3-0.4-4.2-0.8c-1.2-0.4-4-1.1-6.3-1.4c-2.2-0.3-4.6-1-5.3-1.4c-0.6-0.4-1.2-0.6-1.2-0.4s-0.5-0.2-1.1-0.9
	c-0.6-0.7-1.1-1.3-1.1-1.3s1.5,0,3.3,0c1.8,0,5.7-0.1,8.7-0.3l5.4-0.3l-2.1-0.9c-1.5-0.7-2-1.2-1.8-1.8c0.1-0.4,0-0.8-0.4-0.8
	s-0.3-0.2,0.2-0.5c0.7-0.4,0.7-0.5-0.1-0.5c-0.6,0-1-0.3-1-0.6s0.4-0.5,0.8-0.3c0.4,0.2,0.8-0.1,1-0.7c0.2-0.8-0.2-1.1-2.3-1.6
	c-3.5-0.7-8.4-1.6-13.5-2.2c-3-0.4-5-1-6.6-2c-2.1-1.3-2.2-1.5-1.4-2c2-1.1,4-1.3,7.5-0.9c7.7,1,9.8,1.1,14.9,1.3
	c7.2,0.3,7.3,0.3,7,0.8c-0.4,0.6,9.8,0.4,10.7-0.2c0.4-0.2,0.9-0.1,1.1,0.3c0.7,1.1,16.5,1,21-0.1c2-0.5,5.7-1,8.3-1.2
	c4.9-0.3,7.4-0.9,9.9-2.3l1.5-0.8l-1.4,0.1c-0.7,0.1-3-0.1-5-0.3c-3.3-0.4-3.7-0.5-3.6-1.6c0.1-1,0.5-1.2,2.3-1.3
	c3.2-0.1,5.8-0.7,6.2-1.4c0.2-0.3,0-0.4-0.4-0.1c-0.5,0.3-0.6,0.2-0.4-0.1s0.9-0.4,1.7-0.3s2.2,0,3.2-0.4c1-0.3,3.7-0.7,6-0.9
	s6.2-0.5,8.7-0.7c2.8-0.3,4.6-0.2,4.6,0.1c0,0.3,0.4,0.1,1-0.4c1.2-1.1,4.5-1.2,4.5-0.2c0,0.5,0.2,0.5,0.5-0.1s1.4-0.7,4.8-0.4
	c5.9,0.4,9,1,8.7,1.5c-0.2,0.2,0.2,0.7,0.7,1c0.7,0.5,0.4,0.5-1.4,0.4c-1.6-0.2-2.3,0-2.3,0.5c0,0.4-0.5,0.6-1,0.5
	c-0.6-0.1-2.1-0.4-3.5-0.6c-1.4-0.3-3.2-0.8-4-1.2c-1.8-0.9-5.1-1.1-4.6-0.2c0.2,0.3,0.7,0.5,1.1,0.3c0.5-0.2,0.8-0.1,0.8,0.2
	s-0.3,0.6-0.6,0.7c-0.4,0.2-0.4,0.6,0.1,1.2c1.5,2,15.5,3.2,18.5,1.6c1.5-0.8,2-0.8,1.6-0.1c-0.4,0.7,1.5,0,2-0.7
	c0.2-0.3,1-0.1,2,0.4s2.3,0.8,3,0.8s4,0.1,7.3,0.3c4.4,0.3,6.5,0.6,7.5,1.3c0.8,0.5,1.9,1.1,2.5,1.3c0.6,0.1,1.1,0.5,1,0.8
	c-0.1,0.3,0.3,0.6,0.8,0.6c9.6,0.8,10.8,1,10.3,1.8c-0.2,0.3,0.7,0.6,1.8,0.8c1.2,0.1,3.1,0.5,4.3,0.9s3.7,0.7,5.5,0.8
	c1.9,0.1,3.8,0.2,4.3,0.2c0.5,0.1,1.4,0.6,2,1.2s1.5,1.1,2.1,1c1.5-0.2,5.7,0.7,5.7,1.2c0,0.4,4.8,1.4,5.7,1.2
	c0.2,0,0.4,0.2,0.4,0.5c0,0.4,0.2,0.5,0.5,0.3c0.3-0.1,0.6-0.1,0.8,0.2c0.2,0.2,1.5,0.3,3,0.2s3.2,0,3.8,0.3s4.1,0.8,7.7,1.2
	c3.6,0.4,7.8,0.9,9.1,1.2s9.4,0.6,17.9,0.7s15.8,0.3,16.3,0.5s1.6,0.1,2.5-0.3c0.9-0.3,1.7-0.7,1.9-0.7c0.1,0,1.1-0.4,2.2-0.9
	c1.5-0.6,2.9-0.7,6.6-0.4c7,0.7,35.3,1,35.3,0.5s-2.5-1.3-7.1-2.2c-1.7-0.3-3.8-0.8-4.8-1.1c-1-0.3-2.4-0.4-3.1-0.2
	c-0.8,0.1-2.4-0.1-3.8-0.4c-1.4-0.3-2.7-0.7-3-0.7c-0.8,0-1.1-2.5-0.3-2.5c0.4,0,0.5-0.3,0.3-0.6c-0.2-0.3-0.8-0.6-1.3-0.6
	s-2.4-0.7-4.2-1.6s-3.8-1.6-4.5-1.6c-0.6,0-1.3-0.2-1.5-0.5c-0.2-0.3-1.9-0.7-3.8-0.9c-1.9-0.2-4.9-0.8-6.6-1.2
	c-1.7-0.5-3.3-0.8-3.6-0.7c-0.9,0.2-3.8-1.2-4.5-2.3c-0.4-0.6-1.2-1.1-1.8-1.1c-0.6,0-1.1-0.4-1.1-0.8c0-0.5-0.8-0.9-2.3-1.2
	c-1.8-0.3-2.1-0.5-1.2-0.8c0.6-0.2,1.3-0.3,1.6-0.1c0.3,0.2,0.4-0.2,0.2-0.9c-0.2-0.8-0.1-1.2,0.3-1c0.4,0.1,0.6,0.4,0.6,0.7
	c-0.2,1,1.2,1.7,1.9,0.9c0.5-0.6,0.5-0.7-0.2-0.7s-0.8-0.2-0.3-1.1c0.5-0.8,0.5-1.1,0-1.1c-0.3,0-0.5-0.4-0.3-0.9
	c0.2-0.5,0.1-0.7-0.2-0.5c-0.3,0.2-0.5,0.1-0.5-0.2s0.3-0.7,0.7-0.8c0.6-0.1,0.5-0.4-0.1-1.2c-0.6-0.7-0.7-1-0.1-1.2
	c0.6-0.2,0.6-0.4,0.1-1c-0.5-0.6-0.4-0.8,0.3-0.8c0.5,0,1.2-0.9,1.7-2s1.1-1.8,1.4-1.6S260.7,86.6,260.7,85.8L260.7,85.8z
	 M260.7,90.9c0-0.5-0.4-1.1-0.8-1.4c-0.6-0.5-0.9-0.4-1.1,0.2c-0.2,0.5,0.2,1.1,0.8,1.4C260.5,91.5,260.7,91.5,260.7,90.9
	L260.7,90.9z M353.7,99.1c-2.3-0.9-16.3-1.5-16.3-0.8c0,0.4,3.3,0.7,13.8,1.3C355.8,99.9,355.9,99.9,353.7,99.1L353.7,99.1z
	 M96.5,105.2c-0.4-0.2-0.8-0.1-0.8,0.2s0.3,0.5,0.8,0.5c0.4,0,0.8-0.1,0.8-0.2C97.3,105.6,96.9,105.4,96.5,105.2z M135.6,107
	c-0.7,0-1.2,0.3-1,0.6c0.2,0.4,0.9,0.6,1.7,0.6c0.7,0,1.2-0.3,1-0.6C137.1,107.3,136.3,107.1,135.6,107z M109.7,109.7
	c-1.5-0.3-1.9,0.4-0.5,0.9c1.2,0.4,1.9,0.4,1.9-0.2C111.1,110.2,110.4,109.8,109.7,109.7z M423.4,110.5c-1.3-0.3-4-0.7-6-0.9
	c-4.1-0.2-23.9,0.4-21.3,0.6c9.5,0.8,27,1.5,28.5,1.2C425.5,111.2,425.3,111,423.4,110.5L423.4,110.5z M440.1,111.5
	c-0.8-0.2-2.4-0.3-3.6-0.1c-3,0.4-1.1,0.9,3.6,1c2,0,3.1-0.1,2.5-0.2C442,112.1,440.9,111.8,440.1,111.5z M90.3,112.1
	c-0.7,0-1.6-0.2-2-0.3c-0.5-0.2-0.9,0-0.9,0.3c0,0.9,1.3,1.2,2.8,0.6C91.4,112.2,91.4,112.1,90.3,112.1L90.3,112.1z M450.9,112.7
	c-0.2-0.2-1.4-0.4-2.8-0.5c-1.8-0.1-2.5,0-2.2,0.4c0.2,0.3,1.5,0.6,2.8,0.5C450.1,113,451,112.8,450.9,112.7L450.9,112.7z
	 M879.3,119.2c-1.5,0.4-1.4,0.4,1,0.5c1.6,0,2.5-0.2,2.3-0.5C882.2,118.6,881.7,118.6,879.3,119.2z M31.7,127.3
	c0.4-0.2,0.3-0.3-0.4-0.3c-0.6,0-0.9,0.1-0.7,0.3C30.8,127.4,31.3,127.5,31.7,127.3L31.7,127.3z M36.3,128c0.6,0.3,1.6,0.5,2.2,0.5
	c0.9-0.1,0.8-0.1-0.3-0.5C36.3,127.4,34.8,127.4,36.3,128z M45.6,127.8c-1.2-0.4-1.8-0.4-2.1,0.1c-0.2,0.4-0.8,0.6-1.5,0.6
	c-2,0-0.3,1,2.2,1.3c2,0.2,2.3,0.1,2.3-0.7C46.5,128.6,46.1,128,45.6,127.8L45.6,127.8z M941.4,137.4c-0.7,0.4-0.7,0.5,0.1,0.5
	c0.6,0,1-0.2,1-0.5C942.5,136.8,942.4,136.8,941.4,137.4z M59.3,159.9c0.4-0.2,0.3-0.3-0.4-0.3c-0.6,0-0.9,0.1-0.7,0.3
	C58.4,160,58.9,160.1,59.3,159.9L59.3,159.9z M52.2,160.5c-2.8-0.2-3.3,0.4-1.1,1.2c2.1,0.8,3.6,0.7,3.6-0.2
	C54.7,161,53.9,160.7,52.2,160.5z M63.9,160.6c-0.8,0-1.4,0.3-1.4,0.8c0,0.8,1.9,0.6,2.5-0.3C65.2,160.8,64.7,160.6,63.9,160.6z
	 M57.5,161.7c0,0.3,1,0.5,2.1,0.5c1.5,0,1.8-0.1,1.2-0.5C59.7,161,57.5,161,57.5,161.7z M980.5,225.7c-0.4,0-0.6,0.2-0.6,0.6
	s0.3,0.6,0.6,0.6c0.4,0,0.6-0.3,0.6-0.6S980.9,225.8,980.5,225.7z M985.1,236.6c0.4-0.1,0.1-0.3-0.7-0.3c-0.8,0-1.1,0.1-0.7,0.3
	S984.7,236.8,985.1,236.6L985.1,236.6z M975.6,243.1c-1.3,0-1.9,0.1-1.2,0.2c0.7,0.1,1.8,0.1,2.5,0C977.5,243.1,977,243,975.6,243.1
	z M951.3,247.7c0-0.2,0-0.4-0.2-0.4c-0.1,0-0.4,0.1-0.7,0.2c-0.3,0.1-2.7,0.6-5.4,0.9s-5,0.9-5.2,1.2c-0.2,0.4,0.2,0.4,1,0.2
	c0.7-0.2,3.4-0.6,5.9-1C949.3,248.4,951.3,247.9,951.3,247.7L951.3,247.7z M143.9,252.8c0.2,0.3,1,0.5,1.8,0.5
	c1.3,0,1.4-0.1,0.4-0.5C144.6,252.2,143.5,252.2,143.9,252.8z M947.5,256.1c0-0.3-0.1-0.5-0.1-0.4c-0.1,0.1-2.9,0.4-6.2,0.6
	s-6.3,0.7-6.6,1c-0.7,0.7,0.5,0.7,7.4-0.1C945,256.9,947.5,256.4,947.5,256.1L947.5,256.1z M114.3,262.2c-0.3,0-0.5,0.2-0.5,0.5
	s0.4,0.5,0.8,0.5s0.7-0.2,0.5-0.5C115,262.4,114.6,262.2,114.3,262.2z M189,263.7c0.4-0.2,0.3-0.3-0.4-0.3c-0.6,0-0.9,0.1-0.7,0.3
	C188.1,263.8,188.6,263.9,189,263.7L189,263.7z M102.2,264.4c-0.7,0.4-0.7,0.5,0.1,0.5c0.6,0,1-0.2,1-0.5
	C103.3,263.7,103.3,263.7,102.2,264.4z M105.5,265.3c0-0.2-0.2-0.4-0.6-0.6c-0.4-0.2-0.6-0.1-0.6,0.2c0,0.3,0.3,0.6,0.6,0.6
	C105.3,265.5,105.5,265.4,105.5,265.3L105.5,265.3z M137,269.1c-0.8-0.2-2.7-0.4-4.2-0.8c-2.2-0.1-2.9,0-2.9,0.6
	c0,0.5,0.4,0.8,0.9,0.8c1.5,0,5.7,1.8,5.7,2.4c0,0.3,0.4,0.3,0.8-0.1c0.5-0.5,1.3-0.5,2.6-0.2c1,0.3,2.3,0.5,3,0.4
	c0.9,0,1.1,0.2,0.9,0.8c-0.3,0.8-0.2,0.8,0.5,0.2c0.7-0.5,1-0.5,1.2,0.1c0.1,0.4,1.1,0.9,2.1,1.1c4.2,0.8,5.4,1.1,5.4,1.6
	c0,0.2-0.2,0.3-0.4,0.2c-0.2-0.2-0.8-0.1-1.2,0.2c-0.7,0.4-0.6,0.5,0.3,0.5c0.7,0,2.8,0.6,4.7,1.4c2.5,1,4.5,1.3,6.9,1.3
	c3.6,0,6.4-0.6,5.5-1.1c-1.2-0.7-6.3-1.6-8.1-1.5c-4.1,0.3-6.6-0.1-6.6-0.9c0-0.6,0.6-0.8,1.9-0.8c2.6,0,2.4-0.9-0.4-2.1
	c-1.9-0.8-5.7-2-5.7-1.8c0,0.1-0.8-0.2-1.9-0.5s-3.7-0.7-5.8-1C140.1,269.7,137.8,269.3,137,269.1L137,269.1z M159.1,288.6
	c-0.9-0.3-1.1-0.2-0.7,0.2c0.3,0.3,0.9,0.4,1.3,0.3C160.1,289,159.9,288.8,159.1,288.6z M826.6,291.3c0-0.6-2.7-0.5-3,0.1
	c-0.2,0.3,0.3,0.5,1.3,0.4C825.8,291.8,826.6,291.5,826.6,291.3L826.6,291.3z M161.3,294.8c-0.8,0-1.9-0.2-2.7-0.4
	c-0.6-0.2-1.2-0.1-1.2,0.2c0,0.8,2.5,1.3,4,0.7l1.3-0.5H161.3L161.3,294.8z M821.3,294.2c-0.4,0-0.8,0.2-0.8,0.5s0.3,0.5,0.8,0.5
	c0.4,0,0.8-0.2,0.8-0.5S821.8,294.2,821.3,294.2z M824.5,294.6c0.4-0.2,0.3-0.3-0.4-0.3c-0.6,0-0.9,0.1-0.7,0.3
	C823.6,294.7,824.1,294.8,824.5,294.6L824.5,294.6z M170.8,295.7c0.4-0.2,0.3-0.3-0.4-0.3c-0.6,0-0.9,0.1-0.7,0.3
	C169.9,295.8,170.4,295.9,170.8,295.7L170.8,295.7z M108.2,295.8c-0.4,0-0.6,0.3-0.6,0.6c0,0.4,0.3,0.6,0.6,0.6
	c0.4,0,0.6-0.3,0.6-0.6S108.6,295.9,108.2,295.8z M122.4,297c-0.7-0.6-0.8-0.6-0.5,0.2c0.3,0.8,1.3,1.3,1.3,0.7
	C123.2,297.8,122.8,297.4,122.4,297z M128.2,297c-0.3,0-0.4,0.3-0.2,0.8c0.1,0.4,0.4,0.8,0.5,0.8c0.1,0,0.2-0.3,0.2-0.8
	C128.7,297.4,128.5,297,128.2,297z M851.5,316.7c0.4-0.2,0.3-0.3-0.4-0.3c-0.6,0-0.9,0.1-0.7,0.3
	C850.6,316.8,851.1,316.9,851.5,316.7L851.5,316.7z M343.2,327.9c-0.5-0.9-1.4-0.6-1,0.3c0.2,0.4,0.5,0.7,0.8,0.5
	C343.3,328.6,343.4,328.2,343.2,327.9L343.2,327.9z M81.1,90.9c0.4-0.4,2.4-0.7,5.3-0.8c3.9-0.1,5.1,0.1,5.9,0.8
	c0.7,0.7,0.9,0.7,0.8,0.2c-0.1-0.4,0.1-0.9,0.5-1c0.9-0.3,0.3,1.8-0.8,2.7c-0.7,0.5-0.9,0.5-1.1,0c-0.4-1.1-4.6-0.8-5.5,0.3
	c-0.7,0.9-0.7,0.9-0.5,0.1c0.3-0.8-0.9-1.6-2.5-1.6c-0.8,0-0.1,1.4,1,1.7c0.7,0.2,0.4,0.4-1.1,0.4c-2.9,0.1-4.2-0.7-2.7-1.5
	c0.6-0.3,0.9-0.6,0.6-0.6C80.7,91.6,80.8,91.3,81.1,90.9L81.1,90.9z M74.8,91.9c0.5,0.3-0.1,1.9-0.7,1.9c-0.9,0-1.2-1.2-0.5-1.7
	C74,91.9,74.5,91.8,74.8,91.9z M88.7,96.6c0.9,1.1,0.7,1.6-0.8,1.4c-0.5-0.1-1.4-0.2-2.1-0.2c-1.1-0.1-1.2-0.2-0.6-1.2
	C86.1,95.2,87.4,95.2,88.7,96.6z M420.3,100.5c0.4,0,0.6,0.3,0.6,0.6s-0.2,0.4-0.6,0.2c-0.4-0.2-0.6-0.5-0.6-0.6
	C419.7,100.6,419.9,100.5,420.3,100.5z M426.4,100.8c0.6,0.2,0.9,0.5,0.7,0.7c-0.2,0.1-0.6,0-1-0.4
	C425.6,100.5,425.7,100.5,426.4,100.8z M129.8,102.6c0-0.6,1.2-0.6,2.2,0c0.7,0.4,0.7,0.7,0.2,1.2c-0.5,0.6-0.8,0.5-1.5,0
	C130.2,103.4,129.8,102.9,129.8,102.6L129.8,102.6z M754.2,107c0.6,0,1,0.2,0.8,0.6s-0.7,0.6-1.1,0.6c-0.4,0-0.8-0.3-0.8-0.6
	C753.1,107.3,753.6,107.1,754.2,107z M743.7,108.2c0-0.3,0.5-0.5,1.1-0.4c0.6,0,0.9,0.3,0.8,0.5
	C745.2,108.9,743.7,108.8,743.7,108.2L743.7,108.2z M199.7,108.6c0.3,0.1-0.3,0.5-1.3,1c-1.9,1-2.7,0.8-2.2-0.5
	C196.5,108.4,197.3,108.3,199.7,108.6z M674.2,109.8c0.3,0,0.4,0.2,0.2,0.6s-0.5,0.6-0.6,0.6c-0.1,0-0.2-0.3-0.2-0.6
	S673.9,109.8,674.2,109.8z M665.7,110.9c0.3-0.6,0.4-0.6,0.7,0c0.2,0.8-0.3,1.5-0.8,1C665.4,111.7,665.5,111.3,665.7,110.9
	L665.7,110.9z M669.2,110.8c0,0.3-0.5,0.6-1.1,0.8c-1.2,0.3-1.5-0.4-0.4-0.9C668.8,110.3,669.2,110.3,669.2,110.8z M932.4,113.5
	c0.6-0.6,1.3-0.4,1.3,0.5c0,0.4-0.3,0.8-0.8,0.8C932,114.8,931.8,114.1,932.4,113.5L932.4,113.5z M248.8,117
	c0.1,0.2-0.2,0.4-0.8,0.4c-0.6,0-0.9-0.3-0.8-0.5C247.6,116.3,248.4,116.3,248.8,117z M255.2,117.2c1.9,0.1,3.5,0.3,3.7,0.5
	c0.2,0.2,0,0.4-0.4,0.4c-0.7,0-0.7,0.1,0,0.6c0.6,0.4,0.1,0.5-1.7,0.3c-1.4-0.1-2.9-0.3-3.4-0.3c-0.5-0.1-1-0.4-1.2-0.9
	C251.9,117.2,252.4,117.1,255.2,117.2z M27.7,118.7c0.8,0,1.2,1,0.6,1.4c-0.8,0.4-1.8-0.2-1.4-0.9C27.1,118.9,27.4,118.7,27.7,118.7
	z M32.8,133.9c0.2,0.5,0.1,0.7-0.2,0.5c-0.3-0.2-0.5-0.6-0.5-0.9C32.1,132.7,32.5,132.9,32.8,133.9z M36.9,133.5
	c0.1,0.3,0.1,0.6-0.2,0.8s-0.5-0.1-0.5-0.5C36.2,132.9,36.3,132.8,36.9,133.5z M999.7,205.4c0.3,0,0.2,0.2-0.3,0.5s-1.1,0.5-1.4,0.5
	c-0.3,0-0.2-0.2,0.3-0.5C998.7,205.6,999.4,205.4,999.7,205.4z M92.3,246.4c0.6-0.1,1.1,0.1,1.1,0.4s-0.5,0.5-1.1,0.5
	s-1.1-0.2-1.1-0.4C91.2,246.6,91.7,246.4,92.3,246.4z M114.3,255c1.3-1.1,2.8-1.4,2.8-0.6c0,0.2,1.3,0.5,2.9,0.5s3.6,0.4,4.5,0.9
	c1,0.5,2.3,0.7,3.3,0.5s1.6-0.2,1.4,0c-0.5,0.6-3.8,1.4-3.8,1c0-0.2-1.3-0.4-2.9-0.4c-1.6,0-4.4-0.3-6.2-0.5L113,256L114.3,255
	L114.3,255z M107.3,254.8c-0.1-0.2,0.2-0.3,0.8-0.3s0.7,0.1,0.3,0.3C108,255,107.5,255,107.3,254.8L107.3,254.8z M97.6,262
	c0.2,0.4,0.2,0.9,0,1.1c-0.2,0.2-0.3-0.1-0.3-0.7S97.5,261.7,97.6,262z M112.4,267.1c-0.2-0.3,0-0.6,0.5-0.6s0.9,0.3,0.9,0.6
	c0,0.3,0.5,0.6,1,0.6c0.8,0,0.8,0,0.1,0.5c-0.7,0.4-0.6,0.5,0.3,0.6c0.6,0.1,1.9,0.1,2.9,0c1,0,1.8,0.2,1.8,0.5s-0.4,0.5-1,0.4
	s-1.4,0-1.8,0.3c-0.6,0.4-0.6,0.5,0.2,0.5c0.6,0,1,0.4,1,1.1c0,1.5-0.4,1.4-4.4-0.5c-3.4-1.6-3.4-1.6-2.3-2.6
	C112.2,268,112.6,267.3,112.4,267.1L112.4,267.1z M120.5,271.7c0.6,1-0.1,1.6-1,0.9c-0.6-0.5-0.7-0.8-0.1-1.1
	C119.8,271.3,120.3,271.4,120.5,271.7z M101.5,294.2c0.5,0,0.7,0.3,0.5,0.6c-0.2,0.4-0.7,0.6-1.2,0.6s-0.7-0.3-0.5-0.6
	S101,294.2,101.5,294.2z M111.6,297.3c-0.6-0.8-0.5-0.8,0.2-0.5c0.5,0.2,0.9,0.5,0.9,0.8C112.7,298.4,112.4,298.3,111.6,297.3
	L111.6,297.3z M897,306.4c0.3,0,0.2,0.2-0.2,0.5c-0.7,0.5-4.3-0.1-4.9-0.7C891.6,305.9,894,306,897,306.4z M888.5,306.8
	c0.9-0.5,2.6-0.6,2.7,0c0,0.3-0.8,0.5-1.7,0.5C888.4,307.3,888,307.1,888.5,306.8L888.5,306.8z M874.3,307.5
	c1.2-0.2,2.3-0.5,2.6-0.4c0.4-0.1,3,1.5,2.6,1.6c-1,0.2-1.6,0.4-1.7,0.5c-0.1,0.1-1.4,0.2-2.9,0.3c-1.6,0.1-2.8,0.2-2.8,0.2
	s-2.1,0.1-4.7,0.2c-2.6,0.1-5,0.4-5.4,0.6c-0.4,0.2-0.7,0.1-0.7-0.2c0-0.4-0.4-0.4-1-0.1c-0.6,0.2-2.5,0.4-4.4,0.4
	c-1.8-0.1-3.2,0.1-3.1,0.3s-1.1,0.5-2.7,0.5s-3.4,0.1-4,0.1c-0.6,0-1.5-0.2-1.9-0.5c-0.6-0.4-0.7-0.4-0.4,0.1
	c0.2,0.4,0.1,0.7-0.2,0.7s-0.6-0.3-0.6-0.6c0-0.4-0.8-0.6-1.7-0.6c-0.9,0-1.5,0.3-1.3,0.6c0.2,0.4,0.2,0.6,0,0.6
	c-0.4,0-3.6-1.6-3.6-1.8c0-0.1,2.3-0.1,5,0c3,0.1,5.5-0.1,6.2-0.5c0.7-0.3,4.2-0.7,7.9-0.8C866.2,308.4,871.9,308,874.3,307.5
	L874.3,307.5z M850.6,309.8c-0.8,0-1.3,0.2-1.1,0.5s0.8,0.5,1.4,0.5s1.1-0.2,1.1-0.5S851.3,309.8,850.6,309.8z M881.5,311.9
	c0.2-0.3,0.4-0.7,0.6-0.7s0,0.5-0.4,1.1c-0.7,1.1-1.6,1.1-1.6,0c0-0.3,0.2-0.4,0.5-0.2C880.9,312.3,881.3,312.2,881.5,311.9
	L881.5,311.9z M869.7,314.1c0.5-0.6,1.4-1.1,2-1c0.8,0,1.6,1.9,1.1,2.8c-0.4,0.7-3.2,0.8-3.8,0.2c-0.7-0.7-2.2-0.7-3.1,0
	c-0.8,0.7-4.7,0.8-5.3,0.2c-0.8-0.8,2.3-2,4.9-1.8c1.4,0.1,2.8,0.3,2.9,0.4S869.1,314.7,869.7,314.1L869.7,314.1z M875.4,313.6
	c0.5-0.9,2.3-0.7,2.3,0.2c0,1-0.7,1.1-1.2,0.3c-0.1-0.3-0.6-0.4-0.9-0.2C875.2,314.1,875.2,314,875.4,313.6L875.4,313.6z
	 M229.9,317.7c-0.2-0.1,0.1-0.3,0.8-0.3c0.6,0,0.7,0.1,0.3,0.3S230.1,317.9,229.9,317.7L229.9,317.7z M341.9,332.8
	c0.3,0,0.4,0.3,0.2,0.6c-0.2,0.4-0.5,0.6-0.6,0.6c-0.1,0-0.2-0.3-0.2-0.6S341.6,332.8,341.9,332.8z M354.1,333.4
	c0.7-0.5,6,0.5,7.5,1.6c0.9,0.5,1.6,0.6,1.8,0.3c0.1-0.3,0.7-0.4,1.1-0.2c0.4,0.2,0.7,0.5,0.5,0.8c-0.1,0.3,0,0.7,0.3,0.8
	c0.3,0.1,0.8-0.2,1.1-0.7c0.6-1,3.4-1.6,3.4-0.7c0,0.3,1.1,0.5,2.3,0.4c1.4-0.1,2.3,0.1,2.5,0.6s0.4,0.6,1,0.1
	c0.8-0.7,2.1-0.2,1.6,0.6c-0.1,0.3,0,0.5,0.3,0.5c0.3,0,0.6-0.3,0.6-0.6c0-1.1,10.3,0.1,11.1,1.2c0.4,0.6,6.1,1.5,5.7,0.9
	c-0.1-0.3,0.1-0.5,0.6-0.5s0.9,0.2,0.9,0.4s0.6,0.4,1.4,0.4s1.4-0.3,1.4-0.5s0.5-0.2,1.2,0c0.7,0.2,2.8,0.4,4.8,0.5
	c5,0.2,5.1,0.2,4.7,0.8c-0.2,0.4,0.4,0.4,1.9,0.2c1.6-0.2,2.6-0.1,3.2,0.4c0.5,0.5,0.8,0.5,0.6,0.2c-0.2-0.4,1.4-0.6,5-0.7
	c2.9-0.1,5.6-0.4,6-0.7c0.4-0.4,1.3-0.5,2.2-0.2c0.8,0.2,2.6,0.4,3.9,0.5c1.3,0.1,2.5,0.3,2.6,0.4c0.1,0.2,1.7,0.1,3.4-0.2
	c1.7-0.2,4.8-0.4,6.9-0.3c2,0.1,3.7,0.1,3.7-0.1c0-0.3,7.3,0,7.7,0.4c0.8,0.7-1.6,1.5-5.3,1.5c-2.3,0-4.3,0.3-4.4,0.6
	c-0.1,0.3,0.9,0.5,2.6,0.5c2.2-0.1,3,0.2,4.1,1.3c0.8,0.8,1.4,1.6,1.4,1.8c0,0.2-1,0.6-2.3,0.8c-1.3,0.2-2.7,0.5-3.2,0.7
	c-1,0.3-8.5,0.3-13.2-0.1c-1.9-0.1-5.9-0.4-8.8-0.6c-7.4-0.4-13.1-0.8-16-1.1c-1.4-0.1-4.6-0.3-7.2-0.5c-5.5-0.4-17.6-1.7-22.4-2.5
	c-1.8-0.3-4.2-0.6-5.2-0.6c-1.1-0.1-2.4-0.3-3-0.6c-1.1-0.5-1.1-0.5,0-0.3c1.5,0.2,1.6-1.1,0.2-1.5c-0.6-0.2-1.1,0.1-1.3,0.8
	c-0.2,0.5-0.7,1-1.1,1s-1.2,0.2-1.7,0.4c-0.7,0.3-0.9,0.2-0.5-0.4c0.4-0.7,0.3-0.7-0.4-0.1c-0.9,0.7-2.6,0.4-3.4-0.7
	c-0.3-0.4-0.5-0.4-0.7,0.1c-0.2,0.4-0.8,0.7-1.4,0.7s-1-0.2-0.8-0.5c0.4-0.6-0.7-1.5-2.7-2c-0.9-0.3-1.9-0.5-2.1-0.6
	s-0.8-0.2-1.4-0.2c-0.6,0-1-0.4-1.1-0.9c-0.1-0.5-0.1-1.2-0.2-1.7c-0.1-0.5-0.5-0.8-1.1-0.6C353.4,335,353.2,334.1,354.1,333.4
	L354.1,333.4z M346.8,335.3c0.3,0.2,0.4,0.6,0.2,0.9c-0.5,0.8-0.8,0.7-0.8-0.3C346.2,335.4,346.5,335.2,346.8,335.3z M348.3,336.8
	c-0.4-0.4-0.2-0.5,0.7-0.3c0.8,0.2,1,0.5,0.6,0.6C349.2,337.3,348.6,337.1,348.3,336.8L348.3,336.8z M538.5,338.2
	c0.7-0.1,1.3-0.2,1.4-0.3c0.1,0,0.1,0.2,0,0.6c-0.2,0.7-2.6,1.1-2.6,0.4C537.3,338.6,537.8,338.3,538.5,338.2L538.5,338.2z
	 M526.8,339c0.5,0,1.2,0.2,1.7,0.5c1,0.7,0.1,0.7-1.4,0C526.3,339.2,526.2,339,526.8,339z M531.5,338.9c1.2,0,1,0.4-0.3,0.7
	c-0.6,0.2-1,0.1-0.8-0.2C530.6,339.2,531.1,338.9,531.5,338.9z M459.3,340.7c0.8-0.7,1.6-0.9,3.9-0.6c1.7,0.2,3.4,0.5,3.8,0.8
	c0.5,0.3,0.6,0.3,0.4-0.1c-0.6-0.9,0.6-1.4,1.8-0.7c0.7,0.4,1.2,0.4,1.4,0c0.5-0.8,2.9-0.6,3.8,0.3c0.9,0.9,1.8,1.1,1.3,0.4
	c-0.1-0.2,0.7-0.3,1.9-0.2c2.5,0.3,2.5,1.1,0,0.9c-1-0.1-1.8,0-2,0.3c-0.1,0.2-0.8,0.3-1.5,0.2s-4.5-0.3-8.5-0.3
	C458.8,341.6,458.4,341.6,459.3,340.7L459.3,340.7z M504.2,339.4c0.3,0,0.4,0.3,0.2,0.6c-0.2,0.4-0.5,0.6-0.6,0.6s-0.2-0.3-0.2-0.6
	C503.6,339.7,503.9,339.5,504.2,339.4z M482.3,341.2c-0.2,0.3-0.6,0.5-1,0.5c-0.4,0-0.3-0.2,0.2-0.5
	C482.6,340.5,482.8,340.5,482.3,341.2z M697.1,341.2c-0.4-0.7,6.3-0.3,7,0.3c0.5,0.6,0.4,0.7-0.5,0.7c-0.7,0-1.3,0.2-1.5,0.4
	c-0.1,0.2-2.1,0.4-4.4,0.4s-4.2,0.2-4.2,0.4c0,0.7-1.7,0.4-1.7-0.3c0-0.4-0.3-0.2-0.6,0.3c-0.3,0.6-1.2,1-1.9,1c-1,0-1.3-0.3-1-1
	c0.3-0.9,0.3-0.9-0.4,0c-0.7,0.9-0.9,0.9-2.3,0.2c-1.4-0.8-1.5-0.7-1.5,0.4c0,0.7-0.2,1-0.4,0.7c-0.2-0.3-0.7-0.6-1.2-0.7
	s-0.9-0.4-1-0.7c-0.1-0.2-0.6-0.3-1.1-0.2c-0.5,0.2-0.1-0.1,1-0.6c1.5-0.7,2.9-0.9,6.2-0.6c2.7,0.2,4.3,0.2,4.3-0.2
	c0-0.6,2.4-0.5,3,0.1C695.3,342.2,697.4,341.7,697.1,341.2L697.1,341.2z M709.7,341c2.1,0.3,1.3,1.3-0.9,1c-1-0.2-2-0.3-2.2-0.3
	s-0.4-0.2-0.4-0.5C706.2,340.7,707.6,340.6,709.7,341z M666.5,343.1c0-0.3,1.8-0.5,4.6-0.3c7.7,0.1,8.5,0.2,7.6,0.7
	c-0.6,0.3-0.4,0.5,0.6,0.7c1.2,0.2,1.2,0.2-0.2,0.3c-0.8,0-2,0.3-2.5,0.6c-0.5,0.3-2.3,0.3-4,0.1c-2.5-0.4-3.2-0.3-3.7,0.4
	c-0.3,0.5-0.5,0.6-0.3,0.2s-0.3-0.8-1.2-1c-0.8-0.2-1.9-0.5-2.3-0.6c-0.6-0.2-0.7-0.1-0.1,0.6c0.5,0.7,0.5,0.9-0.1,1.1
	c-1.7,0.5-11,1.3-15,1.2c-2.4-0.1-4.3,0-4.3,0.2c0,0.6-15.8,1.5-25,1.4c-5.9,0-9.3,0.2-9.3,0.5c-0.1,0.3-0.3,0.2-0.6-0.3
	c-0.4-0.7-0.7-0.7-1-0.2c-0.2,0.4-0.7,0.5-1.1,0.2c-0.6-0.4-5.1,0.2-6.1,0.8c-0.5,0.2-5.7,0.5-26,1.1c-5.7,0.2-14.7,0.5-20.2,0.7
	s-18.8,0.4-29.7,0.4c-16,0-19.8-0.1-20.2-0.7c-0.3-0.5-0.5-0.5-0.8-0.1c-0.2,0.4-0.8,0.3-1.8-0.5l-1.5-1.1l-0.4,1.1
	c-0.2,0.6-0.6,1.1-0.7,1.1s-0.1-0.3,0.1-0.6c0.2-0.4,0-0.5-0.8-0.2c-0.7,0.2-1.2,0.1-1.2-0.2c0-0.3-0.5-0.6-1.1-0.6
	c-0.7,0-1.5-0.3-2-0.8c-0.6-0.6-0.7-0.8-0.1-0.8c0.5,0,0.5-0.1-0.1-0.5c-0.6-0.4-0.4-0.5,1-0.5c1.1,0,1.7,0.2,1.5,0.5
	c-0.2,0.4-0.1,0.6,0.2,0.6s0.6-0.3,0.6-0.6c0-0.4,0.4-0.6,0.9-0.6s0.7-0.3,0.5-0.6c-0.2-0.4-0.1-0.6,0.2-0.6s0.6,0.2,0.6,0.4
	c0,0.2,1.4,0.4,3,0.4s3-0.1,3-0.3s5.2-0.4,11.5-0.4c6.3-0.1,20.5-0.2,31.6-0.4s23.5-0.4,27.6-0.4c4.5,0,7.7-0.3,7.9-0.6
	s0.4-0.3,0.4,0.2c0,0.6,0.2,0.6,0.8,0.1c0.5-0.5,2.6-0.6,6.1-0.5c2.9,0.1,5.4,0.1,5.6-0.1c0.6-0.5,2.5-0.6,2.5-0.1
	c0,0.3,0.7,0.3,1.8,0c1-0.3,2.5-0.5,3.2-0.5s6-0.2,11.7-0.3c6.5-0.1,10.4,0,10.4,0.3s0.4,0.5,0.8,0.5s0.8-0.2,0.8-0.5
	c0-0.6,5.5-0.2,6.3,0.5c0.4,0.4,7.7,0.4,7.7,0c0-0.1,1.3-0.2,3-0.3c5.1-0.3,10-0.8,10.5-1.1c0.3-0.2,0.5-0.1,0.5,0.2
	c0,0.7,3.3,0.5,3.3-0.2c0-0.4,0.1-0.4,0.4,0c0.2,0.4,1.4,0.6,2.5,0.6C665.6,343.7,666.5,343.4,666.5,343.1L666.5,343.1z
	 M505.5,347.3c-0.9,0-1.1,0.8-0.3,1.3c0.3,0.2,0.6,0,0.8-0.5S506,347.2,505.5,347.3z M473.8,346.2c-0.6-1.1-0.6-1.2,0.5-0.8
	c0.6,0.2,1.6,0.4,2.4,0.3c2.1-0.2,3.9,0.3,3.5,1c-0.2,0.4-0.1,0.5,0.5,0.3c0.5-0.2,1,0,1.2,0.5s0.1,0.7-0.2,0.5s-0.5-0.1-0.5,0.2
	c0,1.2,2,0.6,2.6-0.7c0.6-1.2,0.9-1.3,4.1-1.2c2.1,0,3.4,0.3,3.2,0.6c-0.2,0.3-0.5,0.5-0.8,0.4c-0.3-0.1-0.3,0.5-0.2,1.3
	c0.2,1,0,1.6-0.7,2c-1.4,0.8-1.4,0.8-2.2-1.1c-0.7-1.6-1.7-2.3-1.7-1.1c0,0.4,0.2,0.6,0.5,0.6s0.6,0.3,0.8,0.8
	c0.3,0.7,0.2,0.7-0.8,0.2c-0.8-0.4-1.1-0.4-0.8,0c0.2,0.4-0.3,0.6-1.6,0.6c-1.1,0-2-0.3-2-0.6c0-0.5-0.9-0.5-2.7-0.3
	c-2.2,0.3-2.7,0.2-2.7-0.5c0-0.4,0.2-0.8,0.4-0.8s0.3-0.3,0.1-0.8c-0.4-1.2-1.6-1-2.2,0.4l-0.5,1.2l-0.7-1.2
	c-0.5-1.1-0.5-1.2,0.3-0.9C474.3,347.4,474.4,347.3,473.8,346.2L473.8,346.2z M488.4,347.7c-0.1,0-0.3,0.2-0.5,0.5
	c-0.2,0.3,0.1,0.5,0.5,0.5s0.7-0.2,0.5-0.5C488.7,348,488.5,347.8,488.4,347.7z M468,346.4c0.8,0.8,1,2.6,0.2,2.6
	c-0.3,0-0.4-0.4-0.2-0.9c0.2-0.6-0.1-1-0.8-1.2c-0.6-0.2-1-0.5-0.8-0.8C466.8,345.4,467.1,345.4,468,346.4z M470.1,346.9
	c0.4,0,0.6,0.3,0.4,0.7c-0.1,0.4-0.3,0.7-0.4,0.7c0,0-0.2-0.3-0.4-0.7C469.6,347.2,469.7,346.9,470.1,346.9z M471.9,349.1
	c-1.3-0.9-0.2-1,1.5-0.2c0.9,0.5,1.2,0.5,1.4,0c0.1-0.3,0.4-0.5,0.7-0.3c0.9,0.5,0,1.3-1.3,1.3C473.5,349.9,472.5,349.5,471.9,349.1
	L471.9,349.1z M464.5,349.2c-0.1-0.2,0.2-0.3,0.8-0.3s0.7,0.1,0.3,0.3C465.2,349.4,464.7,349.4,464.5,349.2L464.5,349.2z
	 M493.7,349.4c1-0.6,1.1-0.6,1.1,0c0,0.3-0.5,0.5-1,0.5C493,349.9,493,349.9,493.7,349.4L493.7,349.4z M491.8,349.5
	c1.1,0,1,0.4-0.3,1.1c-0.9,0.4-1.1,0.4-0.8-0.3C490.9,349.8,491.4,349.4,491.8,349.5z"/>
</svg>
