<?xml version="1.0" encoding="utf-8"?>
<!-- Generator: Adobe Illustrator 25.2.0, SVG Export Plug-In . SVG Version: 6.00 Build 0)  -->
<svg version="1.1" id="Camada_1" xmlns="http://www.w3.org/2000/svg" xmlns:xlink="http://www.w3.org/1999/xlink" x="0px" y="0px"
	 viewBox="0 0 661.5 661.4" style="enable-background:new 0 0 661.5 661.4;" xml:space="preserve">
<style type="text/css">
	.st0{stroke:#000000;stroke-miterlimit:10;}
	.st1{fill:#F6C60C;}
</style>
<circle class="st0" cx="330.8" cy="330.8" r="330.8"/>
<path class="st1" d="M275.3,426.5H261v39h10.3v-12.4h4.2C296,454,296.5,424.8,275.3,426.5z M275,444.9h-3.7v-10.3h3.5
	C283.1,433.6,283,445.4,275,444.9z"/>
<path class="st1" d="M151.5,392.3c-1.2,5.6-3.3,9.8-4.7,9.8c-1,0-29.2-28.1-61.9-62.5c-51.1-53.8-59.8-64.2-59.8-73.6v-10.6
	c0.8,6.4,108.9,128.9,115.5,118.8C184.1,301,206,266.6,245.7,206.5c37.6-55.9,54.8-81.2,59.2-69
	C292.4,145.8,155.3,373.5,151.5,392.3z"/>
<path class="st1" d="M321.6,450.2c12.4-7.6,5.7-25.6-9.3-23.8h-14.8v39h10.3v-13.1h4l6.7,13.1h11.6L321.6,450.2z M311.5,444.2h-3.7
	v-9.6h3.7C320.1,433.5,319.5,444.8,311.5,444.2z"/>
<path class="st1" d="M351.7,425.7c-24.2-1.6-23.8,41.8,0,40.4C375.5,467.6,375.9,424.2,351.7,425.7z M351.7,457.3
	c-9.9,1.1-10.1-23.8,0-22.7C361.8,433.5,361.6,458.4,351.7,457.3z"/>
<path class="st1" d="M197.3,397.9c11.9-33.6,115.3-220.6,135.3-252.8c1.7,0,1.4,2.1-0.7,4.2c-18.3,31.1-76,142.7-97.7,182.2
	C218.9,360.7,206,386,206,387.4c0,3.5,46.6,8.3,53.6,5.5c11.5-4.2,124.2-221.1,118.3-227c-2.1-3-28.7-9.5-29.2-14.2
	c0-1.7,0.4-3.1,1-3.1c3.5,0,35.8,11.8,38.3,13.5c5.5-1.3-112.3,231.5-108.9,229.4c0,1.7-1.4,3.5-3.5,3.5c-5.5-0.6-1.3-10.5-8.4-1.2
	C269,403.6,202,401.1,197.3,397.9z"/>
<path class="st1" d="M388.3,426.4h-11.5v39h12.1C414.9,467.3,415.1,424,388.3,426.4z M387.1,457.1v-22.4h0.6
	C401.9,433,401.1,459.3,387.1,457.1z"/>
<path class="st1" d="M447.3,446.6c2.4,26.5-34.4,26.5-32.2,0v-20.2h10.3v21.4c0,7,1.8,9.5,5.9,9.5s6-2.5,6-9.5v-21.4h10L447.3,446.6
	L447.3,446.6z"/>
<path class="st1" d="M374.3,393.8c-2.8-1-4.9,0-4.9,2.4c-2.3,7.9-72.1,0.6-76.6-1.1c3.3-8.4,30.3-59.4,16-24.6
	c-10.4,20.1-9,21.2,26.1,20.1c24.4-0.4,32.7-2.1,34.8-5.9c23.1-44.8,46-95.4,56.7-122.8c4.5-9.7,10.8-24.7,14.3-33.3
	c3.1-8.7,8.3-18.4,11.1-21.5c3.1-3.5,4.5-8,3.5-10.8c-2.1-5.2-43.5-21.5-47-18.4c-1,1.4-13.6,24.6-27.5,51.7
	c-19.8,40.5-35.5,61.8-16.3,23.3c6.6-9.4,37.8-78,48-81.9c1.7,0.5,50.2,16.2,50.8,19.5c-0.5,8-62.9,144.7-76.5,182.2
	C382.4,390.7,379.2,395.5,374.3,393.8z"/>
<path class="st1" d="M479.9,453.9l5.4,6.5c-2.6,3.1-6.1,5-10.1,5.5l-1.3,3.1c10.1,3.3,3,11.9-7.9,11.1l-0.7-4c7.2,0.1,8.7-4,1.4-4.9
	l2.6-5.3c-30.8-6.4-10.5-56.9,15.5-35l-5.4,6.6C459.2,422.5,459.9,470.6,479.9,453.9z"/>
<path class="st1" d="M504.8,425.7c-24.2-1.6-23.9,41.8,0,40.4C528.8,467.6,528.9,424.2,504.8,425.7z M504.8,457.3
	c-9.9,1.1-10.2-23.8,0-22.7C514.9,433.5,514.7,458.4,504.8,457.3z"/>
<path class="st1" d="M499.1,423.7l-6.6-0.5c0.4-6.6,3.8-9.1,8.2-9.1c5.5-0.3,8.5,6.8,9.9,0.6l6.6,0.5c-0.4,6.6-3.8,9.1-8.2,9.1
	C503.5,424.6,500.6,417.5,499.1,423.7z"/>
<polygon class="st1" points="540.2,456.7 555.7,456.7 555.7,465.4 529.9,465.4 529.9,426.4 555.1,426.4 555.1,435 540.2,435 
	540.2,441.1 552.9,441.1 552.9,449.7 540.2,449.7 "/>
<path class="st1" d="M575.7,466.1c-4.9,0-10.6-1.8-14.8-5.6l5.9-7.1c7,7.2,21.6,2.3,8.2-2.8c-5.9-2.2-12.8-4.8-12.8-12.9
	c-0.2-12.5,19.2-16,27.5-6.9l-5.2,6.5c-5.9-6-19.8-0.9-6.1,3.7l4.7,1.9C596.3,447.9,591.6,466.9,575.7,466.1z"/>
<path class="st1" d="M619.8,367.3c-24.9-10.8-71.9-58.5-102.6-80.9c-13.2-9.7-28.5-21.5-33.7-26.4c-5.5-4.5-9.7-6.6-9.7-4.5
	c0,2.5-1.4,4.2-3.5,4.2c-5.5,0-4.1-6.2,5.6-28.1c8.4-18,13.2-22.5,18.8-17c8.9,6.3,50.9,27,61.9,33.6c10.4,6.2,14.6,7.3,14.6,3.8
	c0.3-2.8,2.1-2.1,5.2,2.1c7.4,9.8,4.5-1.1,7.3-6.3c1.4-3.9-9.1-10.8-43.5-27.8c-25-12.8-47.3-22.9-49.4-22.9
	c-6.3,2-43.7,82.7-31.3,71.5c5.5-3.3,2.6,9,6.9,8.4c9.8,0,94.3,71.5,94.3,79.8c0,3.1-3.8,10.1-8.7,15.3
	c-8.3,19.6-74.7-0.6-102.6,5.6c-9.2,6.6-55-12.3-52.2,10.4c0,8.4,12.5,18.8,19.5,16c3.1-1.1,47-2.1,97.4-2.1
	c70.6-0.3,91.8-1,91.1-4.5c-1.7-7.9,6.9-33,11.2-19c0,3.1,1.4,2.8,3.5-0.7C624.1,371.2,624.5,367.4,619.8,367.3z M402.9,391.6
	c-2-1.1,1.8-14.8,5.5-13.8C412.7,377.9,403.7,392.2,402.9,391.6z M500.3,392.7c-4.1-3.7,10.9-7.2,11.8-5.5
	C514.9,389.6,503.8,394.8,500.3,392.7z M562.6,384.7c-17.6,8.8-11.7-4.5-0.7-3.1C569.2,381.6,569.2,382,562.6,384.7z M564.3,366.7
	c9.8-5.1,6.4-18.4,9.4-9C578.9,379.6,543.3,382.1,564.3,366.7z M585.7,390.6c-1.5-8.4-9.1-3-6.6-12.8c2.8-11.4-7.1,1.9-3.5-8.3
	c1.4-3.5,2.4-8.7,2.8-11.8c0.2-9.6,5.7,11.7,9.8,8.3c1.8-1,4.9,0.4,7,2.8c3.5,3.8,2.8,7.6-1.9,16.6
	C588.5,394.1,586.7,395.5,585.7,390.6z M599.4,390.6c-5.3,11.3-4.2-5.7-1.4-6.9C602.2,379.2,603.2,384.1,599.4,390.6z"/>
</svg>
