<?xml version="1.0" encoding="utf-8"?>
<!-- Generator: Adobe Illustrator 25.2.0, SVG Export Plug-In . SVG Version: 6.00 Build 0)  -->
<svg version="1.1" id="Camada_1" xmlns="http://www.w3.org/2000/svg" xmlns:xlink="http://www.w3.org/1999/xlink" x="0px" y="0px"
	 viewBox="0 0 100 100" style="enable-background:new 0 0 100 100;" xml:space="preserve">
<style type="text/css">
	.st0{fill:#F6C60C;}
	.st1{fill:#F6C60C;stroke:#000000;stroke-width:3;}
	.st2{fill:#F6C60C;stroke:#000000;stroke-width:3;stroke-linecap:round;stroke-linejoin:round;}
	.st3{fill:none;}
</style>
<g id="Layer_2_copy">
	<circle cx="49.5" cy="49.5" r="45.2"/>
	<path d="M49.5,88.3c-21.4,0-38.8-17.4-38.8-38.8c0-21.4,17.4-38.8,38.8-38.8c21.4,0,38.8,17.4,38.8,38.8
		C88.3,70.9,70.9,88.3,49.5,88.3L49.5,88.3z"/>
	<path class="st0" d="M49.5,8.1c22.8,0,41.4,18.5,41.4,41.4c0,22.8-18.5,41.4-41.4,41.4c-22.9,0-41.4-18.5-41.4-41.4
		C8.1,26.7,26.6,8.1,49.5,8.1L49.5,8.1z M49.5,13.3c-20,0-36.2,16.2-36.2,36.2s16.2,36.2,36.2,36.2s36.2-16.2,36.2-36.2
		C85.7,29.5,69.5,13.3,49.5,13.3L49.5,13.3z"/>
</g>
<g id="Layer_1_copy">
	<g>
		<path class="st1" d="M87.8,50.8c0-3.1-2.5-7.4-3.2-10.3L34.9,12.8L10.8,56l50,27.9C72.8,84,87.8,66.8,87.8,50.8z"/>
	</g>
	<polygon class="st2" points="63.1,85 11.1,56 60.7,43.7 73.8,80.2 	"/>
	<g>
		<path class="st1" d="M52.4,62.9l34.7-7.5c0.2-1.5,1.8-2.7,1.8-4.3c0-3.1,0-5.4-0.8-8.2L36.8,14.4L52.4,62.9z"/>
	</g>
</g>
<g id="Layer_5">
	<g>
		<path class="st3" d="M17.7,66.8c3.5,6.4,8.9,11.7,15.4,15c4.9,2.5,10.5,3.9,16.3,3.9c20,0,36.2-16.2,36.2-36.2
			c0-10.4-4.4-19.7-11.4-26.3c-5.7-5.4-13.2-9-21.5-9.7v53.4C52.8,66.8,17.7,66.8,17.7,66.8z"/>
		<path class="st0" d="M78.6,20.1c-6.7-6.7-15.7-11-25.8-11.8v5.2c8.3,0.8,15.8,4.3,21.5,9.7c7,6.6,11.4,16,11.4,26.3
			c0,20-16.2,36.2-36.2,36.2c-5.9,0-11.4-1.4-16.3-3.9c-6.5-3.3-11.9-8.6-15.4-15h-5.8c4,8.6,10.9,15.7,19.4,19.8
			c5.5,2.7,11.6,4.2,18.2,4.2c22.8,0,41.4-18.5,41.4-41.4C90.9,38,86.2,27.6,78.6,20.1z"/>
	</g>
</g>
</svg>
