<?xml version="1.0" encoding="utf-8"?>
<!-- Generator: Adobe Illustrator 25.2.0, SVG Export Plug-In . SVG Version: 6.00 Build 0)  -->
<svg version="1.1" id="Camada_1" xmlns="http://www.w3.org/2000/svg" xmlns:xlink="http://www.w3.org/1999/xlink" x="0px" y="0px"
	 viewBox="0 0 100 100" style="enable-background:new 0 0 100 100;" xml:space="preserve">
<g id="Layer_2_copy">
	<path d="M49.5,4.3c-25,0-45.2,20.2-45.2,45.2s20.2,45.2,45.2,45.2s45.2-20.2,45.2-45.2S74.5,4.3,49.5,4.3z M49.5,90.9
		C29,90.9,12.1,76.1,8.7,56.6c-0.4-2.3-0.6-4.7-0.6-7.1c0-17.4,10.8-32.3,26-38.5c0.2-0.1,0.3-0.1,0.4-0.2c4.6-1.8,9.7-2.8,14.9-2.8
		c22.8,0,41.4,18.5,41.4,41.4C90.9,72.3,72.4,90.9,49.5,90.9z"/>
	<path d="M85.4,54.3L66,58.4l-12.6,2.7l-4.6-14.4l-9.4-29.3l45.8,25.3l0-0.1c-0.1-0.5-0.2-1.1-0.3-1.6c0-0.2-0.1-0.4-0.1-0.5
		c-0.1-0.6-0.3-1.1-0.5-1.7c0-0.1,0-0.1-0.1-0.2C79.4,24,65.7,13.3,49.5,13.3c-3,0-5.9,0.4-8.7,1.1c-0.7,0.2-1.4,0.3-2,0.6h0l-3-1.7
		c-0.8-0.4-0.8-0.4-0.8-0.4c-0.5,0.9,0,0-0.5,0.9l-2.2,3.9c-0.9,0.5-1.8,1-2.6,1.6c-9.5,6.3-15.8,16.9-16.2,29c0,0.4,0,0.8,0,1.2
		c0,0.7,0,1.3,0,1.9l-2.2,4c-0.3,0.6,0,0-0.3,0.6c0.5,0.3,0,0,0.5,0.3l3,1.7c0.2,0.7,0.3,1.3,0.5,2c4.5,14.9,18.3,25.8,34.7,25.8
		c4,0,7.8-0.6,11.3-1.8c0.1,0,0.1,0,0.2-0.1c0.9-0.3,1.8-0.7,2.7-1l0,0l-48-26.4l30.5-7.6l5.1,15.9l14.1-3.1l6.2,16.6l0.1,0
		c0.4-0.3,0.8-0.6,1.1-0.9c0.4-0.3,0.8-0.7,1.2-1l0,0l-5.5-15.3l16.4-3.6l0-0.2c0.1-0.4,0.2-0.9,0.3-1.3c0.1-0.5,0.2-0.9,0.2-1.4
		L85.4,54.3L85.4,54.3C85.4,54.3,85.4,54.3,85.4,54.3z M14.7,53.6l20.1-37.2v0c0.3-0.1,0.6-0.2,0.9-0.4L45.3,46L14.7,53.6z"/>
</g>
</svg>
