<?xml version="1.0" encoding="utf-8"?>
<!-- Generator: Adobe Illustrator 25.2.0, SVG Export Plug-In . SVG Version: 6.00 Build 0)  -->
<svg version="1.1" id="Camada_1" xmlns="http://www.w3.org/2000/svg" xmlns:xlink="http://www.w3.org/1999/xlink" x="0px" y="0px"
	 viewBox="0 0 1125 1091" style="enable-background:new 0 0 1125 1091;" xml:space="preserve">
<style type="text/css">
	.st0{fill:#F6C60C;}
	.st1{opacity:0.25;}
	.st2{fill:#47453C;}
</style>
<rect class="st0" width="1125" height="1091"/>
<g class="st1">
	<path class="st2" d="M416.9,35.9C386.1,56.4,169.1,404.7,0,692.2V587.7c54.2-85.2,109.2-169.4,177-272.1
		C329.3,89,399.1-13.5,416.9,35.9z"/>
	<path class="st2" d="M312.3,1065.3c0,6.9-5.7,14.2-14.2,14.2c-22.3-2.4-5.3-42.6-34-4.9c1.3,6.9-5.9,12.3-18.6,16.4H0v-45.6
		c96-211.3,454.8-859,529.1-978.7c6.9,0,5.7,8.5-2.8,17c-74.2,126-308,578.3-395.9,738.4C68.4,940.5,16.1,1043,16.1,1048.7
		c0,14.2,188.8,33.6,217.2,22.3c46.6-17,503.3-896,479.4-919.9c-8.5-12.2-116.3-38.5-118.3-57.6c0-6.9,1.6-12.6,4-12.6
		c14.2,0,145.1,47.8,155.2,54.7C775.9,130.4,298.6,1073.8,312.3,1065.3z"/>
	<path class="st2" d="M1058.8,250.7c-2,32.4-254.9,586.4-310,738.4c-17.8,72.9-30.8,92.4-50.7,85.5c-11.3-4-19.9,0-19.9,9.7
		c-0.8,2.6-3.4,4.8-7.5,6.7H452.4c-44-4.2-78.5-8.9-84.5-11.1c13.4-34,122.8-240.7,64.8-99.7c-42.1,81.5-36.5,85.9,105.8,81.5
		c98.9-1.6,132.5-8.5,141-23.9c93.6-181.6,186.4-386.6,229.8-497.6c18.2-39.3,43.8-100.1,57.9-135c12.6-35.2,33.6-74.6,45-87.1
		c12.6-14.2,18.2-32.4,14.2-43.8c-8.5-21.1-176.3-87.1-190.5-74.6c-4.1,5.7-55.1,99.7-111.5,209.5c-80.2,164.1-143.9,250.5-66,94.4
		c26.7-38.1,153.2-316.1,194.5-331.9C859.8,173.7,1056.4,237.3,1058.8,250.7z"/>
	<path class="st2" d="M1002.5,1009.4c-37.3,26.8-222.9-49.9-211.5,42.1c0,13.2,7.5,27.5,18.5,39.5H1125v-83.5
		C1077.7,1003.6,1034,1002.3,1002.5,1009.4z M814,1065.7c-8.1-4.5,7.3-60,22.3-55.9C853.8,1010.2,817.3,1068.1,814,1065.7z
		 M1125,386.7v-40c-50.6,95.7-117.5,252.9-81.6,220.5c22.3-13.4,10.5,36.5,28,34c7.8,0,27.3,11.2,53.6,29.4V520.5
		c-14.1-9.6-23.7-12.8-23.7-6.4c0,10.1-5.7,17-14.2,17c-22.3,0-16.6-25.1,22.7-113.9C1115.3,405.7,1120.3,395.6,1125,386.7z"/>
</g>
<g>
	<path class="st2" d="M483,728.8h-22.1v60.3h15.9V770h6.5C515,771.4,515.8,726.2,483,728.8z M482.5,757.3h-5.7v-15.9h5.4
		C495,739.8,494.9,758.1,482.5,757.3z"/>
	<path class="st2" d="M291.5,676c-1.9,8.7-5.1,15.2-7.3,15.2c-1.5,0-45.2-43.5-95.7-96.7c-79-83.2-92.5-99.3-92.5-113.8v-16.4
		c1.2,9.9,168.4,199.3,178.6,183.7c67.3-113.2,101.1-166.4,162.5-259.4c58.1-86.5,84.8-125.6,91.6-106.7
		C509.4,294.7,297.4,646.9,291.5,676z"/>
	<path class="st2" d="M554.6,765.5c19.2-11.8,8.8-39.6-14.4-36.8h-22.9V789h15.9v-20.3h6.2l10.4,20.3h17.9L554.6,765.5z M539,756.2
		h-5.7v-14.8h5.7C552.3,739.7,551.3,757.1,539,756.2z"/>
	<path class="st2" d="M601.1,727.6c-37.4-2.5-36.8,64.6,0,62.5C637.9,792.4,638.6,725.3,601.1,727.6z M601.1,776.5
		c-15.3,1.7-15.6-36.8,0-35.1C616.7,739.7,616.4,778.2,601.1,776.5z"/>
	<path class="st2" d="M362.3,684.6c18.4-52,178.3-341.2,209.2-391c2.6,0,2.2,3.2-1.1,6.5C542.2,348.2,453,520.8,419.4,581.9
		c-23.7,45.2-43.6,84.3-43.6,86.5c0,5.4,72.1,12.8,82.9,8.5c17.8-6.5,192.1-341.9,183-351.1c-3.2-4.6-44.4-14.7-45.2-22
		c0-2.6,0.6-4.8,1.5-4.8c5.4,0,55.4,18.2,59.2,20.9c8.5-2-173.7,358-168.4,354.8c0,2.6-2.2,5.4-5.4,5.4c-8.5-0.9-2-16.2-13-1.9
		C473.2,693.4,369.6,689.6,362.3,684.6z"/>
	<path class="st2" d="M657.7,728.7h-17.8V789h18.7C698.9,791.9,699.2,725,657.7,728.7z M655.9,776.2v-34.6h0.9
		C678.8,738.9,677.5,779.6,655.9,776.2z"/>
	<path class="st2" d="M749,759.9c3.7,41-53.2,41-49.8,0v-31.2h15.9v33.1c0,10.8,2.8,14.7,9.1,14.7s9.3-3.9,9.3-14.7v-33.1H749
		L749,759.9L749,759.9z"/>
	<path class="st2" d="M636.1,678.3c-4.3-1.5-7.6,0-7.6,3.7c-3.6,12.2-111.5,0.9-118.5-1.7c5.1-13,46.9-91.9,24.7-38
		c-16.1,31.1-13.9,32.8,40.4,31.1c37.7-0.6,50.6-3.2,53.8-9.1c35.7-69.3,71.1-147.5,87.7-189.9c7-15,16.7-38.2,22.1-51.5
		c4.8-13.5,12.8-28.5,17.2-33.3c4.8-5.4,7-12.4,5.4-16.7c-3.2-8-67.3-33.3-72.7-28.5c-1.5,2.2-21,38-42.5,80
		c-30.6,62.6-54.9,95.6-25.2,36c10.2-14.5,58.5-120.6,74.2-126.7c2.6,0.8,77.6,25.1,78.6,30.2c-0.8,12.4-97.3,223.8-118.3,281.8
		C648.6,673.5,643.7,680.9,636.1,678.3z"/>
	<path class="st2" d="M799.4,771.2l8.4,10.1c-4,4.8-9.4,7.7-15.6,8.5l-2,4.8c15.6,5.1,4.6,18.4-12.2,17.2l-1.1-6.2
		c11.1,0.2,13.5-6.2,2.2-7.6l4-8.2c-47.6-9.9-16.2-88,24-54.1l-8.4,10.2C767.4,722.7,768.5,797,799.4,771.2z"/>
	<path class="st2" d="M837.9,727.6c-37.4-2.5-37,64.6,0,62.5C875,792.4,875.2,725.3,837.9,727.6z M837.9,776.5
		c-15.3,1.7-15.8-36.8,0-35.1C853.5,739.7,853.2,778.2,837.9,776.5z"/>
	<path class="st2" d="M829.1,724.5l-10.2-0.8c0.6-10.2,5.9-14.1,12.7-14.1c8.5-0.5,13.1,10.5,15.3,0.9l10.2,0.8
		c-0.6,10.2-5.9,14.1-12.7,14.1C835.9,725.9,831.4,714.9,829.1,724.5z"/>
	<polygon class="st2" points="892.7,775.6 916.6,775.6 916.6,789 876.7,789 876.7,728.7 915.7,728.7 915.7,742 892.7,742 
		892.7,751.4 912.3,751.4 912.3,764.7 892.7,764.7 	"/>
	<path class="st2" d="M947.6,790.1c-7.6,0-16.4-2.8-22.9-8.7l9.1-11c10.8,11.1,33.4,3.6,12.7-4.3c-9.1-3.4-19.8-7.4-19.8-20
		c-0.3-19.3,29.7-24.7,42.5-10.7l-8,10.1c-9.1-9.3-30.6-1.4-9.4,5.7l7.3,2.9C979.4,761.9,972.1,791.3,947.6,790.1z"/>
	<path class="st2" d="M1015.8,637.3c-38.5-16.7-111.2-90.5-158.7-125.1c-20.4-15-44.1-33.2-52.1-40.8c-8.5-7-15-10.2-15-7
		c0,3.9-2.2,6.5-5.4,6.5c-8.5,0-6.3-9.6,8.7-43.5c13-27.8,20.4-34.8,29.1-26.3c13.8,9.7,78.7,41.8,95.7,52
		c16.1,9.6,22.6,11.3,22.6,5.9c0.5-4.3,3.2-3.2,8,3.2c11.4,15.2,7-1.7,11.3-9.7c2.2-6-14.1-16.7-67.3-43
		c-38.7-19.8-73.2-35.4-76.4-35.4c-9.7,3.1-67.6,127.9-48.4,110.6c8.5-5.1,4,13.9,10.7,13c15.2,0,145.8,110.6,145.8,123.4
		c0,4.8-5.9,15.6-13.5,23.7c-12.8,30.3-115.5-0.9-158.7,8.7c-14.2,10.2-85.1-19-80.7,16.1c0,13,19.3,29.1,30.2,24.7
		c4.8-1.7,72.7-3.2,150.6-3.2c109.2-0.5,142-1.6,140.9-7c-2.6-12.2,10.7-51,17.3-29.4c0,4.8,2.2,4.3,5.4-1.1
		C1022.4,643.3,1023,637.4,1015.8,637.3z M680.3,674.9c-3.1-1.7,2.8-22.9,8.5-21.3C695.5,653.7,681.6,675.8,680.3,674.9z
		 M830.9,676.6c-6.3-5.7,16.9-11.1,18.3-8.5C853.5,671.8,836.4,679.8,830.9,676.6z M927.3,664.2c-27.2,13.6-18.1-7-1.1-4.8
		C937.5,659.4,937.5,660,927.3,664.2z M929.9,636.4c15.2-7.9,9.9-28.5,14.5-13.9C952.5,656.3,897.4,660.2,929.9,636.4z M963,673.3
		c-2.3-13-14.1-4.6-10.2-19.8c4.3-17.6-11,2.9-5.4-12.8c2.2-5.4,3.7-13.5,4.3-18.3c0.3-14.9,8.8,18.1,15.2,12.8
		c2.8-1.6,7.6,0.6,10.8,4.3c5.4,5.9,4.3,11.8-2.9,25.7C967.4,678.7,964.6,680.9,963,673.3z M984.2,673.3c-8.2,17.5-6.5-8.8-2.2-10.7
		C988.5,655.7,990.1,663.3,984.2,673.3z"/>
</g>
</svg>
