<?xml version="1.0" encoding="utf-8"?>
<!-- Generator: Adobe Illustrator 25.2.0, SVG Export Plug-In . SVG Version: 6.00 Build 0)  -->
<svg version="1.1" id="Camada_1" xmlns="http://www.w3.org/2000/svg" xmlns:xlink="http://www.w3.org/1999/xlink" x="0px" y="0px"
	 viewBox="0 0 24 24" style="enable-background:new 0 0 24 24;" xml:space="preserve">
<path d="M12,19c0.6,0,1,0.4,1,1s-0.4,1-1,1H8c-2.8,0-5-2.2-5-5V8c0-2.8,2.2-5,5-5h8c2.8,0,5,2.2,5,5v8c0,2.8-2.2,5-5,5
	c-0.6,0-1-0.4-1-1s0.4-1,1-1c1.7,0,3-1.3,3-3V8c0-1.7-1.3-3-3-3H8C6.3,5,5,6.3,5,8v8c0,1.7,1.3,3,3,3H12z M12,16.5
	c-2.5,0-4.5-2-4.5-4.5s2-4.5,4.5-4.5s4.5,2,4.5,4.5S14.5,16.5,12,16.5L12,16.5z M12,14.5c1.4,0,2.5-1.1,2.5-2.5S13.4,9.5,12,9.5
	S9.5,10.6,9.5,12S10.6,14.5,12,14.5z M16.5,8.5c-0.6,0-1-0.4-1-1s0.4-1,1-1c0.6,0,1,0.4,1,1S17.1,8.5,16.5,8.5z"/>
</svg>
