<?xml version="1.0" encoding="utf-8"?>
<!-- Generator: Adobe Illustrator 25.2.0, SVG Export Plug-In . SVG Version: 6.00 Build 0)  -->
<svg version="1.1" id="Camada_1" xmlns="http://www.w3.org/2000/svg" xmlns:xlink="http://www.w3.org/1999/xlink" x="0px" y="0px"
	 viewBox="0 0 174.6 98.7" style="enable-background:new 0 0 174.6 98.7;" xml:space="preserve">
<style type="text/css">
	.st0{fill:#57523e;}
</style>
<g>
	<path class="st0" d="M78.1,10.7c0.2,0.7-0.8,2.5-2.4,4L73,17.3l1.5-2.5c0.8-1.4,1.8-3.2,2.3-4C77.5,9.7,77.8,9.7,78.1,10.7z"/>
	<path class="st0" d="M79.7,88.4c-1.6-1.6-5.5-2.2-6.7-0.9c-1.1,1-0.8,9.3,0.3,9.3c0.6,0,0.9-0.6,0.8-1.3c-0.2-0.7,0.9-1.3,2.5-1.5
		C80.2,93.6,81.9,90.5,79.7,88.4z M76.3,92.8c-2.2,0-3-0.5-3-1.8c0-1,0.3-2.2,0.7-2.5c1.6-1.7,5.3,0,5.3,2.4
		C79.3,92.3,78.6,92.8,76.3,92.8z"/>
	<path class="st0" d="M37.6,75c-0.3,1.6-0.9,2.8-1.3,2.8c-0.3,0-8.4-8.1-17.8-18C3.8,44.3,1.3,41.3,1.3,38.6v-3.1l2.7,4
		c1.6,2.2,8.8,10.3,16.2,17.9C30.7,68.3,33.8,71,34.5,69.8c12.5-21.1,18.8-31,30.2-48.3C75.5,5.3,79,0.8,80.7,0.8
		c1.2,0,1.6,0.3,1,0.8C78.1,4,38.7,69.6,37.6,75z"/>
	<path class="st0" d="M90.3,93.3c1.7-1,1.1-4.4-0.9-5.5c-1.1-0.5-2.9-1-4-1c-1.9,0-2.1,0.6-2,5.2c0.1,2.9,0.3,4.5,0.6,3.5
		c0.2-0.9,0.9-1.7,1.5-1.7c0.6,0,2,0.8,3.1,1.7c1.9,1.7,2,1.7,1.4,0.1C89.7,94.6,89.8,93.6,90.3,93.3z M86.7,92.8
		c-1.9,0-2.4-0.5-2.4-2.5c0-2.8,1.7-3.2,4.5-1.2C91.1,90.8,90,92.8,86.7,92.8z"/>
	<ellipse transform="matrix(0.4483 -0.8939 0.8939 0.4483 3.8293 109.7289)" class="st0" cx="90.8" cy="51.8" rx="8.9" ry="0.4"/>
	<path class="st0" d="M102.1,88.4c-2.8-2-3.8-2-6.6,0c-3,2.1-2.9,5.9,0.4,8.1c2.4,1.5,2.9,1.5,5.3,0.2
		C104.7,94.7,105.2,90.5,102.1,88.4z M95.3,94.3c-1.5-1.8-0.4-5.2,1.8-5.8c2.2-0.5,5.1,1,5.9,2.9C104.3,94.9,97.9,97.4,95.3,94.3z"
		/>
	<path class="st0" d="M72.3,74.6c0-0.7-0.6-0.3-1.4,0.8c-1.3,1.8-2.5,2-10.5,2c-4.9-0.1-9.2-0.4-9.6-0.8c-0.4-0.4,1.5-4.6,4.2-9.5
		c2.8-4.8,11.5-21.1,19.4-36c7.9-15,14.8-27.3,15.3-27.3s0.4,0.6-0.2,1.2C89,5.7,84.2,14.4,79,24.3S65.9,49.2,61.4,57.5
		c-4.4,8.4-8.1,15.7-8.1,16.1c0,1,13.4,2.4,15.4,1.6c3.3-1.2,35.7-63.7,34-65.4c-0.5-0.4-2.6-1.3-4.6-2c-2.1-0.6-3.8-1.6-3.8-2.1
		s0.1-0.9,0.3-0.9c1,0,10.3,3.4,11,3.9c0.4,0.4-6.5,15.2-15.3,32.9s-16,32.6-16,33.2c0,0.5-0.4,1-1,1C72.8,75.8,72.3,75.2,72.3,74.6
		z"/>
	<path class="st0" d="M114.1,88.4c-2.8-2-6.7-2.1-7.4-0.2c-0.3,0.8-0.4,3.1-0.2,5.2c0.2,3.2,0.7,4,2.6,4.2
		C115,98.5,118.7,91.6,114.1,88.4z M111.6,95.6c-3.2,0.3-3.3,0.2-3.3-3.7c0-4.4,0.4-4.7,4.5-3.1c2.1,0.8,2.6,1.6,2.3,3.8
		C114.9,94.8,114.3,95.4,111.6,95.6z"/>
	<path class="st0" d="M110.6,56.3c-2.5,5.5-4.8,11.3-5.3,13c-1.3,5.2-2.2,6.6-3.6,6.1c-0.8-0.3-1.4,0-1.4,0.7c0,0.9-2.4,1.1-8.7,0.9
		c-4.9-0.1-9.8-0.5-11-0.8l-2.3-0.4l2.7-5.5c1.5-3,2.9-5.3,3.1-5.1c0.2,0.2-0.4,1.8-1.2,3.5c-3,5.8-2.6,6.1,7.5,5.8
		c7-0.1,9.4-0.6,10-1.7c3.6-6.9,13.9-28.7,13.9-29.4c0-0.5,1.1-3.2,2.4-6c1.3-2.8,3.1-7.1,4.1-9.6c0.9-2.5,2.4-5.3,3.2-6.2
		c0.9-1,1.3-2.3,1-3.1c-0.6-1.5-12.5-6.2-13.5-5.3c-0.3,0.4-3.9,7.1-7.9,14.9s-7.2,13.5-7.2,12.7c-0.1-0.8,1.1-3.5,2.5-6
		c1.4-2.5,4.8-8.9,7.6-14.3c2.9-5.6,5.5-9.6,6.2-9.3c0.6,0.2,4.1,1.4,7.9,2.7c3.7,1.2,6.7,2.5,6.7,2.9
		C127.3,17.7,116.6,43,110.6,56.3z"/>
	<path class="st0" d="M127.1,91.5c0.2,3.4-0.2,4.5-1.9,5.3c-3.3,1.8-6.9-1.1-6.9-5.5c0-1.9,0.5-3.5,1-3.5c0.6,0,1,1.8,1,4
		c0,3.8,0.2,4,2.9,4c2.8,0,3-0.3,3.4-4.3l0.4-4.2L127.1,91.5z"/>
	<path class="st0" d="M137.3,96.8c-2.4,1.3-5.4,0-7-3c-0.9-1.6-0.6-2.5,1.4-4.5c2.8-2.8,3.4-2.9,5.6-1.4c1.2,0.9,1.2,1-0.3,0.5
		c-3.1-1-5.9,1.2-5.5,4.2c0.3,2.4,0.7,2.7,4.1,2.7C139.9,95.3,140,95.4,137.3,96.8z"/>
	<path class="st0" d="M147.2,85.8c-0.5,0-0.7-0.5-0.4-1c0.3-0.6,0.8-1,1.1-1c0.2,0,0.4,0.4,0.4,1C148.3,85.3,147.8,85.8,147.2,85.8z
		"/>
	<path class="st0" d="M149.1,88.4c-2.9-2.1-4.1-2-6.8,0.2c-5,4.1,1.1,11.3,6.5,7.8C152,94.3,152.1,90.5,149.1,88.4z M146.4,95.3
		c-4.7,0-6.5-2.9-3.3-5.5c3.2-2.7,6.7-1.3,6.7,2.6C149.8,95,149.5,95.3,146.4,95.3z"/>
	<path class="st0" d="M161.3,96.8c0,0.5-1.6,1-3.5,1h-3.5v-11l3.8,0.2c3.6,0.1,3.6,0.1,0.5,0.5c-2.5,0.3-3.3,0.9-3.3,2.4
		c0,1.4,0.7,1.9,2.8,2l2.7,0.2l-2.7,0.4c-3.9,0.6-3.7,3.3,0.2,3.3C160,95.8,161.3,96.2,161.3,96.8z"/>
	<path class="st0" d="M171,94.5c0.6,1.6-2.9,3.3-5.5,2.6c-3.3-0.8-2.6-2,0.8-1.5c3.6,0.5,4.1-1.4,0.6-2.8c-3.4-1.3-4.2-3.1-2.1-4.7
		c2.2-1.5,2.5-1.6,4.5-0.3c1.2,0.8,0.9,1-1.2,1c-3.5,0-3.6,1.5-0.1,3.2C169.4,92.7,170.8,93.8,171,94.5z"/>
	<path class="st0" d="M172.3,67.8c-1.4,0-15.9-11.2-19.5-15c-1.6-1.7-6.1-5.5-10-8.3c-3.8-2.8-8.2-6.2-9.7-7.6
		c-1.6-1.3-2.8-1.9-2.8-1.3c0,0.7-0.4,1.2-1,1.2c-1.6,0-1.2-1.8,1.6-8.1c2.4-5.2,3.8-6.5,5.4-4.9c0.3,0.3,3.4,2.1,7,3.9
		c3.6,1.9,8.4,4.5,10.8,5.8c3,1.8,4.2,2.1,4.2,1.1c0.1-0.8,0.6-0.6,1.5,0.6c0.8,1.1,1.5,1.5,1.5,0.9c0-0.6,0.3-1.8,0.6-2.7
		c0.4-1.1-2.6-3.1-12.5-8c-7.2-3.7-13.6-6.6-14.2-6.6c-0.5,0-2.8,3.7-4.9,8.2c-4.5,9.9-5.7,13.3-4.1,12.4c0.6-0.4,1.1,0,1.1,0.8
		c0,0.9,0.4,1.6,0.9,1.6c2.8,0,27.1,20.6,27.1,23c0,0.9-1.1,2.9-2.5,4.4c-2.7,3-5.2,3.2-20,1.6c-5.6-0.6-9.1-0.6-9.5,0
		s-2.8,0.6-6.5,0c-6.3-1-8.5-0.2-8.5,3c0,2.4,3.6,5.4,5.6,4.6c0.9-0.3,13.5-0.6,28-0.6c20.3-0.1,26.4-0.3,26.2-1.3
		c-0.4-2,1.2-6.7,2.2-6.7c0.6,0,1,0.6,1,1.2c0,0.9,0.4,0.8,1-0.2C173.5,68.9,173.6,67.8,172.3,67.8z M111.3,72.8
		c-0.6,1.1-1.2,2-1.4,2c-0.2,0-0.2-0.9,0.1-2s0.9-2,1.5-2C112,70.8,111.9,71.7,111.3,72.8z M137.9,75.1c-0.5-0.4-0.1-1,1-1.3
		c1-0.4,2.1-0.6,2.4-0.3C142.1,74.2,138.9,75.7,137.9,75.1z M155.8,72.8c-2.8,1.2-3.7,1.2-3,0c0.3-0.6,1.6-1,2.8-0.9
		C157.7,71.9,157.7,72,155.8,72.8z M155.9,70.4c-2.2,0.3-2-1.3,0.4-2.8c1.1-0.7,2.1-2,2.1-2.8c0.1-1.1,0.2-1.1,0.6,0.2
		C159.6,67.3,158,70.1,155.9,70.4z M162.5,74.5c-0.2-0.9-0.8-1.7-1.4-1.7c-0.6,0-0.8-0.9-0.5-2c0.3-1.3,0.1-1.8-0.6-1.3
		c-0.7,0.4-0.8,0-0.4-1.1c0.4-1,0.7-2.5,0.8-3.4c0-1.2,0.3-1,1,0.6c0.5,1.3,1.3,2.1,1.8,1.8c0.5-0.3,1.4,0.1,2,0.8
		c1,1.1,0.8,2.2-0.5,4.8C163.3,75.5,162.8,75.9,162.5,74.5z M166.4,74.5c-0.8,1.5-1,1.5-1.1,0.2c0-0.9,0.3-1.9,0.7-2.2
		C167.2,71.2,167.5,72.6,166.4,74.5z"/>
</g>
</svg>
